<?xml version="1.0" encoding="utf-8"?>
<svg width="1792" height="1792" viewBox="0 0 1792 1792" xmlns="http://www.w3.org/2000/svg"><path d="M532 1108l152 152-52 52h-56v-96h-96v-56zm414-390q14 13-3 30l-291 291q-17 17-30 3-14-13 3-30l291-291q17-17 30-3zm-274 690l544-544-288-288-544 544v288h288zm608-608l92-92q28-28 28-68t-28-68l-152-152q-28-28-68-28t-68 28l-92 92zm384-384v960q0 119-84.5 203.5t-203.5 84.5h-960q-119 0-203.5-84.5t-84.5-203.5v-960q0-119 84.5-203.5t203.5-84.5h960q119 0 203.5 84.5t84.5 203.5z" fill="#fff"/></svg>
