<svg width="98" height="36" viewBox="0 0 98 36" fill="none" xmlns="http://www.w3.org/2000/svg">
<g clip-path="url(#clip0_882_16441)">
<path d="M0 28.429V14.4527H3.18832V16.2234C3.99272 14.7886 5.7445 14.041 7.3223 14.041C9.1602 14.041 10.7672 14.8747 11.5149 16.5111C12.6086 14.6732 14.245 14.041 16.0536 14.041C18.5822 14.041 20.9937 15.6498 20.9937 19.3549V28.429H17.7778V19.8992C17.7778 18.2628 16.9441 17.0278 15.077 17.0278C13.3251 17.0278 12.1763 18.4057 12.1763 20.1283V28.4272H8.90354V19.8992C8.90354 18.2921 8.0957 17.0364 6.20095 17.0364C4.42163 17.0364 3.30029 18.3576 3.30029 20.1369V28.4358L0 28.429Z" fill="black"/>
<path d="M25.0703 28.4289V7.63672H28.4033V28.4289H25.0703Z" fill="black"/>
<path d="M27.0625 36.0388C27.8117 36.2472 28.4853 36.3833 29.915 36.3833C32.5727 36.3833 35.7076 34.8847 36.5327 30.6784L39.9398 13.8134H45.0056L45.624 11.0075H40.5065L41.1955 7.65559C41.7226 5.05291 43.1626 3.73348 45.4742 3.73348C46.0754 3.73348 45.9065 3.78515 46.4422 3.88678L47.1829 1.01367C46.4697 0.800084 45.8307 0.67262 44.439 0.67262C42.9696 0.650527 41.535 1.12042 40.3635 2.00755C39.0665 3.01004 38.2104 4.48276 37.8195 6.38439L36.86 11.0075H32.3298L31.9595 13.8152H36.3002L33.1721 29.4089C32.8276 31.1779 31.8217 33.2931 28.9349 33.2931C28.2803 33.2931 28.518 33.2432 27.9255 33.1467L27.0625 36.0388Z" fill="black"/>
<path d="M48.007 28.3151H44.6758L49.2421 7.33691H52.5734L48.007 28.3151Z" fill="black"/>
<path d="M64.6291 15.3294C61.7217 13.2949 57.7631 13.695 55.3215 16.2699C52.8798 18.8448 52.6905 22.819 54.8764 25.6143L57.0588 24.0124C55.9755 22.6685 55.7555 20.8238 56.4923 19.2628C57.2292 17.7019 58.7933 16.6993 60.5193 16.6815V18.3868L64.6291 15.3294Z" fill="black"/>
<path d="M56.3594 27.0252C59.2668 29.0596 63.2254 28.6596 65.667 26.0847C68.1087 23.5098 68.298 19.5355 66.1121 16.7402L63.9297 18.3421C65.0131 19.686 65.233 21.5308 64.4962 23.0917C63.7594 24.6527 62.1952 25.6553 60.4692 25.673V23.9678L56.3594 27.0252Z" fill="black"/>
<path d="M70.2812 14.4438H73.9208L74.6615 23.9951L79.8445 14.4438L83.2997 14.4938L84.6571 23.9951L89.2234 14.4438L92.5545 14.4938L85.6441 28.4374H82.3128L80.7074 18.4417L75.4022 28.4374H71.9469L70.2812 14.4438Z" fill="black"/>
<path d="M94.5644 14.692H93.875V14.4526H95.5355V14.6972H94.847V16.716H94.5644V14.692Z" fill="black"/>
<path d="M95.9531 14.4526H96.2978L96.7316 15.6584C96.7874 15.8133 96.8387 15.9718 96.8918 16.1303H96.908C96.9611 15.9718 97.0097 15.8133 97.0628 15.6584L97.493 14.4526H97.8377V16.716H97.5695V15.4672C97.5695 15.2691 97.5911 14.997 97.6055 14.7954H97.5911L97.4192 15.3121L96.9917 16.4852H96.8045L96.3716 15.3138L96.1997 14.7972H96.1862C96.2015 14.9987 96.224 15.2708 96.224 15.4689V16.7177H95.9621L95.9531 14.4526Z" fill="black"/>
</g>
<defs>
<clipPath id="clip0_882_16441">
<rect width="98" height="36" fill="white"/>
</clipPath>
</defs>
</svg>
