<svg width="300" height="331" viewBox="0 0 300 331" fill="none" xmlns="http://www.w3.org/2000/svg">
<path d="M283.923 136.449L150.144 213.624L6.88995 131.168L0 134.982V194.844L150.144 281.115L283.923 204.234V235.926L150.144 313.1L6.88995 230.644L0 234.458V244.729L150.144 331L300 244.729V184.867L293.11 181.052L150.144 263.215L16.0766 186.334V154.643L150.144 231.524L300 145.253V86.2713L292.536 81.8697L150.144 163.739L22.9665 90.9663L150.144 17.8998L254.641 78.055L263.828 72.773V65.4371L150.144 0L0 86.2713V95.6613L150.144 181.933L283.923 104.758V136.449Z" fill="#FF3621"/>
</svg>
