<svg width="16" height="16" viewBox="0 0 16 16" fill="none" xmlns="http://www.w3.org/2000/svg">
<path fill-rule="evenodd" clip-rule="evenodd" d="M8.00016 1.33325C4.32016 1.33325 1.3335 4.31992 1.3335 7.99992C1.3335 11.6799 4.32016 14.6666 8.00016 14.6666C11.6802 14.6666 14.6668 11.6799 14.6668 7.99992C14.6668 4.31992 11.6802 1.33325 8.00016 1.33325ZM8.00016 8.66659C7.6335 8.66659 7.3335 8.36659 7.3335 7.99992V5.33325C7.3335 4.96658 7.6335 4.66658 8.00016 4.66658C8.36683 4.66658 8.66683 4.96658 8.66683 5.33325V7.99992C8.66683 8.36659 8.36683 8.66659 8.00016 8.66659ZM7.3335 9.99992V11.3333H8.66683V9.99992H7.3335Z" fill="#CC3352"/>
</svg>
