<svg version="1.1" xmlns="http://www.w3.org/2000/svg" viewBox="0 0 967.27734375 809.67578125" width="967.27734375" height="809.67578125">
  <!-- svg-source:excalidraw -->
  
  <defs>
    <style class="style-fonts">
      @font-face {
        font-family: "Virgil";
        src: url("https://excalidraw.com/Virgil.woff2");
      }
      @font-face {
        font-family: "Cascadia";
        src: url("https://excalidraw.com/Cascadia.woff2");
      }
    </style>
    
  </defs>
  <rect x="0" y="0" width="967.27734375" height="809.67578125" fill="#ffffff"></rect><g stroke-linecap="round" transform="translate(259.76171875 364.5546875) rotate(0 93.328125 53.708984375)"><path d="M26.85 0 M26.85 0 C55.22 -2.67, 80.55 0.58, 159.8 0 M26.85 0 C59.51 0.56, 92.98 0.09, 159.8 0 M159.8 0 C177.11 1.48, 184.92 10.23, 186.66 26.85 M159.8 0 C176.44 0.57, 186.08 6.73, 186.66 26.85 M186.66 26.85 C187.29 45.72, 186.82 60.89, 186.66 80.56 M186.66 26.85 C187.94 44.65, 187.41 62.8, 186.66 80.56 M186.66 80.56 C186.47 99.2, 176.19 106.01, 159.8 107.42 M186.66 80.56 C188.4 98.13, 178.24 105.67, 159.8 107.42 M159.8 107.42 C111.63 107.81, 65.92 107.5, 26.85 107.42 M159.8 107.42 C123.94 108.98, 87.18 108.02, 26.85 107.42 M26.85 107.42 C10.88 108.2, 1.78 99.74, 0 80.56 M26.85 107.42 C8.32 105.4, -0.22 99.21, 0 80.56 M0 80.56 C-0.95 65.68, 0.26 49.93, 0 26.85 M0 80.56 C0.5 58.71, -0.55 38.74, 0 26.85 M0 26.85 C0.72 7.31, 10.27 -0.08, 26.85 0 M0 26.85 C1.6 9.29, 10.16 0.02, 26.85 0" stroke="#1e1e1e" stroke-width="1" fill="none"></path></g><g transform="translate(265.7799377441406 380.763671875) rotate(0 87.30990600585938 37.5)"><text x="87.30990600585938" y="0" font-family="Virgil, Segoe UI Emoji" font-size="20px" fill="#1e1e1e" text-anchor="middle" style="white-space: pre;" direction="ltr" dominant-baseline="text-before-edge">sklearn model</text><text x="87.30990600585938" y="25" font-family="Virgil, Segoe UI Emoji" font-size="20px" fill="#1e1e1e" text-anchor="middle" style="white-space: pre;" direction="ltr" dominant-baseline="text-before-edge"></text><text x="87.30990600585938" y="50" font-family="Virgil, Segoe UI Emoji" font-size="20px" fill="#1e1e1e" text-anchor="middle" style="white-space: pre;" direction="ltr" dominant-baseline="text-before-edge">LogisticRegression</text></g><g stroke-linecap="round" transform="translate(120.515625 507.84375) rotate(0 108.86328125 31.7109375)"><path d="M15.86 0 M15.86 0 C59.57 0.67, 101.52 -0.31, 201.87 0 M15.86 0 C79.42 1.01, 142.85 -0.48, 201.87 0 M201.87 0 C212.01 -0.69, 219.31 6.35, 217.73 15.86 M201.87 0 C211.95 1.58, 219.41 4.26, 217.73 15.86 M217.73 15.86 C216.12 25.94, 216.3 38, 217.73 47.57 M217.73 15.86 C218.74 23.81, 217.59 30.94, 217.73 47.57 M217.73 47.57 C219.68 58.2, 211.3 61.58, 201.87 63.42 M217.73 47.57 C218.95 58.66, 214.47 62.73, 201.87 63.42 M201.87 63.42 C147.53 65.92, 90.51 66.55, 15.86 63.42 M201.87 63.42 C153.1 61.94, 103.31 62.01, 15.86 63.42 M15.86 63.42 C4.02 64.2, -0.68 58.69, 0 47.57 M15.86 63.42 C5.33 62.21, -0.83 59.36, 0 47.57 M0 47.57 C-0.91 40.66, -0.27 30.11, 0 15.86 M0 47.57 C0.33 39.31, -0.45 32.97, 0 15.86 M0 15.86 C-1.15 5.57, 4.27 -1.92, 15.86 0 M0 15.86 C1.04 6.87, 3.12 1.15, 15.86 0" stroke="#2f9e44" stroke-width="2" fill="none"></path></g><g transform="translate(132.3790054321289 527.0546875) rotate(0 96.9999008178711 12.5)"><text x="96.9999008178711" y="0" font-family="Virgil, Segoe UI Emoji" font-size="20px" fill="#2f9e44" text-anchor="middle" style="white-space: pre;" direction="ltr" dominant-baseline="text-before-edge">predict_log_proba()</text></g><g stroke-linecap="round" transform="translate(209.52734375 595.76953125) rotate(0 94.77734375 31.7109375)"><path d="M15.86 0 M15.86 0 C64.32 0.83, 116.63 -0.21, 173.7 0 M15.86 0 C78.06 -1.47, 138.81 -0.68, 173.7 0 M173.7 0 C184.85 -1.19, 188.04 3.43, 189.55 15.86 M173.7 0 C184.4 -1.06, 191.84 3.56, 189.55 15.86 M189.55 15.86 C190.2 22.93, 187.91 34.55, 189.55 47.57 M189.55 15.86 C190.42 28.11, 190.4 39.55, 189.55 47.57 M189.55 47.57 C188.14 56.95, 185.7 62.96, 173.7 63.42 M189.55 47.57 C190.93 58.73, 184.18 63.39, 173.7 63.42 M173.7 63.42 C140.05 63.43, 106.44 63.46, 15.86 63.42 M173.7 63.42 C115.04 61.59, 58.3 61.63, 15.86 63.42 M15.86 63.42 C4.79 63.91, 0.37 59.4, 0 47.57 M15.86 63.42 C4.83 62.25, 0.79 58.42, 0 47.57 M0 47.57 C-2.04 37.17, -1.1 31.12, 0 15.86 M0 47.57 C-0.29 36.28, 0.43 25.02, 0 15.86 M0 15.86 C-1.31 3.36, 5.27 -1.66, 15.86 0 M0 15.86 C-1.54 7.51, 7.1 1.09, 15.86 0" stroke="#2f9e44" stroke-width="2" fill="none"></path></g><g transform="translate(228.74476623535156 614.98046875) rotate(0 75.55992126464844 12.5)"><text x="75.55992126464844" y="0" font-family="Virgil, Segoe UI Emoji" font-size="20px" fill="#2f9e44" text-anchor="middle" style="white-space: pre;" direction="ltr" dominant-baseline="text-before-edge">predict_proba()</text></g><g stroke-linecap="round" transform="translate(292.03515625 683.53515625) rotate(0 94.77734375 31.7109375)"><path d="M4.22 3.67 C4.22 3.67, 4.22 3.67, 4.22 3.67 M4.22 3.67 C4.22 3.67, 4.22 3.67, 4.22 3.67 M4.35 15.71 C7.34 10.66, 10.94 6.56, 16.82 1.37 M4.35 15.71 C8.84 11.03, 12.8 6.54, 16.82 1.37 M4.49 27.75 C10.94 21.71, 17.46 13.16, 27.45 1.34 M4.49 27.75 C11.71 20.17, 17.86 12.69, 27.45 1.34 M4.62 39.79 C13.15 26.04, 27.42 16.02, 38.08 1.3 M4.62 39.79 C16.77 26.03, 28.42 11.1, 38.08 1.3 M2.78 54.1 C14.43 41.21, 23.7 30.23, 48.71 1.27 M2.78 54.1 C14.64 39.92, 27.79 23.7, 48.71 1.27 M6.85 61.61 C24.7 42.8, 42.58 19.54, 59.34 1.23 M6.85 61.61 C19.1 48.8, 29.3 35.05, 59.34 1.23 M13.55 66.1 C25.55 50.36, 37.59 35.88, 69.97 1.2 M13.55 66.1 C35.48 40.24, 56.93 15.12, 69.97 1.2 M24.18 66.07 C33.76 51.69, 45.65 38.73, 80.6 1.16 M24.18 66.07 C37.84 50.08, 53.38 34.3, 80.6 1.16 M34.15 66.79 C55.34 41.75, 75.81 18.43, 90.57 1.88 M34.15 66.79 C46.84 51.28, 61.78 35.1, 90.57 1.88 M44.78 66.75 C54.95 51.08, 67.5 38.95, 101.2 1.85 M44.78 66.75 C62.88 46.45, 78.91 26.15, 101.2 1.85 M55.41 66.72 C76.83 43.17, 101.32 15.61, 111.83 1.81 M55.41 66.72 C74.64 45.25, 92.35 24.06, 111.83 1.81 M66.04 66.68 C79.45 48.81, 94.05 36.53, 122.46 1.78 M66.04 66.68 C81.44 46.96, 98.59 27.92, 122.46 1.78 M76.67 66.65 C92.93 46.85, 109.7 29.41, 133.09 1.75 M76.67 66.65 C95.33 47.26, 112.35 25.65, 133.09 1.75 M87.3 66.62 C110.54 40.35, 129.93 18.79, 143.72 1.71 M87.3 66.62 C108.51 40.45, 131.08 16.03, 143.72 1.71 M97.93 66.58 C116.82 42.06, 141.52 17.44, 154.35 1.68 M97.93 66.58 C113.94 48.71, 129.59 30.46, 154.35 1.68 M108.56 66.55 C127.89 41.92, 148.51 21.12, 164.98 1.64 M108.56 66.55 C119.9 53.13, 132.08 39, 164.98 1.64 M118.54 67.27 C138.42 45.07, 158.03 25.38, 174.96 2.36 M118.54 67.27 C138.78 46.84, 156.42 23.91, 174.96 2.36 M129.17 67.23 C143.59 48.54, 158.45 30.99, 184.28 3.84 M129.17 67.23 C143.51 50.44, 157.97 34.37, 184.28 3.84 M139.8 67.2 C161.73 45.1, 178.49 19.88, 190.97 8.33 M139.8 67.2 C159.51 44.98, 178.27 21.35, 190.97 8.33 M150.43 67.16 C163.82 50.12, 175.15 34.74, 194.38 16.6 M150.43 67.16 C163.3 53.04, 174.06 39, 194.38 16.6 M161.06 67.13 C173.63 53.26, 187.19 38.7, 193.86 29.39 M161.06 67.13 C172.1 53.7, 182.43 42.03, 193.86 29.39 M174.31 64.08 C181.77 55.02, 188.81 46.76, 193.99 41.43 M174.31 64.08 C179.73 56.61, 186.31 51.86, 193.99 41.43" stroke="#b2f2bb" stroke-width="1" fill="none"></path><path d="M15.86 0 M15.86 0 C61.06 -1.79, 105.84 -1.39, 173.7 0 M15.86 0 C66.49 -0.44, 117.51 0.04, 173.7 0 M173.7 0 C184.14 0.57, 190.69 6.75, 189.55 15.86 M173.7 0 C182.22 -0.16, 189.19 6.47, 189.55 15.86 M189.55 15.86 C190.07 24.12, 191.4 30.38, 189.55 47.57 M189.55 15.86 C189.15 27.52, 189.5 38.1, 189.55 47.57 M189.55 47.57 C188 59.77, 183.7 62.48, 173.7 63.42 M189.55 47.57 C188.33 60.35, 182.47 62.81, 173.7 63.42 M173.7 63.42 C124.79 64.36, 75.71 62.16, 15.86 63.42 M173.7 63.42 C134.7 63.01, 96.45 63.6, 15.86 63.42 M15.86 63.42 C4.16 62.55, -1.01 56.48, 0 47.57 M15.86 63.42 C7.27 65.55, 1.57 60.34, 0 47.57 M0 47.57 C-1.76 41.04, 1.48 33.59, 0 15.86 M0 47.57 C-0.05 37.29, -0.77 28.1, 0 15.86 M0 15.86 C0.15 5.3, 5.8 0.68, 15.86 0 M0 15.86 C-1.97 4.22, 3.57 -0.52, 15.86 0" stroke="#2f9e44" stroke-width="2" fill="none"></path></g><g transform="translate(346.0325469970703 702.74609375) rotate(0 40.77995300292969 12.5)"><text x="40.77995300292969" y="0" font-family="Virgil, Segoe UI Emoji" font-size="20px" fill="#2f9e44" text-anchor="middle" style="white-space: pre;" direction="ltr" dominant-baseline="text-before-edge">predict()</text></g><g stroke-linecap="round"><g transform="translate(329.4792228906306 475.84765625) rotate(0 -17.818211445803 11.101233100146032)"><path d="M-0.11 -0.92 C-6.04 2.82, -29.82 18.09, -35.52 22.04 M-1.63 1.21 C-7.2 5.11, -27.77 19.32, -33.33 23.13" stroke="#1e1e1e" stroke-width="1" fill="none"></path></g><g transform="translate(329.4792228906306 475.84765625) rotate(0 -17.818211445803 11.101233100146032)"><path d="M-22.84 4.61 C-26.47 11.74, -28.9 16.03, -33.59 21.2 M-21.14 6.62 C-26.17 12.72, -28.64 17.77, -32.82 22.64" stroke="#1e1e1e" stroke-width="1" fill="none"></path></g><g transform="translate(329.4792228906306 475.84765625) rotate(0 -17.818211445803 11.101233100146032)"><path d="M-14.81 16.29 C-20.85 19.84, -25.74 20.57, -33.59 21.2 M-13.1 18.3 C-20.92 20.4, -26.14 21.45, -32.82 22.64" stroke="#1e1e1e" stroke-width="1" fill="none"></path></g></g><mask></mask><g stroke-linecap="round"><g transform="translate(357.734375 480.23046875) rotate(0 -9.38666624589058 54.63926925204697)"><path d="M0.64 0.01 C0.59 13.6, 2.59 62.71, -0.96 80.85 C-4.5 98.99, -17.17 104.18, -20.61 108.85 M-0.48 -1.03 C-0.08 12.27, 4.89 60.5, 1.4 79.06 C-2.09 97.62, -17.53 105.13, -21.41 110.31" stroke="#1e1e1e" stroke-width="1" fill="none"></path></g><g transform="translate(357.734375 480.23046875) rotate(0 -9.38666624589058 54.63926925204697)"><path d="M-13.42 93.83 C-14.56 98.57, -17.06 100.97, -20.96 108.8 M-12.91 94.53 C-14.62 97.81, -17.1 101.76, -22.17 109.45" stroke="#1e1e1e" stroke-width="1" fill="none"></path></g><g transform="translate(357.734375 480.23046875) rotate(0 -9.38666624589058 54.63926925204697)"><path d="M-5.32 102.59 C-8.41 105.21, -12.9 105.46, -20.96 108.8 M-4.82 103.28 C-8.56 104.31, -13.08 106.04, -22.17 109.45" stroke="#1e1e1e" stroke-width="1" fill="none"></path></g></g><mask></mask><g stroke-linecap="round"><g transform="translate(391.63671875 484.15625) rotate(0 23.477590548490923 95.54600513443359)"><path d="M-0.07 -0.68 C7.26 14.67, 37.69 64.83, 44.83 91.74 C51.97 118.65, 47.32 144.28, 42.78 160.77 C38.25 177.25, 21.6 185.68, 17.62 190.64 M-1.56 1.58 C5.51 17.15, 36.4 66.48, 43.73 93.18 C51.06 119.88, 46.82 145.34, 42.44 161.78 C38.06 178.21, 21.58 186.92, 17.45 191.77" stroke="#1e1e1e" stroke-width="1" fill="none"></path></g><g transform="translate(391.63671875 484.15625) rotate(0 23.477590548490923 95.54600513443359)"><path d="M25.55 174.94 C22.87 182.74, 18.81 186.37, 17.54 192.51 M27.45 175.12 C24.3 180.94, 20.65 185.36, 18.2 192.58" stroke="#1e1e1e" stroke-width="1" fill="none"></path></g><g transform="translate(391.63671875 484.15625) rotate(0 23.477590548490923 95.54600513443359)"><path d="M33.94 184.66 C28.16 188.84, 20.97 188.84, 17.54 192.51 M35.84 184.84 C30.31 187.74, 24.19 189.3, 18.2 192.58" stroke="#1e1e1e" stroke-width="1" fill="none"></path></g></g><mask></mask><g stroke-linecap="round" transform="translate(365.6328125 263.10546875) rotate(0 75.962890625 29.4453125)"><path d="M3.92 3.41 C3.92 3.41, 3.92 3.41, 3.92 3.41 M3.92 3.41 C3.92 3.41, 3.92 3.41, 3.92 3.41 M4.71 14.69 C7.3 12.94, 11.4 8.92, 16.52 1.11 M4.71 14.69 C7.39 10.08, 12.16 6.6, 16.52 1.11 M4.19 27.49 C13.16 17.69, 21.91 6.95, 27.15 1.07 M4.19 27.49 C11.88 19.73, 19.55 10.75, 27.15 1.07 M4.32 39.53 C14.16 29.29, 25.4 15.84, 37.12 1.79 M4.32 39.53 C11.64 29.92, 20.74 20.2, 37.12 1.79 M4.45 51.57 C18.45 38.78, 30.45 22.82, 47.75 1.76 M4.45 51.57 C18.8 36.2, 31.66 19.29, 47.75 1.76 M9.18 58.33 C21.4 44.26, 30.54 32.54, 58.38 1.72 M9.18 58.33 C25.57 39.65, 41.94 21.07, 58.38 1.72 M19.81 58.29 C31.78 42.04, 44.34 29.84, 69.01 1.69 M19.81 58.29 C33.21 43.73, 43.55 29.42, 69.01 1.69 M29.78 59.01 C49.22 39.42, 63.45 15.97, 79.64 1.66 M29.78 59.01 C45.41 42.04, 59.42 23.9, 79.64 1.66 M40.41 58.98 C53.18 40.33, 67.73 25.63, 90.27 1.62 M40.41 58.98 C59.57 37.54, 78.28 16.55, 90.27 1.62 M51.04 58.94 C66.49 42.5, 78.69 24.33, 100.25 2.34 M51.04 58.94 C68.51 39.68, 84.94 19.99, 100.25 2.34 M61.67 58.91 C75.44 39.77, 92.03 23.88, 110.88 2.31 M61.67 58.91 C75.03 42.94, 88.32 28.79, 110.88 2.31 M72.3 58.88 C85.59 44.17, 97.98 30.89, 121.51 2.27 M72.3 58.88 C84.1 45.6, 96.37 30.52, 121.51 2.27 M82.93 58.84 C97.72 41.87, 109.96 26.72, 132.14 2.24 M82.93 58.84 C96.81 42.39, 112.4 25.28, 132.14 2.24 M93.56 58.81 C105.27 45.78, 120.02 30.79, 144.08 0.69 M93.56 58.81 C105 46.87, 113.96 34.55, 144.08 0.69 M103.54 59.53 C122.33 38.02, 137.93 15.61, 150.12 5.94 M103.54 59.53 C121.5 40, 139.21 18.07, 150.12 5.94 M114.17 59.49 C126.35 44.7, 143.24 25.75, 154.19 13.46 M114.17 59.49 C125.28 48.49, 134.86 35.65, 154.19 13.46 M124.8 59.46 C133.26 48.25, 141.79 37.56, 153.66 26.25 M124.8 59.46 C131.48 52.42, 136.53 45.91, 153.66 26.25 M135.43 59.42 C140.91 52.83, 148.49 46.02, 153.8 38.29 M135.43 59.42 C138.58 53.93, 143.98 50.03, 153.8 38.29" stroke="#a5d8ff" stroke-width="1" fill="none"></path><path d="M14.72 0 M14.72 0 C42.86 -1.26, 68.34 -0.44, 137.2 0 M14.72 0 C43.49 1.51, 69.99 1.8, 137.2 0 M137.2 0 C148.08 1.51, 153.01 4.37, 151.93 14.72 M137.2 0 C147.24 0.93, 151.25 5.37, 151.93 14.72 M151.93 14.72 C150.19 25.6, 152.56 35.38, 151.93 44.17 M151.93 14.72 C151.05 20.71, 152.26 27.82, 151.93 44.17 M151.93 44.17 C153.2 52.74, 147.72 59.53, 137.2 58.89 M151.93 44.17 C150.48 52.03, 148.9 56.63, 137.2 58.89 M137.2 58.89 C111.66 59.71, 84.64 59.44, 14.72 58.89 M137.2 58.89 C91.95 58.18, 47.11 58.39, 14.72 58.89 M14.72 58.89 C5.91 57.73, 1.29 55.35, 0 44.17 M14.72 58.89 C5.34 58.46, 0.89 55.47, 0 44.17 M0 44.17 C1.95 38.04, -0.9 30.58, 0 14.72 M0 44.17 C-0.74 33.82, -0.15 25.14, 0 14.72 M0 14.72 C1.59 6.31, 6.74 1.07, 14.72 0 M0 14.72 C1.61 4.1, 5.08 1.24, 14.72 0" stroke="#1971c2" stroke-width="2" fill="none"></path></g><g transform="translate(416.48573303222656 280.05078125) rotate(0 25.109970092773438 12.5)"><text x="25.109970092773438" y="0" font-family="Virgil, Segoe UI Emoji" font-size="20px" fill="#1971c2" text-anchor="middle" style="white-space: pre;" direction="ltr" dominant-baseline="text-before-edge">pickle</text></g><g stroke-linecap="round" transform="translate(286.236328125 179.609375) rotate(0 75.962890625 29.4453125)"><path d="M3.92 3.41 C3.92 3.41, 3.92 3.41, 3.92 3.41 M3.92 3.41 C3.92 3.41, 3.92 3.41, 3.92 3.41 M4.71 14.69 C5.67 12, 11.88 9.53, 16.52 1.11 M4.71 14.69 C8.09 9.12, 13.87 4.3, 16.52 1.11 M4.19 27.49 C13.29 15.78, 22.06 8.24, 27.15 1.07 M4.19 27.49 C13.19 17.23, 20.48 7.82, 27.15 1.07 M4.32 39.53 C12.56 28.56, 20.4 20.75, 37.12 1.79 M4.32 39.53 C16.04 25.19, 28.32 10.58, 37.12 1.79 M4.45 51.57 C15.37 38.18, 30.11 24.69, 47.75 1.76 M4.45 51.57 C16.15 39.05, 26.65 24.42, 47.75 1.76 M9.18 58.33 C29.72 36.58, 46.08 16.77, 58.38 1.72 M9.18 58.33 C26.13 38.1, 43.95 17.03, 58.38 1.72 M19.81 58.29 C28.3 47.8, 40.5 36.49, 69.01 1.69 M19.81 58.29 C37.79 37.91, 55.01 18.75, 69.01 1.69 M29.78 59.01 C48.93 37.94, 67.23 14.16, 79.64 1.66 M29.78 59.01 C39.06 48.21, 49.64 36.51, 79.64 1.66 M40.41 58.98 C50.82 43.47, 65.59 29.55, 90.27 1.62 M40.41 58.98 C50.91 46.5, 60.82 34.27, 90.27 1.62 M51.04 58.94 C69.62 36.74, 88.84 16.21, 100.25 2.34 M51.04 58.94 C69.27 39, 85.62 19.4, 100.25 2.34 M61.67 58.91 C79.95 40.2, 98.81 16.7, 110.88 2.31 M61.67 58.91 C77.4 39.67, 92.97 21.93, 110.88 2.31 M72.3 58.88 C93.12 37.24, 112.12 13.11, 121.51 2.27 M72.3 58.88 C86.83 40.72, 101.64 24.7, 121.51 2.27 M82.93 58.84 C98.17 40.4, 115.69 23.39, 132.14 2.24 M82.93 58.84 C102.8 36.05, 121.96 14.4, 132.14 2.24 M93.56 58.81 C109.4 40.57, 126.16 22.11, 144.08 0.69 M93.56 58.81 C110.77 38.44, 127.29 17.77, 144.08 0.69 M103.54 59.53 C117.75 43.2, 135.91 22.23, 150.12 5.94 M103.54 59.53 C114.48 47.68, 125.9 35.38, 150.12 5.94 M114.17 59.49 C126.03 45.83, 137.79 28.63, 154.19 13.46 M114.17 59.49 C130.41 41.24, 145.93 23.78, 154.19 13.46 M124.8 59.46 C134.07 48.32, 144.21 34.67, 153.66 26.25 M124.8 59.46 C133.64 49.95, 139.44 41.09, 153.66 26.25 M135.43 59.42 C141.4 50, 150.92 42.72, 153.8 38.29 M135.43 59.42 C140.88 52.69, 148.91 45.55, 153.8 38.29" stroke="#a5d8ff" stroke-width="1" fill="none"></path><path d="M14.72 0 M14.72 0 C38.33 -1.38, 65.47 1.39, 137.2 0 M14.72 0 C43.13 1.4, 71.21 0.43, 137.2 0 M137.2 0 C145.28 -1.75, 153.55 6.35, 151.93 14.72 M137.2 0 C147.93 1.43, 152.41 6.1, 151.93 14.72 M151.93 14.72 C151.64 25.1, 149.97 33.25, 151.93 44.17 M151.93 14.72 C152.29 22.95, 152.59 32.53, 151.93 44.17 M151.93 44.17 C151.13 52.55, 145.37 57.01, 137.2 58.89 M151.93 44.17 C150.74 54.01, 147.75 57.21, 137.2 58.89 M137.2 58.89 C99.78 59.51, 66.28 58.63, 14.72 58.89 M137.2 58.89 C109.7 58.38, 83.45 56.89, 14.72 58.89 M14.72 58.89 C5.52 59.2, -1.3 54.66, 0 44.17 M14.72 58.89 C7.17 56.97, -1.28 53.41, 0 44.17 M0 44.17 C0.88 38.75, 0.11 31.78, 0 14.72 M0 44.17 C-0.23 31.92, 0.7 21.66, 0 14.72 M0 14.72 C-1.71 3.48, 6.63 -1.98, 14.72 0 M0 14.72 C-0.64 5.59, 5.73 -0.5, 14.72 0" stroke="#1971c2" stroke-width="2" fill="none"></path></g><g transform="translate(312.5292739868164 196.5546875) rotate(0 49.669944763183594 12.5)"><text x="49.669944763183594" y="0" font-family="Virgil, Segoe UI Emoji" font-size="20px" fill="#1971c2" text-anchor="middle" style="white-space: pre;" direction="ltr" dominant-baseline="text-before-edge">cloudpickle</text></g><g stroke-linecap="round" transform="translate(220.201171875 100.7578125) rotate(0 75.962890625 29.4453125)"><path d="M14.72 0 M14.72 0 C61.28 0.28, 103.85 2.18, 137.2 0 M14.72 0 C45.05 -0.23, 77.64 1.08, 137.2 0 M137.2 0 C147.48 0.27, 151.24 3.7, 151.93 14.72 M137.2 0 C146.46 -2.03, 150.74 3.91, 151.93 14.72 M151.93 14.72 C150.43 23.15, 151.11 35.54, 151.93 44.17 M151.93 14.72 C151.5 21.11, 152.88 29.26, 151.93 44.17 M151.93 44.17 C151.9 53.07, 145.84 60.51, 137.2 58.89 M151.93 44.17 C153.46 54.98, 148.48 59.08, 137.2 58.89 M137.2 58.89 C106.04 56.98, 76.44 56.52, 14.72 58.89 M137.2 58.89 C92.17 58.05, 48.81 59.07, 14.72 58.89 M14.72 58.89 C5.15 60.18, -0.36 53.5, 0 44.17 M14.72 58.89 C3.25 57.67, 1.9 53.57, 0 44.17 M0 44.17 C0.69 34.88, -1.64 27.69, 0 14.72 M0 44.17 C-0.39 33.37, 0.07 23.6, 0 14.72 M0 14.72 C0.83 5.93, 5.51 -1.22, 14.72 0 M0 14.72 C1.1 2.84, 3.2 0.09, 14.72 0" stroke="#1971c2" stroke-width="2" fill="none"></path></g><g transform="translate(272.3640899658203 117.703125) rotate(0 23.799972534179688 12.5)"><text x="23.799972534179688" y="0" font-family="Virgil, Segoe UI Emoji" font-size="20px" fill="#1971c2" text-anchor="middle" style="white-space: pre;" direction="ltr" dominant-baseline="text-before-edge">joblib</text></g><g stroke-linecap="round" transform="translate(331.591796875 10) rotate(0 75.962890625 30)"><path d="M15 0 M15 0 C56.27 -1.47, 97.67 -1.67, 136.93 0 M15 0 C50.93 0.23, 89.01 -0.81, 136.93 0 M136.93 0 C145.97 -2, 151.17 4.97, 151.93 15 M136.93 0 C146.47 -1.89, 152.37 7.12, 151.93 15 M151.93 15 C150.07 25.19, 152.33 36.38, 151.93 45 M151.93 15 C151.49 23.92, 151.57 32.07, 151.93 45 M151.93 45 C150.34 54.98, 148.91 61.32, 136.93 60 M151.93 45 C150.59 55.37, 148.9 60, 136.93 60 M136.93 60 C107.47 58.28, 78.36 57.94, 15 60 M136.93 60 C95.19 58.67, 53.53 59.44, 15 60 M15 60 C6.37 61.07, 1.38 54.98, 0 45 M15 60 C6.17 58.65, 1.7 52.73, 0 45 M0 45 C0.5 33.25, -1.58 21.34, 0 15 M0 45 C0.55 37.17, -0.55 30.21, 0 15 M0 15 C1.96 4.38, 4.77 -0.18, 15 0 M0 15 C-2.15 4.07, 5.71 0.41, 15 0" stroke="#1971c2" stroke-width="2" fill="none"></path></g><g transform="translate(348.23474884033203 15) rotate(0 59.31993865966797 25)"><text x="59.31993865966797" y="0" font-family="Virgil, Segoe UI Emoji" font-size="20px" fill="#1971c2" text-anchor="middle" style="white-space: pre;" direction="ltr" dominant-baseline="text-before-edge">custom </text><text x="59.31993865966797" y="25" font-family="Virgil, Segoe UI Emoji" font-size="20px" fill="#1971c2" text-anchor="middle" style="white-space: pre;" direction="ltr" dominant-baseline="text-before-edge">serialization</text></g><g stroke-linecap="round"><g transform="translate(372.5 355.3203125) rotate(0 22.48465290874242 -15.182618765160441)"><path d="M0.32 -0.21 C5.16 -3.56, 20.77 -14.21, 28.37 -19.2 C35.98 -24.19, 42.89 -28.21, 45.95 -30.15 M-0.98 -1.37 C3.78 -4.66, 19.79 -13.57, 27.52 -18.13 C35.25 -22.69, 42.68 -26.76, 45.41 -28.75" stroke="#1971c2" stroke-width="2" fill="none"></path></g><g transform="translate(372.5 355.3203125) rotate(0 22.48465290874242 -15.182618765160441)"><path d="M38.82 -20.22 C39.72 -22.04, 42.2 -23.43, 44.93 -29.21 M38.94 -20.02 C40.8 -21.88, 42.09 -23.82, 45.27 -28.26" stroke="#1971c2" stroke-width="2" fill="none"></path></g><g transform="translate(372.5 355.3203125) rotate(0 22.48465290874242 -15.182618765160441)"><path d="M34.94 -26.29 C36.82 -26.65, 40.25 -26.57, 44.93 -29.21 M35.05 -26.09 C37.87 -26.55, 40.05 -27.09, 45.27 -28.26" stroke="#1971c2" stroke-width="2" fill="none"></path></g></g><mask></mask><g stroke-linecap="round"><g transform="translate(356.2109375 355.4921875) rotate(0 -7.429684153110998 -54.69304854087534)"><path d="M0.53 0.87 C-1.96 -12.7, -14.09 -62.12, -14.92 -80.64 C-15.74 -99.17, -6.15 -105.62, -4.44 -110.26 M-0.65 0.29 C-3.23 -13.7, -15.17 -64.07, -15.38 -82.36 C-15.6 -100.65, -3.7 -104.76, -1.97 -109.47" stroke="#1971c2" stroke-width="2" fill="none"></path></g><g transform="translate(356.2109375 355.4921875) rotate(0 -7.429684153110998 -54.69304854087534)"><path d="M-5.97 -94 C-4.64 -100.51, -5.34 -105.12, -0.95 -110.17 M-6.73 -95.49 C-4.54 -100.3, -3.11 -106.15, -1.92 -110.11" stroke="#1971c2" stroke-width="2" fill="none"></path></g><g transform="translate(356.2109375 355.4921875) rotate(0 -7.429684153110998 -54.69304854087534)"><path d="M-13.97 -100.63 C-10.18 -105.17, -8.46 -107.78, -0.95 -110.17 M-14.74 -102.12 C-9.35 -104.32, -4.79 -107.58, -1.92 -110.11" stroke="#1971c2" stroke-width="2" fill="none"></path></g></g><mask></mask><g stroke-linecap="round"><g transform="translate(344.93359375 351.99609375) rotate(0 -58.7033732848127 -88.95891436114908)"><path d="M1.17 -0.72 C-17.61 -23.13, -96.73 -105.87, -113.42 -135.65 C-130.11 -165.44, -101.12 -172.08, -98.97 -179.44 M0.32 1.52 C-18.01 -20.59, -94.55 -104.16, -111.12 -134.14 C-127.7 -164.11, -100.93 -170.82, -99.16 -178.32" stroke="#1971c2" stroke-width="2" fill="none"></path></g><g transform="translate(344.93359375 351.99609375) rotate(0 -58.7033732848127 -88.95891436114908)"><path d="M-108.87 -158.7 C-105.5 -160.6, -104.03 -168.19, -100.41 -177.31 M-107.5 -157.52 C-105.35 -163.38, -103.64 -166.61, -98.36 -178.88" stroke="#1971c2" stroke-width="2" fill="none"></path></g><g transform="translate(344.93359375 351.99609375) rotate(0 -58.7033732848127 -88.95891436114908)"><path d="M-120.34 -169.07 C-114.34 -168.62, -110.13 -173.73, -100.41 -177.31 M-118.97 -167.9 C-114 -171.33, -109.53 -172.05, -98.36 -178.88" stroke="#1971c2" stroke-width="2" fill="none"></path></g></g><mask></mask><g stroke-linecap="round"><g transform="translate(329.9140625 351.6328125) rotate(0 -80.00438649556676 -145.83593021319822)"><path d="M-0.6 -0.79 C-26.1 -27.75, -132.82 -118.8, -153.5 -160.69 C-174.19 -202.58, -144.28 -230.61, -124.73 -252.13 C-105.18 -273.64, -55.88 -283.22, -36.21 -289.78 C-16.54 -296.34, -11.65 -291, -6.72 -291.47 M1.28 1.4 C-24.27 -24.86, -132.95 -117.18, -154.07 -159.29 C-175.19 -201.4, -145.17 -229.69, -125.44 -251.27 C-105.71 -272.84, -55.75 -282.16, -35.69 -288.74 C-15.64 -295.32, -10.11 -289.88, -5.13 -290.74" stroke="#1971c2" stroke-width="2" fill="none"></path></g><g transform="translate(329.9140625 351.6328125) rotate(0 -80.00438649556676 -145.83593021319822)"><path d="M-21.23 -285.74 C-16.69 -287.52, -13.59 -288.04, -5.28 -292.21 M-20.85 -286.01 C-14.93 -287.85, -9.67 -289.79, -5.09 -291.18" stroke="#1971c2" stroke-width="2" fill="none"></path></g><g transform="translate(329.9140625 351.6328125) rotate(0 -80.00438649556676 -145.83593021319822)"><path d="M-20.32 -296.38 C-15.92 -295.41, -13.05 -293.19, -5.28 -292.21 M-19.93 -296.65 C-14.44 -294.74, -9.5 -292.92, -5.09 -291.18" stroke="#1971c2" stroke-width="2" fill="none"></path></g></g><mask></mask><g stroke-linecap="round" transform="translate(663.5390625 258.23828125) rotate(0 146.869140625 175.095703125)"><path d="M32 0 M32 0 C96.03 -1.8, 157.9 0.51, 261.74 0 M32 0 C115.42 0.71, 199.1 1.94, 261.74 0 M261.74 0 C281.49 1.45, 295.07 10.66, 293.74 32 M261.74 0 C284.81 0.64, 295.69 9.11, 293.74 32 M293.74 32 C294.56 108, 296.23 181.87, 293.74 318.19 M293.74 32 C293.31 134.68, 293.14 237.15, 293.74 318.19 M293.74 318.19 C294.91 337.92, 282.9 350.15, 261.74 350.19 M293.74 318.19 C292.42 337.77, 283.01 349.23, 261.74 350.19 M261.74 350.19 C186.29 351.3, 110.86 349.92, 32 350.19 M261.74 350.19 C172.99 352.19, 83.04 351.59, 32 350.19 M32 350.19 C10.98 350.12, -0.31 340.61, 0 318.19 M32 350.19 C8.88 348.41, 0.34 340.53, 0 318.19 M0 318.19 C0.82 231.14, 1.81 146.31, 0 32 M0 318.19 C-0.4 242.42, -1.15 165.47, 0 32 M0 32 C-1.31 12.01, 11.84 -1.32, 32 0 M0 32 C1.86 9.65, 9.34 -1.08, 32 0" stroke="#6741d9" stroke-width="2" fill="none"></path></g><g stroke-linecap="round" transform="translate(714.59765625 525.72265625) rotate(0 98.939453125 24.609375)"><path d="M3.28 2.85 C3.28 2.85, 3.28 2.85, 3.28 2.85 M3.28 2.85 C3.28 2.85, 3.28 2.85, 3.28 2.85 M3.41 14.89 C7.5 11.35, 12.82 4.11, 14.56 2.06 M3.41 14.89 C6.63 11.23, 11.02 6.69, 14.56 2.06 M3.54 26.93 C12.99 16.81, 21.52 6.94, 25.19 2.02 M3.54 26.93 C9.91 20.12, 15.58 12.56, 25.19 2.02 M1.05 41.99 C9.83 31.03, 18.89 22.33, 35.82 1.99 M1.05 41.99 C13.29 27.62, 26.36 12.15, 35.82 1.99 M5.78 48.75 C19.4 31.63, 33.71 15, 46.45 1.95 M5.78 48.75 C17.33 36.08, 28.13 23, 46.45 1.95 M13.13 52.49 C22.91 41.76, 31.78 31.46, 57.08 1.92 M13.13 52.49 C28.49 35.28, 45.7 15.51, 57.08 1.92 M23.76 52.45 C35.68 39.32, 44.26 29.41, 67.71 1.89 M23.76 52.45 C33.18 40.69, 43.67 30.17, 67.71 1.89 M34.39 52.42 C43.79 41.84, 57.41 26.55, 78.34 1.85 M34.39 52.42 C45.68 39.69, 56.22 27.96, 78.34 1.85 M45.02 52.38 C57.58 38.58, 72.18 21.33, 88.97 1.82 M45.02 52.38 C54.51 42.46, 63.93 31.83, 88.97 1.82 M55.65 52.35 C71.76 33.92, 89.95 12.99, 99.6 1.78 M55.65 52.35 C70.67 35.86, 85.48 18.76, 99.6 1.78 M66.28 52.31 C84.14 32.62, 101.87 11.7, 110.23 1.75 M66.28 52.31 C77.21 40.06, 88.35 25.52, 110.23 1.75 M76.91 52.28 C88.27 37.29, 99.43 26.01, 120.21 2.47 M76.91 52.28 C94.27 31.61, 109.8 12.96, 120.21 2.47 M87.54 52.24 C96.8 42.21, 105.87 30.47, 130.84 2.43 M87.54 52.24 C102.28 33.61, 117.87 16.52, 130.84 2.43 M98.17 52.21 C112.34 37.64, 122.36 21.55, 141.47 2.4 M98.17 52.21 C114.6 32.65, 132.59 13.9, 141.47 2.4 M108.8 52.18 C117.94 44.07, 124.63 31.4, 152.1 2.36 M108.8 52.18 C121.44 37.68, 134.18 23.73, 152.1 2.36 M119.43 52.14 C130.93 40.39, 137.99 28.42, 162.73 2.33 M119.43 52.14 C130.94 39.19, 143.45 24.72, 162.73 2.33 M130.06 52.11 C142.3 35.53, 159.91 19.52, 173.36 2.3 M130.06 52.11 C143.84 35.11, 157.41 20.06, 173.36 2.3 M140.03 52.83 C154.79 34.39, 173.1 15.69, 183.99 2.26 M140.03 52.83 C149.63 41.63, 160.28 29.79, 183.99 2.26 M150.66 52.79 C160.56 39.32, 172.12 28.13, 192.65 4.49 M150.66 52.79 C165.14 34.38, 180.57 18.21, 192.65 4.49 M161.29 52.76 C171.3 39.48, 183.69 28.31, 199.34 8.98 M161.29 52.76 C170.31 40.79, 179.47 30.56, 199.34 8.98 M171.92 52.72 C182.88 39.3, 194.31 26.84, 199.48 21.02 M171.92 52.72 C177.52 45.1, 183.34 38.73, 199.48 21.02 M182.55 52.69 C189.31 48.48, 194.66 39.02, 199.61 33.07 M182.55 52.69 C188.64 45.14, 194.64 38.91, 199.61 33.07" stroke="#d0bfff" stroke-width="1" fill="none"></path><path d="M12.3 0 M12.3 0 C79.06 2.13, 149.62 1.26, 185.57 0 M12.3 0 C64.94 0.34, 117.51 0.5, 185.57 0 M185.57 0 C195.08 1.72, 198.99 4.8, 197.88 12.3 M185.57 0 C193.14 1.49, 199.09 4.33, 197.88 12.3 M197.88 12.3 C196.56 21.92, 199.59 31.67, 197.88 36.91 M197.88 12.3 C197.73 17.61, 197.87 24.92, 197.88 36.91 M197.88 36.91 C199.21 43.75, 191.78 47.95, 185.57 49.22 M197.88 36.91 C196.78 44.87, 195.56 46.92, 185.57 49.22 M185.57 49.22 C136.83 47.56, 90.11 50.63, 12.3 49.22 M185.57 49.22 C146.57 48.42, 105.8 48.61, 12.3 49.22 M12.3 49.22 C3.9 49.91, -1.63 43.51, 0 36.91 M12.3 49.22 C4.52 49.76, 1.3 44.8, 0 36.91 M0 36.91 C-2.18 28.97, -1.77 19.94, 0 12.3 M0 36.91 C-0.04 28.71, 0.17 22.35, 0 12.3 M0 12.3 C1.3 5.61, 4.56 -1.25, 12.3 0 M0 12.3 C-1.61 5.89, 5.55 -1.86, 12.3 0" stroke="#6741d9" stroke-width="2" fill="none"></path></g><g transform="translate(772.7571563720703 537.83203125) rotate(0 40.77995300292969 12.5)"><text x="40.77995300292969" y="0" font-family="Virgil, Segoe UI Emoji" font-size="20px" fill="#6741d9" text-anchor="middle" style="white-space: pre;" direction="ltr" dominant-baseline="text-before-edge">predict()</text></g><g transform="translate(707.84375 275.08984375) rotate(0 106.0399169921875 12.5)"><text x="0" y="0" font-family="Virgil, Segoe UI Emoji" font-size="20px" fill="#6741d9" text-anchor="start" style="white-space: pre;" direction="ltr" dominant-baseline="text-before-edge">MLflow sklearn flavor</text></g><g stroke-linecap="round"><g transform="translate(494.125 712.34765625) rotate(0 107.16836034007372 -78.71784028820696)"><path d="M0.26 -0.19 C35.8 -26.23, 177.48 -130.89, 213.28 -157.25 M-1.07 -1.33 C34.82 -27.09, 179.46 -129.69, 215.41 -155.75" stroke="#6741d9" stroke-width="2" fill="none"></path></g><g transform="translate(494.125 712.34765625) rotate(0 107.16836034007372 -78.71784028820696)"><path d="M198.15 -132.86 C203.7 -137.49, 207 -144.81, 215.97 -155.31 M199.15 -131.36 C202.18 -137.57, 205.87 -142.22, 215.79 -155.79" stroke="#6741d9" stroke-width="2" fill="none"></path></g><g transform="translate(494.125 712.34765625) rotate(0 107.16836034007372 -78.71784028820696)"><path d="M186.2 -149.54 C195.24 -149.13, 202.17 -151.38, 215.97 -155.31 M187.2 -148.04 C193.19 -150.31, 199.72 -150.99, 215.79 -155.79" stroke="#6741d9" stroke-width="2" fill="none"></path></g></g><mask></mask><g stroke-linecap="round" transform="translate(713.564453125 384.19140625) rotate(0 98.939453125 24.609375)"><path d="M3.28 2.85 C3.28 2.85, 3.28 2.85, 3.28 2.85 M3.28 2.85 C3.28 2.85, 3.28 2.85, 3.28 2.85 M3.41 14.89 C8.08 10.87, 10.06 8.19, 14.56 2.06 M3.41 14.89 C7.67 10.72, 12.32 5.37, 14.56 2.06 M3.54 26.93 C10.61 20.25, 18.63 9.75, 25.19 2.02 M3.54 26.93 C10.56 17.72, 18.03 11.06, 25.19 2.02 M1.05 41.99 C10.4 31.94, 16.59 20.21, 35.82 1.99 M1.05 41.99 C11.17 29.61, 22.67 16.86, 35.82 1.99 M5.78 48.75 C19.06 31.91, 36.3 16.98, 46.45 1.95 M5.78 48.75 C19.53 31.73, 35.34 14.35, 46.45 1.95 M13.13 52.49 C27.9 35.02, 43.63 20.31, 57.08 1.92 M13.13 52.49 C28.67 34.88, 41.96 18.47, 57.08 1.92 M23.76 52.45 C38.24 34.85, 54.43 19.36, 67.71 1.89 M23.76 52.45 C39.8 35.27, 54.09 16.67, 67.71 1.89 M34.39 52.42 C47.9 38.34, 59.63 25.14, 78.34 1.85 M34.39 52.42 C50.25 35.48, 64.88 17.44, 78.34 1.85 M45.02 52.38 C61.81 33.39, 77.4 15.58, 88.97 1.82 M45.02 52.38 C58.36 35.47, 72.46 20.21, 88.97 1.82 M55.65 52.35 C71.96 33.77, 84.17 16.59, 99.6 1.78 M55.65 52.35 C68.88 37.27, 79.6 23.44, 99.6 1.78 M66.28 52.31 C81.87 33.4, 97.95 17.54, 110.23 1.75 M66.28 52.31 C77.64 38.73, 89.06 25.97, 110.23 1.75 M76.91 52.28 C89.25 38.88, 103.37 23.26, 120.21 2.47 M76.91 52.28 C91.01 35.45, 105.84 19.87, 120.21 2.47 M87.54 52.24 C100.03 35.03, 115 22.28, 130.84 2.43 M87.54 52.24 C104.48 31.91, 120.51 12.4, 130.84 2.43 M98.17 52.21 C108.49 37.78, 120.5 24.14, 141.47 2.4 M98.17 52.21 C113 35.3, 128.25 17.63, 141.47 2.4 M108.8 52.18 C121.41 37.15, 133.18 27.13, 152.1 2.36 M108.8 52.18 C122.97 35.81, 136.87 19.72, 152.1 2.36 M119.43 52.14 C130.19 39.16, 137.02 29.39, 162.73 2.33 M119.43 52.14 C132.3 38.27, 142.4 25.32, 162.73 2.33 M130.06 52.11 C147.98 32.89, 163.27 17.77, 173.36 2.3 M130.06 52.11 C143.47 36.2, 158.16 19.29, 173.36 2.3 M140.03 52.83 C153.61 39.68, 165.71 23.53, 183.99 2.26 M140.03 52.83 C151.55 40.23, 162 27.58, 183.99 2.26 M150.66 52.79 C168.26 33.24, 182.64 16.23, 192.65 4.49 M150.66 52.79 C159.11 42.8, 167.5 32.87, 192.65 4.49 M161.29 52.76 C170.83 40.25, 180.38 29.5, 199.34 8.98 M161.29 52.76 C174.7 37.86, 189.2 21.7, 199.34 8.98 M171.92 52.72 C179.67 42.56, 188.68 33.23, 199.48 21.02 M171.92 52.72 C178.25 44.45, 185.8 36.3, 199.48 21.02 M182.55 52.69 C188.28 45.63, 192.08 41.22, 199.61 33.07 M182.55 52.69 C187.88 48.04, 192.52 43.29, 199.61 33.07 M4.97 47.63 C4.97 47.63, 4.97 47.63, 4.97 47.63 M4.97 47.63 C4.97 47.63, 4.97 47.63, 4.97 47.63 M13.24 44.22 C11.62 42.61, 7.89 39.23, 4.94 37 M13.24 44.22 C10.27 41.55, 7.19 39.51, 4.94 37 M25.28 44.08 C19.11 39.46, 13.48 32.5, 4.9 26.37 M25.28 44.08 C19.13 39.22, 13.6 33.2, 4.9 26.37 M38.07 44.61 C29.15 38.46, 23.34 31.16, 0.34 11.8 M38.07 44.61 C27.7 35.71, 18.89 27.62, 0.34 11.8 M50.12 44.47 C37.49 33.94, 27.9 23.22, 3.32 3.8 M50.12 44.47 C38.61 33.24, 24.78 22.52, 3.32 3.8 M62.16 44.34 C49.28 33.63, 33.11 17.38, 7.82 -2.9 M62.16 44.34 C49.91 34.92, 39.35 24.68, 7.82 -2.9 M74.2 44.21 C62.13 32.41, 47.14 21.06, 16.84 -5.65 M74.2 44.21 C56.08 27.06, 35.83 10.62, 16.84 -5.65 M86.99 44.73 C65.71 30.2, 47.69 11.93, 29.63 -5.13 M86.99 44.73 C73.77 35.67, 63.76 24.56, 29.63 -5.13 M99.03 44.6 C75.88 24.62, 57.41 7.22, 41.68 -5.26 M99.03 44.6 C87.4 35.31, 76.74 25.17, 41.68 -5.26 M111.07 44.46 C96.86 30.28, 80.66 17.16, 53.72 -5.4 M111.07 44.46 C96.66 32.43, 83.69 19.91, 53.72 -5.4 M123.11 44.33 C104.53 27.72, 88.29 13.11, 65.76 -5.53 M123.11 44.33 C110.01 33.76, 98.69 22.52, 65.76 -5.53 M135.91 44.85 C116.78 25.23, 93.8 9.91, 77.8 -5.66 M135.91 44.85 C114.76 25.83, 92.24 7.08, 77.8 -5.66 M147.95 44.72 C127.48 27.22, 111.4 13.23, 90.59 -5.14 M147.95 44.72 C130.92 29.25, 113.85 14.91, 90.59 -5.14 M159.99 44.59 C142.54 29.2, 129.57 17.18, 102.63 -5.27 M159.99 44.59 C141.39 26.81, 121.49 11.21, 102.63 -5.27 M172.03 44.45 C158.65 35.48, 149.72 24.1, 114.68 -5.41 M172.03 44.45 C149.7 26.07, 126.97 5.47, 114.68 -5.41 M187.09 46.95 C167.4 30.14, 144.62 12.38, 126.72 -5.54 M187.09 46.95 C169.29 30.49, 150.3 15.38, 126.72 -5.54 M196.11 44.19 C176.42 27.04, 156.79 9.1, 139.51 -5.02 M196.11 44.19 C181.67 31.78, 167.94 19.19, 139.51 -5.02 M199.85 36.84 C185.34 25.85, 175.64 15.09, 151.55 -5.15 M199.85 36.84 C183.03 20.91, 165.85 7.4, 151.55 -5.15 M199.82 26.21 C192.09 19.35, 179.44 9.64, 163.59 -5.28 M199.82 26.21 C189.85 18.51, 180.55 9.17, 163.59 -5.28 M199.78 15.58 C189.71 6.56, 179.87 1.11, 175.63 -5.42 M199.78 15.58 C190.62 8.42, 182.68 -0.3, 175.63 -5.42" stroke="#d0bfff" stroke-width="1" fill="none"></path><path d="M12.3 0 M12.3 0 C61.39 0.44, 112.79 0.25, 185.57 0 M12.3 0 C76.42 1.39, 138.58 0.53, 185.57 0 M185.57 0 C192.65 0.26, 199.45 5.87, 197.88 12.3 M185.57 0 C191.56 -0.16, 195.69 4.77, 197.88 12.3 M197.88 12.3 C198 18.59, 195.93 24.7, 197.88 36.91 M197.88 12.3 C198.63 22.46, 198.64 32.45, 197.88 36.91 M197.88 36.91 C197.78 44.75, 192.96 50.3, 185.57 49.22 M197.88 36.91 C197.34 47.19, 196 48.6, 185.57 49.22 M185.57 49.22 C138.56 50, 94.47 48.73, 12.3 49.22 M185.57 49.22 C144.8 50.98, 104.3 49.99, 12.3 49.22 M12.3 49.22 C2.59 48.14, -1.55 44.44, 0 36.91 M12.3 49.22 C2.09 49.78, -2.22 43.64, 0 36.91 M0 36.91 C-0.35 28.64, -0.46 23.77, 0 12.3 M0 36.91 C0.05 29.33, 0.21 22.57, 0 12.3 M0 12.3 C1.99 5.6, 3.92 0.88, 12.3 0 M0 12.3 C1.22 5.23, 3 2.08, 12.3 0" stroke="#6741d9" stroke-width="2" fill="none"></path></g><g transform="translate(748.2539672851562 396.30078125) rotate(0 64.24993896484375 12.5)"><text x="64.24993896484375" y="0" font-family="Virgil, Segoe UI Emoji" font-size="20px" fill="#6741d9" text-anchor="middle" style="white-space: pre;" direction="ltr" dominant-baseline="text-before-edge">save_model()</text></g><g stroke-linecap="round" transform="translate(716.974609375 455.890625) rotate(0 98.939453125 24.609375)"><path d="M3.28 2.85 C3.28 2.85, 3.28 2.85, 3.28 2.85 M3.28 2.85 C3.28 2.85, 3.28 2.85, 3.28 2.85 M3.41 14.89 C7.89 8.39, 12.19 3.46, 14.56 2.06 M3.41 14.89 C5.52 11.66, 8.93 9.85, 14.56 2.06 M3.54 26.93 C10.64 20.6, 14.9 12.65, 25.19 2.02 M3.54 26.93 C11.56 17.32, 20.08 7.43, 25.19 2.02 M1.05 41.99 C9.31 31.46, 23.06 20.2, 35.82 1.99 M1.05 41.99 C11.28 31.71, 21.05 20.54, 35.82 1.99 M5.78 48.75 C15.88 38.26, 22.94 28.37, 46.45 1.95 M5.78 48.75 C15.18 39.25, 23.51 29.57, 46.45 1.95 M13.13 52.49 C25.15 36.81, 40.9 21.05, 57.08 1.92 M13.13 52.49 C27.87 36.41, 41.97 19.38, 57.08 1.92 M23.76 52.45 C38.28 36.1, 55.3 19.53, 67.71 1.89 M23.76 52.45 C36.64 38.28, 47.18 26.07, 67.71 1.89 M34.39 52.42 C45.77 37.69, 58.33 22.88, 78.34 1.85 M34.39 52.42 C50.74 33.88, 68.32 12.95, 78.34 1.85 M45.02 52.38 C60.68 36.29, 71.96 18.3, 88.97 1.82 M45.02 52.38 C54.63 40.58, 64.41 28.81, 88.97 1.82 M55.65 52.35 C70.02 35.95, 86.47 16.22, 99.6 1.78 M55.65 52.35 C66.16 42.08, 74.66 31.06, 99.6 1.78 M66.28 52.31 C74.25 40.4, 84.47 31.3, 110.23 1.75 M66.28 52.31 C75.2 40.17, 85.12 28.04, 110.23 1.75 M76.91 52.28 C86.37 41.18, 93.48 30.13, 120.21 2.47 M76.91 52.28 C91.26 37.27, 105.57 20.33, 120.21 2.47 M87.54 52.24 C101.7 35.5, 113.47 19.49, 130.84 2.43 M87.54 52.24 C102.96 34.56, 117.79 15.9, 130.84 2.43 M98.17 52.21 C112.97 36.73, 123.45 21.18, 141.47 2.4 M98.17 52.21 C109.08 39.23, 119.42 27.42, 141.47 2.4 M108.8 52.18 C121.52 36.52, 130.89 24.27, 152.1 2.36 M108.8 52.18 C125.75 32.78, 142.54 11.74, 152.1 2.36 M119.43 52.14 C134.4 38.32, 147.34 22.42, 162.73 2.33 M119.43 52.14 C128.33 40.95, 137.32 32.54, 162.73 2.33 M130.06 52.11 C140.5 39.46, 147.61 30.56, 173.36 2.3 M130.06 52.11 C141.9 38.6, 153.13 25.5, 173.36 2.3 M140.03 52.83 C155.3 33.66, 173.43 14.9, 183.99 2.26 M140.03 52.83 C150.86 39.8, 162.31 26.64, 183.99 2.26 M150.66 52.79 C162.15 42.65, 168.34 28.72, 192.65 4.49 M150.66 52.79 C167.09 34.01, 182.96 18.1, 192.65 4.49 M161.29 52.76 C173.35 39.5, 183.14 26.84, 199.34 8.98 M161.29 52.76 C176.22 35.79, 189.33 20.07, 199.34 8.98 M171.92 52.72 C178.75 46.37, 184.77 38.24, 199.48 21.02 M171.92 52.72 C178.63 43.91, 185.29 36.85, 199.48 21.02 M182.55 52.69 C187.8 45.45, 191.93 40.23, 199.61 33.07 M182.55 52.69 C187.19 46.07, 193.7 40.26, 199.61 33.07 M4.97 47.63 C4.97 47.63, 4.97 47.63, 4.97 47.63 M4.97 47.63 C4.97 47.63, 4.97 47.63, 4.97 47.63 M13.24 44.22 C10.57 42.86, 8.58 38.66, 4.94 37 M13.24 44.22 C10.59 41.91, 6.91 39.48, 4.94 37 M25.28 44.08 C20.62 42.07, 18.59 38.04, 4.9 26.37 M25.28 44.08 C20.34 40.81, 16.58 35.78, 4.9 26.37 M38.07 44.61 C22.13 32.55, 7.72 19.45, 0.34 11.8 M38.07 44.61 C28.25 35.43, 19.16 28.23, 0.34 11.8 M50.12 44.47 C39.52 34.49, 28.87 28.54, 3.32 3.8 M50.12 44.47 C33.42 30.73, 17.36 16.91, 3.32 3.8 M62.16 44.34 C45.89 27.85, 26.28 14.55, 7.82 -2.9 M62.16 44.34 C39.76 26.71, 18.22 6.38, 7.82 -2.9 M74.2 44.21 C61.56 34.32, 47.46 21.95, 16.84 -5.65 M74.2 44.21 C55.27 28.5, 36.01 12.27, 16.84 -5.65 M86.99 44.73 C66.46 24.77, 41.74 5.15, 29.63 -5.13 M86.99 44.73 C74.79 32.79, 63.17 22.99, 29.63 -5.13 M99.03 44.6 C76.53 26.54, 55.17 9.21, 41.68 -5.26 M99.03 44.6 C83.84 31.33, 70.93 18.61, 41.68 -5.26 M111.07 44.46 C99.31 34.11, 87.67 24.5, 53.72 -5.4 M111.07 44.46 C95.98 32.02, 80.18 18.61, 53.72 -5.4 M123.11 44.33 C108.51 30.56, 91.16 17.99, 65.76 -5.53 M123.11 44.33 C103.02 26.72, 83.06 10.63, 65.76 -5.53 M135.91 44.85 C114.03 25.14, 92.44 6.07, 77.8 -5.66 M135.91 44.85 C117.74 29.04, 100.79 14.78, 77.8 -5.66 M147.95 44.72 C133.44 30.9, 116.2 18.16, 90.59 -5.14 M147.95 44.72 C130.42 28.1, 109.98 12.39, 90.59 -5.14 M159.99 44.59 C138.72 25.73, 118.42 7.06, 102.63 -5.27 M159.99 44.59 C148.06 35.13, 136.21 23.31, 102.63 -5.27 M172.03 44.45 C161.89 33.86, 147.58 25.28, 114.68 -5.41 M172.03 44.45 C156.54 32.56, 141.78 18.97, 114.68 -5.41 M187.09 46.95 C164.43 30.05, 144.2 11.1, 126.72 -5.54 M187.09 46.95 C170.84 33.08, 154.05 18.44, 126.72 -5.54 M196.11 44.19 C181.4 30.09, 162.09 14.41, 139.51 -5.02 M196.11 44.19 C180.99 30.43, 164.71 17.17, 139.51 -5.02 M199.85 36.84 C183.72 21.85, 166.53 8.3, 151.55 -5.15 M199.85 36.84 C185.74 23.23, 171.08 11.8, 151.55 -5.15 M199.82 26.21 C186.19 16.73, 176.22 2.76, 163.59 -5.28 M199.82 26.21 C189.79 17.86, 178.74 7.45, 163.59 -5.28 M199.78 15.58 C190.49 5.54, 179.64 0.46, 175.63 -5.42 M199.78 15.58 C192.66 10.3, 184.54 3.01, 175.63 -5.42" stroke="#d0bfff" stroke-width="1" fill="none"></path><path d="M12.3 0 M12.3 0 C48.5 -1.1, 87.54 0.57, 185.57 0 M12.3 0 C55.52 -0.01, 96.98 -0.25, 185.57 0 M185.57 0 C192.8 0.67, 198.35 4.69, 197.88 12.3 M185.57 0 C191.81 0.54, 198.67 2.34, 197.88 12.3 M197.88 12.3 C197.74 19.44, 196.3 27.77, 197.88 36.91 M197.88 12.3 C198.49 17.64, 198.9 22.58, 197.88 36.91 M197.88 36.91 C196.31 44.79, 192.38 50.66, 185.57 49.22 M197.88 36.91 C198.44 45.01, 193.41 50.92, 185.57 49.22 M185.57 49.22 C142.03 48.52, 102.13 49.18, 12.3 49.22 M185.57 49.22 C150.39 48.1, 113.87 48.79, 12.3 49.22 M12.3 49.22 C2.29 49.16, 0.74 43.93, 0 36.91 M12.3 49.22 C5.3 51.08, -0.94 43.93, 0 36.91 M0 36.91 C-1.45 31.55, 0.69 24.79, 0 12.3 M0 36.91 C-0.29 31.47, 0.2 25.58, 0 12.3 M0 12.3 C-0.85 4.67, 2.14 1.87, 12.3 0 M0 12.3 C-0.99 2.01, 1.86 -2.06, 12.3 0" stroke="#6741d9" stroke-width="2" fill="none"></path></g><g transform="translate(753.9341201782227 468) rotate(0 61.979942321777344 12.5)"><text x="61.979942321777344" y="0" font-family="Virgil, Segoe UI Emoji" font-size="20px" fill="#6741d9" text-anchor="middle" style="white-space: pre;" direction="ltr" dominant-baseline="text-before-edge">load_model()</text></g><g transform="translate(631.66796875 18.3046875) rotate(0 159.869873046875 62.5)"><text x="0" y="0" font-family="Virgil, Segoe UI Emoji" font-size="20px" fill="#1971c2" text-anchor="start" style="white-space: pre;" direction="ltr" dominant-baseline="text-before-edge">These are available to use</text><text x="0" y="25" font-family="Virgil, Segoe UI Emoji" font-size="20px" fill="#1971c2" text-anchor="start" style="white-space: pre;" direction="ltr" dominant-baseline="text-before-edge">with the underlying library, but </text><text x="0" y="50" font-family="Virgil, Segoe UI Emoji" font-size="20px" fill="#1971c2" text-anchor="start" style="white-space: pre;" direction="ltr" dominant-baseline="text-before-edge">the flavor decides on a subset </text><text x="0" y="75" font-family="Virgil, Segoe UI Emoji" font-size="20px" fill="#1971c2" text-anchor="start" style="white-space: pre;" direction="ltr" dominant-baseline="text-before-edge">of approaches to support for </text><text x="0" y="100" font-family="Virgil, Segoe UI Emoji" font-size="20px" fill="#1971c2" text-anchor="start" style="white-space: pre;" direction="ltr" dominant-baseline="text-before-edge">simplicity's sake.</text></g><g stroke-linecap="round" transform="translate(545.73828125 209.01953125) rotate(0 32.470703125 24.013671875)"><path d="M3.2 2.78 C3.2 2.78, 3.2 2.78, 3.2 2.78 M3.2 2.78 C3.2 2.78, 3.2 2.78, 3.2 2.78 M4.64 13.31 C7.78 10.92, 8.9 7.45, 14.48 1.99 M4.64 13.31 C7.45 10.86, 8.54 8.68, 14.48 1.99 M4.77 25.35 C11.22 16.01, 20.25 10.88, 25.11 1.95 M4.77 25.35 C11.18 18.64, 16.08 11.48, 25.11 1.95 M2.28 40.41 C14.82 28.3, 22.28 14.68, 35.74 1.92 M2.28 40.41 C8.68 31.63, 15.55 25.51, 35.74 1.92 M6.35 47.92 C18.05 35.7, 25.76 22.8, 46.37 1.89 M6.35 47.92 C20.96 30.38, 36.68 13.62, 46.37 1.89 M15.01 50.15 C28.41 35.12, 42.07 21.16, 56.35 2.61 M15.01 50.15 C26.55 35.53, 39.15 23.19, 56.35 2.61 M25.64 50.12 C32.64 39.16, 44.65 30.62, 64.35 5.59 M25.64 50.12 C40.64 34.18, 53.39 17.19, 64.35 5.59 M36.27 50.08 C45.66 41.76, 52.77 31.05, 67.77 13.86 M36.27 50.08 C45.41 40.22, 52.5 30.75, 67.77 13.86 M46.25 50.8 C52.36 44.12, 58.56 36.84, 67.24 26.65 M46.25 50.8 C52.8 42.62, 58.75 35.43, 67.24 26.65 M56.22 51.52 C58.62 46.68, 62.17 43.71, 66.06 40.2 M56.22 51.52 C58.66 48.09, 61.93 45.47, 66.06 40.2 M3.15 45.15 C3.15 45.15, 3.15 45.15, 3.15 45.15 M3.15 45.15 C3.15 45.15, 3.15 45.15, 3.15 45.15 M15.19 45.02 C11.38 42.12, 9.29 40.19, 3.87 35.18 M15.19 45.02 C12.93 42.73, 9.92 40.55, 3.87 35.18 M27.23 44.89 C21.19 36.6, 13.52 32.07, 3.83 24.55 M27.23 44.89 C21.54 40.96, 16.63 35.22, 3.83 24.55 M39.27 44.75 C30.62 35.27, 18.06 27.41, 3.8 13.92 M39.27 44.75 C26.91 32.46, 14.32 23.14, 3.8 13.92 M53.58 46.59 C41.22 35.45, 30.06 22.91, 3.01 2.63 M53.58 46.59 C42.91 36.49, 31.71 27.05, 3.01 2.63 M62.6 43.83 C51.57 34, 41.62 22.55, 12.03 -0.12 M62.6 43.83 C52.28 33.18, 39.22 23.71, 12.03 -0.12 M66.34 36.48 C54.29 24.82, 37.55 11.27, 24.07 -0.26 M66.34 36.48 C52.92 24.25, 39.23 13.33, 24.07 -0.26 M66.3 25.85 C58.75 20.43, 51.46 14.42, 36.11 -0.39 M66.3 25.85 C54.48 15.15, 42.14 4.51, 36.11 -0.39 M67.02 15.88 C60.54 10.05, 56.54 6.9, 48.91 0.13 M67.02 15.88 C62.08 12.21, 55.63 6.1, 48.91 0.13" stroke="#d0bfff" stroke-width="1" fill="none"></path><path d="M12.01 0 M12.01 0 C28.81 1.92, 42.74 -0.78, 52.93 0 M12.01 0 C26.89 -0.45, 41 -0.43, 52.93 0 M52.93 0 C61.78 1.56, 64.44 4.67, 64.94 12.01 M52.93 0 C61.34 -0.24, 64.5 5.78, 64.94 12.01 M64.94 12.01 C63.93 21.69, 64.61 27.2, 64.94 36.02 M64.94 12.01 C64.61 21.98, 64.34 31.44, 64.94 36.02 M64.94 36.02 C65.34 45.71, 59.38 49.98, 52.93 48.03 M64.94 36.02 C66.48 43.02, 62.93 46.97, 52.93 48.03 M52.93 48.03 C43.33 49.67, 33.32 46.59, 12.01 48.03 M52.93 48.03 C44.77 48.5, 34.5 47.79, 12.01 48.03 M12.01 48.03 C2.33 47.09, 1.16 42.48, 0 36.02 M12.01 48.03 C5.44 47.06, 0.81 41.99, 0 36.02 M0 36.02 C-0.43 29.11, -0.27 20.57, 0 12.01 M0 36.02 C0.35 30.86, -0.71 22.96, 0 12.01 M0 12.01 C0.05 5.68, 4.43 -0.74, 12.01 0 M0 12.01 C2.15 3.26, 2.84 0.18, 12.01 0" stroke="#6741d9" stroke-width="2" fill="none"></path></g><g transform="translate(564.1689910888672 220.533203125) rotate(0 14.039993286132812 12.5)"><text x="14.039993286132812" y="0" font-family="Virgil, Segoe UI Emoji" font-size="20px" fill="#6741d9" text-anchor="middle" style="white-space: pre;" direction="ltr" dominant-baseline="text-before-edge">OR</text></g><g stroke-linecap="round"><g transform="translate(445.67578125 211.328125) rotate(0 50.94924430592994 11.951586300138416)"><path d="M0.88 -0.6 C16.16 2.68, 75.86 16.64, 92.43 20.59 C109 24.54, 98.72 22.83, 100.28 23.12 M-0.12 1.69 C15.04 5.07, 75.54 18.16, 92.1 21.93 C108.66 25.7, 97.51 24.17, 99.26 24.33" stroke="#6741d9" stroke-width="2" fill="none"></path></g></g><mask></mask><g stroke-linecap="round"><g transform="translate(523.57421875 291.6328125) rotate(0 9.207130901142932 -23.556548124849797)"><path d="M-0.27 0.14 C2.89 -7.31, 15.33 -38.01, 18.68 -45.71 M1.79 -0.83 C4.81 -8.51, 14.75 -39.39, 17.73 -47.26" stroke="#6741d9" stroke-width="2" fill="none"></path></g></g><mask></mask><g stroke-linecap="round"><g transform="translate(601.6969029174802 263.26171875) rotate(0 50.046499808141164 75.49833063309251)"><path d="M0.64 0.32 C1.78 19.87, -3.11 91.75, 6.3 116.3 C15.72 140.84, 41.45 142.26, 57.13 147.57 C72.81 152.88, 93.1 148.11, 100.4 148.16 M-0.49 -0.56 C0.52 18.76, -4.22 89.79, 5.24 114.73 C14.71 139.67, 40.37 143.38, 56.31 149.06 C72.25 154.73, 93.63 149.02, 100.9 148.79" stroke="#6741d9" stroke-width="2" fill="none"></path></g><g transform="translate(601.6969029174802 263.26171875) rotate(0 50.046499808141164 75.49833063309251)"><path d="M82.42 158.19 C88.63 155.75, 92.26 154.23, 99.38 150.41 M82.03 158.05 C85.67 156.34, 89.5 154.58, 101.66 148.79" stroke="#6741d9" stroke-width="2" fill="none"></path></g><g transform="translate(601.6969029174802 263.26171875) rotate(0 50.046499808141164 75.49833063309251)"><path d="M80.6 143.69 C87.15 144.96, 91.26 147.17, 99.38 150.41 M80.21 143.55 C84.26 144.8, 88.45 145.98, 101.66 148.79" stroke="#6741d9" stroke-width="2" fill="none"></path></g></g><mask></mask><g stroke-linecap="round"><g transform="translate(601.87364292489 266.46875) rotate(0 46.34001481826914 107.1073710521388)"><path d="M-0.12 0.43 C-0.09 30.2, -8.25 144.32, 0.79 179.48 C9.82 214.65, 37.97 205.78, 54.07 211.42 C70.18 217.06, 90.02 213.34, 97.43 213.33 M-1.64 -0.39 C-1.78 28.91, -9.6 142.01, 0.1 177.47 C9.79 212.92, 40.34 206.68, 56.53 212.31 C72.72 217.95, 90.44 211.45, 97.23 211.28" stroke="#6741d9" stroke-width="2" fill="none"></path></g><g transform="translate(601.87364292489 266.46875) rotate(0 46.34001481826914 107.1073710521388)"><path d="M78.95 222.58 C85.18 216.71, 90.15 213, 98.84 211.77 M77.91 222.52 C81.6 218.71, 86.77 216.69, 96.37 211.2" stroke="#6741d9" stroke-width="2" fill="none"></path></g><g transform="translate(601.87364292489 266.46875) rotate(0 46.34001481826914 107.1073710521388)"><path d="M76.66 207.92 C83.8 207.2, 89.58 208.64, 98.84 211.77 M75.62 207.86 C79.8 207.28, 85.47 208.48, 96.37 211.2" stroke="#6741d9" stroke-width="2" fill="none"></path></g></g><mask></mask><g stroke-linecap="round"><g transform="translate(619.3359375 52.257261256382066) rotate(0 -62.85706469371917 -4.079945520214835)"><path d="M0.4 -0.06 C-16.07 -1.13, -78.08 -5.36, -99.06 -6.38 C-120.04 -7.41, -121.12 -5.92, -125.49 -6.2 M-0.85 -1.14 C-17.48 -2.03, -79.28 -3.78, -100.15 -4.95 C-121.03 -6.11, -122.01 -7.68, -126.11 -8.1" stroke="#1971c2" stroke-width="2" fill="none"></path></g><g transform="translate(619.3359375 52.257261256382066) rotate(0 -62.85706469371917 -4.079945520214835)"><path d="M-112.87 -10.62 C-116.75 -9.34, -119.32 -8.46, -127.25 -8.85 M-113.2 -10.9 C-115.96 -9.86, -118.65 -9.73, -125.92 -7.86" stroke="#1971c2" stroke-width="2" fill="none"></path></g><g transform="translate(619.3359375 52.257261256382066) rotate(0 -62.85706469371917 -4.079945520214835)"><path d="M-114.57 -1.55 C-117.98 -2.83, -120.07 -4.49, -127.25 -8.85 M-114.9 -1.83 C-117.23 -2.8, -119.54 -4.69, -125.92 -7.86" stroke="#1971c2" stroke-width="2" fill="none"></path></g></g><mask></mask><g stroke-linecap="round"><g transform="translate(616.16796875 64.0078125) rotate(0 -116.31059386118312 27.862008078088977)"><path d="M0.67 -0.99 C-32.43 6.54, -160.1 36.5, -199.02 45.97 C-237.94 55.43, -227.16 54.08, -232.84 55.79 M-0.43 1.11 C-33.59 8.78, -160.72 38.28, -199.53 47.55 C-238.34 56.82, -227.78 55.12, -233.3 56.71" stroke="#1971c2" stroke-width="2" fill="none"></path></g><g transform="translate(616.16796875 64.0078125) rotate(0 -116.31059386118312 27.862008078088977)"><path d="M-221.5 46.31 C-223.42 49.17, -228.21 51.95, -233.81 55.17 M-220.84 45.61 C-223.21 48.24, -228.55 52.46, -233.78 57.05" stroke="#1971c2" stroke-width="2" fill="none"></path></g><g transform="translate(616.16796875 64.0078125) rotate(0 -116.31059386118312 27.862008078088977)"><path d="M-217.13 57.54 C-220.3 57.4, -226.27 57.15, -233.81 55.17 M-216.48 56.84 C-220.18 56.16, -226.81 57.05, -233.78 57.05" stroke="#1971c2" stroke-width="2" fill="none"></path></g></g><mask></mask><g transform="translate(10 674.67578125) rotate(0 136.94989013671875 62.5)"><text x="0" y="0" font-family="Virgil, Segoe UI Emoji" font-size="20px" fill="#2f9e44" text-anchor="start" style="white-space: pre;" direction="ltr" dominant-baseline="text-before-edge">These are available in the </text><text x="0" y="25" font-family="Virgil, Segoe UI Emoji" font-size="20px" fill="#2f9e44" text-anchor="start" style="white-space: pre;" direction="ltr" dominant-baseline="text-before-edge">underlying model, </text><text x="0" y="50" font-family="Virgil, Segoe UI Emoji" font-size="20px" fill="#2f9e44" text-anchor="start" style="white-space: pre;" direction="ltr" dominant-baseline="text-before-edge">but are not exposed in </text><text x="0" y="75" font-family="Virgil, Segoe UI Emoji" font-size="20px" fill="#2f9e44" text-anchor="start" style="white-space: pre;" direction="ltr" dominant-baseline="text-before-edge">the pyfunc implementation </text><text x="0" y="100" font-family="Virgil, Segoe UI Emoji" font-size="20px" fill="#2f9e44" text-anchor="start" style="white-space: pre;" direction="ltr" dominant-baseline="text-before-edge">in MLflow</text></g><g stroke-linecap="round"><g transform="translate(144.9140625 669.265625) rotate(0 29.7642117459327 -13.496725780079146)"><path d="M-0.59 0.17 C5.66 -2.84, 27.8 -14.73, 37.92 -18.96 C48.04 -23.19, 56.5 -24.08, 60.12 -25.21 M1.3 -0.78 C7.43 -3.59, 27.74 -13.45, 37.47 -17.85 C47.2 -22.25, 55.93 -26.06, 59.68 -27.17" stroke="#2f9e44" stroke-width="2" fill="none"></path></g><g transform="translate(144.9140625 669.265625) rotate(0 29.7642117459327 -13.496725780079146)"><path d="M50.72 -18.59 C52.87 -21.43, 57.48 -24.47, 59.9 -26.08 M50.71 -19.97 C53.53 -21.73, 56.22 -24.61, 59.65 -27.7" stroke="#2f9e44" stroke-width="2" fill="none"></path></g><g transform="translate(144.9140625 669.265625) rotate(0 29.7642117459327 -13.496725780079146)"><path d="M47.95 -26.25 C50.98 -26.5, 56.52 -26.95, 59.9 -26.08 M47.94 -27.63 C51.66 -26.85, 55.27 -27.18, 59.65 -27.7" stroke="#2f9e44" stroke-width="2" fill="none"></path></g></g><mask></mask><g stroke-linecap="round"><g transform="translate(118.109375 669.515625) rotate(0 20.169617596566667 -40.846182995736626)"><path d="M0.6 0.12 C5.34 -7.8, 21.65 -33.64, 28.36 -46.99 C35.07 -60.35, 38.85 -74.24, 40.89 -80.02 M-0.55 -0.86 C3.99 -8.68, 20.33 -32.34, 27.14 -45.83 C33.94 -59.33, 38.01 -75.98, 40.29 -81.82" stroke="#2f9e44" stroke-width="2" fill="none"></path></g><g transform="translate(118.109375 669.515625) rotate(0 20.169617596566667 -40.846182995736626)"><path d="M41.07 -64.27 C39.53 -68.4, 42.04 -74.31, 39.36 -83.35 M40.7 -62.68 C40.21 -68.15, 40.38 -72.13, 40.36 -81.49" stroke="#2f9e44" stroke-width="2" fill="none"></path></g><g transform="translate(118.109375 669.515625) rotate(0 20.169617596566667 -40.846182995736626)"><path d="M29.14 -68.18 C31.14 -71.22, 37.17 -75.97, 39.36 -83.35 M28.78 -66.59 C31.35 -71.1, 34.55 -74.09, 40.36 -81.49" stroke="#2f9e44" stroke-width="2" fill="none"></path></g></g><mask></mask></svg>