<svg version="1.1" xmlns="http://www.w3.org/2000/svg" viewBox="0 0 379.12109375 604.4609375" width="379.12109375" height="604.4609375">
  <!-- svg-source:excalidraw -->
  
  <defs>
    <style class="style-fonts">
      @font-face {
        font-family: "Virgil";
        src: url("https://excalidraw.com/Virgil.woff2");
      }
      @font-face {
        font-family: "Cascadia";
        src: url("https://excalidraw.com/Cascadia.woff2");
      }
    </style>
    
  </defs>
  <rect x="0" y="0" width="379.12109375" height="604.4609375" fill="#ffffff"></rect><g stroke-linecap="round" transform="translate(138.8515625 175.74609375) rotate(0 104.505859375 98.224609375)"><path d="M32 0 M32 0 C85.97 0.04, 138.18 -1.47, 177.01 0 M32 0 C66.76 1.02, 102.9 0.01, 177.01 0 M177.01 0 C196.77 1.34, 210.82 11.28, 209.01 32 M177.01 0 C198.98 0.97, 210.8 11.16, 209.01 32 M209.01 32 C210.21 81.24, 208.09 128.01, 209.01 164.45 M209.01 32 C209.39 62.28, 208.46 94.53, 209.01 164.45 M209.01 164.45 C209.81 187.55, 196.51 196.03, 177.01 196.45 M209.01 164.45 C211.18 187.02, 200 197.32, 177.01 196.45 M177.01 196.45 C127.36 199.19, 75.33 198.46, 32 196.45 M177.01 196.45 C145.68 196.78, 114.28 196.74, 32 196.45 M32 196.45 C10.82 194.82, -1.38 185.5, 0 164.45 M32 196.45 C8.6 198.68, -2.25 187.53, 0 164.45 M0 164.45 C1.2 128.42, 1.77 97.67, 0 32 M0 164.45 C1.44 135.78, -0.02 109.38, 0 32 M0 32 C-0.11 10.72, 9.25 1.34, 32 0 M0 32 C0.72 8.87, 10.51 2.05, 32 0" stroke="#1e1e1e" stroke-width="1" fill="none"></path></g><g transform="translate(181.07748413085938 180.74609375) rotate(0 62.279937744140625 12.5)"><text x="62.279937744140625" y="0" font-family="Virgil, Segoe UI Emoji" font-size="20px" fill="#1e1e1e" text-anchor="middle" style="white-space: pre;" direction="ltr" dominant-baseline="text-before-edge">Dependencies</text></g><g stroke-linecap="round" transform="translate(154.34375 224.04296875) rotate(0 47.365234375 31.595703125)"><path d="M15.8 0 M15.8 0 C34.48 -0.9, 50.63 -0.38, 78.93 0 M15.8 0 C34.82 -0.99, 51.8 0.19, 78.93 0 M78.93 0 C91.03 -0.63, 95.52 5.33, 94.73 15.8 M78.93 0 C87.24 2.08, 94.49 3.41, 94.73 15.8 M94.73 15.8 C94.73 23.71, 93.83 30.37, 94.73 47.39 M94.73 15.8 C95.35 23.18, 95.8 28.6, 94.73 47.39 M94.73 47.39 C95.53 58.33, 90.37 64.7, 78.93 63.19 M94.73 47.39 C92.67 60.07, 89.98 63.86, 78.93 63.19 M78.93 63.19 C66.45 64.58, 52.73 62.33, 15.8 63.19 M78.93 63.19 C59.15 63.36, 40.81 63.87, 15.8 63.19 M15.8 63.19 C4.8 62.04, 0.68 58.11, 0 47.39 M15.8 63.19 C5.5 62.23, -2.02 55.81, 0 47.39 M0 47.39 C-1.65 36.45, -0.91 26.91, 0 15.8 M0 47.39 C0.5 38.48, 0.43 29.31, 0 15.8 M0 15.8 C0.52 4.16, 4.9 -1.07, 15.8 0 M0 15.8 C0.02 3.56, 4.44 -0.91, 15.8 0" stroke="#1e1e1e" stroke-width="1" fill="none"></path></g><g transform="translate(178.56900787353516 243.138671875) rotate(0 23.139976501464844 12.5)"><text x="23.139976501464844" y="0" font-family="Virgil, Segoe UI Emoji" font-size="20px" fill="#1e1e1e" text-anchor="middle" style="white-space: pre;" direction="ltr" dominant-baseline="text-before-edge">Code</text></g><g stroke-linecap="round" transform="translate(200.97265625 296.46875) rotate(0 66.548828125 33.82421875)"><path d="M16.91 0 M16.91 0 C37.68 0.6, 60.76 2.18, 116.19 0 M16.91 0 C44.23 -0.67, 72.32 0.14, 116.19 0 M116.19 0 C125.52 0.76, 134.4 5.32, 133.1 16.91 M116.19 0 C125.2 1.17, 133.49 7.85, 133.1 16.91 M133.1 16.91 C134.65 29.57, 132.63 39.97, 133.1 50.74 M133.1 16.91 C132.51 28.78, 133.44 40.04, 133.1 50.74 M133.1 50.74 C131.62 60.04, 128.85 67.97, 116.19 67.65 M133.1 50.74 C132.96 62.02, 129.21 68.41, 116.19 67.65 M116.19 67.65 C84.51 66.89, 55.6 67.97, 16.91 67.65 M116.19 67.65 C95.48 67.53, 76.01 67.48, 16.91 67.65 M16.91 67.65 C4.35 68.4, 1.17 63.28, 0 50.74 M16.91 67.65 C6.73 69.82, -1.17 63.91, 0 50.74 M0 50.74 C-1.25 42.75, 1.2 37.21, 0 16.91 M0 50.74 C0.04 37.24, -1.06 23.25, 0 16.91 M0 16.91 C-1.96 5.8, 5.47 -0.91, 16.91 0 M0 16.91 C-0.55 3.6, 4.9 -0.97, 16.91 0" stroke="#2f9e44" stroke-width="2" fill="none"></path></g><g transform="translate(225.90152740478516 317.79296875) rotate(0 41.619956970214844 12.5)"><text x="41.619956970214844" y="0" font-family="Virgil, Segoe UI Emoji" font-size="20px" fill="#2f9e44" text-anchor="middle" style="white-space: pre;" direction="ltr" dominant-baseline="text-before-edge">Libraries</text></g><g stroke-linecap="round" transform="translate(31.4765625 387.421875) rotate(0 68.80078125 25.828125)"><path d="M12.91 0 M12.91 0 C39.59 0.52, 62.7 0.69, 124.69 0 M12.91 0 C46.19 1.37, 78.04 0.69, 124.69 0 M124.69 0 C133.62 -1.94, 136.91 4.13, 137.6 12.91 M124.69 0 C132.16 1.62, 137.92 4.89, 137.6 12.91 M137.6 12.91 C137.91 17.92, 138.57 26.12, 137.6 38.74 M137.6 12.91 C137.99 20.71, 137.08 27.85, 137.6 38.74 M137.6 38.74 C139.29 47.82, 133.69 49.78, 124.69 51.66 M137.6 38.74 C136.19 47.46, 134.18 51.28, 124.69 51.66 M124.69 51.66 C97.32 51.09, 74.85 54.47, 12.91 51.66 M124.69 51.66 C99.13 51.95, 73.4 52.02, 12.91 51.66 M12.91 51.66 C4.9 52.18, 1.44 46.34, 0 38.74 M12.91 51.66 C2.26 50.76, 1.17 47.36, 0 38.74 M0 38.74 C0.89 32.56, -0.97 26.71, 0 12.91 M0 38.74 C0.76 31.69, -0.69 25.63, 0 12.91 M0 12.91 C-0.46 4.09, 5.79 -1.12, 12.91 0 M0 12.91 C0.67 5.97, 2.16 -0.33, 12.91 0" stroke="#1971c2" stroke-width="2" fill="none"></path></g><g transform="translate(50.147377014160156 400.75) rotate(0 50.129966735839844 12.5)"><text x="50.129966735839844" y="0" font-family="Virgil, Segoe UI Emoji" font-size="20px" fill="#1971c2" text-anchor="middle" style="white-space: pre;" direction="ltr" dominant-baseline="text-before-edge">Metadata</text></g><g stroke-linecap="round" transform="translate(168.87109375 446.34375) rotate(0 95.330078125 31.5390625)"><path d="M15.77 0 M15.77 0 C64.64 0.37, 113.77 -1.17, 174.89 0 M15.77 0 C49.35 -1.15, 82.27 -0.03, 174.89 0 M174.89 0 C186.12 0.69, 189.52 6.98, 190.66 15.77 M174.89 0 C184.09 -0.78, 189.26 6.81, 190.66 15.77 M190.66 15.77 C189.95 22.57, 191.9 28.68, 190.66 47.31 M190.66 15.77 C190.75 26.16, 190.04 35.66, 190.66 47.31 M190.66 47.31 C192.32 56.37, 184.9 65, 174.89 63.08 M190.66 47.31 C188.63 58.01, 183.62 64.79, 174.89 63.08 M174.89 63.08 C140.41 62.03, 107.53 62.91, 15.77 63.08 M174.89 63.08 C137.16 64.11, 100.32 64.73, 15.77 63.08 M15.77 63.08 C3.47 63.68, 0.1 56.02, 0 47.31 M15.77 63.08 C6.63 63.08, 0.56 59.69, 0 47.31 M0 47.31 C1.66 36.43, -0.48 27.96, 0 15.77 M0 47.31 C-0.4 37.13, 0.12 25.1, 0 15.77 M0 15.77 C-1.15 6.76, 4.74 0.97, 15.77 0 M0 15.77 C-2.1 6.07, 3.32 0.87, 15.77 0" stroke="#f08c00" stroke-width="2" fill="none"></path></g><g transform="translate(180.78124237060547 452.8828125) rotate(0 83.41992950439453 25)"><text x="83.41992950439453" y="0" font-family="Virgil, Segoe UI Emoji" font-size="20px" fill="#f08c00" text-anchor="middle" style="white-space: pre;" direction="ltr" dominant-baseline="text-before-edge">Input &amp; Output </text><text x="83.41992950439453" y="25" font-family="Virgil, Segoe UI Emoji" font-size="20px" fill="#f08c00" text-anchor="middle" style="white-space: pre;" direction="ltr" dominant-baseline="text-before-edge">Signature</text></g><g stroke-linecap="round" transform="translate(10 10) rotate(0 179.560546875 292.23046875)"><path d="M32 0 M32 0 C103.19 -0.48, 171.61 -0.76, 327.12 0 M32 0 C149.8 -0.98, 266.31 -1.12, 327.12 0 M327.12 0 C347.05 1.89, 360.04 12.57, 359.12 32 M327.12 0 C346.25 1.92, 359.89 12.03, 359.12 32 M359.12 32 C359.33 155.39, 359.8 277.44, 359.12 552.46 M359.12 32 C357.52 142.32, 357.5 252, 359.12 552.46 M359.12 552.46 C359.36 575.77, 349.75 582.7, 327.12 584.46 M359.12 552.46 C360.64 572.59, 349.38 586.61, 327.12 584.46 M327.12 584.46 C254.92 585.26, 182.08 585.58, 32 584.46 M327.12 584.46 C245.52 585.56, 164.23 585.73, 32 584.46 M32 584.46 C11.3 583.19, 0.34 574.28, 0 552.46 M32 584.46 C12.23 582.61, -0.99 573.66, 0 552.46 M0 552.46 C-1.38 371.31, -1.54 189.73, 0 32 M0 552.46 C-0.11 370.46, 0.32 188.81, 0 32 M0 32 C0.05 11.24, 9.8 0.65, 32 0 M0 32 C2.04 11.67, 12.35 0.38, 32 0" stroke="#1e1e1e" stroke-width="1" fill="none"></path></g><g stroke-linecap="round" transform="translate(21.859375 20.99609375) rotate(0 73.712890625 73.712890625)"><path d="M49.47 4.08 C58.58 -0.3, 71.88 -0.85, 82.52 0.26 C93.16 1.37, 104.22 4.91, 113.28 10.74 C122.34 16.57, 131.25 26.12, 136.89 35.21 C142.53 44.31, 145.92 54.63, 147.12 65.3 C148.33 75.96, 147.54 89.14, 144.11 99.19 C140.67 109.25, 134.16 118.35, 126.5 125.61 C118.84 132.87, 108.36 139.34, 98.13 142.77 C87.89 146.21, 75.87 147.48, 65.09 146.21 C54.3 144.95, 42.32 140.64, 33.4 135.18 C24.48 129.73, 17.12 122.56, 11.57 113.5 C6.01 104.44, 1.28 91.66, 0.08 80.83 C-1.13 69.99, 0.85 58.3, 4.33 48.5 C7.82 38.7, 12.75 29.56, 20.99 22.01 C29.22 14.47, 47.73 6.27, 53.73 3.25 C59.73 0.23, 56.56 2.75, 56.98 3.89 M88.19 1.1 C98.23 2.31, 110.87 8.57, 119.4 15.36 C127.93 22.15, 134.84 32.13, 139.36 41.86 C143.89 51.58, 146.53 63.32, 146.55 73.7 C146.58 84.07, 143.99 94.67, 139.52 104.12 C135.06 113.58, 127.59 123.72, 119.76 130.42 C111.93 137.13, 102.55 141.95, 92.53 144.36 C82.51 146.76, 70.34 147.13, 59.65 144.86 C48.96 142.6, 37.2 137.16, 28.39 130.78 C19.59 124.39, 11.44 116.03, 6.83 106.55 C2.21 97.06, 0.8 84.57, 0.69 73.86 C0.58 63.15, 2.01 51.73, 6.16 42.31 C10.32 32.89, 17.41 24.11, 25.65 17.32 C33.88 10.53, 45.13 4.27, 55.59 1.57 C66.05 -1.13, 82.82 0.85, 88.39 1.12 C93.96 1.39, 89.31 1.69, 89.02 3.2" stroke="#e03131" stroke-width="2" fill="none"></path></g><g transform="translate(68.45940582761432 82.08609955320026) rotate(0 26.989974975585938 12.5)"><text x="26.989974975585938" y="0" font-family="Virgil, Segoe UI Emoji" font-size="20px" fill="#e03131" text-anchor="middle" style="white-space: pre;" direction="ltr" dominant-baseline="text-before-edge">Model</text></g><g stroke-linecap="round" transform="translate(208.421875 27.9375) rotate(0 66.7421875 66.7421875)"><path d="M61.06 0.81 C70.12 -0.79, 82.14 1.89, 91.36 5.3 C100.57 8.71, 109.85 14.51, 116.34 21.29 C122.82 28.06, 127.38 36.61, 130.27 45.96 C133.16 55.3, 135.11 67.67, 133.67 77.37 C132.23 87.07, 127.13 96.32, 121.64 104.18 C116.16 112.04, 108.96 119.59, 100.76 124.53 C92.55 129.47, 82.08 133.04, 72.42 133.84 C62.77 134.64, 51.97 132.79, 42.82 129.34 C33.68 125.88, 24.15 120.06, 17.56 113.11 C10.97 106.17, 6.13 96.86, 3.31 87.68 C0.48 78.51, -0.86 67.59, 0.61 58.05 C2.07 48.5, 6.83 38.46, 12.09 30.4 C17.34 22.34, 23.33 14.74, 32.12 9.7 C40.9 4.65, 59 1.63, 64.8 0.12 C70.61 -1.39, 67.09 -0.37, 66.93 0.65 M80.63 1.46 C90.07 2.97, 102.11 10, 110.01 16.09 C117.91 22.18, 123.92 29.54, 128.02 37.99 C132.13 46.44, 134.79 57, 134.64 66.77 C134.48 76.55, 131.66 87.99, 127.09 96.66 C122.52 105.33, 114.94 113.06, 107.22 118.79 C99.51 124.53, 90.03 129, 80.79 131.07 C71.55 133.13, 61.25 133.05, 51.79 131.18 C42.34 129.3, 31.5 125.71, 24.04 119.81 C16.59 113.91, 11.13 104.55, 7.05 95.81 C2.96 87.06, -0.6 77.11, -0.47 67.32 C-0.34 57.53, 3.72 46.15, 7.83 37.09 C11.93 28.02, 16.8 18.81, 24.16 12.94 C31.53 7.07, 42.31 3.56, 52.03 1.87 C61.74 0.17, 77.6 2.34, 82.47 2.76 C87.33 3.18, 81.48 3.56, 81.21 4.4" stroke="#1e1e1e" stroke-width="1" fill="none"></path></g><g transform="translate(240.18023110018225 69.485834127526) rotate(0 34.78997802734375 25)"><text x="34.78997802734375" y="0" font-family="Virgil, Segoe UI Emoji" font-size="20px" fill="#1e1e1e" text-anchor="middle" style="white-space: pre;" direction="ltr" dominant-baseline="text-before-edge">Binary </text><text x="34.78997802734375" y="25" font-family="Virgil, Segoe UI Emoji" font-size="20px" fill="#1e1e1e" text-anchor="middle" style="white-space: pre;" direction="ltr" dominant-baseline="text-before-edge">Files</text></g><g stroke-linecap="round" transform="translate(40.69140625 521.24609375) rotate(0 75.7265625 28.546875)"><path d="M14.27 0 M14.27 0 C49.45 -2.89, 81.57 -2.1, 137.18 0 M14.27 0 C53.47 1.64, 92.49 0.43, 137.18 0 M137.18 0 C145.46 -0.34, 152.46 6.57, 151.45 14.27 M137.18 0 C145.1 -0.89, 152.53 5.32, 151.45 14.27 M151.45 14.27 C153.03 24.65, 151.35 29.58, 151.45 42.82 M151.45 14.27 C151.21 23.4, 151.88 30.03, 151.45 42.82 M151.45 42.82 C149.86 50.79, 148.63 57.26, 137.18 57.09 M151.45 42.82 C149.38 54.28, 144.65 58.98, 137.18 57.09 M137.18 57.09 C108.12 54.93, 78.85 55.35, 14.27 57.09 M137.18 57.09 C95.7 57.35, 52.88 56.27, 14.27 57.09 M14.27 57.09 C5.43 57.27, 1.46 51.31, 0 42.82 M14.27 57.09 C4.58 56.97, 1.8 51.75, 0 42.82 M0 42.82 C1.79 36.58, -1.16 26.12, 0 14.27 M0 42.82 C-0.41 34.01, -0.08 26.24, 0 14.27 M0 14.27 C-0.51 4.43, 4.88 -1.08, 14.27 0 M0 14.27 C0.41 6.67, 4.42 0.38, 14.27 0" stroke="#6741d9" stroke-width="2" fill="none"></path></g><g transform="translate(46.64802551269531 537.29296875) rotate(0 69.76994323730469 12.5)"><text x="69.76994323730469" y="0" font-family="Virgil, Segoe UI Emoji" font-size="20px" fill="#6741d9" text-anchor="middle" style="white-space: pre;" direction="ltr" dominant-baseline="text-before-edge">Input Example</text></g></svg>