<svg version="1.1" xmlns="http://www.w3.org/2000/svg" viewBox="0 0 1111.8687438964844 631.50390625" width="1111.8687438964844" height="631.50390625">
  <!-- svg-source:excalidraw -->
  
  <defs>
    <style class="style-fonts">
      @font-face {
        font-family: "Virgil";
        src: url("https://excalidraw.com/Virgil.woff2");
      }
      @font-face {
        font-family: "Cascadia";
        src: url("https://excalidraw.com/Cascadia.woff2");
      }
    </style>
    
  </defs>
  <rect x="0" y="0" width="1111.8687438964844" height="631.50390625" fill="#ffffff"></rect><g stroke-linecap="round" transform="translate(10 116.203125) rotate(0 105.5234375 124.158203125)"><path d="M32 0 M32 0 C83.44 -1.29, 134.81 -0.91, 179.05 0 M32 0 C74.8 -0.71, 119.01 -1.91, 179.05 0 M179.05 0 C200.85 -1.25, 212.65 10.25, 211.05 32 M179.05 0 C200.62 0.66, 209.18 11.3, 211.05 32 M211.05 32 C212.48 68.75, 208.99 106.86, 211.05 216.32 M211.05 32 C210.65 96.09, 210.44 161.48, 211.05 216.32 M211.05 216.32 C212.96 237.96, 201.02 249.62, 179.05 248.32 M211.05 216.32 C211.02 237.17, 200.41 250.16, 179.05 248.32 M179.05 248.32 C136.57 247.36, 91.9 249.02, 32 248.32 M179.05 248.32 C121.18 249.15, 61.44 248.38, 32 248.32 M32 248.32 C9.73 247.42, -0.87 239.12, 0 216.32 M32 248.32 C8.98 250.48, 0.52 235.77, 0 216.32 M0 216.32 C1.21 158.06, 0.95 99.55, 0 32 M0 216.32 C-0.13 153.84, -0.76 93.93, 0 32 M0 32 C1.95 12.37, 9.72 1.11, 32 0 M0 32 C-0.59 10.98, 11.34 -1.47, 32 0" stroke="#1e1e1e" stroke-width="1" fill="none"></path></g><g transform="translate(56.433494567871094 121.203125) rotate(0 59.089942932128906 12.5)"><text x="59.089942932128906" y="0" font-family="Virgil, Segoe UI Emoji" font-size="20px" fill="#1e1e1e" text-anchor="middle" style="white-space: pre;" direction="ltr" dominant-baseline="text-before-edge">PythonModel</text></g><g stroke-linecap="round" transform="translate(35.0703125 182.1328125) rotate(0 81.091796875 24.123046875)"><path d="M12.06 0 M12.06 0 C62.44 -0.77, 117.59 0.59, 150.12 0 M12.06 0 C44.6 2.07, 79.2 1.51, 150.12 0 M150.12 0 C159.02 -0.29, 161.44 2.06, 162.18 12.06 M150.12 0 C158.13 0.17, 160.53 5.22, 162.18 12.06 M162.18 12.06 C162.33 17.76, 163.98 21.24, 162.18 36.18 M162.18 12.06 C161.38 22.33, 162.96 30.4, 162.18 36.18 M162.18 36.18 C161.33 46.17, 159.61 50.11, 150.12 48.25 M162.18 36.18 C163.53 43.38, 157.96 46.98, 150.12 48.25 M150.12 48.25 C100.16 47.86, 45.59 47.33, 12.06 48.25 M150.12 48.25 C109.64 46.85, 71.85 47.55, 12.06 48.25 M12.06 48.25 C5.94 46.87, 1.01 44.61, 0 36.18 M12.06 48.25 C2.74 48.61, 0 45.22, 0 36.18 M0 36.18 C-1.4 28.25, -1.65 18.82, 0 12.06 M0 36.18 C-0.64 28.15, 0.74 19.62, 0 12.06 M0 12.06 C0.42 3.2, 2.06 -1.4, 12.06 0 M0 12.06 C-0.34 5.39, 3.88 1.21, 12.06 0" stroke="#1e1e1e" stroke-width="1" fill="none"></path></g><g transform="translate(42.22217559814453 193.755859375) rotate(0 73.93993377685547 12.5)"><text x="73.93993377685547" y="0" font-family="Virgil, Segoe UI Emoji" font-size="20px" fill="#1e1e1e" text-anchor="middle" style="white-space: pre;" direction="ltr" dominant-baseline="text-before-edge">load_context()</text></g><g stroke-linecap="round" transform="translate(34.615234375 268.201171875) rotate(0 81.091796875 24.123046875)"><path d="M12.06 0 M12.06 0 C65.7 -1.06, 115.14 0.41, 150.12 0 M12.06 0 C40.78 0.09, 68.2 -0.19, 150.12 0 M150.12 0 C159.22 -0.96, 161.37 3.97, 162.18 12.06 M150.12 0 C159.82 1.42, 160.7 4.96, 162.18 12.06 M162.18 12.06 C162.46 19.17, 160.41 25.45, 162.18 36.18 M162.18 12.06 C162.95 17.71, 162.13 24.66, 162.18 36.18 M162.18 36.18 C160.54 42.5, 156.87 47.75, 150.12 48.25 M162.18 36.18 C160.94 44.54, 158.9 49.83, 150.12 48.25 M150.12 48.25 C115.6 50.88, 85.43 49.97, 12.06 48.25 M150.12 48.25 C112.24 49.05, 75.34 49.81, 12.06 48.25 M12.06 48.25 C3.07 48.39, 1.23 44.16, 0 36.18 M12.06 48.25 C2.68 50.31, 1.58 45.76, 0 36.18 M0 36.18 C2.02 29.65, 0.54 19.14, 0 12.06 M0 36.18 C0.87 29.12, -0.27 19.57, 0 12.06 M0 12.06 C1.44 4.61, 3.78 0.86, 12.06 0 M0 12.06 C-1.6 2.22, 2.16 1.92, 12.06 0" stroke="#1e1e1e" stroke-width="1" fill="none"></path></g><g transform="translate(74.92707824707031 279.82421875) rotate(0 40.77995300292969 12.5)"><text x="40.77995300292969" y="0" font-family="Virgil, Segoe UI Emoji" font-size="20px" fill="#1e1e1e" text-anchor="middle" style="white-space: pre;" direction="ltr" dominant-baseline="text-before-edge">predict()</text></g><g stroke-linecap="round" transform="translate(570.99609375 173.10546875) rotate(0 116.974609375 83.236328125)"><path d="M32 0 M32 0 C69.87 0.97, 109.5 -1.83, 201.95 0 M32 0 C71.58 -2.3, 110.18 -1.17, 201.95 0 M201.95 0 C221.31 -0.31, 234.56 8.94, 233.95 32 M201.95 0 C223.95 -0.48, 235.91 10.35, 233.95 32 M233.95 32 C234.84 66.66, 235.02 104.06, 233.95 134.47 M233.95 32 C234.97 57.14, 235.27 82.76, 233.95 134.47 M233.95 134.47 C232.1 157.4, 223.85 168.03, 201.95 166.47 M233.95 134.47 C231.82 153.94, 223.14 166.02, 201.95 166.47 M201.95 166.47 C140.63 166.82, 77.26 166.04, 32 166.47 M201.95 166.47 C138.93 166.41, 76.61 167.05, 32 166.47 M32 166.47 C8.92 164.96, -1.28 155.58, 0 134.47 M32 166.47 C11.56 166.07, 1.94 154.66, 0 134.47 M0 134.47 C-0.16 101.33, -1.56 69.86, 0 32 M0 134.47 C0.41 107.68, -0.86 81.35, 0 32 M0 32 C-0.05 12.42, 8.97 0.13, 32 0 M0 32 C1.18 12.58, 9.18 0.67, 32 0" stroke="#1e1e1e" stroke-width="1" fill="none"></path></g><g transform="translate(589.8407974243164 178.10546875) rotate(0 98.1299057006836 12.5)"><text x="98.1299057006836" y="0" font-family="Virgil, Segoe UI Emoji" font-size="20px" fill="#1e1e1e" text-anchor="middle" style="white-space: pre;" direction="ltr" dominant-baseline="text-before-edge">PythonModelContext</text></g><g stroke-linecap="round" transform="translate(595.1171875 270.3828125) rotate(0 91.087890625 19.91015625)"><path d="M9.96 0 M9.96 0 C54.83 0.19, 96.92 1.93, 172.22 0 M9.96 0 C45.36 -0.14, 78.56 1.35, 172.22 0 M172.22 0 C179.68 0.56, 181.31 2.5, 182.18 9.96 M172.22 0 C179.3 0.43, 183.16 2.22, 182.18 9.96 M182.18 9.96 C180.46 15.76, 181.46 22.62, 182.18 29.87 M182.18 9.96 C181.62 16.21, 182.54 20.67, 182.18 29.87 M182.18 29.87 C184.11 38.12, 179.43 40.47, 172.22 39.82 M182.18 29.87 C182.1 36, 178.05 41.1, 172.22 39.82 M172.22 39.82 C116.42 38.56, 59.95 41.73, 9.96 39.82 M172.22 39.82 C113.23 40.23, 53.82 40.09, 9.96 39.82 M9.96 39.82 C1.84 40.72, -0.58 38.39, 0 29.87 M9.96 39.82 C2.84 41.68, 1.39 38.49, 0 29.87 M0 29.87 C1.31 25.48, 0.68 19.11, 0 9.96 M0 29.87 C-0.41 21.81, 0.53 16.39, 0 9.96 M0 9.96 C-1.1 4.3, 2.16 0.74, 9.96 0 M0 9.96 C-1.59 2.53, 4.87 -1.95, 9.96 0" stroke="#1e1e1e" stroke-width="1" fill="none"></path></g><g transform="translate(639.7651214599609 277.79296875) rotate(0 46.43995666503906 12.5)"><text x="46.43995666503906" y="0" font-family="Virgil, Segoe UI Emoji" font-size="20px" fill="#1e1e1e" text-anchor="middle" style="white-space: pre;" direction="ltr" dominant-baseline="text-before-edge">artifacts</text></g><g transform="translate(853.62890625 56.75390625) rotate(0 124.11991882324219 100)"><text x="0" y="0" font-family="Virgil, Segoe UI Emoji" font-size="20px" fill="#1e1e1e" text-anchor="start" style="white-space: pre;" direction="ltr" dominant-baseline="text-before-edge">This is a property</text><text x="0" y="25" font-family="Virgil, Segoe UI Emoji" font-size="20px" fill="#1e1e1e" text-anchor="start" style="white-space: pre;" direction="ltr" dominant-baseline="text-before-edge">of the class. </text><text x="0" y="50" font-family="Virgil, Segoe UI Emoji" font-size="20px" fill="#1e1e1e" text-anchor="start" style="white-space: pre;" direction="ltr" dominant-baseline="text-before-edge"></text><text x="0" y="75" font-family="Virgil, Segoe UI Emoji" font-size="20px" fill="#1e1e1e" text-anchor="start" style="white-space: pre;" direction="ltr" dominant-baseline="text-before-edge">We can set a dictionary </text><text x="0" y="100" font-family="Virgil, Segoe UI Emoji" font-size="20px" fill="#1e1e1e" text-anchor="start" style="white-space: pre;" direction="ltr" dominant-baseline="text-before-edge">that maps a key </text><text x="0" y="125" font-family="Virgil, Segoe UI Emoji" font-size="20px" fill="#1e1e1e" text-anchor="start" style="white-space: pre;" direction="ltr" dominant-baseline="text-before-edge">to a path where </text><text x="0" y="150" font-family="Virgil, Segoe UI Emoji" font-size="20px" fill="#1e1e1e" text-anchor="start" style="white-space: pre;" direction="ltr" dominant-baseline="text-before-edge">dependent files are </text><text x="0" y="175" font-family="Virgil, Segoe UI Emoji" font-size="20px" fill="#1e1e1e" text-anchor="start" style="white-space: pre;" direction="ltr" dominant-baseline="text-before-edge">located to use this.</text></g><g stroke-linecap="round"><g transform="translate(936.7714559734309 266.69921875) rotate(0 -76.054494214378 17.13332208019858)"><path d="M0.74 0.88 C-7.24 6.48, -22.41 28.83, -47.91 32.98 C-73.41 37.13, -134.65 26.85, -152.26 25.78 M-0.33 0.3 C-8.45 5.61, -23.33 26.86, -48.75 31.3 C-74.17 35.75, -135.34 28.14, -152.85 26.96" stroke="#1e1e1e" stroke-width="1" fill="none"></path></g><g transform="translate(936.7714559734309 266.69921875) rotate(0 -76.054494214378 17.13332208019858)"><path d="M-122.38 19.63 C-131.22 22.33, -141.8 22.48, -152 28.1 M-124.34 18.37 C-132.72 22.45, -140.77 24.06, -153.44 26.55" stroke="#1e1e1e" stroke-width="1" fill="none"></path></g><g transform="translate(936.7714559734309 266.69921875) rotate(0 -76.054494214378 17.13332208019858)"><path d="M-124.22 40.07 C-132.41 36.6, -142.43 30.59, -152 28.1 M-126.18 38.81 C-133.84 36.84, -141.35 32.41, -153.44 26.55" stroke="#1e1e1e" stroke-width="1" fill="none"></path></g></g><mask></mask><g transform="translate(138.5859375 10) rotate(0 131.58990478515625 12.5)"><text x="0" y="0" font-family="Virgil, Segoe UI Emoji" font-size="20px" fill="#1e1e1e" text-anchor="start" style="white-space: pre;" direction="ltr" dominant-baseline="text-before-edge">When a pyfunc is loaded ...</text></g><g stroke-linecap="round"><g transform="translate(248.2259691123404 45.5859375) rotate(0 -52.000333548994774 29.8292660910636)"><path d="M0.07 -1.2 C-10.74 1.65, -47.35 6.99, -64.66 17.33 C-81.98 27.68, -97.01 53.74, -103.85 60.86 M-1.36 0.79 C-12.37 3.26, -48.69 5.8, -65.8 15.52 C-82.92 25.23, -97.4 51.44, -104.07 59.07" stroke="#1e1e1e" stroke-width="1" fill="none"></path></g><g transform="translate(248.2259691123404 45.5859375) rotate(0 -52.000333548994774 29.8292660910636)"><path d="M-97.87 30.04 C-97.41 41.3, -99.19 47.18, -103.65 58.32 M-95.59 30.84 C-97.81 36.05, -98.15 41.42, -104 60.02" stroke="#1e1e1e" stroke-width="1" fill="none"></path></g><g transform="translate(248.2259691123404 45.5859375) rotate(0 -52.000333548994774 29.8292660910636)"><path d="M-81.51 41.96 C-86.21 49.49, -93.11 51.63, -103.65 58.32 M-79.24 42.76 C-84.89 45.58, -88.58 48.5, -104 60.02" stroke="#1e1e1e" stroke-width="1" fill="none"></path></g></g><mask></mask><g transform="translate(273.015625 211.08203125) rotate(0 107.7599105834961 25)"><text x="0" y="0" font-family="Virgil, Segoe UI Emoji" font-size="20px" fill="#1e1e1e" text-anchor="start" style="white-space: pre;" direction="ltr" dominant-baseline="text-before-edge">... which is used in </text><text x="0" y="25" font-family="Virgil, Segoe UI Emoji" font-size="20px" fill="#1e1e1e" text-anchor="start" style="white-space: pre;" direction="ltr" dominant-baseline="text-before-edge">calling load_context()</text></g><g transform="translate(277.953125 89.94921875) rotate(0 76.29993438720703 25)"><text x="0" y="0" font-family="Virgil, Segoe UI Emoji" font-size="20px" fill="#1e1e1e" text-anchor="start" style="white-space: pre;" direction="ltr" dominant-baseline="text-before-edge">the context is </text><text x="0" y="25" font-family="Virgil, Segoe UI Emoji" font-size="20px" fill="#1e1e1e" text-anchor="start" style="white-space: pre;" direction="ltr" dominant-baseline="text-before-edge">loaded ...</text></g><g stroke-linecap="round"><g transform="translate(445.9609375 115.63192805539859) rotate(0 58.926792549649235 28.726514909202024)"><path d="M-0.61 0.75 C11.5 5, 52.27 15.29, 71.73 24.72 C91.18 34.16, 108.36 52.08, 116.12 57.36 M1.28 0.09 C13.29 4.56, 51.21 16.7, 70.74 25.9 C90.27 35.11, 111.01 50.09, 118.46 55.31" stroke="#1e1e1e" stroke-width="1" fill="none"></path></g><g transform="translate(445.9609375 115.63192805539859) rotate(0 58.926792549649235 28.726514909202024)"><path d="M93.06 48.06 C96.65 48.19, 104.75 53.4, 117.77 53.82 M90.99 48.32 C99.24 50.34, 107.01 52.95, 117.57 55.45" stroke="#1e1e1e" stroke-width="1" fill="none"></path></g><g transform="translate(445.9609375 115.63192805539859) rotate(0 58.926792549649235 28.726514909202024)"><path d="M103.86 32.6 C104.91 36.17, 110.57 44.87, 117.77 53.82 M101.79 32.86 C107 39.13, 111.75 46.06, 117.57 55.45" stroke="#1e1e1e" stroke-width="1" fill="none"></path></g></g><mask></mask><g stroke-linecap="round"><g transform="translate(561.9609375 279.96484375) rotate(0 -32.69443310402335 -10.664470474049438)"><path d="M-1.09 0.11 C-7.16 -0.75, -26.07 -1.13, -36.78 -4.72 C-47.5 -8.31, -60.44 -18.78, -65.39 -21.44 M0.54 -0.88 C-5.69 -1.57, -26.89 0.02, -37.97 -3.17 C-49.05 -6.35, -61.16 -16.74, -65.93 -19.99" stroke="#1e1e1e" stroke-width="1" fill="none"></path></g><g transform="translate(561.9609375 279.96484375) rotate(0 -32.69443310402335 -10.664470474049438)"><path d="M-49.47 -15.82 C-53.98 -16.02, -58.05 -18.84, -64.48 -20.23 M-49.92 -15.85 C-54.5 -17.51, -60.47 -19.14, -65.45 -19.45" stroke="#1e1e1e" stroke-width="1" fill="none"></path></g><g transform="translate(561.9609375 279.96484375) rotate(0 -32.69443310402335 -10.664470474049438)"><path d="M-56.38 -6.47 C-59.07 -9.11, -61.29 -14.45, -64.48 -20.23 M-56.83 -6.5 C-59.22 -11.06, -62.99 -15.67, -65.45 -19.45" stroke="#1e1e1e" stroke-width="1" fill="none"></path></g></g><mask></mask><g stroke-linecap="round"><g transform="translate(259.80859375 240.79296875) rotate(0 -28.95912930652497 -9.361140147969138)"><path d="M0.18 -0.46 C-6.4 -1.76, -30.81 -5.44, -40.34 -8.41 C-49.88 -11.37, -54.29 -16.75, -57.01 -18.26 M-1.18 -1.75 C-7.32 -2.81, -28.59 -4.43, -38.07 -6.96 C-47.56 -9.49, -55.02 -14.86, -58.1 -16.96" stroke="#1e1e1e" stroke-width="1" fill="none"></path></g><g transform="translate(259.80859375 240.79296875) rotate(0 -28.95912930652497 -9.361140147969138)"><path d="M-48.95 -15.3 C-50.9 -15.64, -52.98 -15.91, -57.46 -17.7 M-48.75 -14.74 C-50.59 -15.08, -52.75 -15.72, -58.04 -16.97" stroke="#1e1e1e" stroke-width="1" fill="none"></path></g><g transform="translate(259.80859375 240.79296875) rotate(0 -28.95912930652497 -9.361140147969138)"><path d="M-52.69 -9.72 C-53.74 -11.36, -54.97 -12.9, -57.46 -17.7 M-52.48 -9.16 C-53.43 -10.85, -54.73 -12.79, -58.04 -16.97" stroke="#1e1e1e" stroke-width="1" fill="none"></path></g></g><mask></mask><g transform="translate(252.12109375 280.55078125) rotate(0 126.55990600585938 62.5)"><text x="0" y="0" font-family="Virgil, Segoe UI Emoji" font-size="20px" fill="#1e1e1e" text-anchor="start" style="white-space: pre;" direction="ltr" dominant-baseline="text-before-edge">... so we can have </text><text x="0" y="25" font-family="Virgil, Segoe UI Emoji" font-size="20px" fill="#1e1e1e" text-anchor="start" style="white-space: pre;" direction="ltr" dominant-baseline="text-before-edge">file dependencies loaded </text><text x="0" y="50" font-family="Virgil, Segoe UI Emoji" font-size="20px" fill="#1e1e1e" text-anchor="start" style="white-space: pre;" direction="ltr" dominant-baseline="text-before-edge">when loading the pyfunc, </text><text x="0" y="75" font-family="Virgil, Segoe UI Emoji" font-size="20px" fill="#1e1e1e" text-anchor="start" style="white-space: pre;" direction="ltr" dominant-baseline="text-before-edge">making them available to </text><text x="0" y="100" font-family="Virgil, Segoe UI Emoji" font-size="20px" fill="#1e1e1e" text-anchor="start" style="white-space: pre;" direction="ltr" dominant-baseline="text-before-edge">the predict() method.</text></g><g stroke-linecap="round" transform="translate(414.44140625 492.1796875) rotate(0 136.962890625 64.662109375)"><path d="M32 0 M32 0 C99.86 0.68, 162.81 0.76, 241.93 0 M32 0 C98.16 -0.45, 163.99 -1.61, 241.93 0 M241.93 0 C263.62 -0.29, 275.57 9.22, 273.93 32 M241.93 0 C263.92 1.29, 272.7 11.76, 273.93 32 M273.93 32 C273.53 50.04, 272.1 71.2, 273.93 97.32 M273.93 32 C274.57 56.71, 274.63 83.47, 273.93 97.32 M273.93 97.32 C273.68 118.36, 261.54 128.82, 241.93 129.32 M273.93 97.32 C275.17 118.82, 263.83 128.44, 241.93 129.32 M241.93 129.32 C183.04 129.2, 125.91 131.88, 32 129.32 M241.93 129.32 C181.53 129.1, 122.01 127.68, 32 129.32 M32 129.32 C10.03 130.49, -1.86 119.71, 0 97.32 M32 129.32 C10.17 130.87, 1.9 120.55, 0 97.32 M0 97.32 C-1.97 76.48, -1.97 55.97, 0 32 M0 97.32 C-0.18 84.2, -0.83 69.17, 0 32 M0 32 C1.25 11.07, 9.93 -1.09, 32 0 M0 32 C2.05 9.65, 12.43 -1.61, 32 0" stroke="#1e1e1e" stroke-width="1" fill="none"></path></g><g transform="translate(422.72442626953125 497.1796875) rotate(0 128.67987060546875 12.5)"><text x="128.67987060546875" y="0" font-family="Virgil, Segoe UI Emoji" font-size="20px" fill="#1e1e1e" text-anchor="middle" style="white-space: pre;" direction="ltr" dominant-baseline="text-before-edge">PythonModelPyfuncWrapper</text></g><g stroke-linecap="round" transform="translate(473.021484375 556.783203125) rotate(0 81.091796875 24.123046875)"><path d="M12.06 0 M12.06 0 C49.04 -1.84, 83.36 -0.6, 150.12 0 M12.06 0 C67.5 -0.01, 121 1.42, 150.12 0 M150.12 0 C157.8 0.8, 162.57 4.67, 162.18 12.06 M150.12 0 C157.39 -1.96, 164.33 2.4, 162.18 12.06 M162.18 12.06 C161.22 17.78, 161.93 25.19, 162.18 36.18 M162.18 12.06 C162.92 21.46, 161.41 30.31, 162.18 36.18 M162.18 36.18 C162.39 43.12, 156.73 48.41, 150.12 48.25 M162.18 36.18 C164.13 45.11, 158.67 50.52, 150.12 48.25 M150.12 48.25 C123.7 48.74, 95.54 49.88, 12.06 48.25 M150.12 48.25 C96.83 46.39, 44.98 46.96, 12.06 48.25 M12.06 48.25 C4.45 48.12, -0.83 43.82, 0 36.18 M12.06 48.25 C2.68 50.46, 1.87 46.07, 0 36.18 M0 36.18 C-2.05 27.41, 1.03 17.09, 0 12.06 M0 36.18 C0.18 29.81, 0.98 24.17, 0 12.06 M0 12.06 C0.62 5.05, 4.34 -0.42, 12.06 0 M0 12.06 C2.23 3.36, 2.91 -0.23, 12.06 0" stroke="#1e1e1e" stroke-width="1" fill="none"></path></g><g transform="translate(513.3333282470703 568.40625) rotate(0 40.77995300292969 12.5)"><text x="40.77995300292969" y="0" font-family="Virgil, Segoe UI Emoji" font-size="20px" fill="#1e1e1e" text-anchor="middle" style="white-space: pre;" direction="ltr" dominant-baseline="text-before-edge">predict()</text></g><g transform="translate(47.00390625 466.94140625) rotate(0 133.45989990234375 75)"><text x="0" y="0" font-family="Virgil, Segoe UI Emoji" font-size="20px" fill="#1e1e1e" text-anchor="start" style="white-space: pre;" direction="ltr" dominant-baseline="text-before-edge">... which is processed by </text><text x="0" y="25" font-family="Virgil, Segoe UI Emoji" font-size="20px" fill="#1e1e1e" text-anchor="start" style="white-space: pre;" direction="ltr" dominant-baseline="text-before-edge">the wrapper class that is </text><text x="0" y="50" font-family="Virgil, Segoe UI Emoji" font-size="20px" fill="#1e1e1e" text-anchor="start" style="white-space: pre;" direction="ltr" dominant-baseline="text-before-edge">called when loading a </text><text x="0" y="75" font-family="Virgil, Segoe UI Emoji" font-size="20px" fill="#1e1e1e" text-anchor="start" style="white-space: pre;" direction="ltr" dominant-baseline="text-before-edge">pyfunc, handling the </text><text x="0" y="100" font-family="Virgil, Segoe UI Emoji" font-size="20px" fill="#1e1e1e" text-anchor="start" style="white-space: pre;" direction="ltr" dominant-baseline="text-before-edge">resolution of context </text><text x="0" y="125" font-family="Virgil, Segoe UI Emoji" font-size="20px" fill="#1e1e1e" text-anchor="start" style="white-space: pre;" direction="ltr" dominant-baseline="text-before-edge">references </text></g><g stroke-linecap="round" transform="translate(766.80859375 520.5078125) rotate(0 160.443359375 37.712890625)"><path d="M18.86 0 M18.86 0 C83.45 -1.56, 147.08 -0.5, 302.03 0 M18.86 0 C77.28 -1.53, 134.34 -1.3, 302.03 0 M302.03 0 C314.56 1.85, 320.76 7.72, 320.89 18.86 M302.03 0 C313.96 -2.25, 322.13 7.67, 320.89 18.86 M320.89 18.86 C322.77 31.16, 321.9 44.92, 320.89 56.57 M320.89 18.86 C321.29 28.88, 320.4 39.15, 320.89 56.57 M320.89 56.57 C319.76 67.32, 312.83 75.24, 302.03 75.43 M320.89 56.57 C318.96 66.94, 313.32 76.64, 302.03 75.43 M302.03 75.43 C221.38 75.03, 142.94 74.83, 18.86 75.43 M302.03 75.43 C219.1 74.69, 135.53 75.26, 18.86 75.43 M18.86 75.43 C4.99 75.76, 0.96 69.73, 0 56.57 M18.86 75.43 C7.68 73.35, -1.77 70.04, 0 56.57 M0 56.57 C1.27 44.33, -0.46 35.23, 0 18.86 M0 56.57 C-1.09 44.9, 0.35 32.65, 0 18.86 M0 18.86 C-0.47 8.26, 5.06 1.87, 18.86 0 M0 18.86 C0.91 4.68, 6.02 -1.78, 18.86 0" stroke="#1e1e1e" stroke-width="1" fill="none"></path></g><g transform="translate(801.8620758056641 545.720703125) rotate(0 125.38987731933594 12.5)"><text x="125.38987731933594" y="0" font-family="Virgil, Segoe UI Emoji" font-size="20px" fill="#1e1e1e" text-anchor="middle" style="white-space: pre;" direction="ltr" dominant-baseline="text-before-edge">mlflow.pyfunc.load_model()</text></g><g stroke-linecap="round"><g transform="translate(698.15625 563.0859375) rotate(0 32.324870220124694 7.640990618490946)"><path d="M0.13 0.93 C5.91 3.25, 22.83 14.11, 33.79 14.87 C44.75 15.63, 60.75 6.71, 65.9 5.49 M-1.25 0.37 C4.48 2.26, 21.98 12.13, 33.08 13.11 C44.17 14.09, 60.06 7.53, 65.3 6.26" stroke="#1e1e1e" stroke-width="1" fill="none"></path></g><g transform="translate(698.15625 563.0859375) rotate(0 32.324870220124694 7.640990618490946)"><path d="M53.38 16.9 C56 14.41, 56.61 10.48, 66.7 7.74 M51.6 16.66 C56.32 13.4, 61.16 9.91, 65.44 6.81" stroke="#1e1e1e" stroke-width="1" fill="none"></path></g><g transform="translate(698.15625 563.0859375) rotate(0 32.324870220124694 7.640990618490946)"><path d="M50.03 6.07 C53.49 6.05, 54.87 4.58, 66.7 7.74 M48.24 5.83 C54.13 6.2, 60.1 6.35, 65.44 6.81" stroke="#1e1e1e" stroke-width="1" fill="none"></path></g></g><mask></mask><g stroke-linecap="round"><g transform="translate(86.24609375 382.87109375) rotate(0 9.431271252185127 42.41281735226511)"><path d="M0.44 0.87 C0.92 9.16, 0.65 36.12, 3.85 50.06 C7.05 64.01, 17.11 78.94, 19.65 84.55 M-0.79 0.28 C-0.53 8.19, -0.32 34.51, 3.03 48.25 C6.37 61.98, 16.56 76.6, 19.31 82.71" stroke="#1e1e1e" stroke-width="1" fill="none"></path></g><g transform="translate(86.24609375 382.87109375) rotate(0 9.431271252185127 42.41281735226511)"><path d="M6.67 70.7 C11.57 76.23, 17.48 80.08, 19.51 80.93 M5.14 71.05 C9.84 73.7, 14.07 76.68, 19.9 81.87" stroke="#1e1e1e" stroke-width="1" fill="none"></path></g><g transform="translate(86.24609375 382.87109375) rotate(0 9.431271252185127 42.41281735226511)"><path d="M17.9 64.61 C18.55 72.49, 20.18 78.66, 19.51 80.93 M16.37 64.95 C17.89 69.24, 18.94 73.95, 19.9 81.87" stroke="#1e1e1e" stroke-width="1" fill="none"></path></g></g><mask></mask><g stroke-linecap="round"><g transform="translate(269.04296875 562.47265625) rotate(0 61.85374419502915 8.058213566429288)"><path d="M-0.27 -0.24 C9.93 2.55, 40.76 15.64, 61.46 17.3 C82.17 18.95, 113.46 10.9, 123.97 9.7 M1.8 -1.41 C12.33 1.02, 43.47 13.74, 63.65 15.75 C83.84 17.76, 112.72 11.45, 122.91 10.66" stroke="#1e1e1e" stroke-width="1" fill="none"></path></g><g transform="translate(269.04296875 562.47265625) rotate(0 61.85374419502915 8.058213566429288)"><path d="M95.96 22.96 C106.7 19.21, 112.34 15.66, 122.4 11.72 M96.82 23.93 C103.61 19.97, 110.99 16.98, 123.42 10.47" stroke="#1e1e1e" stroke-width="1" fill="none"></path></g><g transform="translate(269.04296875 562.47265625) rotate(0 61.85374419502915 8.058213566429288)"><path d="M93.2 2.62 C104.93 5.46, 111.47 8.49, 122.4 11.72 M94.07 3.6 C101.49 5.13, 109.62 7.65, 123.42 10.47" stroke="#1e1e1e" stroke-width="1" fill="none"></path></g></g><mask></mask></svg>