<svg version="1.1" xmlns="http://www.w3.org/2000/svg" viewBox="0 0 795.296875 686.33203125" width="795.296875" height="686.33203125">
  <!-- svg-source:excalidraw -->
  
  <defs>
    <style class="style-fonts">
      @font-face {
        font-family: "Virgil";
        src: url("https://excalidraw.com/Virgil.woff2");
      }
      @font-face {
        font-family: "Cascadia";
        src: url("https://excalidraw.com/Cascadia.woff2");
      }
    </style>
    
  </defs>
  <rect x="0" y="0" width="795.296875" height="686.33203125" fill="#ffffff"></rect><g stroke-linecap="round" transform="translate(233.54296875 10) rotate(0 194.26509159118416 333.166015625)"><path d="M32 0 M32 0 C107.75 -1.47, 181.91 -0.93, 356.53 0 M32 0 C120.12 0.08, 208.97 1.11, 356.53 0 M356.53 0 C379.21 -1.98, 389.52 8.98, 388.53 32 M356.53 0 C377.61 2.18, 390.26 12.18, 388.53 32 M388.53 32 C386.66 160.51, 386.38 287.29, 388.53 634.33 M388.53 32 C390.41 170.34, 390.18 307.9, 388.53 634.33 M388.53 634.33 C389.26 657.19, 379.66 665.31, 356.53 666.33 M388.53 634.33 C386.65 654.4, 378.79 664.51, 356.53 666.33 M356.53 666.33 C253.24 666.14, 148.51 666.66, 32 666.33 M356.53 666.33 C235.8 666.44, 115.88 666.52, 32 666.33 M32 666.33 C9.73 664.66, -0.19 654.44, 0 634.33 M32 666.33 C10.01 665.06, 2.07 655.11, 0 634.33 M0 634.33 C-1.09 442.98, -1.19 251.9, 0 32 M0 634.33 C-0.91 503.17, -0.59 371.8, 0 32 M0 32 C-1.54 10.39, 11.32 -0.82, 32 0 M0 32 C-0.27 10.56, 10.69 1.83, 32 0" stroke="#1e1e1e" stroke-width="1" fill="none"></path></g><g transform="translate(254.74174456849755 25.74247643491833) rotate(0 85.26526641845703 12.421160068759804)"><text x="0" y="0" font-family="Virgil, Segoe UI Emoji" font-size="19.873856110015673px" fill="#1e1e1e" text-anchor="start" style="white-space: pre;" direction="ltr" dominant-baseline="text-before-edge">My Notebook.ipynb</text></g><g stroke-linecap="round" transform="translate(289.16271894327735 73.02172660239398) rotate(0 159.00000000000006 30)"><path d="M15 0 M15 0 C102.86 0.09, 192.97 -1.89, 303 0 M15 0 C90.46 -1.79, 166.19 -0.66, 303 0 M303 0 C312.86 -0.32, 316.59 3.44, 318 15 M303 0 C314.69 1.52, 316.79 7.13, 318 15 M318 15 C316.27 21.07, 318.08 31.33, 318 45 M318 15 C317.06 25.82, 317.6 36.85, 318 45 M318 45 C317.48 54.91, 311.21 58.72, 303 60 M318 45 C316.89 56.1, 311.29 58.08, 303 60 M303 60 C225.81 59, 144.71 59.82, 15 60 M303 60 C204.26 61.89, 104.6 61.12, 15 60 M15 60 C3.35 61.23, 0.56 56.46, 0 45 M15 60 C3.46 62.27, -0.61 53.35, 0 45 M0 45 C-0.53 35.35, -1.21 26.26, 0 15 M0 45 C-0.29 34.01, 0.71 21.58, 0 15 M0 15 C0.14 3.18, 3.73 1.54, 15 0 M0 15 C0.32 5.28, 7.25 0.03, 15 0" stroke="#1e1e1e" stroke-width="1" fill="none"></path></g><g transform="translate(294.16271894327735 90.57043885278165) rotate(0 89.99851989746094 12.451287749612334)"><text x="0" y="0" font-family="Virgil, Segoe UI Emoji" font-size="19.922060399379735px" fill="#1e1e1e" text-anchor="start" style="white-space: pre;" direction="ltr" dominant-baseline="text-before-edge">import statements</text></g><g stroke-linecap="round" transform="translate(282.65553831265095 145.4443239778647) rotate(0 161.00000000000006 30)"><path d="M15 0 M15 0 C120.11 0.45, 222.69 0.92, 307 0 M15 0 C77.73 -0.85, 140.19 -1.91, 307 0 M307 0 C317.8 -0.32, 320.69 3.99, 322 15 M307 0 C317.5 -2.18, 320.2 6.07, 322 15 M322 15 C320.14 21.66, 322.76 31.72, 322 45 M322 15 C322.56 26.21, 321.46 38.1, 322 45 M322 45 C323.71 56.05, 316.43 58.16, 307 60 M322 45 C323.46 56.91, 315.67 61.09, 307 60 M307 60 C226.51 58.36, 146.57 58.48, 15 60 M307 60 C231.37 60.98, 155.62 62.07, 15 60 M15 60 C4.59 61.8, 0.16 55.89, 0 45 M15 60 C6.94 62.25, 0.98 55, 0 45 M0 45 C-0.08 36.94, -0.33 29.05, 0 15 M0 45 C0.22 38.4, 0.84 30.83, 0 15 M0 15 C0.19 4.32, 5 -1.6, 15 0 M0 15 C-1.4 6.63, 5.2 1.27, 15 0" stroke="#1e1e1e" stroke-width="1" fill="none"></path></g><g transform="translate(287.65553831265095 162.99303622825238) rotate(0 50.009132385253906 12.451287749612334)"><text x="0" y="0" font-family="Virgil, Segoe UI Emoji" font-size="19.922060399379735px" fill="#1e1e1e" text-anchor="start" style="white-space: pre;" direction="ltr" dominant-baseline="text-before-edge">load data</text></g><g stroke-linecap="round" transform="translate(281.9026460227841 215.8543832193597) rotate(0 161.50000000000006 30.00000000000003)"><path d="M15 0 M15 0 C116.82 -1.58, 218.08 -2.75, 308 0 M15 0 C124.45 -0.04, 232.65 -0.38, 308 0 M308 0 C316.12 1.1, 321.59 6.65, 323 15 M308 0 C318.34 -0.1, 320.8 4.78, 323 15 M323 15 C323.57 23.53, 323.79 31.21, 323 45 M323 15 C323.13 24.31, 322.61 31.33, 323 45 M323 45 C321.4 55.76, 316.41 59.76, 308 60 M323 45 C322.51 55.26, 317.19 57.92, 308 60 M308 60 C208.14 58.85, 106.39 57.55, 15 60 M308 60 C213.03 60.74, 119.85 60.99, 15 60 M15 60 C6.75 60.25, -1.97 54.09, 0 45 M15 60 C6.23 61.19, 0.84 53.08, 0 45 M0 45 C0.11 37.92, 0.53 30.79, 0 15 M0 45 C-0.22 37.8, -1.1 30.74, 0 15 M0 15 C-1.34 3.52, 6.68 -1.93, 15 0 M0 15 C-0.71 6.82, 4.94 1.95, 15 0" stroke="#1e1e1e" stroke-width="1" fill="none"></path></g><g transform="translate(286.9026460227841 233.4030954697473) rotate(0 80.2476806640625 12.451287749612334)"><text x="0" y="0" font-family="Virgil, Segoe UI Emoji" font-size="19.922060399379735px" fill="#1e1e1e" text-anchor="start" style="white-space: pre;" direction="ltr" dominant-baseline="text-before-edge">manipulate data</text></g><g stroke-linecap="round" transform="translate(284.7004740926044 284.1038904238203) rotate(0 160.00000000000006 30)"><path d="M15 0 M15 0 C125.16 2.25, 236.91 0.84, 305 0 M15 0 C103.22 0.47, 190.64 -0.86, 305 0 M305 0 C314.38 -1.77, 319.61 3.59, 320 15 M305 0 C314.36 -1.78, 319.32 4.51, 320 15 M320 15 C321.66 19.4, 318.53 26.55, 320 45 M320 15 C319.26 22.96, 320.44 29.29, 320 45 M320 45 C320.73 54.54, 315.88 61.43, 305 60 M320 45 C318.01 52.73, 315.73 60.69, 305 60 M305 60 C225.96 58.61, 148.08 58, 15 60 M305 60 C226.68 60.33, 148.73 59.59, 15 60 M15 60 C4.58 59.64, 1.79 53.11, 0 45 M15 60 C4.36 59.43, 1.56 55.8, 0 45 M0 45 C-1.24 31.67, 1.36 23.26, 0 15 M0 45 C0.05 33.86, 0.97 21.58, 0 15 M0 15 C0.06 4.54, 4.83 -0.51, 15 0 M0 15 C-1.78 6.08, 4.63 -1.73, 15 0" stroke="#1e1e1e" stroke-width="1" fill="none"></path></g><g transform="translate(289.7004740926044 301.65260267420797) rotate(0 141.14306640625006 12.451287749612334)"><text x="0" y="0" font-family="Virgil, Segoe UI Emoji" font-size="19.922060399379735px" fill="#1e1e1e" text-anchor="start" style="white-space: pre;" direction="ltr" dominant-baseline="text-before-edge">train / test / validate split</text></g><g stroke-linecap="round" transform="translate(281.4377577566021 355.5245723896817) rotate(0 160.49999999999994 30)"><path d="M15 0 M15 0 C115.42 0.85, 219.37 1.06, 306 0 M15 0 C124.18 1.27, 234.52 0.58, 306 0 M306 0 C316.6 -0.55, 319.1 5.63, 321 15 M306 0 C317.24 1.06, 322.62 3.99, 321 15 M321 15 C320.37 22.12, 321.99 29.1, 321 45 M321 15 C321.02 20.13, 319.84 26.34, 321 45 M321 45 C319.21 54.18, 314.04 60.48, 306 60 M321 45 C319.19 53.59, 316.23 60.71, 306 60 M306 60 C203.24 62.42, 96.42 62.5, 15 60 M306 60 C242.88 59.75, 181.15 59.54, 15 60 M15 60 C5.05 60.79, 0.49 53.5, 0 45 M15 60 C5.46 60.96, -0.66 52.95, 0 45 M0 45 C-1.83 36.14, -0.53 28.45, 0 15 M0 45 C0.38 36.89, 0.05 28.29, 0 15 M0 15 C-1.36 5.06, 4.09 0.53, 15 0 M0 15 C-1.88 5.44, 5.91 -2.25, 15 0" stroke="#1e1e1e" stroke-width="1" fill="none"></path></g><g transform="translate(286.4377577566021 373.07328464006935) rotate(0 140.99369812011713 12.451287749612334)"><text x="0" y="0" font-family="Virgil, Segoe UI Emoji" font-size="19.922060399379735px" fill="#1e1e1e" text-anchor="start" style="white-space: pre;" direction="ltr" dominant-baseline="text-before-edge">generate &amp; save data plots</text></g><g stroke-linecap="round" transform="translate(284.8865654969894 429.84783639629586) rotate(0 160.00000000000006 30)"><path d="M15 0 M15 0 C104.6 1.19, 192.68 1.44, 305 0 M15 0 C120.65 -0.65, 227.44 -0.31, 305 0 M305 0 C313.88 1.82, 320.17 5.51, 320 15 M305 0 C316.6 0.22, 317.78 5.99, 320 15 M320 15 C320.87 22.69, 319.4 33.55, 320 45 M320 15 C320.37 22.77, 319.49 31.69, 320 45 M320 45 C320.37 56.23, 315.32 58.23, 305 60 M320 45 C321.17 54.24, 315.04 61.33, 305 60 M305 60 C227.13 58.92, 151.73 59.16, 15 60 M305 60 C230.95 60.08, 158.83 60.54, 15 60 M15 60 C6.81 58.24, -0.53 54.4, 0 45 M15 60 C3.68 59.03, 1.74 53.68, 0 45 M0 45 C-1.35 36.91, 0.65 29.2, 0 15 M0 45 C-0.55 35.1, -0.24 26.48, 0 15 M0 15 C0.48 4.28, 5.1 -1.58, 15 0 M0 15 C-0.85 4.29, 6.52 0.43, 15 0" stroke="#1e1e1e" stroke-width="1" fill="none"></path></g><g transform="translate(289.8865654969894 447.3965486466835) rotate(0 53.92340850830078 12.451287749612334)"><text x="0" y="0" font-family="Virgil, Segoe UI Emoji" font-size="19.922060399379735px" fill="#1e1e1e" text-anchor="start" style="white-space: pre;" direction="ltr" dominant-baseline="text-before-edge">train model</text></g><g stroke-linecap="round" transform="translate(281.6447411730603 505.15162672586325) rotate(0 161.5 17.5)"><path d="M8.75 0 M8.75 0 C100.51 -1.57, 191.51 -0.26, 314.25 0 M8.75 0 C103.81 1.78, 198.23 2.53, 314.25 0 M314.25 0 C318.81 0.77, 321.89 3.44, 323 8.75 M314.25 0 C317.95 -1.98, 322.37 3.84, 323 8.75 M323 8.75 C324.08 13.18, 323.9 20.83, 323 26.25 M323 8.75 C322.88 13.66, 323.11 17.35, 323 26.25 M323 26.25 C324.43 30.58, 319.3 36.94, 314.25 35 M323 26.25 C321.71 33.36, 318.9 34.39, 314.25 35 M314.25 35 C212.1 35.74, 108.31 37.63, 8.75 35 M314.25 35 C217.91 36.56, 121.86 36.11, 8.75 35 M8.75 35 C1.28 34.08, 0.87 31.81, 0 26.25 M8.75 35 C3.35 33.71, -0.93 30.45, 0 26.25 M0 26.25 C1.78 21.78, -1.32 19.18, 0 8.75 M0 26.25 C0.77 22.85, 0.65 17.9, 0 8.75 M0 8.75 C0.39 2.03, 4.55 1.32, 8.75 0 M0 8.75 C0.88 1.2, 2.86 1.35, 8.75 0" stroke="#1e1e1e" stroke-width="1" fill="none"></path></g><g transform="translate(286.6447411730603 510.2003389762509) rotate(0 46.941444396972656 12.451287749612334)"><text x="0" y="0" font-family="Virgil, Segoe UI Emoji" font-size="19.922060399379735px" fill="#1e1e1e" text-anchor="start" style="white-space: pre;" direction="ltr" dominant-baseline="text-before-edge">validation</text></g><g stroke-linecap="round" transform="translate(279.08028808667814 558.3040540919666) rotate(0 162 17.5)"><path d="M8.75 0 M8.75 0 C84.03 -0.02, 156.31 0.91, 315.25 0 M8.75 0 C123.86 0.86, 238.59 1.53, 315.25 0 M315.25 0 C322.9 0.77, 325.69 1.3, 324 8.75 M315.25 0 C323.18 1.8, 324.32 0.96, 324 8.75 M324 8.75 C322.55 17.04, 322.37 23.48, 324 26.25 M324 8.75 C323.64 12.36, 324.63 15.93, 324 26.25 M324 26.25 C322.64 33.97, 319.1 35.65, 315.25 35 M324 26.25 C323.19 33.55, 321.39 33.05, 315.25 35 M315.25 35 C196.6 36.56, 73.97 36.89, 8.75 35 M315.25 35 C216.76 35.51, 117.86 35.71, 8.75 35 M8.75 35 C3.73 35.43, 1.23 33.29, 0 26.25 M8.75 35 C1.68 37.1, -0.49 33.55, 0 26.25 M0 26.25 C-0.8 19.49, 0.09 16.84, 0 8.75 M0 26.25 C0.51 22.1, 0.82 18.01, 0 8.75 M0 8.75 C1.85 3.21, 1.83 1.67, 8.75 0 M0 8.75 C-0.27 1.99, 0.69 -2.12, 8.75 0" stroke="#1e1e1e" stroke-width="1" fill="none"></path></g><g transform="translate(284.08028808667814 563.3527663423542) rotate(0 141.96978759765625 12.451287749612334)"><text x="0" y="0" font-family="Virgil, Segoe UI Emoji" font-size="19.922060399379735px" fill="#1e1e1e" text-anchor="start" style="white-space: pre;" direction="ltr" dominant-baseline="text-before-edge">generate &amp; save model plots</text></g><g transform="translate(237.26953125 95.30859375) rotate(0 11.1181640625 11.5)"><text x="0" y="0" font-family="Helvetica, Segoe UI Emoji" font-size="20px" fill="#1e1e1e" text-anchor="start" style="white-space: pre;" direction="ltr" dominant-baseline="text-before-edge">[1]</text></g><g transform="translate(237.1026611328125 165.58984375) rotate(0 11.1181640625 11.5)"><text x="0" y="0" font-family="Helvetica, Segoe UI Emoji" font-size="20px" fill="#1e1e1e" text-anchor="start" style="white-space: pre;" direction="ltr" dominant-baseline="text-before-edge">[2]</text></g><g transform="translate(237.5771484375 232.640625) rotate(0 11.1181640625 11.5)"><text x="0" y="0" font-family="Helvetica, Segoe UI Emoji" font-size="20px" fill="#1e1e1e" text-anchor="start" style="white-space: pre;" direction="ltr" dominant-baseline="text-before-edge">[9]</text></g><g transform="translate(236.8818359375 299.6875) rotate(0 16.6796875 11.5)"><text x="0" y="0" font-family="Helvetica, Segoe UI Emoji" font-size="20px" fill="#1e1e1e" text-anchor="start" style="white-space: pre;" direction="ltr" dominant-baseline="text-before-edge">[10]</text></g><g stroke-linecap="round" transform="translate(276.296875 607.3554687499999) rotate(0 162 17.5)"><path d="M8.75 0 M8.75 0 C76.45 -0.9, 144.99 -0.43, 315.25 0 M8.75 0 C85.52 -0.19, 163.84 -0.49, 315.25 0 M315.25 0 C319.39 -0.55, 323.5 2.16, 324 8.75 M315.25 0 C322.28 -0.31, 321.74 0.87, 324 8.75 M324 8.75 C322.77 15.04, 323.02 21.5, 324 26.25 M324 8.75 C324.81 13.5, 323.76 19.5, 324 26.25 M324 26.25 C324.98 32.9, 321.51 36.95, 315.25 35 M324 26.25 C322.15 34.18, 321.57 35.02, 315.25 35 M315.25 35 C199.29 35.37, 85.04 32.79, 8.75 35 M315.25 35 C199.89 34.31, 84.2 33.44, 8.75 35 M8.75 35 C2.87 34.38, 0.32 33.6, 0 26.25 M8.75 35 C4.85 36.96, 2.19 34.25, 0 26.25 M0 26.25 C1.73 17.81, 0.86 12.22, 0 8.75 M0 26.25 C0.47 19.76, 0.22 14.51, 0 8.75 M0 8.75 C-0.79 3.6, 4.66 0.08, 8.75 0 M0 8.75 C0.81 2.3, 3.09 -0.86, 8.75 0" stroke="#1e1e1e" stroke-width="1" fill="none"></path></g><g transform="translate(281.296875 612.4041810003876) rotate(0 53.24613952636719 12.451287749612334)"><text x="0" y="0" font-family="Virgil, Segoe UI Emoji" font-size="19.922060399379735px" fill="#1e1e1e" text-anchor="start" style="white-space: pre;" direction="ltr" dominant-baseline="text-before-edge">save model</text></g><g transform="translate(235.9912109375 376.3984375) rotate(0 11.1181640625 11.5)"><text x="0" y="0" font-family="Helvetica, Segoe UI Emoji" font-size="20px" fill="#1e1e1e" text-anchor="start" style="white-space: pre;" direction="ltr" dominant-baseline="text-before-edge">[5]</text></g><g transform="translate(237.7333984375 449.56640625) rotate(0 15.9423828125 11.5)"><text x="0" y="0" font-family="Helvetica, Segoe UI Emoji" font-size="20px" fill="#1e1e1e" text-anchor="start" style="white-space: pre;" direction="ltr" dominant-baseline="text-before-edge">[11]</text></g><g stroke-linecap="round"><g transform="translate(610.97265625 98.3359375) rotate(0 20.3875075017138 38.329384778672846)"><path d="M0.13 0.8 C7.27 5.38, 43.71 14.5, 43.01 26.94 C42.3 39.39, 3.76 67.18, -4.11 75.47 M-1.26 0.17 C6.24 4.99, 45.79 15.7, 45.25 28.42 C44.71 41.14, 3.67 68.81, -4.48 76.49" stroke="#1971c2" stroke-width="2" fill="none"></path></g><g transform="translate(610.97265625 98.3359375) rotate(0 20.3875075017138 38.329384778672846)"><path d="M12.48 49.39 C5.99 60.13, 0.37 67.92, -3.36 78.46 M11.51 51.04 C7 57.77, 4.44 62.64, -3.71 76.52" stroke="#1971c2" stroke-width="2" fill="none"></path></g><g transform="translate(610.97265625 98.3359375) rotate(0 20.3875075017138 38.329384778672846)"><path d="M25.28 65.43 C14.88 71.19, 5.28 73.99, -3.36 78.46 M24.31 67.07 C16.74 70.02, 11.12 71.06, -3.71 76.52" stroke="#1971c2" stroke-width="2" fill="none"></path></g></g><mask></mask><g stroke-linecap="round"><g transform="translate(611.015625 181.2265625) rotate(0 17.780104243319556 39.08936220545786)"><path d="M-0.75 0.84 C5.94 9.55, 40.35 40.27, 39.89 53.12 C39.42 65.97, 3.6 73.86, -3.56 77.95 M1.05 0.23 C7.61 8.99, 39.81 41.55, 38.91 54.16 C38.02 66.77, 2.58 71.77, -4.33 75.9" stroke="#1971c2" stroke-width="2" fill="none"></path></g><g transform="translate(611.015625 181.2265625) rotate(0 17.780104243319556 39.08936220545786)"><path d="M16.32 60.4 C8.16 64.58, 5.38 69.69, -3.87 74.17 M15.12 59.59 C9.21 64.6, 1.21 69.89, -3.67 76.16" stroke="#1971c2" stroke-width="2" fill="none"></path></g><g transform="translate(611.015625 181.2265625) rotate(0 17.780104243319556 39.08936220545786)"><path d="M21.73 76.39 C11.96 76.14, 7.69 76.84, -3.87 74.17 M20.52 75.58 C12.9 75.18, 3.08 75.1, -3.67 76.16" stroke="#1971c2" stroke-width="2" fill="none"></path></g></g><mask></mask><g stroke-linecap="round"><g transform="translate(610.68359375 262.49609375) rotate(0 17.74930116656003 33.29207437410952)"><path d="M0.01 -0.66 C6.11 5.54, 36.63 25.23, 36.19 36.55 C35.74 47.87, 3.93 62.09, -2.65 67.24 M-1.45 1.61 C5.05 7.48, 38.58 23.96, 38.34 34.55 C38.11 45.13, 4 60.02, -2.85 65.13" stroke="#1971c2" stroke-width="2" fill="none"></path></g><g transform="translate(610.68359375 262.49609375) rotate(0 17.74930116656003 33.29207437410952)"><path d="M12.46 43.81 C9.46 52.57, 5.43 56.78, -1.78 65.7 M14.21 45.87 C9.49 51.68, 4.86 55.87, -3.6 65.81" stroke="#1971c2" stroke-width="2" fill="none"></path></g><g transform="translate(610.68359375 262.49609375) rotate(0 17.74930116656003 33.29207437410952)"><path d="M21.2 58.93 C15.95 63.66, 9.6 63.84, -1.78 65.7 M22.94 60.99 C15.99 62.73, 9.02 62.87, -3.6 65.81" stroke="#1971c2" stroke-width="2" fill="none"></path></g></g><mask></mask><g stroke-linecap="round"><g transform="translate(611.62109375 332.66015625) rotate(0 10.677349236910686 28.62061307802793)"><path d="M-0.88 -1.18 C3.55 4.92, 27.96 27.63, 27.2 37.56 C26.44 47.5, 0 54.97, -5.43 58.42 M0.86 0.82 C5.08 6.49, 27.35 26.51, 26.23 35.82 C25.11 45.13, -0.69 53.27, -5.86 56.68" stroke="#1971c2" stroke-width="2" fill="none"></path></g><g transform="translate(611.62109375 332.66015625) rotate(0 10.677349236910686 28.62061307802793)"><path d="M5.97 42.74 C4.38 48.59, 0.28 53.5, -4.19 56.29 M7.79 42.39 C3.19 48.48, -3.5 53.93, -4.89 56.77" stroke="#1971c2" stroke-width="2" fill="none"></path></g><g transform="translate(611.62109375 332.66015625) rotate(0 10.677349236910686 28.62061307802793)"><path d="M11.67 54.82 C8 56.41, 1.91 57.11, -4.19 56.29 M13.5 54.48 C6.57 55.79, -2.38 56.44, -4.89 56.77" stroke="#1971c2" stroke-width="2" fill="none"></path></g></g><mask></mask><g stroke-linecap="round"><g transform="translate(607.0546875 395.296875) rotate(0 18.881872181964013 33.61515196966474)"><path d="M0.61 0.96 C7.17 7.01, 40.18 25.32, 39.74 36.3 C39.31 47.27, 4.79 61.74, -1.98 66.81 M-0.52 0.42 C5.81 6.64, 38.48 26.86, 38.63 37.61 C38.78 48.36, 6.92 60.45, 0.38 64.93" stroke="#1971c2" stroke-width="2" fill="none"></path></g><g transform="translate(607.0546875 395.296875) rotate(0 18.881872181964013 33.61515196966474)"><path d="M18.96 45.82 C10.96 50.96, 7.5 58.99, 1.64 65.95 M16.48 46.32 C11.35 52.42, 4.5 59.92, 1.27 64.97" stroke="#1971c2" stroke-width="2" fill="none"></path></g><g transform="translate(607.0546875 395.296875) rotate(0 18.881872181964013 33.61515196966474)"><path d="M26.94 61.08 C16.28 61.16, 10.15 64.1, 1.64 65.95 M24.47 61.58 C16.52 62.15, 6.81 64.19, 1.27 64.97" stroke="#1971c2" stroke-width="2" fill="none"></path></g></g><mask></mask><g stroke-linecap="round"><g transform="translate(611.51171875 466.19921875) rotate(0 14.862829744465785 30.73759291966445)"><path d="M0.7 1.18 C5.62 6.43, 29.37 22.57, 29.07 32.31 C28.76 42.06, 4 55.15, -1.15 59.65 M-0.39 0.75 C4.94 5.61, 31.43 20.74, 31.24 30.73 C31.05 40.73, 3.96 55.85, -1.52 60.72" stroke="#1971c2" stroke-width="2" fill="none"></path></g><g transform="translate(611.51171875 466.19921875) rotate(0 14.862829744465785 30.73759291966445)"><path d="M12.65 41.28 C9.37 48.93, 3.7 52.35, -2.89 61.93 M11.39 42.98 C8.91 46.57, 6.05 50.72, -2.27 61.16" stroke="#1971c2" stroke-width="2" fill="none"></path></g><g transform="translate(611.51171875 466.19921875) rotate(0 14.862829744465785 30.73759291966445)"><path d="M21.2 53.28 C15.61 57.86, 7.72 58.16, -2.89 61.93 M19.93 54.97 C15.47 55.89, 10.67 57.32, -2.27 61.16" stroke="#1971c2" stroke-width="2" fill="none"></path></g></g><mask></mask><g stroke-linecap="round"><g transform="translate(612.4609375 533.71875) rotate(0 13.620544417256156 22.80032579320016)"><path d="M0.32 -0.63 C5.57 3.86, 33.53 18.67, 32.68 26.29 C31.83 33.92, 1.36 41.82, -4.79 45.1 M-0.97 1.66 C4 6.38, 32.37 20.23, 31.62 27.66 C30.88 35.09, 0.4 43.55, -5.46 46.23" stroke="#1971c2" stroke-width="2" fill="none"></path></g><g transform="translate(612.4609375 533.71875) rotate(0 13.620544417256156 22.80032579320016)"><path d="M9.71 32.32 C3.67 38.42, -2.84 44.82, -4.55 46.63 M11.55 33.01 C7.49 34.6, 4.15 38.63, -6.09 45.93" stroke="#1971c2" stroke-width="2" fill="none"></path></g><g transform="translate(612.4609375 533.71875) rotate(0 13.620544417256156 22.80032579320016)"><path d="M14.64 45.91 C6.71 46.62, -1.76 47.6, -4.55 46.63 M16.48 46.61 C11.46 45.48, 7.11 46.75, -6.09 45.93" stroke="#1971c2" stroke-width="2" fill="none"></path></g></g><mask></mask><g transform="translate(237.2216796875 511.171875) rotate(0 16.6796875 11.5)"><text x="0" y="0" font-family="Helvetica, Segoe UI Emoji" font-size="20px" fill="#1e1e1e" text-anchor="start" style="white-space: pre;" direction="ltr" dominant-baseline="text-before-edge">[12]</text></g><g transform="translate(238.0966796875 563.83984375) rotate(0 16.6796875 11.5)"><text x="0" y="0" font-family="Helvetica, Segoe UI Emoji" font-size="20px" fill="#1e1e1e" text-anchor="start" style="white-space: pre;" direction="ltr" dominant-baseline="text-before-edge">[13]</text></g><g transform="translate(237.8466796875 613.75390625) rotate(0 16.6796875 11.5)"><text x="0" y="0" font-family="Helvetica, Segoe UI Emoji" font-size="20px" fill="#1e1e1e" text-anchor="start" style="white-space: pre;" direction="ltr" dominant-baseline="text-before-edge">[14]</text></g><g mask="url(#mask-mxXtE-QJ3zCx5Mftd7wd_)" stroke-linecap="round"><g transform="translate(636.31640625 574.6328125) rotate(0 62.983000792246344 -159.38490896984933)"><path d="M-1.18 -2.31 C17.59 -19.71, 94.44 -57.23, 112.61 -103.51 C130.79 -149.8, 126.73 -243.71, 107.86 -280.02 C88.99 -316.33, 16.98 -314.13, -0.61 -321.38 M3.38 2.61 C23.09 -14.4, 101.11 -51.98, 118.23 -99.91 C135.34 -147.84, 125.91 -248.51, 106.06 -284.97 C86.21 -321.43, 16.86 -312.24, -0.89 -318.69" stroke="#2f9e44" stroke-width="2" fill="none"></path></g><g transform="translate(636.31640625 574.6328125) rotate(0 62.983000792246344 -159.38490896984933)"><path d="M25.02 -327.62 C19.54 -323.73, 12.39 -323.97, -0.68 -316.8 M26.32 -325.57 C21.68 -323.99, 15.84 -322.06, -1.61 -318.11" stroke="#2f9e44" stroke-width="2" fill="none"></path></g><g transform="translate(636.31640625 574.6328125) rotate(0 62.983000792246344 -159.38490896984933)"><path d="M22.59 -307.24 C17.71 -309.43, 11.29 -315.78, -0.68 -316.8 M23.89 -305.2 C19.51 -308.24, 14.23 -310.97, -1.61 -318.11" stroke="#2f9e44" stroke-width="2" fill="none"></path></g></g><mask id="mask-mxXtE-QJ3zCx5Mftd7wd_"><rect x="0" y="0" fill="#fff" width="850.37890625" height="996.16015625"></rect><rect x="736.5905173879112" y="369.15936079715993" fill="#000" width="47.802734375" height="23" opacity="1"></rect></mask><g transform="translate(736.5905173879112 369.1593607971598) rotate(0 -37.29111034566483 46.08854273299073)"><text x="23.9013671875" y="0" font-family="Helvetica, Segoe UI Emoji" font-size="20px" fill="#2f9e44" text-anchor="middle" style="white-space: pre;" direction="ltr" dominant-baseline="text-before-edge">Oops</text></g><g stroke-linecap="round"><g transform="translate(226.7500000000001 250.57421875) rotate(0 -20.771888857783324 29.449751361161475)"><path d="M0.9 1.61 C-6.24 3.95, -39.97 3.84, -40.73 13.02 C-41.48 22.19, -9.63 49.1, -3.63 56.67 M-2.06 0.01 C-9.68 2.7, -41.74 5.47, -42.43 15.29 C-43.12 25.1, -12.34 51.25, -6.19 58.88" stroke="#2f9e44" stroke-width="2" fill="none"></path></g><g transform="translate(226.7500000000001 250.57421875) rotate(0 -20.771888857783324 29.449751361161475)"><path d="M-30.12 47.67 C-26.25 48.86, -15.17 52, -6.01 57.28 M-34.03 47.32 C-21.74 52.34, -12.67 53.36, -6.77 58.89" stroke="#2f9e44" stroke-width="2" fill="none"></path></g><g transform="translate(226.7500000000001 250.57421875) rotate(0 -20.771888857783324 29.449751361161475)"><path d="M-15.87 33.77 C-17.45 40.26, -11.72 48.63, -6.01 57.28 M-19.79 33.41 C-12.17 43.15, -8.04 49, -6.77 58.89" stroke="#2f9e44" stroke-width="2" fill="none"></path></g></g><mask></mask><g stroke-linecap="round"><g transform="translate(227.9921875000001 318.984375) rotate(0 -28.16027076967157 65.33747041657568)"><path d="M0.99 -2.51 C-8.71 7.01, -55.81 36.64, -57.27 58.73 C-58.73 80.82, -16.25 117.93, -7.77 130 M-1.92 2.3 C-10.76 12.01, -51.56 39.65, -51.62 61.47 C-51.68 83.28, -9.83 122.45, -2.29 133.18" stroke="#2f9e44" stroke-width="2" fill="none"></path></g><g transform="translate(227.9921875000001 318.984375) rotate(0 -28.16027076967157 65.33747041657568)"><path d="M-32.11 116.65 C-22 119.71, -10.76 126.51, -0.41 137.06 M-27.19 120.13 C-20.55 120.33, -15.53 126.02, -2.02 133.85" stroke="#2f9e44" stroke-width="2" fill="none"></path></g><g transform="translate(227.9921875000001 318.984375) rotate(0 -28.16027076967157 65.33747041657568)"><path d="M-16.62 103.19 C-11.5 110.83, -5.4 122.09, -0.41 137.06 M-11.7 106.67 C-9.35 110.58, -8.41 119.81, -2.02 133.85" stroke="#2f9e44" stroke-width="2" fill="none"></path></g></g><mask></mask><g stroke-linecap="round"><g transform="translate(222.3476562500001 454.765625) rotate(0 -16.497605713049495 33.11462049558759)"><path d="M-1.39 -1.64 C-8.38 4.28, -42.52 21.44, -40.96 33.02 C-39.39 44.61, -0.79 62.46, 8.01 67.87 M3.06 3.63 C-3.18 10.28, -36.34 26.82, -35.91 36.72 C-35.49 46.63, -1.27 57.92, 5.6 63.06" stroke="#2f9e44" stroke-width="2" fill="none"></path></g><g transform="translate(222.3476562500001 454.765625) rotate(0 -16.497605713049495 33.11462049558759)"><path d="M-25.68 55.91 C-13.51 59.36, -2.12 66.04, 4.12 59.83 M-22.02 57.63 C-13.66 60.31, -2.62 62.23, 6.39 62.49" stroke="#2f9e44" stroke-width="2" fill="none"></path></g><g transform="translate(222.3476562500001 454.765625) rotate(0 -16.497605713049495 33.11462049558759)"><path d="M-16.61 38.15 C-7.8 47.47, 0.55 60.1, 4.12 59.83 M-12.95 39.87 C-7.55 48.95, 0.3 57.13, 6.39 62.49" stroke="#2f9e44" stroke-width="2" fill="none"></path></g></g><mask></mask><g stroke-linecap="round"><g transform="translate(226.0703125000001 527.8515625) rotate(0 -21.86296064220454 23.388796704560548)"><path d="M-2.5 0.13 C-10.18 5.82, -49 24.76, -47.48 32.49 C-45.96 40.22, -1.57 43.75, 6.61 46.5 M1.34 -2.27 C-6.69 2.73, -51.15 19.64, -50.33 28.19 C-49.5 36.74, -2.28 46.45, 6.28 49.05" stroke="#2f9e44" stroke-width="2" fill="none"></path></g><g transform="translate(226.0703125000001 527.8515625) rotate(0 -21.86296064220454 23.388796704560548)"><path d="M-19.83 50.08 C-11.52 55.37, -8.29 47.6, 8.38 51.71 M-20.59 51.68 C-9.92 51.84, 0.46 49.63, 5.43 47.51" stroke="#2f9e44" stroke-width="2" fill="none"></path></g><g transform="translate(226.0703125000001 527.8515625) rotate(0 -21.86296064220454 23.388796704560548)"><path d="M-15.37 32.56 C-8.38 42.16, -6.27 38.78, 8.38 51.71 M-16.13 34.17 C-6.9 40.81, 1.8 45.16, 5.43 47.51" stroke="#2f9e44" stroke-width="2" fill="none"></path></g></g><mask></mask><g stroke-linecap="round"><g transform="translate(225.5078125 585.96875) rotate(0 -20.792457837049653 18.859113413840532)"><path d="M-1.12 1.32 C-9.04 5.71, -50.8 20.36, -50.01 26.5 C-49.22 32.64, -6.02 36.11, 3.6 38.16 M3.46 -0.44 C-4.36 4.33, -51.73 23.93, -50.78 29.57 C-49.82 35.21, -0.81 32.7, 9.2 33.42" stroke="#2f9e44" stroke-width="2" fill="none"></path></g><g transform="translate(225.5078125 585.96875) rotate(0 -20.792457837049653 18.859113413840532)"><path d="M-16.83 47.31 C-14.31 38.31, -4.85 42.1, 12.2 36.04 M-18.43 44.09 C-12.06 40.79, -7.92 37.75, 8.8 33.3" stroke="#2f9e44" stroke-width="2" fill="none"></path></g><g transform="translate(225.5078125 585.96875) rotate(0 -20.792457837049653 18.859113413840532)"><path d="M-16.73 27.02 C-14.21 22.31, -4.78 30.37, 12.2 36.04 M-18.33 23.81 C-12.1 24.71, -7.98 25.88, 8.8 33.3" stroke="#2f9e44" stroke-width="2" fill="none"></path></g></g><mask></mask><g transform="translate(645.21875 78.25) rotate(0 70.0390625 11.5)"><text x="0" y="0" font-family="Helvetica, Segoe UI Emoji" font-size="20px" fill="#1971c2" text-anchor="start" style="white-space: pre;" direction="ltr" dominant-baseline="text-before-edge">Initial Execution</text></g><g transform="translate(106.41796875 234.44921875) rotate(0 35.5712890625 34.5)"><text x="0" y="0" font-family="Helvetica, Segoe UI Emoji" font-size="20px" fill="#2f9e44" text-anchor="start" style="white-space: pre;" direction="ltr" dominant-baseline="text-before-edge">Fix data</text><text x="0" y="23" font-family="Helvetica, Segoe UI Emoji" font-size="20px" fill="#2f9e44" text-anchor="start" style="white-space: pre;" direction="ltr" dominant-baseline="text-before-edge">and </text><text x="0" y="46" font-family="Helvetica, Segoe UI Emoji" font-size="20px" fill="#2f9e44" text-anchor="start" style="white-space: pre;" direction="ltr" dominant-baseline="text-before-edge">retrain</text></g><g transform="translate(10 563.5) rotate(0 68.3642578125 23)"><text x="0" y="0" font-family="Helvetica, Segoe UI Emoji" font-size="20px" fill="#e03131" text-anchor="start" style="white-space: pre;" direction="ltr" dominant-baseline="text-before-edge">The plots were </text><text x="0" y="23" font-family="Helvetica, Segoe UI Emoji" font-size="20px" fill="#e03131" text-anchor="start" style="white-space: pre;" direction="ltr" dominant-baseline="text-before-edge">never updated!</text></g><g stroke-linecap="round"><g transform="translate(153.26526033218556 556.239486335221) rotate(0 39.07749116318496 -79.95546659082333)"><path d="M-0.3 0.31 C2.47 -19.43, 1.76 -91.72, 15.49 -118.48 C29.22 -145.23, 71.38 -152.79, 82.06 -160.22 M-3.91 -1.99 C-0.13 -22.54, 6.68 -96.81, 20.96 -122.64 C35.24 -148.46, 71.87 -150.4, 81.77 -156.94" stroke="#e03131" stroke-width="2" fill="none"></path></g><g transform="translate(153.26526033218556 556.239486335221) rotate(0 39.07749116318496 -79.95546659082333)"><path d="M59.25 -140.08 C67.04 -138.62, 71.23 -147.17, 78.13 -160.67 M60.8 -136.1 C64.04 -144.67, 73.3 -149.6, 82.44 -158.47" stroke="#e03131" stroke-width="2" fill="none"></path></g><g transform="translate(153.26526033218556 556.239486335221) rotate(0 39.07749116318496 -79.95546659082333)"><path d="M52.21 -159.35 C61.82 -152.86, 67.85 -156.39, 78.13 -160.67 M53.76 -155.37 C58.87 -158.27, 70.19 -157.57, 82.44 -158.47" stroke="#e03131" stroke-width="2" fill="none"></path></g></g><mask></mask></svg>