<svg version="1.1" xmlns="http://www.w3.org/2000/svg" viewBox="0 0 871.7265625 357.7470271423738" width="871.7265625" height="357.7470271423738">
  <!-- svg-source:excalidraw -->
  
  <defs>
    <style class="style-fonts">
      @font-face {
        font-family: "Virgil";
        src: url("https://excalidraw.com/Virgil.woff2");
      }
      @font-face {
        font-family: "Cascadia";
        src: url("https://excalidraw.com/Cascadia.woff2");
      }
    </style>
    
  </defs>
  <rect x="0" y="0" width="871.7265625" height="357.7470271423738" fill="#ffffff"></rect><g stroke-linecap="round" transform="translate(10 102.765625) rotate(0 97.1953125 37.51171875)"><path d="M4.99 4.34 C4.99 4.34, 4.99 4.34, 4.99 4.34 M4.99 4.34 C4.99 4.34, 4.99 4.34, 4.99 4.34 M0.79 15.27 C3.11 10.97, 3.87 8.82, 11.95 2.44 M0.79 15.27 C3.81 11.21, 7.03 8.38, 11.95 2.44 M1.19 20.91 C8.17 15.22, 13.24 5.43, 18.9 0.53 M1.19 20.91 C7.43 13.6, 13.71 7.38, 18.9 0.53 M0.93 27.31 C10.63 18, 18.21 9.79, 24.55 0.14 M0.93 27.31 C6.27 20.76, 10.13 16.54, 24.55 0.14 M1.32 32.95 C11.3 19.69, 20.95 10.09, 29.53 0.5 M1.32 32.95 C8.58 22.9, 16.54 14.78, 29.53 0.5 M1.06 39.35 C13.93 23.64, 26.4 12.17, 35.18 0.1 M1.06 39.35 C8.84 29.81, 19.02 19.75, 35.18 0.1 M0.8 45.75 C13.91 30.59, 26.71 13.88, 40.16 0.46 M0.8 45.75 C15 29.95, 28.48 13.74, 40.16 0.46 M1.19 51.39 C15.17 35.87, 25.92 22.1, 45.81 0.07 M1.19 51.39 C12.56 37.46, 25.71 23.81, 45.81 0.07 M0.93 57.79 C17.59 41.68, 31.88 20.27, 50.79 0.43 M0.93 57.79 C20.33 36.99, 37.92 15.7, 50.79 0.43 M1.98 62.67 C20 42.77, 34.62 24.12, 56.44 0.03 M1.98 62.67 C17.84 43.4, 33.67 26.48, 56.44 0.03 M4.35 66.05 C23.67 44.39, 39.51 24.41, 61.42 0.39 M4.35 66.05 C20.46 49.03, 35.01 31.91, 61.42 0.39 M5.4 70.94 C18.71 54.04, 34.28 39.28, 67.07 0 M5.4 70.94 C26.35 46.06, 47.46 22.52, 67.07 0 M9.07 72.81 C28.72 50.65, 46.63 27.17, 72.05 0.36 M9.07 72.81 C32.37 46.91, 55.08 20.95, 72.05 0.36 M12.09 75.44 C34.92 48.93, 58.3 19.69, 77.7 -0.04 M12.09 75.44 C36.4 48.15, 59.21 20.41, 77.7 -0.04 M17.08 75.8 C40.35 51.35, 60.76 25.29, 82.68 0.32 M17.08 75.8 C36.27 53.03, 58.56 29.6, 82.68 0.32 M21.41 76.91 C41.93 51.51, 63.44 27.26, 88.33 -0.07 M21.41 76.91 C42.66 52.34, 64.1 28.2, 88.33 -0.07 M26.4 77.27 C44.45 57.2, 65.65 33.36, 93.31 0.29 M26.4 77.27 C40.12 61.43, 52.69 47, 93.31 0.29 M32.04 76.88 C55.95 47.73, 82.92 17.61, 98.3 0.65 M32.04 76.88 C53.15 54.63, 73.09 31.18, 98.3 0.65 M37.03 77.24 C60.13 48.83, 84.03 20.4, 103.94 0.26 M37.03 77.24 C62.78 46.96, 91.08 16.84, 103.94 0.26 M42.67 76.84 C62.91 52.56, 80.74 31.36, 108.93 0.62 M42.67 76.84 C65.95 48.17, 92.58 20.63, 108.93 0.62 M47.66 77.2 C65.95 53.66, 84.7 31.67, 114.57 0.22 M47.66 77.2 C69.38 52.51, 90.25 27.58, 114.57 0.22 M53.3 76.81 C76.46 50.93, 101.62 25.39, 119.56 0.58 M53.3 76.81 C79.16 48.24, 103.37 20.05, 119.56 0.58 M58.29 77.17 C84.48 49.58, 109.18 20.43, 125.2 0.19 M58.29 77.17 C76.35 58.86, 92.61 38.36, 125.2 0.19 M63.93 76.77 C81.04 56.6, 97.08 38.49, 130.19 0.55 M63.93 76.77 C85.17 53.8, 104.74 30.77, 130.19 0.55 M68.92 77.13 C93.14 50.31, 114.63 25.14, 135.83 0.15 M68.92 77.13 C94.11 48.69, 118.51 19.58, 135.83 0.15 M73.9 77.49 C87.08 58.15, 102.91 41.16, 140.82 0.51 M73.9 77.49 C94.67 52.25, 116.46 28.7, 140.82 0.51 M79.55 77.1 C95.73 56.46, 112.29 39.57, 146.46 0.12 M79.55 77.1 C99.81 54.02, 118.32 33.12, 146.46 0.12 M84.53 77.46 C110.75 48.86, 134.65 19.84, 151.45 0.48 M84.53 77.46 C107.36 50.52, 132.17 22.81, 151.45 0.48 M90.18 77.06 C114.88 48.21, 142.6 16.87, 157.09 0.08 M90.18 77.06 C109.51 54.54, 128.8 32.29, 157.09 0.08 M95.16 77.42 C117.46 54.63, 136.94 30.75, 162.08 0.44 M95.16 77.42 C115.99 53.68, 137.81 29.28, 162.08 0.44 M100.81 77.03 C115.29 62.35, 131.47 43.58, 167.72 0.05 M100.81 77.03 C122.46 51.88, 144.58 27.06, 167.72 0.05 M105.79 77.39 C122.29 55.22, 143.8 33.51, 172.71 0.41 M105.79 77.39 C122.48 56.76, 138.38 38.68, 172.71 0.41 M111.44 76.99 C135.88 50.82, 159.82 20.78, 177.04 1.52 M111.44 76.99 C126.52 59.9, 140.58 43.34, 177.04 1.52 M116.42 77.35 C133.7 58.19, 151.11 38.21, 182.03 1.88 M116.42 77.35 C141.61 47.88, 169.28 17.53, 182.03 1.88 M122.07 76.96 C140.64 58.22, 155.51 36.37, 186.36 3 M122.07 76.96 C139.65 56.99, 156.48 36.18, 186.36 3 M127.05 77.32 C145.79 58.15, 160.32 37.18, 190.03 4.87 M127.05 77.32 C148.07 51.65, 169.15 27.83, 190.03 4.87 M132.7 76.93 C150.79 54.19, 172.83 32.56, 191.74 9 M132.7 76.93 C144.93 62.74, 157.72 50.61, 191.74 9 M137.68 77.29 C151.58 62.32, 169.44 43.02, 193.45 13.14 M137.68 77.29 C150.75 60.87, 165.21 45.72, 193.45 13.14 M143.33 76.89 C163.66 55.06, 178.33 35.86, 196.47 15.76 M143.33 76.89 C157.64 61.71, 170.02 45.87, 196.47 15.76 M148.31 77.25 C159.99 63.17, 170.15 50.59, 196.21 22.16 M148.31 77.25 C159.29 65.56, 170.69 53.59, 196.21 22.16 M153.96 76.86 C166.18 61.19, 177 50.28, 195.94 28.56 M153.96 76.86 C166.4 62.65, 178.54 48.82, 195.94 28.56 M158.94 77.22 C171.09 64.72, 180.79 50.59, 196.34 34.2 M158.94 77.22 C173.8 60.97, 186.55 44.95, 196.34 34.2 M164.59 76.82 C174.16 64.43, 183.48 52.95, 196.08 40.6 M164.59 76.82 C172.93 66.7, 183.3 55.53, 196.08 40.6 M169.57 77.18 C182.38 66.01, 189.17 53.61, 196.47 46.24 M169.57 77.18 C179.08 66.16, 188.52 55.31, 196.47 46.24 M176.53 75.28 C181.62 69.98, 182.59 65.1, 196.21 52.64 M176.53 75.28 C180.75 69.98, 184.96 65.99, 196.21 52.64 M182.83 74.13 C185.24 70.27, 189.35 66.89, 196.61 58.28 M182.83 74.13 C187.37 68.66, 192.87 62.18, 196.61 58.28 M4.93 70.54 C4.93 70.54, 4.93 70.54, 4.93 70.54 M4.93 70.54 C4.93 70.54, 4.93 70.54, 4.93 70.54 M12.08 71.46 C7.95 68.49, 5.89 65.44, 0.76 61.62 M12.08 71.46 C8.65 69.56, 6.52 66.31, 0.76 61.62 M19.99 73.03 C17.24 69.27, 11.4 64.75, 2.63 57.94 M19.99 73.03 C14.19 66.91, 7.4 63.21, 2.63 57.94 M26.39 73.3 C17.85 66.8, 12.3 58.93, 2.99 52.96 M26.39 73.3 C20.34 66.74, 12.87 62.12, 2.99 52.96 M32.78 73.56 C24.1 66.32, 11.83 57.13, 2.6 47.31 M32.78 73.56 C24.68 66.7, 16.25 60, 2.6 47.31 M38.43 73.16 C24.36 64.22, 13.4 50.29, 2.96 42.33 M38.43 73.16 C30.94 66.13, 21.22 59.79, 2.96 42.33 M44.82 73.42 C31.76 59.69, 15.36 49.54, 2.56 36.68 M44.82 73.42 C32.79 64.43, 22.26 54.68, 2.56 36.68 M50.47 73.03 C32.31 56.33, 12.36 41.33, 2.92 31.7 M50.47 73.03 C32.25 58.32, 15.51 42.22, 2.92 31.7 M56.87 73.29 C39.85 59.03, 23.89 44.14, 2.53 26.05 M56.87 73.29 C41.71 59.86, 27.74 48.36, 2.53 26.05 M63.26 73.55 C43.15 54, 20.93 36.79, 2.89 21.07 M63.26 73.55 C42.41 55.23, 20.7 37.65, 2.89 21.07 M68.91 73.16 C52.14 58.92, 39.01 47.83, 0.98 14.11 M68.91 73.16 C49.98 56.34, 31.65 39.31, 0.98 14.11 M75.3 73.42 C48.72 48.25, 20.86 27.06, 2.1 9.78 M75.3 73.42 C47.64 50.35, 21.68 26.85, 2.1 9.78 M80.95 73.02 C66.23 57.25, 50.45 45.19, 3.97 6.11 M80.95 73.02 C52.93 48.82, 23.56 23.59, 3.97 6.11 M87.35 73.29 C57.85 48.78, 32.85 24.54, 6.59 3.09 M87.35 73.29 C68.76 58.37, 50.4 42.55, 6.59 3.09 M93.74 73.55 C74.91 54.92, 55.07 39.91, 9.97 0.72 M93.74 73.55 C68.25 51.83, 44.3 30.67, 9.97 0.72 M99.39 73.15 C65.22 45.09, 34.41 15.42, 13.35 -1.64 M99.39 73.15 C76.15 53.17, 53.2 33.64, 13.35 -1.64 M105.78 73.41 C76.16 49.83, 47.69 21.18, 19.75 -1.38 M105.78 73.41 C86.16 54.99, 66.17 38.45, 19.75 -1.38 M111.43 73.02 C85.35 50.4, 56.68 27.75, 26.14 -1.12 M111.43 73.02 C79.25 43.14, 45.28 14.68, 26.14 -1.12 M117.82 73.28 C94.25 52.61, 69.91 32.96, 31.79 -1.51 M117.82 73.28 C94.75 52.64, 71.31 32.66, 31.79 -1.51 M124.22 73.54 C103.3 55.36, 79.51 32.82, 38.19 -1.25 M124.22 73.54 C101.46 52.08, 75.64 31.1, 38.19 -1.25 M129.87 73.15 C110.03 55.04, 88.78 37.52, 44.58 -0.99 M129.87 73.15 C100.27 48.27, 71.62 24.07, 44.58 -0.99 M136.26 73.41 C103.27 42.76, 67.83 12.54, 50.23 -1.38 M136.26 73.41 C102.19 45.61, 69.44 16.47, 50.23 -1.38 M141.91 73.01 C124.94 57.42, 104.39 39.73, 56.62 -1.12 M141.91 73.01 C120.84 55.1, 101.23 38.1, 56.62 -1.12 M148.3 73.28 C130.13 56.12, 113.9 44.29, 62.27 -1.51 M148.3 73.28 C122.43 51.21, 97 28.58, 62.27 -1.51 M154.7 73.54 C126.89 49.44, 101.95 26.52, 68.67 -1.25 M154.7 73.54 C133.56 55.2, 115 37.91, 68.67 -1.25 M160.35 73.14 C140.44 56.32, 118.79 36.04, 75.06 -0.99 M160.35 73.14 C142.42 57.72, 124.72 41.69, 75.06 -0.99 M166.74 73.4 C146.02 55.1, 122.88 36.37, 80.71 -1.39 M166.74 73.4 C145.03 55.83, 123.15 35.9, 80.71 -1.39 M172.39 73.01 C140.19 45.74, 108.11 16.4, 87.1 -1.12 M172.39 73.01 C151.12 54.38, 129.2 35.64, 87.1 -1.12 M178.03 72.62 C144.66 46.53, 116.3 18.04, 92.75 -1.52 M178.03 72.62 C152.46 49.66, 127.58 27.74, 92.75 -1.52 M182.92 71.56 C159.33 47.7, 132.03 26.16, 99.14 -1.26 M182.92 71.56 C154.33 46.57, 127.98 23.75, 99.14 -1.26 M188.56 71.17 C156.26 45.86, 129.59 18.42, 105.54 -1 M188.56 71.17 C169.55 54.62, 149.26 37.44, 105.54 -1 M190.43 67.5 C168.91 48.45, 150.15 30.76, 111.19 -1.39 M190.43 67.5 C165.64 45.25, 140.03 24.21, 111.19 -1.39 M193.05 64.48 C168.45 44, 145.73 22.92, 117.58 -1.13 M193.05 64.48 C164.13 40.36, 134.84 15.14, 117.58 -1.13 M195.68 61.46 C169.25 38.1, 144.01 18.82, 123.23 -1.52 M195.68 61.46 C178.91 46.53, 159.96 31.78, 123.23 -1.52 M195.28 55.81 C179.9 42.06, 160 24.5, 129.62 -1.26 M195.28 55.81 C170.91 36.78, 148.19 16.14, 129.62 -1.26 M194.89 50.17 C176.7 31.59, 154.84 16.09, 136.02 -1 M194.89 50.17 C174.8 33.7, 157.42 17.77, 136.02 -1 M195.25 45.18 C182.18 31.73, 167.07 20.56, 141.66 -1.4 M195.25 45.18 C173.44 25.98, 153.62 8.17, 141.66 -1.4 M194.85 39.54 C182.69 28.86, 169.54 15.47, 148.06 -1.13 M194.85 39.54 C180.4 26.38, 166.33 14.15, 148.06 -1.13 M195.21 34.55 C187.53 27.09, 179.36 18.56, 153.71 -1.53 M195.21 34.55 C185.2 25.71, 177.18 18.23, 153.71 -1.53 M194.82 28.91 C180.45 19.13, 170.21 8.1, 160.1 -1.27 M194.82 28.91 C181.97 18.5, 171.51 7.74, 160.1 -1.27 M194.43 23.27 C185.62 16.82, 182.45 10.67, 166.5 -1.01 M194.43 23.27 C187.9 18.05, 180.6 11.13, 166.5 -1.01 M194.79 18.28 C190.66 15.87, 186.87 11.47, 172.14 -1.4 M194.79 18.28 C187.31 12.24, 179.75 4.52, 172.14 -1.4 M195.15 13.29 C190.58 11.98, 188.69 7.64, 177.79 -1.8 M195.15 13.29 C189.98 8.95, 183.94 3.74, 177.79 -1.8" stroke="#a5d8ff" stroke-width="0.5" fill="none"></path><path d="M18.76 0 M18.76 0 C71.84 0.35, 127.77 0.57, 175.63 0 M18.76 0 C71.02 0.08, 122.48 1.03, 175.63 0 M175.63 0 C187.95 -0.81, 195.4 4.37, 194.39 18.76 M175.63 0 C185.9 -2, 196.51 7.66, 194.39 18.76 M194.39 18.76 C194.61 29.52, 192.43 41.99, 194.39 56.27 M194.39 18.76 C194.86 31.28, 193.95 45.19, 194.39 56.27 M194.39 56.27 C195.49 68.44, 186.94 75.52, 175.63 75.02 M194.39 56.27 C195.29 70.12, 186.98 74.27, 175.63 75.02 M175.63 75.02 C122.49 74.96, 69.15 76.54, 18.76 75.02 M175.63 75.02 C124.33 74.06, 74.06 73.7, 18.76 75.02 M18.76 75.02 C6.07 73.34, -1.8 68.05, 0 56.27 M18.76 75.02 C4.91 73.78, -1.95 70.25, 0 56.27 M0 56.27 C0.05 44.74, 2.05 35.67, 0 18.76 M0 56.27 C0.31 43.99, 0.8 29.99, 0 18.76 M0 18.76 C-0.63 7.69, 4.9 1.36, 18.76 0 M0 18.76 C-0.57 7.49, 4.91 1.63, 18.76 0" stroke="#1e1e1e" stroke-width="1" fill="none"></path></g><g transform="translate(69.94921875 128.77734375) rotate(0 37.24609375 11.5)"><text x="37.24609375" y="0" font-family="Helvetica, Segoe UI Emoji" font-size="20px" fill="#1e1e1e" text-anchor="middle" style="white-space: pre;" direction="ltr" dominant-baseline="text-before-edge">Produce</text></g><g stroke-linecap="round" transform="translate(281.35546875 82.87890625) rotate(0 56 56)"><path d="M11.33 21.77 C11.33 21.77, 11.33 21.77, 11.33 21.77 M11.33 21.77 C11.33 21.77, 11.33 21.77, 11.33 21.77 M6.86 32.23 C14.02 25.14, 21.83 14.15, 29.65 10.52 M6.61 33.21 C14.2 23.78, 22.5 15.04, 28.3 7.71 M1.16 45.71 C11.39 32.39, 20.45 23.82, 36.64 5.51 M1.74 45.27 C7.7 38.27, 15.73 29.69, 36.34 4.58 M2.02 49.61 C11.9 39.6, 24.94 26.66, 41.28 6.12 M1.78 49.87 C17.18 34.58, 32.19 15.51, 41.14 4.33 M4.5 53.69 C21.61 33.38, 37.13 14.83, 49.14 5.58 M3.97 56.23 C15.92 41.98, 28.39 26.76, 47.19 3.42 M4.51 60.73 C17.45 44.51, 30.15 29.73, 52.22 3.79 M4.95 61.29 C16.75 43.41, 31.77 27.88, 53.8 2.85 M4.71 67.67 C25.25 44, 46.08 17.32, 58.05 4.2 M3.98 66.58 C26.29 42.47, 46.29 18.05, 59.52 2.81 M6.23 71.45 C18.4 56.97, 30.48 43.03, 67.44 1.41 M6 71.73 C25.06 49.3, 43.67 26.86, 65.16 1.91 M4.56 76.01 C29.59 50.34, 52.54 22.47, 68.38 2.35 M4.81 77.1 C27.08 51.46, 50.55 26.3, 69.03 4.02 M7.89 82.49 C31.62 53.55, 58.36 24.45, 71.66 7.08 M6.7 81.77 C30.76 54.45, 55.52 27.05, 73.86 4.84 M9.7 84.53 C36.91 54.92, 61.33 25.51, 75.45 7.46 M10.41 84.44 C31.74 59.71, 52.58 35.78, 76.72 8.19 M11.17 86.51 C34.13 63.38, 58.79 34.87, 81.09 9.03 M12.79 87.42 C31.98 66.06, 50.93 41.58, 80.08 9.59 M15.58 91.51 C30.89 68.82, 51.2 51.76, 86.83 11.12 M14.57 90.23 C38.65 62.19, 63.66 33.73, 84.89 10.08 M17.49 94.13 C36.46 72.92, 55.84 52.93, 90.34 10.72 M16.8 94.13 C45.61 61.74, 74.16 27.74, 88.41 11.78 M19.87 97.4 C35.94 75.51, 56.94 54.57, 93.8 14.88 M19.32 98.72 C36.09 77.4, 52.84 58.56, 92.58 13.92 M23.19 101.64 C45.99 70.63, 71.4 41.92, 93.03 18.06 M21.18 100.47 C52.1 68.96, 80.09 33.98, 94.5 17.96 M24.54 103.08 C45.03 80.02, 67.83 55.78, 95.94 20.99 M27.04 103.04 C43.94 81.32, 61.9 59.54, 98.16 20.07 M28.2 102.27 C49.35 83.02, 68.13 63.7, 101.04 23.1 M29.05 103.4 C45.42 86.54, 60.78 68.23, 100.28 23.3 M35.27 107.14 C54.69 83.34, 72.94 59.38, 103.81 25.35 M33.82 104.53 C49.4 88.54, 63.83 69.71, 101.99 26.04 M38.23 105.44 C56.84 87.58, 73.51 66.92, 103.23 30.12 M38.28 107.59 C63.17 76.53, 90.48 46.17, 104.7 29.66 M42.69 108.34 C52.78 92.45, 66.93 77.7, 108.23 32.57 M40.76 109.16 C60.58 87.26, 77.92 66.88, 107.77 33.5 M46.54 109.53 C65.77 87.14, 84.81 66.82, 112.12 36.56 M45.39 110.09 C63.66 87.29, 83.8 66.75, 110.38 36.51 M51.07 112.39 C67.3 90.83, 86.61 66.52, 112.43 40.46 M48.62 112.3 C64.5 94.95, 78.33 79.41, 110.58 40.78 M56.7 111.31 C72.01 93.76, 88.71 72.96, 112.61 45.33 M56.2 109.83 C71.6 92.48, 88.19 73.61, 112.38 47.31 M61.59 108.64 C79.79 88.02, 100.53 66.26, 114.56 52.51 M63.1 109.44 C75.37 93.8, 89.96 79.69, 113.51 51.37 M66.63 110.52 C79.45 95.15, 88.33 85.08, 112.45 56.25 M67.89 110.17 C84.96 90.74, 100.68 72.75, 112.62 56.83 M72.57 107.72 C88.11 94.85, 98.95 78.97, 113.76 64.12 M73.07 107.83 C84.75 97.66, 93.33 85.75, 113.62 64.17 M79.91 106.59 C88.59 95.82, 99.95 86.3, 107.2 75.87 M78.38 107.66 C88.19 97.46, 96.44 88.69, 108.89 75.1 M94.23 98.52 C95.78 96.36, 97.86 92.98, 103.2 87.07 M93.65 97.82 C96.37 94.16, 100.21 90.79, 101.82 87.59" stroke="#a5d8ff" stroke-width="0.5" fill="none"></path><path d="M63.84 0.4 C72.72 0.92, 83.53 7.02, 90.84 12.62 C98.15 18.21, 104.16 25.54, 107.72 33.98 C111.29 42.41, 113.44 53.75, 112.24 63.22 C111.03 72.7, 106.22 83.47, 100.51 90.82 C94.81 98.17, 86.53 103.86, 78.01 107.33 C69.5 110.79, 58.82 112.76, 49.44 111.61 C40.06 110.47, 29.18 106.21, 21.72 100.46 C14.27 94.71, 8.35 85.72, 4.7 77.11 C1.05 68.5, -1.33 58.08, -0.17 48.8 C0.99 39.51, 5.92 28.92, 11.65 21.4 C17.38 13.88, 24.88 7.14, 34.2 3.68 C43.53 0.21, 61.01 0.56, 67.63 0.62 C74.25 0.67, 73.98 2.96, 73.93 4.01 M77.6 4.02 C86.03 6.95, 94 15.74, 99.9 23.39 C105.8 31.04, 111.58 40.77, 113.01 49.92 C114.44 59.06, 112.62 69.89, 108.49 78.28 C104.36 86.67, 96.04 94.83, 88.25 100.24 C80.45 105.65, 70.92 109.51, 61.72 110.72 C52.52 111.93, 41.39 110.95, 33.03 107.48 C24.66 104, 16.82 97.35, 11.5 89.87 C6.19 82.4, 2.15 72.18, 1.13 62.63 C0.1 53.07, 1.57 41.2, 5.34 32.52 C9.11 23.84, 16.32 15.65, 23.76 10.52 C31.19 5.39, 40.71 2.68, 49.96 1.73 C59.21 0.77, 74.42 4.39, 79.25 4.8 C84.07 5.21, 79.3 3.2, 78.9 4.18" stroke="#1e1e1e" stroke-width="1" fill="none"></path></g><g transform="translate(306.68131712855336 127.28092650355336) rotate(0 30.576171875 11.5)"><text x="30.576171875" y="0" font-family="Helvetica, Segoe UI Emoji" font-size="20px" fill="#1e1e1e" text-anchor="middle" style="white-space: pre;" direction="ltr" dominant-baseline="text-before-edge">Apples</text></g><g stroke-linecap="round" transform="translate(462.1484375 84.87890625) rotate(0 49.232421875 49.232421875)"><path d="M66.06 2.44 C73.56 4.57, 81.97 11.91, 87.34 18.21 C92.7 24.51, 96.82 32.27, 98.23 40.23 C99.65 48.19, 98.73 58.34, 95.84 65.98 C92.95 73.61, 87.15 80.66, 80.88 86.05 C74.62 91.44, 66.3 96.7, 58.27 98.3 C50.24 99.91, 40.47 98.52, 32.72 95.68 C24.97 92.84, 17.12 87.47, 11.79 81.26 C6.45 75.06, 2.08 66.63, 0.74 58.47 C-0.61 50.3, 0.9 40.03, 3.73 32.26 C6.57 24.49, 11.47 17.04, 17.74 11.86 C24.02 6.68, 32.93 2.43, 41.4 1.19 C49.87 -0.06, 63.82 3.66, 68.56 4.41 C73.29 5.16, 70.25 5.18, 69.83 5.69 M54.2 -0.15 C61.68 0.38, 71.33 5.29, 77.96 10.36 C84.59 15.43, 90.87 22.89, 93.98 30.26 C97.09 37.63, 97.68 46.32, 96.6 54.57 C95.53 62.82, 92.37 73.09, 87.52 79.74 C82.67 86.4, 75.06 91.53, 67.52 94.48 C59.98 97.44, 50.46 98.64, 42.25 97.49 C34.04 96.34, 24.52 92.49, 18.24 87.58 C11.95 82.66, 7.66 75.31, 4.54 68 C1.43 60.69, -1.58 52.05, -0.45 43.74 C0.67 35.42, 6.09 24.73, 11.28 18.11 C16.47 11.48, 23.11 7.15, 30.68 3.98 C38.25 0.82, 52.39 -0.45, 56.71 -0.88 C61.03 -1.31, 56.74 0.57, 56.6 1.4" stroke="none" stroke-width="0" fill="#b2f2bb"></path><path d="M70.14 3.6 C77.53 5.98, 84.11 13.43, 88.64 20.16 C93.16 26.89, 96.23 35.82, 97.3 43.97 C98.38 52.12, 98.44 61.68, 95.1 69.06 C91.77 76.44, 84.17 83.22, 77.29 88.24 C70.42 93.26, 61.9 98.2, 53.84 99.19 C45.79 100.18, 36.25 97.87, 28.95 94.18 C21.65 90.5, 14.76 83.89, 10.04 77.08 C5.32 70.27, 1.7 61.32, 0.62 53.32 C-0.46 45.32, 0.14 36.33, 3.56 29.1 C6.98 21.87, 14.39 14.92, 21.13 9.95 C27.87 4.97, 34.89 -0.56, 44 -0.73 C53.11 -0.9, 69.44 6.56, 75.81 8.92 C82.17 11.27, 82.5 12.86, 82.18 13.4 M36.87 1.73 C44.21 -0.58, 53.69 0.03, 61.66 2.16 C69.63 4.3, 78.83 8.92, 84.68 14.53 C90.52 20.14, 94.62 28.04, 96.72 35.84 C98.83 43.64, 99.43 53.29, 97.3 61.34 C95.18 69.4, 89.89 78.03, 83.99 84.17 C78.08 90.32, 69.68 95.96, 61.86 98.22 C54.04 100.48, 45.26 100.39, 37.05 97.71 C28.85 95.03, 18.43 88.38, 12.6 82.14 C6.78 75.9, 3.94 68.1, 2.11 60.29 C0.27 52.48, -0.74 43.16, 1.6 35.29 C3.94 27.43, 10.36 18.7, 16.16 13.1 C21.95 7.49, 32.64 3.51, 36.37 1.65 C40.1 -0.21, 37.97 1.29, 38.52 1.95" stroke="#1e1e1e" stroke-width="1" fill="none"></path></g><g transform="translate(483.7655456379505 122.7987487629506) rotate(0 27.802734375 11.5)"><text x="27.802734375" y="0" font-family="Helvetica, Segoe UI Emoji" font-size="20px" fill="#1e1e1e" text-anchor="middle" style="white-space: pre;" direction="ltr" dominant-baseline="text-before-edge">Idea 7</text></g><g transform="translate(709.265625 13.01171875) rotate(0 18.3780517578125 38.00553116769109)"><text x="0" y="0" font-family="Helvetica, Segoe UI Emoji" font-size="66.09657594381059px" fill="#1e1e1e" text-anchor="start" style="white-space: pre;" direction="ltr" dominant-baseline="text-before-edge">?</text></g><g stroke-linecap="round" transform="translate(462.416015625 220.693359375) rotate(0 49.232421875 49.232421875)"><path d="M7.97 20.18 C7.97 20.18, 7.97 20.18, 7.97 20.18 M7.97 20.18 C7.97 20.18, 7.97 20.18, 7.97 20.18 M3.57 31.9 C7.98 26.26, 15.69 18.29, 25.36 5.44 M5.07 30.67 C11.06 23.01, 15.67 17.72, 24.71 6.01 M-0.88 39.06 C11.81 28.77, 19.98 20.39, 29.84 7.11 M1.2 40.03 C6.5 32.83, 12.79 25.76, 31.7 6.78 M2.72 44.99 C16.08 29.7, 28.38 17.12, 35.92 4.43 M0.44 46.01 C14.57 28.94, 28.54 13.39, 37.46 5.63 M0.4 51.81 C14.54 34.66, 30.12 19.72, 41.28 5.17 M1.88 51.51 C14.73 36.14, 27.19 20.47, 42.03 3.79 M4.37 57.27 C16.58 40.51, 35.43 22.28, 48.31 4.38 M3.03 56.04 C18.73 39.36, 32.96 21.75, 49.52 4.59 M3.91 62.13 C18.14 44.1, 33.87 28.99, 56.37 2.24 M4.34 60.42 C21.63 40.84, 39.11 22.96, 56.12 2.62 M4.93 64.83 C27.12 41.13, 48.03 17.65, 60.74 4 M4.52 66.79 C15.8 53.8, 27.98 40.67, 60.72 2.94 M6.13 70.76 C26.04 49.72, 41.15 29.33, 64.62 4.24 M6.32 71.18 C23.46 51.3, 40.5 31.77, 64.6 4.75 M10.65 75.52 C24.6 54.78, 39.96 36.55, 69.49 7.59 M7.92 74.07 C32.82 46.85, 55.59 18.73, 67.47 5.32 M9.51 78.96 C30.89 52.06, 53.65 29.59, 70.02 8.08 M12.02 77.77 C25.24 60.3, 37.86 45.95, 72.06 8.72 M15.23 81.56 C24.4 65.96, 37.58 50.73, 76.13 8.23 M13.15 80.08 C29.68 61.2, 47.56 41.45, 75.9 8.19 M17.95 82.33 C31.28 64.76, 47.61 47.27, 80.69 10.24 M15.53 83.55 C31.18 65.99, 46.71 48.75, 78.67 10.66 M18.38 87.94 C41.02 62.34, 63.96 34.08, 83.62 13.33 M17.61 87.85 C35.14 67.21, 53.06 46.87, 82.04 13.39 M20.64 89.8 C41.55 66.09, 61.77 42.05, 86.79 16.57 M20.72 90.24 C34.47 75.25, 47.1 59.25, 84.16 16.1 M23.11 90.97 C42.36 72.92, 57.64 58.45, 88.93 18.86 M25.48 91.73 C40.25 75.1, 55.54 57.83, 88.36 20.3 M28.75 94.8 C47.63 73.69, 64.36 52.55, 88.44 21.18 M27.9 93.08 C50.14 69.58, 69 45.89, 89.61 22.85 M34.5 96.27 C47.71 81.16, 60.98 64.85, 91.03 25.84 M32.44 95.43 C50.79 74.41, 66.88 56.63, 91.83 26.45 M37.59 98.64 C50.38 78.69, 63.97 65.24, 95.16 28.25 M35.99 96.25 C56.06 73.17, 77.46 49.88, 95.02 28.84 M41.66 96.54 C55.16 81.17, 69.76 67.1, 96.98 34.63 M41.71 97.77 C58.53 78.42, 76.86 58.99, 95.94 33.7 M45.06 98.4 C64.25 76.52, 82.2 55.94, 95.17 38.56 M44.99 98.7 C63.33 79.48, 79.82 61.62, 96.57 40.61 M50.32 98.27 C66.7 81.21, 79.7 64.19, 98.47 43.64 M52.59 97.37 C66.35 81.67, 79.55 64.49, 97.34 44.98 M58.41 96.49 C69.4 86.19, 75.17 75.57, 99.29 52.39 M58.67 97.73 C67.52 85.21, 78.47 72.54, 98.47 50.26 M63.61 94.03 C78.49 82.76, 91.64 65.86, 100.51 56.57 M65.24 94.99 C74.51 85.72, 82.15 75.16, 100.41 55.57 M71.69 96.64 C78.06 84.44, 89.41 71.22, 95.84 64.66 M70.1 95.05 C76.69 85.41, 85.53 76.55, 95.92 66.52 M19.86 89.95 C19.86 89.95, 19.86 89.95, 19.86 89.95 M19.86 89.95 C19.86 89.95, 19.86 89.95, 19.86 89.95 M31.02 92.68 C27.19 89.52, 18.95 86.89, 8.78 73.11 M30.9 93.45 C22.52 87.63, 16.88 80.99, 7.22 75.03 M40.32 95.87 C31.81 90.96, 26.39 84.48, 4.87 65.33 M41.53 97.4 C27.23 86.14, 15.33 74.76, 6.1 67.25 M44.74 97.46 C33.24 85.75, 15.99 71.61, 4.17 60.59 M47.37 97.79 C33.29 85.67, 19.6 74.85, 4.25 60.5 M53.22 95.35 C39.12 87.04, 25.67 75.23, 3.44 53.35 M52.07 96.08 C38.17 84.01, 23.01 71.43, 4.11 54.82 M56.3 94.93 C35.07 76.96, 12.39 57.45, 2.25 48.28 M57.35 95.05 C43.7 84.23, 30.4 73.46, 2.53 48.07 M62.09 92.83 C45.44 82.91, 33.15 69.63, 3.1 40.71 M60.54 93.8 C42.6 78.45, 24.93 63.59, 2.57 41.71 M65.86 94.71 C53.73 82.16, 38.19 70.19, 3.51 37.13 M65.93 92.92 C43.84 73.99, 20.78 53.91, 3.31 38.62 M70.93 92.36 C52.11 78.61, 34.54 62.22, 3.44 34.97 M71.31 92.9 C46.27 69.81, 23.41 49.88, 4.85 34.2 M75.25 90.88 C56.12 73.4, 40.43 60.92, 6.87 28.42 M74.28 88.58 C53.62 73.04, 35.31 56.68, 5.71 29.44 M75.88 88.34 C48.56 62.4, 23.05 38.94, 5.71 24.13 M76.36 86.17 C56.9 69.95, 38.13 52.17, 6.37 26.04 M80.74 85.08 C56.87 63, 31.23 42.22, 10.42 20.42 M80.5 83.81 C54.64 61.52, 28.9 39.07, 9.54 22.83 M81.32 80.06 C58.23 57.89, 32.43 37.01, 8.61 18.41 M83.4 81.29 C62.62 64.35, 42.66 47.34, 10.51 18.26 M87.78 77.98 C69.03 66.33, 53.24 51.51, 12.72 17.03 M86.34 78.43 C66.48 61.67, 45.5 43.44, 12.49 14.72 M89.3 78.47 C60.43 53.34, 31.55 25.97, 15.06 13.65 M89.25 75.64 C72.13 61.67, 56.13 47.03, 17.33 12.49 M91.75 73.88 C64.22 50.01, 35.12 24.5, 20.26 11.76 M89.96 72.95 C73.96 58.04, 57.46 42.64, 19.68 10.72 M93.29 68.28 C69.84 46.31, 44.23 27.95, 23.1 7.45 M93.62 68.39 C75.28 52.26, 56.62 36.59, 22.49 7.21 M95.49 66.07 C73.77 43.67, 48.63 26.27, 24.43 5.18 M93.42 63.88 C67.42 41.25, 41.72 18.08, 26.61 5.51 M95.72 59.69 C76.87 42.2, 55.91 25.94, 27.5 2.96 M96.69 60.24 C77.31 43.35, 58.34 27.52, 28.83 3.43 M98.76 58.12 C72.85 36.44, 46.68 14.12, 36.12 2.07 M98.2 57.03 C83.8 46.18, 71.33 34.87, 35.73 2.03 M99.95 53.97 C86.75 42.7, 73.06 28.33, 39.99 1.63 M98.98 52.96 C80.57 38.03, 64.46 23.12, 40.65 1.51 M98.01 48.64 C80.79 30.2, 64.11 18.64, 45.62 0.95 M98.9 46.32 C81.54 32.38, 62.68 16.46, 46.35 0.94 M97.5 38.74 C82.93 27.08, 67.91 13.49, 49.94 1.33 M96.69 40.73 C85.13 29.74, 70.97 18.67, 50.3 1.28 M96.12 35.87 C85.1 22.26, 73.3 14.97, 55.14 -2.05 M97.06 34.28 C84.58 24.51, 73 14.1, 55.2 -1.37 M97.63 27.8 C84.69 17.11, 72.2 7.66, 67.94 1.43 M95.2 27.95 C86.5 19.83, 77.81 13.93, 65.88 3.08" stroke="#b2f2bb" stroke-width="0.5" fill="none"></path><path d="M54.29 0.7 C62.21 0.9, 71.6 4.98, 78.37 9.73 C85.14 14.48, 91.59 21.92, 94.9 29.21 C98.2 36.5, 99.26 45.46, 98.22 53.46 C97.19 61.46, 93.52 70.45, 88.67 77.21 C83.81 83.98, 76.44 90.45, 69.11 94.06 C61.77 97.68, 52.92 99.62, 44.67 98.9 C36.42 98.18, 26.42 94.77, 19.61 89.74 C12.81 84.72, 7.2 76.33, 3.85 68.74 C0.51 61.15, -1.18 52.34, -0.45 44.19 C0.28 36.05, 3.36 26.59, 8.25 19.86 C13.15 13.13, 20.78 7.17, 28.93 3.81 C37.09 0.45, 52.32 0.07, 57.17 -0.31 C62.03 -0.69, 58.24 0.47, 58.08 1.54 M42.1 0.68 C49.96 -1.04, 61.12 0.13, 68.89 3.3 C76.66 6.46, 83.73 13.16, 88.73 19.65 C93.73 26.14, 97.88 34.26, 98.86 42.23 C99.85 50.19, 97.74 59.67, 94.63 67.44 C91.51 75.2, 86.9 83.51, 80.18 88.81 C73.45 94.12, 62.43 98.06, 54.27 99.26 C46.1 100.46, 38.55 99.42, 31.17 95.99 C23.79 92.56, 15.03 85.4, 9.99 78.68 C4.96 71.96, 1.96 63.57, 0.93 55.68 C-0.1 47.8, 0.56 38.83, 3.82 31.38 C7.08 23.93, 13.78 16.35, 20.49 10.96 C27.19 5.57, 40.47 0.5, 44.03 -0.93 C47.59 -2.37, 42.15 1.12, 41.85 2.35" stroke="#1e1e1e" stroke-width="1" fill="none"></path></g><g transform="translate(484.0331237629505 258.6132018879506) rotate(0 27.802734375 11.5)"><text x="27.802734375" y="0" font-family="Helvetica, Segoe UI Emoji" font-size="20px" fill="#1e1e1e" text-anchor="middle" style="white-space: pre;" direction="ltr" dominant-baseline="text-before-edge">Idea 8</text></g><g stroke-linecap="round" transform="translate(640.6953125 113.72265625) rotate(0 110.515625 79.494140625)"><path d="M32 0 M32 0 C66.36 0.45, 99.9 0.31, 189.03 0 M189.03 0 C208.91 -1.56, 220.93 9.44, 221.03 32 M221.03 32 C222.09 55.16, 218.37 79.91, 221.03 126.99 M221.03 126.99 C219.78 147.84, 210.84 158.59, 189.03 158.99 M189.03 158.99 C150.95 162.29, 110.12 159.05, 32 158.99 M32 158.99 C12.48 158.77, -1.62 146.77, 0 126.99 M0 126.99 C0.94 98.24, 1.95 68.66, 0 32 M0 32 C-1.73 12.06, 10.97 1.13, 32 0" stroke="#1e1e1e" stroke-width="1.5" fill="none" stroke-dasharray="8 9"></path></g><g transform="translate(647.841796875 147.216796875) rotate(0 103.369140625 46)"><text x="103.369140625" y="0" font-family="Helvetica, Segoe UI Emoji" font-size="20px" fill="#1e1e1e" text-anchor="middle" style="white-space: pre;" direction="ltr" dominant-baseline="text-before-edge">Each run has 500 </text><text x="103.369140625" y="23" font-family="Helvetica, Segoe UI Emoji" font-size="20px" fill="#1e1e1e" text-anchor="middle" style="white-space: pre;" direction="ltr" dominant-baseline="text-before-edge">permutations of tested </text><text x="103.369140625" y="46" font-family="Helvetica, Segoe UI Emoji" font-size="20px" fill="#1e1e1e" text-anchor="middle" style="white-space: pre;" direction="ltr" dominant-baseline="text-before-edge">parameters and </text><text x="103.369140625" y="69" font-family="Helvetica, Segoe UI Emoji" font-size="20px" fill="#1e1e1e" text-anchor="middle" style="white-space: pre;" direction="ltr" dominant-baseline="text-before-edge">associated loss metrics</text></g><g stroke-linecap="round"><g transform="translate(242.55859375 42.25) rotate(0 0.14233241703584554 152.32041945976204)"><path d="M-0.76 0.88 C-0.55 51.51, 0.19 252.45, 0.18 302.91 M1.04 0.29 C1.2 51.18, -0.77 254.14, -0.68 304.35" stroke="#1e1e1e" stroke-width="1" fill="none"></path></g></g><mask></mask><g stroke-linecap="round"><g transform="translate(438.85376133296427 42.64442429023791) rotate(0 0.006426685709016056 152.29562999130223)"><path d="M0.31 0.86 C0.37 51.3, 0.89 252.37, 1.01 302.9 M-0.99 0.26 C-1.05 50.88, 0.3 254.02, 0.58 304.33" stroke="#1e1e1e" stroke-width="1" fill="none"></path></g></g><mask></mask><g stroke-linecap="round"><g transform="translate(602.7639175829643 43.53114304023791) rotate(0 -0.34396258561696413 151.32908205911983)"><path d="M0.98 -0.34 C0.82 50.41, -0.46 253.45, -0.47 304.22 M0.03 -1.56 C-0.37 48.91, -1.77 252, -1.66 302.68" stroke="#1e1e1e" stroke-width="1" fill="none"></path></g></g><mask></mask><g transform="translate(82.73046875 11.90234375) rotate(0 26.4892578125 11.5)"><text x="0" y="0" font-family="Helvetica, Segoe UI Emoji" font-size="20px" fill="#1e1e1e" text-anchor="start" style="white-space: pre;" direction="ltr" dominant-baseline="text-before-edge">TAGS</text></g><g transform="translate(273.5654296875 10) rotate(0 71.6796875 11.5)"><text x="0" y="0" font-family="Helvetica, Segoe UI Emoji" font-size="20px" fill="#1e1e1e" text-anchor="start" style="white-space: pre;" direction="ltr" dominant-baseline="text-before-edge">EXPERIMENTS</text></g><g transform="translate(492.7646484375 10.74609375) rotate(0 28.3349609375 11.5)"><text x="0" y="0" font-family="Helvetica, Segoe UI Emoji" font-size="20px" fill="#1e1e1e" text-anchor="start" style="white-space: pre;" direction="ltr" dominant-baseline="text-before-edge">RUNS</text></g><g stroke-linecap="round"><g transform="translate(205.53515625 140.3203125) rotate(0 40.04168114305941 15.426515833029498)"><path d="M0.57 1.01 C8.27 5.8, 31.71 25.05, 45.06 28.49 C58.41 31.92, 74.67 23, 80.68 21.62 M-0.6 0.49 C7.59 5.41, 33.87 25.66, 47.35 29.42 C60.83 33.19, 75.12 24.53, 80.28 23.08" stroke="#1e1e1e" stroke-width="1" fill="none"></path></g><g transform="translate(205.53515625 140.3203125) rotate(0 40.04168114305941 15.426515833029498)"><path d="M68.65 33.58 C68.2 33.33, 72.93 31.59, 78.59 21.65 M67.61 34.17 C70.83 32.02, 73.86 28.1, 80.62 22.2" stroke="#1e1e1e" stroke-width="1" fill="none"></path></g><g transform="translate(205.53515625 140.3203125) rotate(0 40.04168114305941 15.426515833029498)"><path d="M64.21 22.42 C64.64 24.43, 70.28 24.96, 78.59 21.65 M63.17 23.02 C67.65 23.86, 71.88 22.97, 80.62 22.2" stroke="#1e1e1e" stroke-width="1" fill="none"></path></g></g><mask></mask><g stroke-linecap="round"><g transform="translate(398.296875 131.73046875) rotate(0 33.962219407274404 -11.509568936780454)"><path d="M0.3 -1.13 C7.65 -4.53, 31.7 -18.46, 43.13 -21.45 C54.57 -24.45, 64.53 -19.62, 68.92 -19.09 M-1 0.89 C6.3 -2.74, 30.84 -19.97, 42.36 -23.12 C53.88 -26.27, 63.51 -19.04, 68.12 -18.02" stroke="#1e1e1e" stroke-width="1" fill="none"></path></g><g transform="translate(398.296875 131.73046875) rotate(0 33.962219407274404 -11.509568936780454)"><path d="M53.64 -18.02 C58.78 -18.43, 60.24 -17.72, 68.47 -18.36 M54.52 -18.16 C59.51 -18.02, 65.82 -17.73, 67.64 -17.85" stroke="#1e1e1e" stroke-width="1" fill="none"></path></g><g transform="translate(398.296875 131.73046875) rotate(0 33.962219407274404 -11.509568936780454)"><path d="M56.98 -26.44 C61.29 -24.97, 62.02 -22.4, 68.47 -18.36 M57.86 -26.57 C61.45 -23.08, 66.43 -19.44, 67.64 -17.85" stroke="#1e1e1e" stroke-width="1" fill="none"></path></g></g><mask></mask><g stroke-linecap="round"><g transform="translate(378.52734375 178.91796875) rotate(0 40.87991188980169 46.06196132526736)"><path d="M-1.09 -0.16 C5.07 13.13, 23.51 64.82, 37.12 80.26 C50.73 95.71, 73.31 90.23, 80.58 92.49 M0.54 -1.29 C7.03 12.06, 25.52 65.47, 39.23 81.25 C52.95 97.03, 75.98 91.69, 82.85 93.41" stroke="#1e1e1e" stroke-width="1" fill="none"></path></g><g transform="translate(378.52734375 178.91796875) rotate(0 40.87991188980169 46.06196132526736)"><path d="M61.1 98.35 C66.35 96.33, 73.59 94.46, 83.79 92.41 M61.59 99.51 C66.47 98.8, 71.94 96.4, 81.97 93.14" stroke="#1e1e1e" stroke-width="1" fill="none"></path></g><g transform="translate(378.52734375 178.91796875) rotate(0 40.87991188980169 46.06196132526736)"><path d="M61.73 82.94 C66.85 85.76, 73.9 88.75, 83.79 92.41 M62.22 84.1 C67.04 87.01, 72.36 88.21, 81.97 93.14" stroke="#1e1e1e" stroke-width="1" fill="none"></path></g></g><mask></mask><g stroke-linecap="round"><g transform="translate(556.96484375 250.07421875) rotate(0 41.17380981370809 -30.144691907576913)"><path d="M-0.66 0.14 C4.8 -5.92, 18.06 -27.45, 32 -37.55 C45.94 -47.64, 74.4 -56.61, 83 -60.43" stroke="#1e1e1e" stroke-width="1.5" fill="none" stroke-dasharray="8 9"></path></g><g transform="translate(556.96484375 250.07421875) rotate(0 41.17380981370809 -30.144691907576913)"><path d="M62.26 -41.62 C66.87 -45.88, 71.13 -49.21, 81.86 -59.31" stroke="#1e1e1e" stroke-width="1.5" fill="none"></path></g><g transform="translate(556.96484375 250.07421875) rotate(0 41.17380981370809 -30.144691907576913)"><path d="M55.38 -59.39 C61.45 -59.38, 67.34 -58.48, 81.86 -59.31" stroke="#1e1e1e" stroke-width="1.5" fill="none"></path></g></g><mask></mask><g stroke-linecap="round"><g transform="translate(560.796875 143.609375) rotate(0 38.96188927963374 19.444135951250786)"><path d="M0.55 -0.18 C3.2 4.71, 2.99 23.32, 15.8 29.86 C28.6 36.41, 67.32 37.64, 77.38 39.07" stroke="#1e1e1e" stroke-width="1.5" fill="none" stroke-dasharray="8 9"></path></g><g transform="translate(560.796875 143.609375) rotate(0 38.96188927963374 19.444135951250786)"><path d="M48.08 48.37 C56.29 44.63, 64.56 40.36, 75.73 39.73" stroke="#1e1e1e" stroke-width="1.5" fill="none"></path></g><g transform="translate(560.796875 143.609375) rotate(0 38.96188927963374 19.444135951250786)"><path d="M49.92 27.93 C57.7 30.11, 65.43 31.76, 75.73 39.73" stroke="#1e1e1e" stroke-width="1.5" fill="none"></path></g></g><mask></mask></svg>