<svg width="120" height="24" viewBox="0 0 120 24" fill="none" xmlns="http://www.w3.org/2000/svg">
<g clip-path="url(#clip0)">
<path d="M16.6207 23.4327L15.7407 20.6609H7.62075L6.74035 23.4327H1.10132L9.25303 0.609131H14.1115L22.361 23.4327H16.6207ZM11.6987 7.12926L8.89437 16.52H14.4377L11.6987 7.12926Z" fill="#1F2127"/>
<path d="M22.9893 0.609131H28.3367V23.4327H22.9893V0.609131Z" fill="#1F2127"/>
<path d="M29.778 18.7697C30.0181 17.6428 30.4422 16.5632 31.0333 15.5743C31.5474 14.7385 32.1914 13.9901 32.941 13.357C33.7068 12.7218 34.5187 12.1443 35.37 11.6294C36.0436 11.2378 36.6685 10.8627 37.2449 10.5043C37.7764 10.178 38.2832 9.81296 38.7611 9.4121C39.1738 9.06912 39.5217 8.65497 39.7883 8.18927C40.0429 7.72502 40.1721 7.20247 40.1632 6.67309C40.1632 5.7602 39.9133 5.10266 39.4134 4.70047C38.8833 4.2885 38.2258 4.07506 37.5548 4.09717C36.7912 4.07408 36.0486 4.34892 35.4841 4.86356C34.9298 5.37448 34.6527 6.2277 34.6527 7.42323H29.4028C29.3934 6.43009 29.5762 5.44452 29.9411 4.52079C30.291 3.64199 30.831 2.85144 31.5222 2.20575C32.2584 1.52916 33.1235 1.00796 34.0657 0.673329C35.1756 0.285645 36.3455 0.0978785 37.5209 0.118755C38.5297 0.114098 39.5341 0.25135 40.5046 0.526479C41.4073 0.777025 42.2539 1.19757 42.999 1.76555C43.731 2.33806 44.3175 3.07539 44.7107 3.9175C45.1549 4.89419 45.3723 5.95876 45.3465 7.0314C45.3582 7.93876 45.1454 8.83495 44.7269 9.64014C44.3262 10.406 43.8154 11.109 43.2108 11.7268C42.6204 12.3291 41.9705 12.87 41.271 13.3411C40.5746 13.8087 39.9441 14.2054 39.3795 14.5311C38.5964 15.0529 37.9496 15.504 37.4394 15.8845C37.0016 16.2011 36.5925 16.5556 36.2169 16.9439C35.9359 17.2322 35.7191 17.5768 35.5808 17.9549C35.4549 18.3444 35.3943 18.752 35.4015 19.1612H45.1837V23.4326H29.3378C29.3099 21.8667 29.4575 20.3027 29.778 18.7697Z" fill="#1F2127"/>
<path d="M46.1938 4.61724C47.1075 4.63586 48.0205 4.55382 48.9163 4.37261C49.5146 4.25901 50.0784 4.00788 50.5631 3.63905C50.952 3.31635 51.2358 2.88492 51.3782 2.39998C51.5411 1.81652 51.618 1.21237 51.6062 0.606689H56.2708V23.4327H50.891V8.33548H46.1938V4.61724Z" fill="#1F2127"/>
<path d="M62.3215 0.609131H67.3096V23.4327H62.3215V0.609131Z" fill="#E91E63"/>
<path d="M85.729 7.70403V23.4207H80.7403V21.2028C80.5356 21.5845 80.2714 21.9312 79.9576 22.2297C79.6222 22.552 79.2437 22.8263 78.8329 23.0448C78.3925 23.279 77.9277 23.4643 77.447 23.5977C76.9592 23.737 76.4544 23.8083 75.9471 23.8095C74.8757 23.8217 73.8141 23.6049 72.8332 23.1737C71.9143 22.7692 71.0878 22.1813 70.4041 21.446C69.7132 20.6898 69.181 19.8028 68.8389 18.8373C68.0999 16.7151 68.0999 14.4055 68.8389 12.2833C69.181 11.3178 69.7132 10.4308 70.4041 9.67458C71.0878 8.93933 71.9143 8.35144 72.8332 7.94693C73.8144 7.51608 74.8763 7.29979 75.9478 7.31254C76.4551 7.31372 76.9599 7.38499 77.4477 7.52435C77.9307 7.65896 78.396 7.85058 78.8336 8.09517C79.2454 8.3251 79.6238 8.61027 79.9583 8.94275C80.264 9.24246 80.5273 9.58249 80.7409 9.95342V7.70403H85.729ZM76.9906 19.5729C77.5194 19.581 78.0432 19.4696 78.523 19.2471C78.9675 19.0391 79.3667 18.7455 79.6978 18.3833C80.0317 18.0118 80.2918 17.5802 80.4642 17.1114C80.6497 16.6163 80.7434 16.0915 80.7406 15.5627C80.7482 14.5317 80.3768 13.5337 79.6971 12.7584C79.3696 12.388 78.9698 12.0884 78.5223 11.878C78.04 11.6632 77.5179 11.5522 76.9899 11.5522C76.4619 11.5522 75.9398 11.6632 75.4575 11.878C75.0101 12.0885 74.6103 12.3881 74.2827 12.7584C73.6033 13.5339 73.2321 14.5318 73.2395 15.5627C73.2364 16.0915 73.3301 16.6164 73.516 17.1114C73.6883 17.5801 73.9482 18.0118 74.282 18.3833C74.6132 18.7454 75.0124 19.0389 75.4568 19.2471C75.937 19.4699 76.4613 19.5813 76.9906 19.5729Z" fill="#E91E63"/>
<path d="M91.7913 23.4327H86.8022V0.609131H91.7913V9.96571C92.005 9.59477 92.2683 9.25474 92.574 8.95503C92.9119 8.61978 93.2958 8.33438 93.7142 8.10745C94.1536 7.86649 94.6184 7.67504 95.1001 7.53664C95.593 7.39502 96.1034 7.32371 96.6163 7.32483C97.6877 7.31264 98.7493 7.5294 99.7302 7.9606C100.649 8.36519 101.476 8.95307 102.159 9.68825C102.85 10.4446 103.382 11.3316 103.725 12.297C104.463 14.4192 104.463 16.7288 103.725 18.851C103.382 19.8163 102.85 20.7034 102.159 21.4597C101.476 22.1949 100.649 22.7828 99.7302 23.1874C98.7493 23.6186 97.6877 23.8353 96.6163 23.8231C96.1034 23.8243 95.593 23.753 95.1001 23.6113C94.6207 23.4743 94.1563 23.2891 93.7142 23.0585C93.297 22.8429 92.913 22.5684 92.574 22.2434C92.2602 21.9448 91.996 21.5982 91.7913 21.2165V23.4327ZM95.5738 19.5849C96.092 19.5906 96.6047 19.4793 97.0738 19.2591C97.5183 19.051 97.9175 18.7575 98.2486 18.3952C98.5825 18.0238 98.8426 17.5921 99.015 17.1233C99.2005 16.6282 99.2941 16.1034 99.2914 15.5747C99.2989 14.5436 98.9276 13.5457 98.2479 12.7704C97.9203 12.4 97.5206 12.1004 97.0731 11.89C96.6043 11.6696 96.0918 11.5576 95.5738 11.5624C95.0399 11.5558 94.5112 11.6671 94.0252 11.8882C93.5715 12.0955 93.1661 12.3954 92.8352 12.7686C92.1555 13.544 91.7841 14.5419 91.7917 15.5729C91.7888 16.1017 91.8824 16.6265 92.0681 17.1216C92.2402 17.5905 92.5004 18.0222 92.8345 18.3935C93.169 18.7585 93.5738 19.0523 94.0245 19.2573C94.5104 19.4795 95.0395 19.5914 95.5738 19.5849Z" fill="#E91E63"/>
<path d="M113.653 14.1721C114.348 14.3677 115 14.5796 115.609 14.8079C116.178 15.0152 116.716 15.3006 117.207 15.6558C117.659 15.9885 118.032 16.4172 118.299 16.9111C118.59 17.4977 118.73 18.1477 118.707 18.8022C118.734 19.6254 118.542 20.441 118.152 21.1663C117.781 21.809 117.254 22.3474 116.62 22.7316C115.922 23.1516 115.154 23.4441 114.354 23.5954C113.446 23.7736 112.523 23.8609 111.598 23.8559C109.359 23.8559 107.593 23.3669 106.3 22.3888C105.006 21.4106 104.621 20.0085 104.621 18.1823H109.251C109.251 19.0089 109.485 19.6012 109.952 19.9594C110.478 20.3364 111.115 20.5258 111.762 20.4974C112.278 20.5196 112.791 20.4014 113.245 20.1553C113.435 20.0384 113.588 19.8716 113.689 19.6731C113.789 19.4746 113.833 19.2521 113.816 19.0303C113.829 18.7638 113.742 18.5022 113.571 18.2967C113.358 18.0758 113.103 17.8986 112.821 17.775C112.399 17.5797 111.963 17.4162 111.517 17.2857C110.984 17.1226 110.348 16.9216 109.61 16.6827C108.958 16.4869 108.338 16.275 107.751 16.047C107.201 15.8385 106.68 15.5589 106.202 15.2153C105.757 14.8904 105.395 14.4661 105.143 13.9762C104.862 13.3863 104.728 12.7376 104.751 12.0848C104.751 10.4546 105.376 9.24824 106.626 8.46573C107.876 7.68323 109.566 7.29163 111.696 7.29094C112.706 7.27405 113.712 7.41155 114.68 7.69866C115.455 7.9259 116.176 8.30856 116.799 8.82336C117.342 9.28555 117.771 9.86562 118.055 10.5192C118.338 11.178 118.483 11.8885 118.479 12.6059H113.555C113.59 12.0541 113.408 11.5104 113.05 11.0897C112.843 10.8973 112.599 10.75 112.332 10.6574C112.065 10.5648 111.782 10.5288 111.501 10.5517C111.042 10.5405 110.59 10.6592 110.197 10.8941C110.016 11.0035 109.87 11.16 109.772 11.3468C109.674 11.5335 109.629 11.7434 109.642 11.9538C109.633 12.2128 109.727 12.4649 109.903 12.6549C110.123 12.8713 110.384 13.043 110.669 13.1604C111.078 13.3389 111.497 13.4913 111.925 13.6169C112.424 13.7701 113 13.9551 113.653 14.1721Z" fill="#E91E63"/>
</g>
<defs>
<clipPath id="clip0">
<rect width="117.818" height="24" fill="white" transform="translate(1.09106)"/>
</clipPath>
</defs>
</svg>
