<svg version="1.1" id="Layer_1" xmlns="http://www.w3.org/2000/svg" xmlns:xlink="http://www.w3.org/1999/xlink" x="0px" y="0px"
	 width="100%" viewBox="0 0 679 135" enable-background="new 0 0 679 135" xml:space="preserve">
<path fill="#FFFFFF" opacity="1.000000" stroke="none" 
	d="
M680.000000,62.000000 
	C680.000000,86.649315 680.000000,111.298637 680.000000,136.000000 
	C498.311890,136.000000 316.623810,136.000000 134.616394,135.637665 
	C134.865005,133.465912 135.924454,131.657608 135.928619,129.846878 
	C136.022598,89.021271 136.030792,48.195301 135.915634,7.369793 
	C135.909637,5.244744 134.666946,3.123183 134.000000,0.999999 
	C316.000000,1.000000 498.000000,1.000000 680.000000,1.000000 
	C680.000000,18.422859 680.000000,35.743576 679.579956,53.532143 
	C676.122864,54.605701 673.085754,55.211407 671.335754,55.560436 
	C667.802429,54.785347 665.169495,54.207775 662.229614,53.562862 
	C662.229614,63.861889 662.229614,73.252151 662.229614,82.764328 
	C664.856995,82.764328 667.250671,82.764328 670.007812,82.764328 
	C670.007812,76.116653 670.007812,69.695908 670.007812,62.824684 
	C673.565125,62.531090 676.782532,62.265541 680.000000,62.000000 
M560.586853,82.999062 
	C562.333984,82.999062 564.081177,82.999062 565.662964,82.999062 
	C565.662964,69.585907 565.662964,56.849266 565.662964,44.000515 
	C564.497437,44.000515 563.645386,44.129169 562.845581,43.979336 
	C558.169922,43.103394 555.533569,44.706806 553.915527,49.482716 
	C552.208801,54.520412 549.333679,59.162270 546.637573,64.651970 
	C544.479736,59.880169 542.408203,56.179996 541.108887,52.226051 
	C538.978394,45.742760 535.195618,42.472828 528.162476,44.065548 
	C527.871094,44.131531 527.613403,44.346306 527.256348,44.536274 
	C527.256348,57.231030 527.256348,69.967285 527.256348,82.726006 
	C529.920959,82.726006 532.319031,82.726006 535.183167,82.726006 
	C535.183167,74.833336 535.183167,67.203827 535.183167,58.474880 
	C537.699219,63.424477 539.379517,67.475700 541.762024,71.060219 
	C542.753906,72.552521 545.212280,73.714043 547.059570,73.797989 
	C548.647766,73.870163 550.937683,72.595596 551.824707,71.214684 
	C554.012207,67.809143 555.571960,64.000336 558.000000,59.114239 
	C558.000000,66.789848 557.906616,72.948341 558.074768,79.099670 
	C558.110596,80.410057 559.097900,81.694427 560.586853,82.999062 
M220.000000,77.389801 
	C220.000000,79.165459 220.000000,80.941109 220.000000,82.717819 
	C223.268082,82.717819 225.999542,82.717819 228.970123,82.717819 
	C228.970123,75.482872 228.970123,68.523987 228.970123,61.626198 
	C236.998825,59.824139 236.999100,59.824139 236.999908,67.779495 
	C237.000427,72.731392 237.000000,77.683281 237.000000,82.761101 
	C240.184174,82.761101 242.914444,82.761101 246.006226,82.761101 
	C246.006226,75.423767 246.006226,68.317238 246.006226,61.271183 
	C253.999573,60.116535 253.999664,60.116535 253.999969,68.162094 
	C254.000153,73.086555 254.000000,78.011017 254.000000,82.804382 
	C257.330719,82.804382 259.948486,82.804382 263.000000,82.804382 
	C263.000000,76.000511 263.006348,69.382751 262.998413,62.765007 
	C262.988586,54.570644 258.425201,51.264721 250.542053,53.952560 
	C247.050339,55.143101 243.844193,55.643921 240.297867,53.921158 
	C238.772171,53.179989 236.593994,53.447353 234.780762,53.717060 
	C232.500061,54.056293 230.278244,55.386215 228.051727,55.337761 
	C225.522751,55.282719 223.016632,54.177013 220.000000,53.398937 
	C220.000000,61.806252 220.000000,69.110825 220.000000,77.389801 
M481.006195,54.501724 
	C475.920715,51.999035 470.688507,52.398354 467.287506,56.640869 
	C462.414337,62.719845 462.658325,70.012772 466.034882,76.838066 
	C469.471344,83.784409 475.857819,82.235153 481.840515,81.247261 
	C480.765686,88.057724 479.221802,88.525963 466.561005,86.103386 
	C465.429138,92.260445 466.272278,93.501961 472.184601,93.970627 
	C474.333008,94.140923 476.506226,94.007584 478.668060,93.998436 
	C484.928711,93.971931 490.460968,90.030930 490.817810,83.904625 
	C491.393768,74.017258 490.972595,64.071800 490.972595,53.543770 
	C487.472137,54.072857 484.606110,54.506050 481.006195,54.501724 
M200.365601,44.000034 
	C194.563736,42.368580 192.660034,46.349934 191.170441,50.588570 
	C188.347580,58.621117 185.684677,66.710175 182.991241,74.787735 
	C182.148651,77.314651 181.421448,79.880043 180.596085,82.575935 
	C190.867874,83.162933 189.374634,85.091339 192.673309,74.000015 
	C193.761002,74.000015 194.923691,74.107674 196.060486,73.981621 
	C201.351974,73.394882 205.900269,73.718285 206.437149,80.692101 
	C206.501938,81.533653 208.339706,82.732231 209.479965,82.894989 
	C211.872208,83.236458 214.347153,82.998611 217.269882,82.998611 
	C212.719055,70.203979 208.401459,57.951588 203.931152,45.755180 
	C203.636658,44.951656 202.176514,44.575375 200.365601,44.000034 
M415.673035,67.948296 
	C418.150726,68.591820 421.347260,68.688576 420.927856,72.394798 
	C420.493896,76.229561 417.370056,76.254028 414.490021,75.966087 
	C410.728607,75.590034 406.991516,74.970963 403.118042,74.439163 
	C403.118042,76.836060 403.118042,79.136795 403.118042,82.821381 
	C408.695557,82.883270 414.250031,83.419525 419.700958,82.889870 
	C427.158539,82.165253 430.656860,78.337540 430.997742,71.884941 
	C431.281097,66.521835 427.752472,62.137569 421.492340,59.991482 
	C419.364532,59.262039 417.119476,58.677711 415.223602,57.536133 
	C413.904327,56.741737 413.089294,55.109867 412.049011,53.852146 
	C413.614471,52.901566 415.141418,51.232510 416.753204,51.146145 
	C420.395203,50.950996 424.079041,51.537510 427.688110,51.801838 
	C428.630707,46.977352 428.274292,43.446754 422.296967,43.937424 
	C421.724518,43.984417 421.127380,43.338051 420.505859,43.239342 
	C412.290558,41.934673 401.651764,46.512634 402.992462,56.322208 
	C403.954010,63.357693 409.382050,65.530685 415.673035,67.948296 
M628.967163,57.276031 
	C629.494690,56.260441 630.022217,55.244846 630.378235,54.559395 
	C621.066284,51.053040 616.750977,57.530140 611.671387,64.762093 
	C611.671387,56.213779 611.671387,49.140160 611.671387,42.199326 
	C608.653625,42.199326 606.037415,42.199326 603.368591,42.199326 
	C603.368591,55.906399 603.368591,69.411034 603.368591,82.797150 
	C606.358887,82.797150 608.976440,82.797150 612.023071,82.797150 
	C612.023071,79.257477 612.023071,75.893295 612.023071,71.970497 
	C620.649536,83.571823 622.157837,84.367973 631.602356,82.081390 
	C627.603760,77.223869 623.811890,72.617393 619.685059,67.604004 
	C622.637146,64.393517 625.616577,61.153358 628.967163,57.276031 
M324.001801,64.000816 
	C324.001190,65.500244 324.000092,66.999680 324.000092,68.499107 
	C323.999939,78.525726 326.248169,81.201645 336.263916,83.096466 
	C342.445770,84.265968 348.575500,81.087624 350.789032,75.564987 
	C353.517853,68.756767 351.508606,59.363949 346.782776,55.945717 
	C339.607178,50.755558 326.949646,52.153873 324.001801,64.000816 
M378.416962,53.888809 
	C375.176849,54.170689 371.928589,54.384514 368.701263,54.772640 
	C367.622559,54.902363 366.496216,55.955482 365.566925,55.758705 
	C362.864227,55.186413 360.250244,54.195110 357.000000,53.180363 
	C357.000000,59.143997 357.000000,63.782326 357.000000,68.420654 
	C357.000000,73.196320 357.000000,77.971992 357.000000,82.705582 
	C360.289856,82.705582 363.022491,82.705582 366.000153,82.705582 
	C366.000153,76.605377 365.877472,70.792854 366.091980,64.992813 
	C366.141571,63.652046 367.004852,61.737667 368.077332,61.147064 
	C371.917511,59.032318 374.848602,60.967617 374.964661,65.605522 
	C375.108765,71.364052 374.999207,77.128929 374.999207,82.637917 
	C378.421356,82.637917 381.152374,82.637917 384.000000,82.637917 
	C384.000000,76.286667 384.000031,70.296646 384.000000,64.306633 
	C384.000000,63.806801 384.072479,63.294300 383.988007,62.809162 
	C383.386230,59.353302 383.201721,55.658470 378.416962,53.888809 
M434.026947,77.007080 
	C436.247650,83.603172 442.555603,85.045395 449.119598,82.380821 
	C449.825562,82.094246 450.668060,81.848419 451.392029,81.955788 
	C453.816772,82.315399 456.216461,82.843826 458.999237,83.379501 
	C458.999237,75.468369 459.179901,68.498062 458.927887,61.543442 
	C458.788513,57.697292 456.980896,54.342918 452.669556,54.081779 
	C447.205017,53.750793 441.702515,54.046932 436.229340,54.072563 
	C436.229340,57.646095 436.229340,59.748260 436.229340,61.914375 
	C448.066254,58.467747 449.873840,58.938099 450.725128,65.291367 
	C446.974548,65.596901 442.942078,65.146767 439.542206,66.405334 
	C435.559784,67.879555 433.613800,71.654778 434.026947,77.007080 
M647.866577,83.041237 
	C650.542786,82.661400 653.218994,82.281555 655.705933,81.928581 
	C655.705933,79.276970 655.705933,77.198921 655.705933,75.036888 
	C645.971313,78.068970 641.052795,76.776939 639.854004,70.816635 
	C645.206604,70.816635 650.511414,70.816635 655.880554,70.816635 
	C655.939087,69.760735 655.859558,68.908043 656.050476,68.120926 
	C657.330261,62.844891 655.782532,57.027275 652.301392,55.105141 
	C646.187439,51.729305 640.258728,52.594456 635.443176,56.197929 
	C630.748840,59.710674 629.443604,69.947151 632.295715,76.779167 
	C634.150024,81.221054 640.429138,84.032005 647.866577,83.041237 
M517.329895,75.995010 
	C515.876404,76.164520 514.411804,76.268906 512.971558,76.515724 
	C508.614563,77.262367 505.843597,75.428940 505.191833,71.021271 
	C510.340149,71.021271 515.450256,71.021271 520.456116,71.021271 
	C522.566589,64.326736 521.663147,58.085712 518.018921,55.578728 
	C511.849335,51.334503 502.440399,52.612175 498.061005,59.288082 
	C494.376984,64.904007 495.939026,78.915123 501.876282,81.553589 
	C508.395142,84.450485 514.531921,83.493210 520.715942,81.680107 
	C520.715942,79.272537 520.715942,77.195229 520.715942,74.701836 
	C519.609375,75.249588 518.899536,75.600952 517.329895,75.995010 
M596.000000,64.663124 
	C597.546021,54.083366 590.256653,52.448139 582.605286,53.123375 
	C573.642029,53.914383 573.541138,54.423290 574.364563,61.720531 
	C586.545410,58.791004 588.921631,59.572643 587.362061,65.235794 
	C583.970520,65.539726 580.701172,65.313324 577.789734,66.227211 
	C574.280029,67.328896 571.640442,69.515587 571.890198,74.114601 
	C572.120789,78.359917 572.510864,82.477844 577.509521,82.863617 
	C583.538574,83.328911 589.643921,82.805244 596.000000,82.705185 
	C596.000000,76.866882 596.000000,71.244202 596.000000,64.663124 
M280.503540,53.000046 
	C269.785828,53.959663 269.431488,54.268700 270.407135,61.805531 
	C282.754272,58.176647 284.755585,60.598598 283.590454,65.392548 
	C280.329742,65.609940 277.086975,65.325737 274.159393,66.154739 
	C270.890625,67.080353 267.872162,68.784912 267.934692,73.231644 
	C267.997559,77.699333 267.924438,82.407433 273.636078,82.871391 
	C279.647430,83.359695 285.743927,82.800133 292.000000,82.695129 
	C292.000000,76.239937 291.810425,70.101219 292.047729,63.979050 
	C292.347778,56.238464 291.080658,54.381573 280.503540,53.000046 
M307.557587,63.959564 
	C303.400909,69.746468 295.216156,73.317863 297.224304,82.661713 
	C305.193420,82.661713 313.052216,82.661713 320.826538,82.661713 
	C320.826538,80.368805 320.826538,78.415573 320.826538,75.900620 
	C316.502380,75.900620 312.319489,75.900620 307.599823,75.900620 
	C311.988098,68.149017 322.054016,64.630707 320.921356,54.248352 
	C312.767365,54.248352 305.035797,54.248352 297.255829,54.248352 
	C297.255829,56.567680 297.255829,58.629593 297.255829,61.128326 
	C301.523224,61.128326 305.552399,61.128326 309.581604,61.128326 
	C309.790192,61.497128 309.998810,61.865932 310.207428,62.234734 
	C309.492706,62.627041 308.777985,63.019352 307.557587,63.959564 
z"/>
<path fill="#A166FF" opacity="1.000000" stroke="none" 
	d="
M133.531342,0.999999 
	C134.666946,3.123183 135.909637,5.244744 135.915634,7.369793 
	C136.030792,48.195301 136.022598,89.021271 135.928619,129.846878 
	C135.924454,131.657608 134.865005,133.465912 134.148560,135.637665 
	C89.715073,136.000000 45.430138,136.000000 1.072603,136.000000 
	C1.072603,91.097633 1.072603,46.195114 1.072603,1.000000 
	C45.020462,1.000000 89.041573,1.000000 133.531342,0.999999 
M105.906342,94.591431 
	C106.710144,92.066666 106.758095,88.190399 108.445976,87.246399 
	C116.624649,82.672295 118.050621,75.711952 117.046867,67.409538 
	C116.848450,65.768379 116.837067,64.058708 117.053810,62.422264 
	C117.600876,58.291843 116.115768,55.151577 112.496490,53.278797 
	C106.850647,50.357388 104.997391,45.789093 105.889259,39.732464 
	C106.409073,36.202450 104.883812,33.778271 101.815926,31.912436 
	C96.417053,28.628942 91.128883,25.152405 85.913742,21.582310 
	C83.165955,19.701275 80.519684,19.520578 78.208771,21.789686 
	C71.593437,28.285341 65.230583,27.946537 58.680042,21.710411 
	C56.290268,19.435341 53.672371,19.796408 50.970634,21.659225 
	C46.590210,24.679478 42.201824,27.748381 37.535122,30.276875 
	C32.530407,32.988510 30.412357,36.608784 30.925117,42.386414 
	C31.141615,44.825851 30.263006,48.792034 28.581621,49.728058 
	C20.389334,54.288692 18.939280,61.239887 19.952927,69.553680 
	C20.152973,71.194435 20.159307,72.903488 19.946857,74.541069 
	C19.413107,78.655296 20.842531,81.808784 24.473209,83.701843 
	C30.076143,86.623245 32.077133,91.146927 31.099850,97.228981 
	C30.486122,101.048462 32.203381,103.397133 35.569759,105.202560 
	C41.136318,108.187965 46.611397,111.382080 51.902958,114.829140 
	C55.632011,117.258347 59.033260,117.394379 62.398594,114.618843 
	C66.425926,111.297325 70.268188,110.979813 74.394020,114.475098 
	C77.878273,117.426842 81.431107,117.316406 85.313072,114.708755 
	C90.000565,111.560028 94.851501,108.565422 99.922478,106.102882 
	C104.625954,103.818810 106.839569,100.677605 105.906342,94.591431 
z"/>
<path fill="#232F3E" opacity="1.000000" stroke="none" 
	d="
M680.000000,61.555832 
	C676.782532,62.265541 673.565125,62.531090 670.007812,62.824684 
	C670.007812,69.695908 670.007812,76.116653 670.007812,82.764328 
	C667.250671,82.764328 664.856995,82.764328 662.229614,82.764328 
	C662.229614,73.252151 662.229614,63.861889 662.229614,53.562862 
	C665.169495,54.207775 667.802429,54.785347 671.335754,55.560436 
	C673.085754,55.211407 676.122864,54.605701 679.579956,53.999996 
	C680.000000,56.370556 680.000000,58.741116 680.000000,61.555832 
z"/>
<path fill="#232F3E" opacity="1.000000" stroke="none" 
	d="
M560.116821,82.994919 
	C559.097900,81.694427 558.110596,80.410057 558.074768,79.099670 
	C557.906616,72.948341 558.000000,66.789848 558.000000,59.114239 
	C555.571960,64.000336 554.012207,67.809143 551.824707,71.214684 
	C550.937683,72.595596 548.647766,73.870163 547.059570,73.797989 
	C545.212280,73.714043 542.753906,72.552521 541.762024,71.060219 
	C539.379517,67.475700 537.699219,63.424477 535.183167,58.474880 
	C535.183167,67.203827 535.183167,74.833336 535.183167,82.726006 
	C532.319031,82.726006 529.920959,82.726006 527.256348,82.726006 
	C527.256348,69.967285 527.256348,57.231030 527.256348,44.536274 
	C527.613403,44.346306 527.871094,44.131531 528.162476,44.065548 
	C535.195618,42.472828 538.978394,45.742760 541.108887,52.226051 
	C542.408203,56.179996 544.479736,59.880169 546.637573,64.651970 
	C549.333679,59.162270 552.208801,54.520412 553.915527,49.482716 
	C555.533569,44.706806 558.169922,43.103394 562.845581,43.979336 
	C563.645386,44.129169 564.497437,44.000515 565.662964,44.000515 
	C565.662964,56.849266 565.662964,69.585907 565.662964,82.999062 
	C564.081177,82.999062 562.333984,82.999062 560.116821,82.994919 
z"/>
<path fill="#232F3E" opacity="1.000000" stroke="none" 
	d="
M220.000000,76.902603 
	C220.000000,69.110825 220.000000,61.806252 220.000000,53.398937 
	C223.016632,54.177013 225.522751,55.282719 228.051727,55.337761 
	C230.278244,55.386215 232.500061,54.056293 234.780762,53.717060 
	C236.593994,53.447353 238.772171,53.179989 240.297867,53.921158 
	C243.844193,55.643921 247.050339,55.143101 250.542053,53.952560 
	C258.425201,51.264721 262.988586,54.570644 262.998413,62.765007 
	C263.006348,69.382751 263.000000,76.000511 263.000000,82.804382 
	C259.948486,82.804382 257.330719,82.804382 254.000000,82.804382 
	C254.000000,78.011017 254.000153,73.086555 253.999969,68.162094 
	C253.999664,60.116535 253.999573,60.116535 246.006226,61.271183 
	C246.006226,68.317238 246.006226,75.423767 246.006226,82.761101 
	C242.914444,82.761101 240.184174,82.761101 237.000000,82.761101 
	C237.000000,77.683281 237.000427,72.731392 236.999908,67.779495 
	C236.999100,59.824139 236.998825,59.824139 228.970123,61.626198 
	C228.970123,68.523987 228.970123,75.482872 228.970123,82.717819 
	C225.999542,82.717819 223.268082,82.717819 220.000000,82.717819 
	C220.000000,80.941109 220.000000,79.165459 220.000000,76.902603 
z"/>
<path fill="#232F3E" opacity="1.000000" stroke="none" 
	d="
M481.373138,54.720482 
	C484.606110,54.506050 487.472137,54.072857 490.972595,53.543770 
	C490.972595,64.071800 491.393768,74.017258 490.817810,83.904625 
	C490.460968,90.030930 484.928711,93.971931 478.668060,93.998436 
	C476.506226,94.007584 474.333008,94.140923 472.184601,93.970627 
	C466.272278,93.501961 465.429138,92.260445 466.561005,86.103386 
	C479.221802,88.525963 480.765686,88.057724 481.840515,81.247261 
	C475.857819,82.235153 469.471344,83.784409 466.034882,76.838066 
	C462.658325,70.012772 462.414337,62.719845 467.287506,56.640869 
	C470.688507,52.398354 475.920715,51.999035 481.373138,54.720482 
M482.000000,69.340462 
	C482.000000,67.844307 482.306000,66.263222 481.920410,64.874100 
	C481.466675,63.239380 480.694366,60.809238 479.548706,60.474422 
	C478.120422,60.057011 475.113281,60.992798 474.654633,62.110382 
	C473.538727,64.829544 472.967987,68.030449 473.183899,70.963234 
	C473.386780,73.718803 475.316956,75.351860 478.708618,75.099495 
	C482.307465,74.831726 482.032654,72.627274 482.000000,69.340462 
z"/>
<path fill="#232F3E" opacity="1.000000" stroke="none" 
	d="
M200.812073,44.000202 
	C202.176514,44.575375 203.636658,44.951656 203.931152,45.755180 
	C208.401459,57.951588 212.719055,70.203979 217.269882,82.998611 
	C214.347153,82.998611 211.872208,83.236458 209.479965,82.894989 
	C208.339706,82.732231 206.501938,81.533653 206.437149,80.692101 
	C205.900269,73.718285 201.351974,73.394882 196.060486,73.981621 
	C194.923691,74.107674 193.761002,74.000015 192.673309,74.000015 
	C189.374634,85.091339 190.867874,83.162933 180.596085,82.575935 
	C181.421448,79.880043 182.148651,77.314651 182.991241,74.787735 
	C185.684677,66.710175 188.347580,58.621117 191.170441,50.588570 
	C192.660034,46.349934 194.563736,42.368580 200.812073,44.000202 
M201.005661,63.462170 
	C200.245331,60.739391 199.484985,58.016609 198.476257,54.404388 
	C197.073730,58.994320 195.932999,62.727528 194.702255,66.755241 
	C197.419540,66.755241 199.631592,66.755241 202.269424,66.755241 
	C201.743118,65.690201 201.399826,64.995506 201.005661,63.462170 
z"/>
<path fill="#232F3E" opacity="1.000000" stroke="none" 
	d="
M415.343689,67.731781 
	C409.382050,65.530685 403.954010,63.357693 402.992462,56.322208 
	C401.651764,46.512634 412.290558,41.934673 420.505859,43.239342 
	C421.127380,43.338051 421.724518,43.984417 422.296967,43.937424 
	C428.274292,43.446754 428.630707,46.977352 427.688110,51.801838 
	C424.079041,51.537510 420.395203,50.950996 416.753204,51.146145 
	C415.141418,51.232510 413.614471,52.901566 412.049011,53.852139 
	C413.089294,55.109867 413.904327,56.741737 415.223602,57.536133 
	C417.119476,58.677711 419.364532,59.262039 421.492340,59.991482 
	C427.752472,62.137569 431.281097,66.521835 430.997742,71.884941 
	C430.656860,78.337540 427.158539,82.165253 419.700958,82.889870 
	C414.250031,83.419525 408.695557,82.883270 403.118042,82.821381 
	C403.118042,79.136795 403.118042,76.836060 403.118042,74.439163 
	C406.991516,74.970963 410.728607,75.590034 414.490021,75.966087 
	C417.370056,76.254028 420.493896,76.229561 420.927856,72.394798 
	C421.347260,68.688576 418.150726,68.591820 415.343689,67.731781 
z"/>
<path fill="#232F3E" opacity="1.000000" stroke="none" 
	d="
M628.781555,57.594620 
	C625.616577,61.153358 622.637146,64.393517 619.685059,67.604004 
	C623.811890,72.617393 627.603760,77.223869 631.602356,82.081390 
	C622.157837,84.367973 620.649536,83.571823 612.023071,71.970497 
	C612.023071,75.893295 612.023071,79.257477 612.023071,82.797150 
	C608.976440,82.797150 606.358887,82.797150 603.368591,82.797150 
	C603.368591,69.411034 603.368591,55.906399 603.368591,42.199326 
	C606.037415,42.199326 608.653625,42.199326 611.671387,42.199326 
	C611.671387,49.140160 611.671387,56.213779 611.671387,64.762093 
	C616.750977,57.530140 621.066284,51.053040 630.378235,54.559395 
	C630.022217,55.244846 629.494690,56.260441 628.781555,57.594620 
z"/>
<path fill="#232F3E" opacity="1.000000" stroke="none" 
	d="
M324.010986,63.564499 
	C326.949646,52.153873 339.607178,50.755558 346.782776,55.945717 
	C351.508606,59.363949 353.517853,68.756767 350.789032,75.564987 
	C348.575500,81.087624 342.445770,84.265968 336.263916,83.096466 
	C326.248169,81.201645 323.999939,78.525726 324.000092,68.499107 
	C324.000092,66.999680 324.001190,65.500244 324.010986,63.564499 
M337.450012,75.999168 
	C341.345520,76.077995 342.953186,73.073326 342.773987,70.294815 
	C342.567596,67.094521 340.831299,63.932735 339.382721,60.936352 
	C339.160522,60.476730 336.672852,60.563602 335.645477,61.136940 
	C331.204529,63.615356 331.893707,73.004761 337.450012,75.999168 
z"/>
<path fill="#232F3E" opacity="1.000000" stroke="none" 
	d="
M378.820496,53.960258 
	C383.201721,55.658470 383.386230,59.353302 383.988007,62.809162 
	C384.072479,63.294300 384.000000,63.806801 384.000000,64.306633 
	C384.000031,70.296646 384.000000,76.286667 384.000000,82.637917 
	C381.152374,82.637917 378.421356,82.637917 374.999207,82.637917 
	C374.999207,77.128929 375.108765,71.364052 374.964661,65.605522 
	C374.848602,60.967617 371.917511,59.032318 368.077332,61.147064 
	C367.004852,61.737667 366.141571,63.652046 366.091980,64.992813 
	C365.877472,70.792854 366.000153,76.605377 366.000153,82.705582 
	C363.022491,82.705582 360.289856,82.705582 357.000000,82.705582 
	C357.000000,77.971992 357.000000,73.196320 357.000000,68.420654 
	C357.000000,63.782326 357.000000,59.143997 357.000000,53.180363 
	C360.250244,54.195110 362.864227,55.186413 365.566925,55.758705 
	C366.496216,55.955482 367.622559,54.902363 368.701263,54.772640 
	C371.928589,54.384514 375.176849,54.170689 378.820496,53.960258 
z"/>
<path fill="#232F3E" opacity="1.000000" stroke="none" 
	d="
M434.014832,76.600403 
	C433.613800,71.654778 435.559784,67.879555 439.542206,66.405334 
	C442.942078,65.146767 446.974548,65.596901 450.725128,65.291367 
	C449.873840,58.938099 448.066254,58.467747 436.229340,61.914375 
	C436.229340,59.748260 436.229340,57.646095 436.229340,54.072563 
	C441.702515,54.046932 447.205017,53.750793 452.669556,54.081779 
	C456.980896,54.342918 458.788513,57.697292 458.927887,61.543442 
	C459.179901,68.498062 458.999237,75.468369 458.999237,83.379501 
	C456.216461,82.843826 453.816772,82.315399 451.392029,81.955788 
	C450.668060,81.848419 449.825562,82.094246 449.119598,82.380821 
	C442.555603,85.045395 436.247650,83.603172 434.014832,76.600403 
M444.022583,76.506081 
	C449.544098,77.194679 451.072388,75.927208 450.413818,71.205536 
	C442.929688,70.766640 442.929688,70.766640 444.022583,76.506081 
z"/>
<path fill="#232F3E" opacity="1.000000" stroke="none" 
	d="
M647.476562,83.220886 
	C640.429138,84.032005 634.150024,81.221054 632.295715,76.779167 
	C629.443604,69.947151 630.748840,59.710674 635.443176,56.197929 
	C640.258728,52.594456 646.187439,51.729305 652.301392,55.105141 
	C655.782532,57.027275 657.330261,62.844891 656.050476,68.120926 
	C655.859558,68.908043 655.939087,69.760735 655.880554,70.816635 
	C650.511414,70.816635 645.206604,70.816635 639.854004,70.816635 
	C641.052795,76.776939 645.971313,78.068970 655.705933,75.036888 
	C655.705933,77.198921 655.705933,79.276970 655.705933,81.928581 
	C653.218994,82.281555 650.542786,82.661400 647.476562,83.220886 
M641.994751,64.999931 
	C644.258911,64.999931 646.523132,64.999931 648.787292,64.999931 
	C649.029419,64.522552 649.271545,64.045174 649.513672,63.567791 
	C647.794067,62.378944 646.018982,60.188457 644.370117,60.279705 
	C642.682251,60.373116 641.118042,62.701878 639.499695,64.052170 
	C640.057190,64.367836 640.614685,64.683502 641.994751,64.999931 
z"/>
<path fill="#232F3E" opacity="1.000000" stroke="none" 
	d="
M517.759766,75.973663 
	C518.899536,75.600952 519.609375,75.249588 520.715942,74.701836 
	C520.715942,77.195229 520.715942,79.272537 520.715942,81.680107 
	C514.531921,83.493210 508.395142,84.450485 501.876282,81.553589 
	C495.939026,78.915123 494.376984,64.904007 498.061005,59.288082 
	C502.440399,52.612175 511.849335,51.334503 518.018921,55.578728 
	C521.663147,58.085712 522.566589,64.326736 520.456116,71.021271 
	C515.450256,71.021271 510.340149,71.021271 505.191833,71.021271 
	C505.843597,75.428940 508.614563,77.262367 512.971558,76.515724 
	C514.411804,76.268906 515.876404,76.164520 517.759766,75.973663 
M506.008606,64.965981 
	C508.615875,64.965981 511.223145,64.965981 513.830383,64.965981 
	C514.096619,64.421318 514.362854,63.876648 514.629089,63.331982 
	C512.898254,62.221672 511.273956,60.454559 509.412048,60.152550 
	C506.503876,59.680836 504.749115,61.398529 506.008606,64.965981 
z"/>
<path fill="#232F3E" opacity="1.000000" stroke="none" 
	d="
M596.000000,65.142319 
	C596.000000,71.244202 596.000000,76.866882 596.000000,82.705185 
	C589.643921,82.805244 583.538574,83.328911 577.509521,82.863617 
	C572.510864,82.477844 572.120789,78.359917 571.890198,74.114601 
	C571.640442,69.515587 574.280029,67.328896 577.789734,66.227211 
	C580.701172,65.313324 583.970520,65.539726 587.362061,65.235794 
	C588.921631,59.572643 586.545410,58.791004 574.364563,61.720531 
	C573.541138,54.423290 573.642029,53.914383 582.605286,53.123375 
	C590.256653,52.448139 597.546021,54.083366 596.000000,65.142319 
M587.223145,71.060150 
	C586.227844,71.040634 585.079712,70.694016 584.270264,71.072205 
	C582.758362,71.778557 581.303528,72.770699 580.151978,73.960426 
	C579.889954,74.231117 580.975586,76.621727 581.415405,76.613823 
	C583.232849,76.581154 585.285645,76.394348 586.758301,75.474098 
	C587.622009,74.934387 587.555908,72.906883 587.223145,71.060150 
z"/>
<path fill="#232F3E" opacity="1.000000" stroke="none" 
	d="
M280.944519,53.000034 
	C291.080658,54.381573 292.347778,56.238464 292.047729,63.979050 
	C291.810425,70.101219 292.000000,76.239937 292.000000,82.695129 
	C285.743927,82.800133 279.647430,83.359695 273.636078,82.871391 
	C267.924438,82.407433 267.997559,77.699333 267.934692,73.231644 
	C267.872162,68.784912 270.890625,67.080353 274.159393,66.154739 
	C277.086975,65.325737 280.329742,65.609940 283.590454,65.392548 
	C284.755585,60.598598 282.754272,58.176647 270.407135,61.805531 
	C269.431488,54.268700 269.785828,53.959663 280.944519,53.000034 
M277.048126,72.432869 
	C276.970184,73.721085 276.892242,75.009300 276.814301,76.297508 
	C278.532074,76.376335 280.708710,77.130180 281.846985,76.356468 
	C283.155518,75.467049 283.545105,73.225716 284.922607,70.336777 
	C281.375183,71.093872 279.520599,71.489685 277.048126,72.432869 
z"/>
<path fill="#232F3E" opacity="1.000000" stroke="none" 
	d="
M307.810425,63.685612 
	C308.777985,63.019352 309.492706,62.627041 310.207428,62.234734 
	C309.998810,61.865932 309.790192,61.497128 309.581604,61.128326 
	C305.552399,61.128326 301.523224,61.128326 297.255829,61.128326 
	C297.255829,58.629593 297.255829,56.567680 297.255829,54.248352 
	C305.035797,54.248352 312.767365,54.248352 320.921356,54.248352 
	C322.054016,64.630707 311.988098,68.149017 307.599823,75.900620 
	C312.319489,75.900620 316.502380,75.900620 320.826538,75.900620 
	C320.826538,78.415573 320.826538,80.368805 320.826538,82.661713 
	C313.052216,82.661713 305.193420,82.661713 297.224304,82.661713 
	C295.216156,73.317863 303.400909,69.746468 307.810425,63.685612 
z"/>
<path fill="#FBF8FF" opacity="1.000000" stroke="none" 
	d="
M105.906273,95.037262 
	C106.839569,100.677605 104.625954,103.818810 99.922478,106.102882 
	C94.851501,108.565422 90.000565,111.560028 85.313072,114.708755 
	C81.431107,117.316406 77.878273,117.426842 74.394020,114.475098 
	C70.268188,110.979813 66.425926,111.297325 62.398594,114.618843 
	C59.033260,117.394379 55.632011,117.258347 51.902958,114.829140 
	C46.611397,111.382080 41.136318,108.187965 35.569759,105.202560 
	C32.203381,103.397133 30.486122,101.048462 31.099850,97.228981 
	C32.077133,91.146927 30.076143,86.623245 24.473209,83.701843 
	C20.842531,81.808784 19.413107,78.655296 19.946857,74.541069 
	C20.159307,72.903488 20.152973,71.194435 19.952927,69.553680 
	C18.939280,61.239887 20.389334,54.288692 28.581621,49.728058 
	C30.263006,48.792034 31.141615,44.825851 30.925117,42.386414 
	C30.412357,36.608784 32.530407,32.988510 37.535122,30.276875 
	C42.201824,27.748381 46.590210,24.679478 50.970634,21.659225 
	C53.672371,19.796408 56.290268,19.435341 58.680042,21.710411 
	C65.230583,27.946537 71.593437,28.285341 78.208771,21.789686 
	C80.519684,19.520578 83.165955,19.701275 85.913742,21.582310 
	C91.128883,25.152405 96.417053,28.628942 101.815926,31.912436 
	C104.883812,33.778271 106.409073,36.202450 105.889259,39.732464 
	C104.997391,45.789093 106.850647,50.357388 112.496490,53.278797 
	C116.115768,55.151577 117.600876,58.291843 117.053810,62.422264 
	C116.837067,64.058708 116.848450,65.768379 117.046867,67.409538 
	C118.050621,75.711952 116.624649,82.672295 108.445976,87.246399 
	C106.758095,88.190399 106.710144,92.066666 105.906273,95.037262 
M81.694267,96.712296 
	C78.624695,95.984016 75.555122,95.255737 72.123177,94.441483 
	C71.926254,96.589882 71.719643,97.561806 71.770424,98.520096 
	C71.953789,101.980522 70.880257,105.380333 75.174248,108.014458 
	C79.577942,110.715866 82.469574,109.256172 85.943550,107.046349 
	C89.591751,104.725685 93.530334,102.839821 97.052551,100.353806 
	C98.403625,99.400200 99.675995,97.341805 99.739761,95.737358 
	C99.962204,90.140404 98.711334,84.212639 105.872932,80.758499 
	C102.868988,79.218155 100.427490,78.773224 98.408249,77.600945 
	C96.632805,76.570183 94.613541,74.945633 94.065559,73.163933 
	C93.688225,71.937096 95.429688,68.846672 96.597130,68.633720 
	C98.462578,68.293449 100.887947,69.263908 102.623695,70.382820 
	C105.242134,72.070732 107.470551,74.363693 110.988472,77.355011 
	C110.988472,72.595932 110.704773,69.611916 111.052444,66.703377 
	C111.628540,61.883820 109.945045,58.723881 105.919945,55.857189 
	C102.833054,53.658684 100.760521,50.035912 97.161613,45.772930 
	C94.636757,45.970604 90.110596,45.837341 85.844521,46.826164 
	C82.878693,47.513611 80.352577,47.844063 78.934998,45.106464 
	C78.194527,43.676472 78.413979,40.169613 79.162598,39.849049 
	C81.280167,38.942295 83.902962,38.959667 86.311531,39.044479 
	C90.568687,39.194374 94.814606,39.663647 99.065224,39.999241 
	C99.234215,39.344555 99.403214,38.689869 99.572205,38.035187 
	C96.192467,35.777370 92.866844,33.433048 89.422485,31.278543 
	C80.390533,25.628899 83.591454,25.728260 74.922478,31.491356 
	C73.345215,32.539917 72.148819,35.025864 71.884537,36.996826 
	C71.401733,40.597496 71.746727,44.309196 71.746872,47.974586 
	C71.747200,56.270981 72.582695,57.008701 80.981384,59.178593 
	C82.772331,59.641304 84.598221,61.887764 85.330246,63.738705 
	C85.708977,64.696365 83.923447,67.603287 82.764404,67.829491 
	C80.838783,68.205330 78.498833,67.422127 76.587929,66.561768 
	C75.367943,66.012482 74.807091,63.819977 73.607002,63.434628 
	C65.290619,60.764259 64.373276,54.516598 65.218674,47.189945 
	C65.446335,45.216908 64.966698,43.145123 65.306580,41.205368 
	C66.349426,35.253670 64.103149,31.177660 58.560184,29.094225 
	C56.653805,28.377674 54.328899,27.903170 52.405884,28.311167 
	C49.674603,28.890648 48.680706,31.150396 48.958488,34.068031 
	C49.210007,36.709820 49.081192,39.396820 48.990582,42.059479 
	C48.910198,44.421642 49.795670,47.704277 46.077251,47.846054 
	C42.184784,47.994473 43.102173,44.654282 43.009151,42.308857 
	C42.915474,39.946869 42.988537,37.578262 42.988537,34.806206 
	C37.555012,37.650955 34.815559,43.036190 37.529133,46.913090 
	C39.605419,49.879498 43.967716,52.976860 47.252686,52.912796 
	C51.060020,52.838543 55.434391,49.951939 54.170063,44.065395 
	C53.761620,42.163765 53.881310,40.018631 54.324493,38.116550 
	C54.562275,37.096046 55.934425,35.767014 56.915028,35.657818 
	C57.846210,35.554123 59.775112,36.811478 59.816826,37.551945 
	C60.087719,42.360687 60.613075,47.324280 59.668556,51.954308 
	C59.253963,53.986652 55.795925,55.869564 53.334759,56.906132 
	C49.312737,58.600086 48.973595,61.421856 48.872601,65.204971 
	C48.765064,69.233093 51.616108,69.902328 54.058907,70.835472 
	C58.444942,72.510941 60.458225,75.278587 59.784130,79.996857 
	C59.627728,81.091599 59.937336,82.252922 60.036381,83.429489 
	C64.046585,82.861496 65.164101,80.753487 65.424164,76.923981 
	C65.732109,72.389626 62.882351,70.948616 60.081741,68.865204 
	C59.153641,68.174774 58.297226,66.167061 58.664127,65.282776 
	C59.072334,64.298927 60.995098,63.240223 62.116737,63.376987 
	C67.058258,63.979511 71.707733,69.816063 71.740685,75.022774 
	C71.769684,79.605392 71.746750,84.188332 71.746750,89.447090 
	C75.121956,88.889923 77.722214,88.948837 79.875198,87.996536 
	C83.561302,86.366135 86.452530,87.108932 87.571266,90.680519 
	C88.772324,94.514885 86.263809,96.499588 81.694267,96.712296 
M61.149185,90.445152 
	C58.100365,92.150940 55.135643,94.037407 51.977112,95.507484 
	C49.266407,96.769119 45.818970,100.870155 43.522556,96.484711 
	C41.465004,92.555420 46.665550,91.835617 49.012882,90.245544 
	C52.536751,87.858475 54.839153,81.514488 52.973923,77.936890 
	C51.274525,74.677368 45.748844,74.297577 41.328381,76.813057 
	C39.029579,78.121193 36.253571,82.008713 33.815090,77.933037 
	C31.477945,74.026726 36.146873,73.115005 38.294353,71.611893 
	C45.104488,66.845146 45.221073,60.797863 38.331440,56.128033 
	C36.303749,54.753651 34.682880,53.124397 31.800905,55.313812 
	C26.147345,59.608788 25.724106,59.831440 26.734888,64.641624 
	C28.529844,63.636272 30.161026,62.265018 32.015316,61.816807 
	C33.760418,61.395000 35.740822,61.946682 37.617706,62.070072 
	C36.695721,63.744904 36.115410,65.804558 34.768318,67.000587 
	C32.939934,68.623932 30.546089,69.625473 28.356133,70.823036 
	C24.941133,72.690506 25.169138,75.309326 27.224302,77.826981 
	C32.324810,84.075287 35.940342,84.722679 43.153187,81.078995 
	C43.301796,81.003929 43.464123,80.854729 43.601391,80.873863 
	C45.334167,81.115509 47.063511,81.381775 48.793732,81.641762 
	C48.106472,83.130859 47.771645,85.014259 46.649715,86.017036 
	C44.948219,87.537842 42.692387,88.434219 40.685036,89.617889 
	C35.595524,92.619019 35.637634,97.610451 40.390133,100.880974 
	C44.080273,103.420425 47.310715,104.162468 51.034374,101.138565 
	C52.557522,99.901657 54.418468,98.794395 56.292763,98.375580 
	C57.570011,98.090172 59.136959,99.101204 60.574371,99.532555 
	C60.100189,100.821121 59.989239,102.541901 59.076664,103.308823 
	C57.140903,104.935638 54.787506,106.065498 52.452656,107.492439 
	C57.523682,110.944504 64.816574,108.637383 65.170357,103.662636 
	C65.507660,98.919724 65.243057,94.134003 65.243057,88.766670 
	C63.605556,89.397346 62.721958,89.737663 61.149185,90.445152 
z"/>
<path fill="#FFFFFF" opacity="1.000000" stroke="none" 
	d="
M482.000000,69.799957 
	C482.032654,72.627274 482.307465,74.831726 478.708618,75.099495 
	C475.316956,75.351860 473.386780,73.718803 473.183899,70.963234 
	C472.967987,68.030449 473.538727,64.829544 474.654633,62.110382 
	C475.113281,60.992798 478.120422,60.057011 479.548706,60.474422 
	C480.694366,60.809238 481.466675,63.239380 481.920410,64.874100 
	C482.306000,66.263222 482.000000,67.844307 482.000000,69.799957 
z"/>
<path fill="#FFFFFF" opacity="1.000000" stroke="none" 
	d="
M201.031097,63.881493 
	C201.399826,64.995506 201.743118,65.690201 202.269424,66.755241 
	C199.631592,66.755241 197.419540,66.755241 194.702255,66.755241 
	C195.932999,62.727528 197.073730,58.994320 198.476257,54.404388 
	C199.484985,58.016609 200.245331,60.739391 201.031097,63.881493 
z"/>
<path fill="#FFFFFF" opacity="1.000000" stroke="none" 
	d="
M337.035950,75.997055 
	C331.893707,73.004761 331.204529,63.615356 335.645477,61.136940 
	C336.672852,60.563602 339.160522,60.476730 339.382721,60.936352 
	C340.831299,63.932735 342.567596,67.094521 342.773987,70.294815 
	C342.953186,73.073326 341.345520,76.077995 337.035950,75.997055 
z"/>
<path fill="#FFFFFF" opacity="1.000000" stroke="none" 
	d="
M443.725952,76.214920 
	C442.929688,70.766640 442.929688,70.766640 450.413818,71.205536 
	C451.072388,75.927208 449.544098,77.194679 443.725952,76.214920 
z"/>
<path fill="#FFFFFF" opacity="1.000000" stroke="none" 
	d="
M641.583435,64.999550 
	C640.614685,64.683502 640.057190,64.367836 639.499695,64.052185 
	C641.118042,62.701878 642.682251,60.373116 644.370117,60.279705 
	C646.018982,60.188457 647.794067,62.378944 649.513672,63.567791 
	C649.271545,64.045174 649.029419,64.522552 648.787292,64.999931 
	C646.523132,64.999931 644.258911,64.999931 641.583435,64.999550 
z"/>
<path fill="#FFFFFF" opacity="1.000000" stroke="none" 
	d="
M505.607178,64.806641 
	C504.749115,61.398529 506.503876,59.680836 509.412048,60.152550 
	C511.273956,60.454559 512.898254,62.221672 514.629089,63.331982 
	C514.362854,63.876648 514.096619,64.421318 513.830383,64.965981 
	C511.223145,64.965981 508.615875,64.965981 505.607178,64.806641 
z"/>
<path fill="#FFFFFF" opacity="1.000000" stroke="none" 
	d="
M587.565613,71.304382 
	C587.555908,72.906883 587.622009,74.934387 586.758301,75.474098 
	C585.285645,76.394348 583.232849,76.581154 581.415405,76.613823 
	C580.975586,76.621727 579.889954,74.231117 580.151978,73.960426 
	C581.303528,72.770699 582.758362,71.778557 584.270264,71.072205 
	C585.079712,70.694016 586.227844,71.040634 587.565613,71.304382 
z"/>
<path fill="#FFFFFF" opacity="1.000000" stroke="none" 
	d="
M277.357056,72.159180 
	C279.520599,71.489685 281.375183,71.093872 284.922607,70.336777 
	C283.545105,73.225716 283.155518,75.467049 281.846985,76.356468 
	C280.708710,77.130180 278.532074,76.376335 276.814301,76.297516 
	C276.892242,75.009300 276.970184,73.721085 277.357056,72.159180 
z"/>
<path fill="#A369FF" opacity="1.000000" stroke="none" 
	d="
M82.085342,96.781113 
	C86.263809,96.499588 88.772324,94.514885 87.571266,90.680519 
	C86.452530,87.108932 83.561302,86.366135 79.875198,87.996536 
	C77.722214,88.948837 75.121956,88.889923 71.746750,89.447090 
	C71.746750,84.188332 71.769684,79.605392 71.740685,75.022774 
	C71.707733,69.816063 67.058258,63.979511 62.116737,63.376987 
	C60.995098,63.240223 59.072334,64.298927 58.664127,65.282776 
	C58.297226,66.167061 59.153641,68.174774 60.081741,68.865204 
	C62.882351,70.948616 65.732109,72.389626 65.424164,76.923981 
	C65.164101,80.753487 64.046585,82.861496 60.036381,83.429489 
	C59.937336,82.252922 59.627728,81.091599 59.784130,79.996857 
	C60.458225,75.278587 58.444942,72.510941 54.058907,70.835472 
	C51.616108,69.902328 48.765064,69.233093 48.872601,65.204971 
	C48.973595,61.421856 49.312737,58.600086 53.334759,56.906132 
	C55.795925,55.869564 59.253963,53.986652 59.668556,51.954308 
	C60.613075,47.324280 60.087719,42.360687 59.816826,37.551945 
	C59.775112,36.811478 57.846210,35.554123 56.915028,35.657818 
	C55.934425,35.767014 54.562275,37.096046 54.324493,38.116550 
	C53.881310,40.018631 53.761620,42.163765 54.170063,44.065395 
	C55.434391,49.951939 51.060020,52.838543 47.252686,52.912796 
	C43.967716,52.976860 39.605419,49.879498 37.529133,46.913090 
	C34.815559,43.036190 37.555012,37.650955 42.988537,34.806206 
	C42.988537,37.578262 42.915474,39.946869 43.009151,42.308857 
	C43.102173,44.654282 42.184784,47.994473 46.077251,47.846054 
	C49.795670,47.704277 48.910198,44.421642 48.990582,42.059479 
	C49.081192,39.396820 49.210007,36.709820 48.958488,34.068031 
	C48.680706,31.150396 49.674603,28.890648 52.405884,28.311167 
	C54.328899,27.903170 56.653805,28.377674 58.560184,29.094225 
	C64.103149,31.177660 66.349426,35.253670 65.306580,41.205368 
	C64.966698,43.145123 65.446335,45.216908 65.218674,47.189945 
	C64.373276,54.516598 65.290619,60.764259 73.607002,63.434628 
	C74.807091,63.819977 75.367943,66.012482 76.587929,66.561768 
	C78.498833,67.422127 80.838783,68.205330 82.764404,67.829491 
	C83.923447,67.603287 85.708977,64.696365 85.330246,63.738705 
	C84.598221,61.887764 82.772331,59.641304 80.981384,59.178593 
	C72.582695,57.008701 71.747200,56.270981 71.746872,47.974586 
	C71.746727,44.309196 71.401733,40.597496 71.884537,36.996826 
	C72.148819,35.025864 73.345215,32.539917 74.922478,31.491356 
	C83.591454,25.728260 80.390533,25.628899 89.422485,31.278543 
	C92.866844,33.433048 96.192467,35.777370 99.572205,38.035187 
	C99.403214,38.689869 99.234215,39.344555 99.065224,39.999241 
	C94.814606,39.663647 90.568687,39.194374 86.311531,39.044479 
	C83.902962,38.959667 81.280167,38.942295 79.162598,39.849049 
	C78.413979,40.169613 78.194527,43.676472 78.934998,45.106464 
	C80.352577,47.844063 82.878693,47.513611 85.844521,46.826164 
	C90.110596,45.837341 94.636757,45.970604 97.161613,45.772930 
	C100.760521,50.035912 102.833054,53.658684 105.919945,55.857189 
	C109.945045,58.723881 111.628540,61.883820 111.052444,66.703377 
	C110.704773,69.611916 110.988472,72.595932 110.988472,77.355011 
	C107.470551,74.363693 105.242134,72.070732 102.623695,70.382820 
	C100.887947,69.263908 98.462578,68.293449 96.597130,68.633720 
	C95.429688,68.846672 93.688225,71.937096 94.065559,73.163933 
	C94.613541,74.945633 96.632805,76.570183 98.408249,77.600945 
	C100.427490,78.773224 102.868988,79.218155 105.872932,80.758499 
	C98.711334,84.212639 99.962204,90.140404 99.739761,95.737358 
	C99.675995,97.341805 98.403625,99.400200 97.052551,100.353806 
	C93.530334,102.839821 89.591751,104.725685 85.943550,107.046349 
	C82.469574,109.256172 79.577942,110.715866 75.174248,108.014458 
	C70.880257,105.380333 71.953789,101.980522 71.770424,98.520096 
	C71.719643,97.561806 71.926254,96.589882 72.123177,94.441483 
	C75.555122,95.255737 78.624695,95.984016 82.085342,96.781113 
z"/>
<path fill="#A46BFF" opacity="1.000000" stroke="none" 
	d="
M61.493774,90.261566 
	C62.721958,89.737663 63.605556,89.397346 65.243057,88.766670 
	C65.243057,94.134003 65.507660,98.919724 65.170357,103.662636 
	C64.816574,108.637383 57.523682,110.944504 52.452656,107.492439 
	C54.787506,106.065498 57.140903,104.935638 59.076664,103.308823 
	C59.989239,102.541901 60.100189,100.821121 60.574371,99.532555 
	C59.136959,99.101204 57.570011,98.090172 56.292763,98.375580 
	C54.418468,98.794395 52.557522,99.901657 51.034374,101.138565 
	C47.310715,104.162468 44.080273,103.420425 40.390133,100.880974 
	C35.637634,97.610451 35.595524,92.619019 40.685036,89.617889 
	C42.692387,88.434219 44.948219,87.537842 46.649715,86.017036 
	C47.771645,85.014259 48.106472,83.130859 48.793732,81.641762 
	C47.063511,81.381775 45.334167,81.115509 43.601391,80.873863 
	C43.464123,80.854729 43.301796,81.003929 43.153187,81.078995 
	C35.940342,84.722679 32.324810,84.075287 27.224302,77.826981 
	C25.169138,75.309326 24.941133,72.690506 28.356133,70.823036 
	C30.546089,69.625473 32.939934,68.623932 34.768318,67.000587 
	C36.115410,65.804558 36.695721,63.744904 37.617706,62.070076 
	C35.740822,61.946682 33.760418,61.395000 32.015316,61.816807 
	C30.161026,62.265018 28.529844,63.636272 26.734888,64.641624 
	C25.724106,59.831440 26.147345,59.608788 31.800905,55.313812 
	C34.682880,53.124397 36.303749,54.753651 38.331440,56.128033 
	C45.221073,60.797863 45.104488,66.845146 38.294353,71.611893 
	C36.146873,73.115005 31.477945,74.026726 33.815090,77.933037 
	C36.253571,82.008713 39.029579,78.121193 41.328381,76.813057 
	C45.748844,74.297577 51.274525,74.677368 52.973923,77.936890 
	C54.839153,81.514488 52.536751,87.858475 49.012882,90.245544 
	C46.665550,91.835617 41.465004,92.555420 43.522556,96.484711 
	C45.818970,100.870155 49.266407,96.769119 51.977112,95.507484 
	C55.135643,94.037407 58.100365,92.150940 61.493774,90.261566 
z"/>
</svg>