<?xml version="1.0" encoding="utf-8"?>
<!-- Generator: Adobe Illustrator 28.2.0, SVG Export Plug-In . SVG Version: 6.00 Build 0)  -->
<svg version="1.1" xmlns="http://www.w3.org/2000/svg" xmlns:xlink="http://www.w3.org/1999/xlink" x="0px" y="0px"
	 viewBox="0 0 894.2 304.8" style="enable-background:new 0 0 894.2 304.8;" xml:space="preserve">
<style type="text/css">
	.st0{display:none;}
	.st1{display:inline;}
</style>
<g id="Layer_1">
	<g id="Layer_2_00000014620672300692341060000000088107099352565920_">
		<path d="M499.3,0.5c-57.6,0-104.4,46.7-104.4,104.4s46.7,104.4,104.4,104.4s104.4-46.7,104.4-104.4l0,0l0,0
			C603.6,47.3,556.9,0.6,499.3,0.5z M499.3,170.1c-36,0-65.2-29.2-65.2-65.2s29.2-65.2,65.2-65.2s65.2,29.2,65.2,65.2l0,0
			C564.5,140.9,535.3,170.1,499.3,170.1L499.3,170.1z"/>
		<path d="M355.2,0.9c-3.6-0.4-7.1-0.6-10.7-0.6c-1.8,0-3.5,0-5.2,0.1s-3.5,0.2-5.2,0.3c-7,0.5-14,1.7-20.8,3.6
			c-13.9,3.7-27,10.3-38.3,19.2c-11.6,9.2-20.8,21-27.1,34.4c-3.1,6.7-5.4,13.8-6.9,21c-0.7,3.6-1.2,7.2-1.6,10.8
			c-0.1,1.8-0.3,3.6-0.3,5.4l-0.1,2.7v2.5l0.1,35l0.1,34.9l0.2,34.9h39.1l0.2-34.9l0.1-34.9l0.1-35v-2v-1.7c0-1.1,0.2-2.2,0.2-3.3
			c0.2-2.2,0.6-4.3,1-6.5c0.9-4.2,2.2-8.3,4-12.2c3.6-7.8,9-14.6,15.7-20c7-5.6,15.1-9.7,23.7-12c4.4-1.2,9-2,13.6-2.4
			c1.2-0.1,2.3-0.2,3.5-0.2s2.4-0.1,3.5-0.1c2.2,0,4.5,0.1,6.7,0.3c8.9,0.9,17.5,3.6,25.4,8l19.5-33.9
			C383.3,7.1,369.5,2.5,355.2,0.9z"/>
		<path d="M105.3,0C47.7-0.5,0.5,45.8,0,103.4s45.8,104.8,103.4,105.3h36.2v-39.1h-34.3c-36,0.4-65.6-28.4-66-64.5
			s28.4-65.6,64.5-66l0,0c0.5,0,1,0,1.5,0c36,0,65.2,29.2,65.4,65.2l0,0v96.1l0,0c0,35.7-29.1,64.8-64.7,65.2
			c-17.1-0.1-33.4-7-45.4-19.1l-27.7,27.7c19.2,19.3,45.2,30.3,72.4,30.5h1.4c56.9-0.8,102.6-47,102.9-103.9v-99.1
			C208.2,45.2,161.9,0.1,105.3,0z"/>
		<path d="M729.7,0.5c-57.6,0-104.4,46.7-104.3,104.4c0,57.6,46.7,104.3,104.3,104.3h35.7v-39.1h-35.7c-36,0-65.2-29.2-65.2-65.2
			s29.2-65.2,65.2-65.2c33.8,0,62,25.9,65,59.6h-0.1v200.4h39.1V104.9l0,0C833.7,47.3,787.2,0.5,729.7,0.5z"/>
	</g>
	<g class="st0">
		<g class="st1">
			<path d="M870.3,1.3c12.1,0,21.9,9.8,21.9,21.9s-9.8,21.9-21.9,21.9s-21.9-9.8-21.9-21.9S858.2,1.3,870.3,1.3 M870.3,0
				C857.4,0,847,10.4,847,23.2s10.4,23.3,23.3,23.3c12.9,0,23.3-10.4,23.3-23.3S883.1,0,870.3,0L870.3,0z"/>
		</g>
	</g>
</g>
<g id="Isolation_Mode">
	<path d="M894.2,15.2c0,8.6-6.7,15.3-15.3,15.3c-8.6,0-15.2-6.7-15.2-15.2S870.4,0,879,0C887.7,0,894.2,6.6,894.2,15.2L894.2,15.2z
		 M892.6,15.2c0-7.7-5.8-13.6-13.6-13.6s-13.7,6-13.7,13.6s5.9,13.6,13.6,13.6C886.7,28.9,892.6,22.8,892.6,15.2L892.6,15.2z
		 M882.8,17.7l4.1,6.2h-2.3l-3.8-5.8c-0.4,0-0.6,0-1,0h-4.5V24H873V6.5h6.7c4.3,0,6.9,2.2,6.9,5.8C886.7,15,885.2,16.9,882.8,17.7
		L882.8,17.7z M884.5,12.3c0-2.5-1.8-3.9-4.8-3.9h-4.4v7.9h4.4C882.7,16.3,884.5,14.8,884.5,12.3z"/>
</g>
</svg>
