<svg version="1.1" id="Layer_1" xmlns="http://www.w3.org/2000/svg" xmlns:xlink="http://www.w3.org/1999/xlink" x="0px" y="0px"
	 width="100%" viewBox="0 0 593 174" enable-background="new 0 0 593 174" xml:space="preserve">
<path fill="#FDFDFF" opacity="1.000000" stroke="none" 
	d="
M1.385031,93.043976 
	C1.000000,63.508461 1.050205,34.016705 0.921370,4.525727 
	C0.908660,1.616527 1.417351,0.911966 4.472651,0.913468 
	C199.749908,1.009479 395.027191,1.010164 590.304443,0.912822 
	C593.559509,0.911200 594.074463,1.809430 594.069397,4.802501 
	C593.974731,60.286419 593.969421,115.770607 594.080505,171.254456 
	C594.086792,174.387054 593.361633,175.078461 590.247437,175.077087 
	C395.136810,174.991379 200.026123,174.986618 4.915518,175.104080 
	C1.322639,175.106247 0.888574,174.164169 0.912334,170.917114 
	C1.078138,148.258179 1.000000,125.597466 1.000000,102.468658 
	C3.260299,101.447220 4.403167,103.093750 5.442310,104.511230 
	C11.343089,112.560349 18.184414,119.872879 23.930346,128.029022 
	C27.274958,132.776596 31.307987,135.051620 37.366211,134.798859 
	C47.833969,134.362122 58.333984,134.597549 68.818375,134.720505 
	C72.571793,134.764511 75.515968,133.772446 77.992737,130.772583 
	C85.294937,121.928131 92.298775,112.846153 99.555595,103.966637 
	C102.037918,100.929245 102.635048,97.435661 101.671036,93.617859 
	C98.862495,82.495232 96.796738,71.198402 93.775162,60.121803 
	C92.906960,56.939129 91.078934,54.995277 88.149895,53.635292 
	C78.037941,48.940186 68.074364,43.932598 57.993568,39.167381 
	C53.702129,37.138809 49.741562,36.966808 45.580082,39.059280 
	C35.617996,44.068424 25.477829,48.711624 15.503671,53.697811 
	C12.561533,55.168621 11.026864,57.404472 10.389062,60.586800 
	C8.493553,70.044472 5.928903,79.354431 4.041115,88.816589 
	C3.715911,90.446617 3.338584,92.096710 1.385031,93.043976 
z"/>
<path fill="#4271E3" opacity="1.000000" stroke="none" 
	d="
M1.000000,93.449982 
	C4.434968,86.117599 4.681784,78.382278 6.811316,71.144363 
	C7.931448,67.337227 8.391018,63.340672 9.324371,59.471996 
	C10.004381,56.653408 11.410951,54.412735 14.287032,53.043514 
	C25.511559,47.699821 36.634361,42.142883 47.833401,36.744915 
	C50.500168,35.459530 53.288815,35.534637 56.008690,36.847256 
	C67.046852,42.174297 77.973022,47.756397 89.179520,52.702915 
	C95.773865,55.613647 95.248772,61.779240 96.711601,66.907333 
	C99.074883,75.192024 100.582817,83.716743 102.659660,92.088577 
	C103.951248,97.294998 103.309746,101.613716 99.601219,105.914391 
	C92.232460,114.459785 85.335876,123.415421 78.337303,132.275101 
	C76.205322,134.974045 73.745827,136.126175 70.216454,136.066772 
	C58.569672,135.870758 46.912617,135.796982 35.269852,136.088943 
	C30.541071,136.207550 27.450510,134.291779 24.702902,130.808609 
	C17.100008,121.170280 9.373772,111.629257 1.348144,102.024887 
	C1.000000,99.299988 1.000000,96.599968 1.000000,93.449982 
z"/>
<path fill="#4774E2" opacity="1.000000" stroke="none" 
	d="
M266.469604,116.595749 
	C257.219940,122.427193 247.616089,120.419250 238.108490,119.090370 
	C235.316833,118.700172 234.045792,117.027466 234.070587,113.882950 
	C234.216034,95.424416 234.257492,76.962975 234.059814,58.505451 
	C234.016846,54.494038 236.049637,53.951885 239.164093,53.507095 
	C247.028885,52.383896 247.014633,52.284248 247.010941,60.296829 
	C247.010864,60.463135 247.007828,60.629498 247.011215,60.795734 
	C247.092606,64.779739 245.831299,69.571678 247.612671,72.533615 
	C249.626343,75.881821 254.509018,72.597702 258.198792,73.032127 
	C266.967560,74.064529 273.793030,80.013725 275.004059,88.766327 
	C276.445282,99.182632 276.031769,109.120331 266.469604,116.595749 
z"/>
<path fill="#4A76E2" opacity="1.000000" stroke="none" 
	d="
M138.081833,54.016956 
	C148.838318,52.255871 148.837677,52.255871 148.838608,62.814739 
	C148.839233,69.975777 148.829803,77.136864 148.858505,84.297791 
	C148.862320,85.244316 148.578629,86.455559 149.727325,86.926117 
	C150.866913,87.392944 151.533768,86.335495 152.179214,85.667114 
	C153.794937,83.993942 155.798691,82.466515 156.787949,80.457672 
	C160.697266,72.519142 167.761093,73.782646 174.494766,73.992531 
	C177.065369,74.072662 176.745911,75.256424 175.384064,76.756401 
	C171.359222,81.189583 167.492813,85.775879 163.306961,90.050148 
	C160.761246,92.649651 160.227585,94.415565 163.103470,97.397560 
	C168.060760,102.537773 172.141434,108.460487 175.780334,114.634239 
	C178.037888,118.464432 177.372665,119.207626 173.014725,119.721184 
	C166.525787,120.485863 161.920929,118.605995 158.856964,112.492340 
	C157.174072,109.134354 154.397842,106.313583 152.026657,103.320267 
	C151.552475,102.721664 150.627151,102.020058 150.001907,102.098625 
	C148.751556,102.255753 148.874512,103.542488 148.865356,104.511803 
	C148.830734,108.175293 148.762512,111.841194 148.857437,115.502296 
	C148.932068,118.381592 147.888611,119.975021 144.805695,119.730247 
	C144.474915,119.703987 144.139771,119.726334 143.806839,119.734146 
	C135.385147,119.931679 135.385895,119.931862 135.386520,111.405312 
	C135.387772,94.085571 135.368622,76.765778 135.415131,59.446163 
	C135.420578,57.418774 134.647430,54.906185 138.081833,54.016956 
z"/>
<path fill="#4875E2" opacity="1.000000" stroke="none" 
	d="
M300.895569,107.533722 
	C306.075317,109.640289 310.920563,109.681709 315.935272,108.346664 
	C317.939636,107.813049 320.942474,106.615189 321.285736,110.463554 
	C321.566803,113.614647 324.758453,117.890327 318.701385,119.133186 
	C311.644562,120.581184 304.465179,121.581032 297.464691,119.302422 
	C283.871338,114.877884 280.494781,101.736473 284.089691,88.963753 
	C287.940460,75.282036 298.946136,69.938011 312.460052,74.007706 
	C320.900726,76.549599 328.137207,91.179222 324.953766,99.142143 
	C324.205627,101.013542 322.714996,100.856628 321.239380,100.861382 
	C315.073395,100.881256 308.906342,100.809738 302.741913,100.909866 
	C300.862000,100.940414 298.265137,99.941795 297.355896,102.274071 
	C296.353668,104.844841 299.105804,105.857384 300.895569,107.533722 
z"/>
<path fill="#4774E2" opacity="1.000000" stroke="none" 
	d="
M505.028259,89.242851 
	C509.465729,72.799446 526.870605,68.827362 537.668396,76.029533 
	C543.490051,79.912590 547.932373,91.045029 546.476807,97.713242 
	C545.874084,100.474297 543.969910,100.894783 541.613403,100.882172 
	C535.447510,100.849152 529.280945,100.834846 523.115479,100.898026 
	C521.538086,100.914192 519.381226,100.248528 518.703064,102.237564 
	C517.929932,104.505409 519.718506,106.119514 521.419983,107.082756 
	C525.809326,109.567596 530.534424,109.668358 535.458130,108.767906 
	C538.111816,108.282593 541.873047,105.623932 542.813416,111.141808 
	C543.851501,117.233009 542.824036,119.084602 537.240967,119.737068 
	C529.295776,120.665604 521.301636,121.650612 513.906494,117.159042 
	C504.181763,111.252594 503.872009,101.875641 504.556671,92.113319 
	C504.614685,91.286369 504.823975,90.470024 505.028259,89.242851 
z"/>
<path fill="#4875E2" opacity="1.000000" stroke="none" 
	d="
M419.208313,104.545776 
	C418.245087,96.073753 418.187439,88.165184 423.190643,81.134956 
	C428.858612,73.170555 440.269409,70.308662 449.579895,74.536194 
	C457.176361,77.985466 462.795074,90.013237 460.809753,98.292717 
	C460.147095,101.056244 458.123230,100.849678 456.145538,100.859810 
	C449.816925,100.892235 443.487915,100.848030 437.159424,100.890541 
	C435.557220,100.901299 433.528229,100.495697 432.956909,102.614845 
	C432.374207,104.776276 434.069733,106.054016 435.625732,106.966766 
	C440.175201,109.635437 445.002228,109.654442 450.113983,108.659981 
	C452.455292,108.204498 456.160889,105.578194 457.070465,110.931244 
	C458.172821,117.418495 457.563202,118.855110 451.992706,119.683922 
	C448.381653,120.221222 444.693878,120.517464 441.045349,120.477509 
	C429.802521,120.354385 423.277557,115.606308 419.208313,104.545776 
z"/>
<path fill="#4A77E2" opacity="1.000000" stroke="none" 
	d="
M187.150711,113.777527 
	C184.436813,109.591354 183.286606,105.288971 183.231491,100.719841 
	C183.141068,93.223030 183.318832,85.720406 183.092819,78.229004 
	C182.995270,74.995148 184.144272,73.575768 187.302856,73.626282 
	C188.801514,73.650246 190.302444,73.640648 191.800278,73.587845 
	C195.264999,73.465691 196.824585,74.737785 196.705902,78.568939 
	C196.468781,86.222473 196.724594,93.891693 196.798096,101.554237 
	C196.827713,104.641441 197.982544,106.994637 201.032211,108.244804 
	C206.718704,110.575912 209.117401,109.067299 209.127625,103.010742 
	C209.141403,94.846428 209.333694,86.674683 209.038635,78.520981 
	C208.898911,74.659859 210.457108,73.442459 213.923416,73.591026 
	C215.586609,73.662323 217.257462,73.568497 218.919205,73.656250 
	C221.257370,73.779732 222.569809,74.876892 222.560730,77.423531 
	C222.516769,89.753151 222.530487,102.082985 222.537537,114.412750 
	C222.538452,116.038864 222.179718,117.459259 220.407806,117.924538 
	C212.105911,120.104485 203.710144,121.067093 195.243668,119.095917 
	C192.124924,118.369812 189.490585,116.530014 187.150711,113.777527 
z"/>
<path fill="#4573E2" opacity="1.000000" stroke="none" 
	d="
M382.506592,116.627632 
	C379.940826,121.104485 375.859375,118.605759 372.508148,118.522774 
	C369.707092,118.453400 370.539917,115.166023 370.547577,113.156204 
	C370.571014,107.018623 370.771851,100.881737 371.135986,94.404297 
	C373.561615,96.114487 372.329254,98.747711 372.416321,101.086975 
	C372.567932,105.160789 372.681824,109.258453 372.490387,111.467964 
	C372.199860,105.933945 373.016296,98.531021 371.826630,90.884460 
	C370.615265,86.825729 371.233978,82.969131 371.289490,78.715683 
	C371.692596,77.968849 372.879028,78.073364 371.638519,77.149780 
	C370.797577,75.113136 372.463898,74.694649 373.596039,74.548645 
	C381.114838,73.578979 388.512665,71.272263 396.278137,73.447777 
	C403.713165,75.530731 408.517731,80.317825 408.873047,88.110565 
	C409.289307,97.239395 409.033905,106.397995 409.124847,115.543137 
	C409.147400,117.808868 408.289673,118.984093 405.910706,118.875885 
	C404.417145,118.807961 402.899017,118.711617 401.424896,118.894218 
	C397.403870,119.392281 396.173950,117.585953 396.315338,113.736916 
	C396.547119,107.426071 396.423065,101.100082 396.366486,94.781227 
	C396.280548,85.185989 393.078949,82.651596 383.242828,84.772095 
	C381.473785,86.886925 382.001160,89.104362 382.027039,91.189514 
	C382.130951,99.555054 381.637268,107.926987 382.506592,116.627632 
z"/>
<path fill="#4976E2" opacity="1.000000" stroke="none" 
	d="
M478.577209,61.169022 
	C481.898224,60.051765 482.755249,61.372063 482.939758,64.177742 
	C483.552673,73.498795 483.627350,73.677460 492.696472,73.513214 
	C496.952423,73.436134 498.071808,75.037560 497.998566,79.085854 
	C497.929016,82.930832 497.266785,84.825043 492.790466,84.750961 
	C481.849609,84.569931 482.972351,82.982559 482.903168,94.953278 
	C482.890656,97.114815 482.851318,99.279076 482.935577,101.437737 
	C483.155823,107.079720 486.516968,109.735031 492.181946,108.777031 
	C495.064178,108.289612 498.197632,106.762985 498.912140,111.694794 
	C499.731689,117.351410 499.025543,118.968819 493.912445,119.701950 
	C489.640625,120.314453 485.235046,120.638054 481.016815,119.516212 
	C473.907227,117.625404 469.870148,111.929207 469.624725,102.657455 
	C469.308044,90.693291 469.592072,78.714272 469.513275,66.742340 
	C469.469666,60.114262 474.957855,62.525055 478.577209,61.169022 
z"/>
<path fill="#4774E2" opacity="1.000000" stroke="none" 
	d="
M553.728516,115.180344 
	C554.048584,114.013031 554.401306,113.207314 554.409424,112.398140 
	C554.457031,107.650124 556.976196,107.432899 560.648987,108.730484 
	C563.815186,109.849091 567.167847,109.955765 570.502502,109.831001 
	C572.248352,109.765686 573.881958,109.247475 574.425598,107.361450 
	C575.012451,105.325485 573.562866,104.218681 572.049805,103.489487 
	C569.369629,102.197884 566.570740,101.155434 563.846802,99.951607 
	C556.810852,96.842201 553.947876,92.251968 554.569763,85.156883 
	C555.106812,79.030640 559.118896,75.297829 566.223633,73.316940 
	C571.986267,71.710228 577.445923,73.007370 582.959839,74.074982 
	C587.344849,74.923996 584.894409,78.222557 584.879028,80.538826 
	C584.862610,83.012772 583.929077,84.703011 580.927490,84.289009 
	C578.301636,83.926834 575.644592,83.643684 572.998779,83.620972 
	C570.909790,83.603058 568.220886,83.371193 567.734741,86.176613 
	C567.326965,88.529205 569.447571,89.532280 571.314087,90.357155 
	C574.041565,91.562492 576.822388,92.654297 579.508179,93.945007 
	C586.209717,97.165596 588.755371,101.973572 587.775818,109.318718 
	C587.039856,114.837280 582.415588,118.913574 575.629822,120.035225 
	C569.479065,121.051933 563.343567,120.921875 557.364014,119.185951 
	C555.762085,118.720901 553.035461,118.597366 553.728516,115.180344 
z"/>
<path fill="#4472E2" opacity="1.000000" stroke="none" 
	d="
M336.849548,76.489395 
	C344.844238,72.132011 353.130035,72.321350 361.315948,74.021332 
	C365.713043,74.934494 362.525879,78.749481 362.769775,81.196770 
	C362.998230,83.488960 361.754639,84.813957 359.106140,84.740273 
	C347.544800,84.418625 347.543579,84.465141 347.543823,95.790657 
	C347.543915,101.454559 347.598999,107.119270 347.516541,112.781975 
	C347.483856,115.023972 348.327454,118.388000 345.701782,118.952705 
	C342.311890,119.681778 338.260284,121.318550 335.215912,117.331146 
	C336.431519,114.957603 335.920471,112.755165 335.991974,110.633064 
	C336.370697,99.391869 335.239594,88.120338 336.849548,76.489395 
z"/>
<path fill="#2F63DF" opacity="1.000000" stroke="none" 
	d="
M336.687256,76.059036 
	C337.020630,88.930359 337.012268,101.781471 337.002258,114.632591 
	C337.001587,115.485382 336.849152,116.272331 335.638641,116.845406 
	C335.188507,104.096390 335.111145,91.233521 335.028198,78.370682 
	C335.021484,77.331009 335.127686,76.376862 336.687256,76.059036 
z"/>
<path fill="#2F63DF" opacity="1.000000" stroke="none" 
	d="
M382.875061,116.518509 
	C381.806824,116.868378 380.228424,117.070366 380.404541,115.843193 
	C381.816956,106.001228 380.394928,96.102150 381.189056,86.260864 
	C381.219208,85.886940 381.796570,85.557182 382.503204,85.091286 
	C382.927704,95.339928 382.967987,105.704140 382.875061,116.518509 
z"/>
<path fill="#2F63DF" opacity="1.000000" stroke="none" 
	d="
M371.351654,90.974258 
	C372.589508,91.302406 372.964844,92.311104 372.999664,93.554382 
	C373.212982,101.171021 372.558472,108.787514 373.457092,116.403160 
	C372.886414,116.414665 372.315704,116.426163 371.745026,116.437660 
	C371.745026,109.335716 371.745026,102.233780 371.556702,94.597923 
	C371.315460,93.147049 371.262573,92.230087 371.351654,90.974258 
z"/>
<path fill="#2F63DF" opacity="1.000000" stroke="none" 
	d="
M371.275513,77.403397 
	C371.768188,77.247307 372.544067,77.170418 371.701965,78.157944 
	C371.371155,78.101425 371.296417,77.906586 371.275513,77.403397 
z"/>
<path fill="#F1F4FC" opacity="1.000000" stroke="none" 
	d="
M82.887627,65.688385 
	C81.969719,68.942764 78.220787,68.720718 76.758102,71.571388 
	C76.319992,72.417038 76.137619,72.972122 76.472168,73.852158 
	C77.457993,76.397011 79.106499,78.370903 79.224037,81.308578 
	C80.174957,83.153755 79.825485,84.897652 80.400986,86.801285 
	C80.703423,89.037582 80.867493,90.948730 81.138382,93.258469 
	C81.808334,94.741806 82.086876,95.847084 81.180588,97.329971 
	C76.729805,102.431595 74.787918,108.954521 68.967773,112.453629 
	C66.793686,113.760704 66.458015,115.835037 68.155045,118.316849 
	C68.610191,120.536507 72.820869,122.878464 67.399330,124.103195 
	C64.520096,122.546356 65.643425,119.068878 63.226730,117.196480 
	C61.087372,115.336441 59.335400,117.241875 57.157089,117.372025 
	C54.233482,117.567558 51.615639,117.641640 48.571770,117.613770 
	C47.223396,117.034195 46.136459,117.016182 44.938381,116.392265 
	C38.829567,115.605026 40.085625,121.325478 37.482544,123.972427 
	C36.683651,124.432442 36.159401,124.563538 35.205215,124.357002 
	C34.820717,124.201050 34.974163,124.012268 34.888977,124.099197 
	C34.357563,123.361839 34.121387,122.507622 34.616814,121.161102 
	C37.667538,116.629967 38.012783,113.197433 32.894993,110.302422 
	C29.839985,108.574280 28.044596,105.276581 26.768642,102.101387 
	C25.241592,98.301338 22.917048,97.065239 18.713528,98.199875 
	C17.116741,98.842850 15.895475,99.069679 14.173819,98.397781 
	C13.027035,97.288979 13.164649,96.524788 14.386859,95.800842 
	C15.613932,95.342377 16.580667,94.985245 17.852240,94.564743 
	C23.970261,94.818062 23.262962,90.638283 23.398046,86.566406 
	C24.175745,84.955391 23.797716,83.482101 24.607872,81.981720 
	C24.714739,79.105171 25.882263,76.936508 27.188131,74.431442 
	C27.637093,73.578125 27.853724,73.040398 27.543987,72.155357 
	C26.233938,69.087837 22.993122,68.730026 21.149273,66.315071 
	C21.066029,65.363861 21.223890,64.804161 21.711163,64.034607 
	C23.476820,63.274868 24.856113,63.881229 25.771069,65.108070 
	C28.853247,69.240913 31.866560,68.666260 35.042068,65.255608 
	C35.569462,64.689163 36.400936,64.405838 37.439537,63.923603 
	C38.399422,63.531143 38.926762,63.078266 39.808693,62.536385 
	C40.727280,62.169331 41.350494,61.980915 42.298092,61.753551 
	C43.326954,61.579487 43.869133,61.107277 44.812183,60.663036 
	C46.122108,60.347095 47.116478,60.180386 48.487862,59.962280 
	C49.393673,59.539234 49.903759,59.138706 50.785927,58.717167 
	C51.478203,58.376282 51.900848,58.287846 52.669937,58.353004 
	C53.633804,58.637436 54.126907,59.071518 54.868790,59.721535 
	C55.826374,60.033146 56.517925,60.153618 57.542953,60.382812 
	C58.586975,60.769054 59.230629,61.169685 60.153477,61.612495 
	C61.063541,61.773651 61.691605,61.897793 62.621231,62.130035 
	C63.582970,62.647888 64.178192,63.149632 65.107895,63.642830 
	C65.392181,63.705372 65.733330,63.756901 65.881477,63.845272 
	C66.615463,64.900360 67.776535,64.952385 68.842728,65.732864 
	C69.089455,65.918137 69.005707,66.000519 69.041153,65.953873 
	C69.711540,66.745415 70.420013,67.504089 71.652634,68.118240 
	C76.328224,69.343994 77.584122,63.969883 81.689850,63.798485 
	C82.420273,64.342346 82.773415,64.806015 82.887627,65.688385 
z"/>
<path fill="#BFCEF4" opacity="1.000000" stroke="none" 
	d="
M81.271774,97.754898 
	C80.963142,96.582893 81.052734,95.521568 81.193771,94.058647 
	C83.668686,93.954056 86.161049,93.999565 88.491058,94.637794 
	C90.006378,95.052856 91.550392,96.311935 90.879257,98.320267 
	C90.126869,100.571800 88.337532,99.969345 86.830681,99.261749 
	C85.173485,98.483559 83.496094,97.942001 81.271774,97.754898 
z"/>
<path fill="#C3D1F4" opacity="1.000000" stroke="none" 
	d="
M55.066319,59.473175 
	C54.551235,59.772274 53.967655,59.631874 53.197617,59.243420 
	C51.724361,57.933258 52.176918,56.405842 51.934811,55.057865 
	C51.818016,54.407600 51.176182,54.322540 51.506470,54.900993 
	C51.527386,54.937622 51.308601,55.111118 50.936920,55.302475 
	C49.241535,54.686867 49.165672,53.374748 49.176842,52.040001 
	C49.192394,50.181580 50.149933,48.656612 51.882492,48.499619 
	C53.753384,48.330090 54.734608,49.908035 54.843006,51.704662 
	C54.990059,54.141911 54.954849,56.590149 55.066319,59.473175 
z"/>
<path fill="#BCCCF3" opacity="1.000000" stroke="none" 
	d="
M67.078140,124.286308 
	C70.765465,123.202431 68.313286,120.963448 68.257111,118.943741 
	C70.506981,119.921822 71.861298,121.721786 70.502518,124.195419 
	C69.889633,125.311150 68.496986,126.628845 67.078140,124.286308 
z"/>
<path fill="#E6ECFB" opacity="1.000000" stroke="none" 
	d="
M50.645355,55.650681 
	C51.332355,54.197723 50.436035,52.416370 52.325115,51.264282 
	C53.545616,53.632805 52.707298,55.956100 53.004669,58.560516 
	C52.566902,58.996883 52.122646,58.998402 51.345306,59.002071 
	C50.832275,58.789341 50.652325,58.574459 50.563629,57.949177 
	C50.642654,56.998306 50.630428,56.457829 50.645355,55.650681 
z"/>
<path fill="#BCCCF3" opacity="1.000000" stroke="none" 
	d="
M57.227234,117.628418 
	C58.571236,115.539757 60.546951,114.841484 63.005783,116.572617 
	C61.240742,117.184334 59.421944,117.473846 57.227234,117.628418 
z"/>
<path fill="#BFCEF4" opacity="1.000000" stroke="none" 
	d="
M80.677200,86.752274 
	C78.265915,86.140892 79.204308,84.136414 79.158485,82.075714 
	C81.356445,82.718460 80.838615,84.630379 80.677200,86.752274 
z"/>
<path fill="#BCCCF3" opacity="1.000000" stroke="none" 
	d="
M13.832710,98.527573 
	C14.959663,98.153687 16.179182,98.111572 17.850634,98.157700 
	C17.103931,100.309052 15.650064,100.550827 13.832710,98.527573 
z"/>
<path fill="#BCCCF3" opacity="1.000000" stroke="none" 
	d="
M24.395451,81.839104 
	C25.017426,83.129311 25.375578,84.601677 23.791302,85.989006 
	C22.901083,84.650734 22.859657,83.239937 24.395451,81.839104 
z"/>
<path fill="#C3D1F4" opacity="1.000000" stroke="none" 
	d="
M71.813835,67.920807 
	C69.890800,69.567001 69.561844,67.915665 69.070343,66.232124 
	C70.333992,65.886520 71.043259,66.698082 71.813835,67.920807 
z"/>
<path fill="#BCCCF3" opacity="1.000000" stroke="none" 
	d="
M34.494377,120.859802 
	C34.845261,121.607208 34.888885,122.467751 34.868149,123.757217 
	C32.481796,123.521263 32.731869,122.362755 34.494377,120.859802 
z"/>
<path fill="#C3D1F4" opacity="1.000000" stroke="none" 
	d="
M69.002693,65.592499 
	C67.881592,65.996765 66.607315,66.232170 66.065781,64.293091 
	C67.230377,63.861389 68.281517,64.113029 69.002693,65.592499 
z"/>
<path fill="#BCCCF3" opacity="1.000000" stroke="none" 
	d="
M44.796764,116.625290 
	C45.808830,115.983955 46.957848,115.775299 48.009354,117.199371 
	C46.953243,118.035675 45.863834,117.987633 44.796764,116.625290 
z"/>
<path fill="#BCCCF3" opacity="1.000000" stroke="none" 
	d="
M17.800587,94.301781 
	C17.699556,95.865822 16.595453,96.008331 15.000528,95.793579 
	C15.130464,94.352417 16.139605,93.968246 17.800587,94.301781 
z"/>
<path fill="#C3D1F4" opacity="1.000000" stroke="none" 
	d="
M65.266953,63.406902 
	C64.439789,63.956036 63.559128,63.998924 62.997017,62.571121 
	C63.883797,61.963856 64.598129,62.318489 65.266953,63.406902 
z"/>
<path fill="#BCCCF3" opacity="1.000000" stroke="none" 
	d="
M34.877304,124.480637 
	C35.340626,124.139732 35.860535,124.078423 36.771446,124.068359 
	C36.771431,125.557091 36.168209,126.256355 34.877304,124.480637 
z"/>
<path fill="#C3D1F4" opacity="1.000000" stroke="none" 
	d="
M50.380798,57.685074 
	C50.732685,57.778549 50.810486,58.018318 50.950253,58.631153 
	C50.505619,59.323891 49.999012,59.643562 49.178642,59.937054 
	C49.278820,59.217709 49.692764,58.524540 50.380798,57.685074 
z"/>
<path fill="#C3D1F4" opacity="1.000000" stroke="none" 
	d="
M44.827415,60.403198 
	C44.846569,61.437160 44.252037,61.926514 42.940533,61.788986 
	C42.982651,60.872673 43.533524,60.286160 44.827415,60.403198 
z"/>
<path fill="#C3D1F4" opacity="1.000000" stroke="none" 
	d="
M60.289940,61.361408 
	C59.533958,61.992485 58.716755,61.983730 57.993774,60.791939 
	C58.797016,60.043812 59.530094,60.327053 60.289940,61.361408 
z"/>
<path fill="#C3D1F4" opacity="1.000000" stroke="none" 
	d="
M39.794666,62.294510 
	C39.898952,63.262386 39.411518,63.866058 38.104870,63.895302 
	C38.034157,62.980553 38.523956,62.359444 39.794666,62.294510 
z"/>
<path fill="#C3D1F4" opacity="1.000000" stroke="none" 
	d="
M21.570755,63.816540 
	C21.760792,64.375465 21.673084,64.980194 21.343468,65.781433 
	C20.021023,65.169182 20.382290,64.490898 21.570755,63.816540 
z"/>
<path fill="#BFCEF4" opacity="1.000000" stroke="none" 
	d="
M83.105698,65.818718 
	C82.603271,65.480164 82.318985,64.980728 82.054855,64.177879 
	C83.165932,63.996490 83.785751,64.448410 83.105698,65.818718 
z"/>
<path fill="#C3D1F4" opacity="1.000000" stroke="none" 
	d="
M27.313534,72.245758 
	C28.705885,72.345520 29.342289,72.941223 27.606647,74.040878 
	C27.299198,73.603973 27.249947,73.105537 27.313534,72.245758 
z"/>
<path fill="#BFCEF4" opacity="1.000000" stroke="none" 
	d="
M76.690536,73.752151 
	C75.339287,73.687447 74.641670,73.113548 76.327240,71.943260 
	C76.649536,72.375252 76.718117,72.877914 76.690536,73.752151 
z"/>
<path fill="#F1F5FD" opacity="1.000000" stroke="none" 
	d="
M246.916779,92.140976 
	C247.293182,88.793846 245.532974,85.027496 250.381821,84.114090 
	C256.017609,83.052437 259.406708,84.540535 261.478912,89.167511 
	C263.929352,94.639084 263.111786,99.932289 260.419647,104.983887 
	C258.568909,108.456673 252.727509,110.315697 248.923004,109.136444 
	C247.010956,108.543785 246.939590,107.131523 246.932739,105.605537 
	C246.913269,101.277359 246.920258,96.949074 246.916779,92.140976 
z"/>
<path fill="#E6ECFB" opacity="1.000000" stroke="none" 
	d="
M305.682861,83.249283 
	C307.120972,83.770210 308.373505,84.012505 309.206818,84.736961 
	C310.938660,86.242493 313.279144,87.877144 312.630890,90.422691 
	C311.871216,93.405724 308.983368,91.725380 307.048584,91.976990 
	C305.081940,92.232735 303.052643,92.108299 301.057709,92.009918 
	C299.649750,91.940475 297.757202,92.663025 297.071533,90.863342 
	C296.368317,89.017418 297.245117,87.375717 298.569733,85.903557 
	C300.407928,83.860611 302.782867,83.397614 305.682861,83.249283 
z"/>
<path fill="#E6ECFB" opacity="1.000000" stroke="none" 
	d="
M520.290344,85.325211 
	C526.612793,81.752670 531.754944,83.236244 533.381958,88.574951 
	C534.114380,90.978325 533.561340,92.039558 531.048035,92.027580 
	C528.408203,92.015007 525.762512,92.120445 523.130615,91.973198 
	C521.423706,91.877701 519.114258,92.897545 518.178772,90.891708 
	C517.257202,88.915665 518.814087,87.178345 520.290344,85.325211 
z"/>
<path fill="#E6ECFB" opacity="1.000000" stroke="none" 
	d="
M442.369263,83.378922 
	C443.842285,84.208305 445.159546,84.712822 446.001038,85.646255 
	C447.311340,87.099785 448.732697,88.924164 447.809662,90.950493 
	C446.976715,92.778999 444.864960,91.930313 443.303528,92.000931 
	C440.826447,92.112953 438.334534,91.907310 435.858612,92.030968 
	C431.628265,92.242271 431.337433,90.236984 433.091827,87.198013 
	C435.067719,83.775414 438.257660,82.823135 442.369263,83.378922 
z"/>
<path fill="#2F63DF" opacity="1.000000" stroke="none" 
	d="
M399.053528,113.230545 
	C399.122437,114.551491 400.157440,115.426941 398.593140,116.958389 
	C398.593140,108.970207 398.593140,101.541061 398.593140,94.111923 
	C398.736633,94.103882 398.880096,94.095848 399.023590,94.087814 
	C399.023590,100.331284 399.023590,106.574753 399.053528,113.230545 
z"/>
<path fill="#2F63DF" opacity="1.000000" stroke="none" 
	d="
M407.542542,116.461052 
	C407.576477,116.518448 407.508575,116.403656 407.542542,116.461052 
z"/>
<path fill="#5780E5" opacity="1.000000" stroke="none" 
	d="
M47.556271,79.185349 
	C42.978493,79.295227 40.606655,75.806953 37.456322,73.682365 
	C36.735455,73.196205 36.908928,72.147339 37.439960,71.431595 
	C37.822227,70.916359 38.310841,70.415222 38.862133,70.101036 
	C41.802250,68.425461 45.821167,64.605186 47.896996,66.821899 
	C50.565544,69.671562 49.455536,74.828415 47.556271,79.185349 
z"/>
<path fill="#547EE4" opacity="1.000000" stroke="none" 
	d="
M63.317825,95.113388 
	C64.849472,95.366112 65.975960,95.638687 67.118454,95.791939 
	C74.112991,96.730103 74.466499,97.548775 70.127197,103.212296 
	C69.234482,104.377441 68.173759,105.434769 67.076035,106.413437 
	C66.496758,106.929878 65.355103,107.674400 65.005104,107.455620 
	C61.681454,105.378143 61.415573,101.504822 60.028568,98.315178 
	C58.857273,95.621590 61.193874,95.491844 63.317825,95.113388 
z"/>
<path fill="#547EE4" opacity="1.000000" stroke="none" 
	d="
M65.270454,82.420113 
	C67.697197,80.925705 68.927170,76.892494 71.811935,78.517639 
	C74.042259,79.774094 74.516823,83.184326 74.919739,85.968063 
	C75.456184,89.674362 74.769722,91.982674 70.262001,90.182289 
	C69.050499,89.698410 67.693542,89.588898 66.458900,89.150970 
	C61.811783,87.502602 61.655701,86.740372 65.270454,82.420113 
z"/>
<path fill="#547EE4" opacity="1.000000" stroke="none" 
	d="
M60.326950,78.245201 
	C58.320629,80.047989 56.527390,80.100670 55.687344,77.845695 
	C54.456879,74.542732 54.889202,70.988113 55.098278,67.526131 
	C55.156570,66.560852 56.014961,66.006119 56.883495,66.330902 
	C60.411613,67.650223 64.245987,68.514404 66.677483,71.749138 
	C67.379044,72.682449 66.771088,73.637512 65.873116,74.287125 
	C64.130005,75.548134 62.383923,76.805023 60.326950,78.245201 
z"/>
<path fill="#547EE4" opacity="1.000000" stroke="none" 
	d="
M37.152977,89.226883 
	C34.408447,89.714012 31.475340,92.020439 29.826393,90.158485 
	C27.789801,87.858826 29.374355,84.594284 30.223995,81.688232 
	C31.519703,77.256470 33.416466,77.206444 36.306480,80.236961 
	C37.105640,81.074982 38.063992,81.758995 38.892658,82.571442 
	C42.376728,85.987305 42.177204,86.895248 37.152977,89.226883 
z"/>
<path fill="#547EE4" opacity="1.000000" stroke="none" 
	d="
M40.022842,95.324142 
	C42.941780,95.094063 44.294899,95.960625 43.452801,98.735840 
	C43.308907,99.210075 43.266666,99.746361 43.013092,100.150970 
	C41.495872,102.571922 41.974579,107.062660 38.843029,107.350716 
	C35.692989,107.640472 34.183361,103.717636 32.385712,101.243011 
	C30.231457,98.277512 30.723288,96.351814 34.718559,96.020874 
	C36.360531,95.884865 37.991337,95.614052 40.022842,95.324142 
z"/>
<path fill="#547EE4" opacity="1.000000" stroke="none" 
	d="
M57.768585,111.027664 
	C56.779583,111.611313 55.988831,112.042320 55.214394,112.014771 
	C51.989460,111.900047 47.504841,113.617767 45.879543,110.938080 
	C44.017929,107.868774 48.211460,104.936966 49.477379,101.825172 
	C50.492657,99.329475 52.666561,99.533623 54.013996,101.751572 
	C55.701752,104.529694 57.820919,107.180199 57.768585,111.027664 
z"/>
<path fill="#4271E3" opacity="1.000000" stroke="none" 
	d="
M48.821861,88.011795 
	C50.238712,85.038353 52.350128,85.432831 54.282425,86.478653 
	C55.561497,87.170937 55.502335,88.809265 55.067295,90.028625 
	C54.400593,91.897301 52.555622,92.915047 50.869553,92.718193 
	C48.611320,92.454529 48.744713,90.234161 48.821861,88.011795 
z"/>
</svg>