<svg width="20" height="20" viewBox="0 0 20 20" fill="none" xmlns="http://www.w3.org/2000/svg">
<rect width="20" height="20" rx="4" fill="#8A63BF"/>
<path fill-rule="evenodd" clip-rule="evenodd" d="M11.3042 3.03469C11.5707 3.12491 11.75 3.37495 11.75 3.65629V8.25004L14.5938 8.25004C14.8434 8.25004 15.0715 8.39172 15.1821 8.61555C15.2927 8.83939 15.2667 9.1066 15.1151 9.30493L9.42755 16.7424C9.25665 16.9659 8.96231 17.0556 8.69582 16.9654C8.42934 16.8752 8.25 16.6251 8.25 16.3438L8.25001 11.75H5.40625C5.15658 11.75 4.92853 11.6084 4.81792 11.3845C4.70731 11.1607 4.73329 10.8935 4.88496 10.6952L10.5725 3.25765C10.7434 3.03417 11.0377 2.94448 11.3042 3.03469ZM6.73423 10.4375H8.90625C9.0803 10.4375 9.24722 10.5067 9.37029 10.6298C9.49336 10.7528 9.5625 10.9197 9.5625 11.0938V14.4053L13.2658 9.56254L11.0938 9.56254C10.7313 9.56254 10.4375 9.26873 10.4375 8.90629V5.5948L6.73423 10.4375Z" fill="white"/>
</svg>
