<svg width="18" height="18" viewBox="0 0 18 18" fill="none" xmlns="http://www.w3.org/2000/svg">
<path d="M1 1V17H17" stroke="#A3AEB8" stroke-linecap="round"/>
<path d="M12.9749 4.94148C12.9188 4.71702 12.221 4.73284 12.0618 4.71515C11.1779 4.61693 10.2817 4.66052 9.39271 4.66052C8.11919 4.66052 7.15648 4.97961 6.24753 5.90922C5.86197 6.30355 5.5235 6.77684 5.23295 7.24378C4.99434 7.62726 4.65544 7.93479 4.40569 8.31299C3.93777 9.02154 3.56281 9.80723 3.56281 10.6699C3.56281 11.1806 3.37479 11.598 3.76962 12.0669C4.19449 12.5714 4.6863 12.9507 5.27978 13.2649C5.88594 13.5858 6.42202 13.8619 7.13723 13.8619C7.74338 13.8619 8.34952 13.8619 8.95567 13.8619C9.45735 13.8619 9.96042 13.8731 10.4619 13.8619C11.1412 13.8468 11.9484 13.1895 12.413 12.7381C13.581 11.6035 14.2393 9.88016 14.2393 8.24665C14.2393 7.69923 14.3797 7.17063 14.3797 6.62723C14.3797 6.40084 14.4779 5.87696 14.2744 5.71411C13.9268 5.43606 13.5785 5.13789 13.1857 4.94148" stroke="#338ECC" stroke-linecap="round"/>
<path d="M11.9213 6.83789C11.2761 6.83789 10.6309 6.83789 9.98577 6.83789C9.19776 6.83789 8.80182 7.44144 8.2844 7.97734C7.58163 8.70521 7.28544 9.67306 7.28544 10.666C7.28544 10.9641 7.22004 11.177 7.46104 11.3645C7.6831 11.5372 8.10719 11.6142 8.37806 11.6142C9.07316 11.6142 9.91042 11.5583 10.4462 11.0523C10.9277 10.5975 11.473 10.3701 11.8159 9.75284C12.045 9.34042 12.2022 8.86324 12.2022 8.38317C12.2022 8.14903 12.2022 7.9149 12.2022 7.68077C12.2022 7.4241 12.0208 7.38817 11.9213 7.18909" stroke="#338ECC" stroke-linecap="round"/>
</svg>
