<svg width="16" height="16" viewBox="0 0 16 16" fill="none" xmlns="http://www.w3.org/2000/svg">
<rect y="2" width="4" height="1" fill="#338ECC"/>
<rect x="5" y="2" width="4" height="1" fill="#338ECC"/>
<rect x="10" y="2" width="4" height="1" fill="#338ECC"/>
<rect y="4" width="4" height="1" fill="#338ECC"/>
<rect x="5" y="4" width="4" height="1" fill="#338ECC"/>
<rect x="10" y="4" width="4" height="1" fill="#338ECC"/>
<rect y="6" width="4" height="1" fill="#D9D9D9"/>
<rect x="5" y="6" width="4" height="1" fill="#D9D9D9"/>
<rect x="10" y="6" width="4" height="1" fill="#D9D9D9"/>
<rect y="8" width="4" height="1" fill="#D9D9D9"/>
<rect x="5" y="8" width="4" height="1" fill="#D9D9D9"/>
<rect x="10" y="8" width="4" height="1" fill="#D9D9D9"/>
<rect y="10" width="4" height="1" fill="#D9D9D9"/>
<rect x="5" y="10" width="4" height="1" fill="#D9D9D9"/>
<rect x="10" y="10" width="4" height="1" fill="#D9D9D9"/>
<rect y="12" width="4" height="1" fill="#D9D9D9"/>
<rect x="5" y="12" width="4" height="1" fill="#D9D9D9"/>
<rect x="10" y="12" width="4" height="1" fill="#D9D9D9"/>
</svg>
