<svg width="16" height="16" viewBox="0 0 16 16" fill="none" xmlns="http://www.w3.org/2000/svg">
<path fill-rule="evenodd" clip-rule="evenodd" d="M1.3335 7.99992C1.3335 4.31992 4.32016 1.33325 8.00016 1.33325C11.6802 1.33325 14.6668 4.31992 14.6668 7.99992C14.6668 11.6799 11.6802 14.6666 8.00016 14.6666C4.32016 14.6666 1.3335 11.6799 1.3335 7.99992ZM3.80016 8.46659L6.1935 10.8599C6.4535 11.1199 6.88016 11.1199 7.1335 10.8599L12.1935 5.79992C12.4535 5.53992 12.4535 5.11992 12.1935 4.85992C11.9335 4.59992 11.5135 4.59992 11.2535 4.85992L6.66683 9.44659L4.74016 7.52659C4.48016 7.26659 4.06016 7.26659 3.80016 7.52659C3.67533 7.65114 3.60517 7.82024 3.60517 7.99659C3.60517 8.17293 3.67533 8.34203 3.80016 8.46659Z" fill="#33804C"/>
</svg>
