<?xml version="1.0" encoding="UTF-8"?>
<svg width="307px" height="71px" viewBox="0 0 307 71" version="1.1" xmlns="http://www.w3.org/2000/svg" xmlns:xlink="http://www.w3.org/1999/xlink">
    <!-- Generator: Sketch 51.2 (57519) - http://www.bohemiancoding.com/sketch -->
    <title>404-notfound</title>
    <desc>Created with Sketch.</desc>
    <defs>
        <path d="M75.5167636,29.3604689 C81.1088447,27.1584051 82.5917695,25.1706228 84.3780228,18.4159545 C86.1642762,11.6612862 87.0478564,2.65789043 112.106318,1.25031429 C137.16478,-0.157261841 271.124112,-0.157261841 301.357952,37.4877095 C339.970211,85.5648753 -5.60200739,72.24434 0.0708949592,39.4797427 C1.12821959,33.3730245 13.0994278,34.702569 36.4727019,33.803808 C47.0995263,33.3951799 69.9246825,31.5625327 75.5167636,29.3604689 Z" id="path-1"></path>
    </defs>
    <g id="404" stroke="none" stroke-width="1" fill="none" fill-rule="evenodd">
        <g id="ErrorPage2" transform="translate(-567.000000, -253.000000)">
            <g id="404-notfound" transform="translate(567.000000, 253.000000)">
                <g id="Group-3"></g>
                <path d="M75.5167636,29.3604689 C81.1088447,27.1584051 82.5917695,25.1706228 84.3780228,18.4159545 C86.1642762,11.6612862 87.0478564,2.65789043 112.106318,1.25031429 C137.16478,-0.157261841 271.124112,-0.157261841 301.357952,37.4877095 C339.970211,85.5648753 -5.60200739,72.24434 0.0708949592,39.4797427 C1.12821959,33.3730245 13.0994278,34.702569 36.4727019,33.803808 C47.0995263,33.3951799 69.9246825,31.5625327 75.5167636,29.3604689 Z" id="Path-4" fill="#0193E1"></path>
                <path d="M77.5167636,31.3604689 C83.1088447,29.1584051 84.5917695,27.1706228 86.3780228,20.4159545 C88.1642762,13.6612862 89.0478564,4.65789043 114.106318,3.25031429 C139.16478,1.84273816 273.124112,1.84273816 303.357952,39.4877095 C341.970211,87.5648753 -3.60200739,74.24434 2.07089496,41.4797427 C3.12821959,35.3730245 15.0994278,36.702569 38.4727019,35.803808 C49.0995263,35.3951799 71.9246825,33.5625327 77.5167636,31.3604689 Z" id="Path-4" fill="#43C8EC"></path>
                <ellipse id="Oval-2" fill="#43C8EC" cx="24.5" cy="18.5" rx="10.5" ry="3.5"></ellipse>
                <ellipse id="Oval-2-Copy" fill="#43C8EC" cx="45.5" cy="11.5" rx="4.5" ry="1.5"></ellipse>
                <g id="Group-4" transform="translate(2.000000, 2.000000)">
                    <mask id="mask-2" fill="white">
                        <use xlink:href="#path-1"></use>
                    </mask>
                    <use id="Path-4" fill="#43C8EC" xlink:href="#path-1"></use>
                </g>
            </g>
        </g>
    </g>
</svg>