<?xml version="1.0" encoding="UTF-8"?>
<svg width="12px" height="18px" viewBox="0 0 12 18" version="1.1" xmlns="http://www.w3.org/2000/svg" xmlns:xlink="http://www.w3.org/1999/xlink">
    <!-- Generator: Sketch 61.2 (89653) - https://sketch.com -->
    <title>Icon/job</title>
    <desc>Created with Sketch.</desc>
    <defs>
        <path d="M1.76923077,14 L3.5,14 L3.5,12.2692308 L1.76923077,12.2692308 L1.76923077,14 Z M3.88461538,14 L5.80769231,14 L5.80769231,12.2692308 L3.88461538,12.2692308 L3.88461538,14 Z M1.76923077,11.8846154 L3.5,11.8846154 L3.5,9.96153846 L1.76923077,9.96153846 L1.76923077,11.8846154 Z M3.88461538,11.8846154 L5.80769231,11.8846154 L5.80769231,9.96153846 L3.88461538,9.96153846 L3.88461538,11.8846154 Z M1.76923077,9.57692308 L3.5,9.57692308 L3.5,7.84615385 L1.76923077,7.84615385 L1.76923077,9.57692308 Z M6.19230769,14 L8.11538462,14 L8.11538462,12.2692308 L6.19230769,12.2692308 L6.19230769,14 Z M3.88461538,9.57692308 L5.80769231,9.57692308 L5.80769231,7.84615385 L3.88461538,7.84615385 L3.88461538,9.57692308 Z M8.5,14 L10.2307692,14 L10.2307692,12.2692308 L8.5,12.2692308 L8.5,14 Z M6.19230769,11.8846154 L8.11538462,11.8846154 L8.11538462,9.96153846 L6.19230769,9.96153846 L6.19230769,11.8846154 Z M4.07692308,6.69230769 L4.07692308,4.96153846 C4.07692308,4.90945513 4.05789263,4.86438301 4.01983173,4.82632212 C3.98177083,4.78826122 3.93669872,4.76923077 3.88461538,4.76923077 L3.5,4.76923077 C3.44791667,4.76923077 3.40284455,4.78826122 3.36478365,4.82632212 C3.32672276,4.86438301 3.30769231,4.90945513 3.30769231,4.96153846 L3.30769231,6.69230769 C3.30769231,6.74439103 3.32672276,6.78946314 3.36478365,6.82752404 C3.40284455,6.86558494 3.44791667,6.88461538 3.5,6.88461538 L3.88461538,6.88461538 C3.93669872,6.88461538 3.98177083,6.86558494 4.01983173,6.82752404 C4.05789263,6.78946314 4.07692308,6.74439103 4.07692308,6.69230769 Z M8.5,11.8846154 L10.2307692,11.8846154 L10.2307692,9.96153846 L8.5,9.96153846 L8.5,11.8846154 Z M6.19230769,9.57692308 L8.11538462,9.57692308 L8.11538462,7.84615385 L6.19230769,7.84615385 L6.19230769,9.57692308 Z M8.5,9.57692308 L10.2307692,9.57692308 L10.2307692,7.84615385 L8.5,7.84615385 L8.5,9.57692308 Z M8.69230769,6.69230769 L8.69230769,4.96153846 C8.69230769,4.90945513 8.67327724,4.86438301 8.63521635,4.82632212 C8.59715545,4.78826122 8.55208333,4.76923077 8.5,4.76923077 L8.11538462,4.76923077 C8.06330128,4.76923077 8.01822917,4.78826122 7.98016827,4.82632212 C7.94210737,4.86438301 7.92307692,4.90945513 7.92307692,4.96153846 L7.92307692,6.69230769 C7.92307692,6.74439103 7.94210737,6.78946314 7.98016827,6.82752404 C8.01822917,6.86558494 8.06330128,6.88461538 8.11538462,6.88461538 L8.5,6.88461538 C8.55208333,6.88461538 8.59715545,6.86558494 8.63521635,6.82752404 C8.67327724,6.78946314 8.69230769,6.74439103 8.69230769,6.69230769 Z M11,6.30769231 L11,14 C11,14.2083333 10.9238782,14.3886218 10.7716346,14.5408654 C10.619391,14.693109 10.4391026,14.7692308 10.2307692,14.7692308 L1.76923077,14.7692308 C1.56089744,14.7692308 1.38060897,14.693109 1.22836538,14.5408654 C1.07612179,14.3886218 1,14.2083333 1,14 L1,6.30769231 C1,6.09935897 1.07612179,5.91907051 1.22836538,5.76682692 C1.38060897,5.61458333 1.56089744,5.53846154 1.76923077,5.53846154 L2.53846154,5.53846154 L2.53846154,4.96153846 C2.53846154,4.69711538 2.63261218,4.47075321 2.82091346,4.28245192 C3.00921474,4.09415064 3.23557692,4 3.5,4 L3.88461538,4 C4.14903846,4 4.37540064,4.09415064 4.56370192,4.28245192 C4.75200321,4.47075321 4.84615385,4.69711538 4.84615385,4.96153846 L4.84615385,5.53846154 L7.15384615,5.53846154 L7.15384615,4.96153846 C7.15384615,4.69711538 7.24799679,4.47075321 7.43629808,4.28245192 C7.62459936,4.09415064 7.85096154,4 8.11538462,4 L8.5,4 C8.76442308,4 8.99078526,4.09415064 9.17908654,4.28245192 C9.36738782,4.47075321 9.46153846,4.69711538 9.46153846,4.96153846 L9.46153846,5.53846154 L10.2307692,5.53846154 C10.4391026,5.53846154 10.619391,5.61458333 10.7716346,5.76682692 C10.9238782,5.91907051 11,6.09935897 11,6.30769231 Z" id="path-1"></path>
    </defs>
    <g id="Icon/job" stroke="none" stroke-width="1" fill="none" fill-rule="evenodd">
        <mask id="mask-2" fill="white">
            <use xlink:href="#path-1"></use>
        </mask>
        <use id="Shape" fill="#000000" fill-rule="nonzero" xlink:href="#path-1"></use>
        <g id="Icon/color/gray" mask="url(#mask-2)" fill="#797979">
            <rect x="0" y="0" width="12" height="18"></rect>
        </g>
    </g>
</svg>