<svg width="669" height="247" viewBox="0 0 669 247" fill="none" xmlns="http://www.w3.org/2000/svg">
<path d="M0 8.00001C0 3.58173 3.58172 0 8 0H661C665.418 0 669 3.58172 669 8V239C669 243.418 665.418 247 661 247H7.99998C3.58171 247 0 243.418 0 239V8.00001Z" fill="#F6F7F9"/>
<path d="M31 19.5H342C346.142 19.5 349.5 22.8579 349.5 27V54C349.5 58.1421 346.142 61.5 342 61.5H31C26.8579 61.5 23.5 58.1421 23.5 54V27L23.5098 26.6143C23.7105 22.6514 26.9872 19.5 31 19.5Z" fill="white"/>
<path d="M31 19.5H342C346.142 19.5 349.5 22.8579 349.5 27V54C349.5 58.1421 346.142 61.5 342 61.5H31C26.8579 61.5 23.5 58.1421 23.5 54V27L23.5098 26.6143C23.7105 22.6514 26.9872 19.5 31 19.5Z" stroke="#D1D9E1"/>
<g clip-path="url(#clip0_6704_20435)">
<path fill-rule="evenodd" clip-rule="evenodd" d="M43.375 38.75C43.0298 38.75 42.75 39.0298 42.75 39.375C42.75 39.7202 43.0298 40 43.375 40C43.7202 40 44 39.7202 44 39.375C44 39.0298 43.7202 38.75 43.375 38.75ZM42 39.375C42 38.6156 42.6156 38 43.375 38C43.8884 38 44.3361 38.2814 44.5723 38.6983L46.7583 38.2231C46.8339 37.5352 47.4169 37 48.125 37C48.8844 37 49.5 37.6156 49.5 38.375C49.5 38.9384 49.1611 39.4227 48.676 39.6351L48.8171 40.7633C49.4855 40.8567 50 41.4308 50 42.125C50 42.8844 49.3844 43.5 48.625 43.5C48.1948 43.5 47.8107 43.3024 47.5586 42.9931L46.2487 43.5661C46.2496 43.5856 46.25 43.6053 46.25 43.625C46.25 44.3844 45.6344 45 44.875 45C44.1156 45 43.5 44.3844 43.5 43.625C43.5 43.1785 43.7128 42.7816 44.0426 42.5305L43.5066 40.7438C43.4633 40.7479 43.4194 40.75 43.375 40.75C42.6156 40.75 42 40.1344 42 39.375ZM44.7327 39.5939C44.7414 39.5394 44.7469 39.4839 44.749 39.4274L46.882 38.9637C47.0764 39.3734 47.4673 39.6716 47.9329 39.7367L48.0739 40.8649C47.8854 40.9474 47.719 41.071 47.586 41.2244L44.7327 39.5939ZM44.414 40.2756C44.352 40.3471 44.2827 40.4121 44.2074 40.4695L44.7434 42.2562C44.7867 42.2521 44.8306 42.25 44.875 42.25C45.3474 42.25 45.7642 42.4883 46.0117 42.8512L47.2616 42.3044C47.2539 42.2457 47.25 42.1858 47.25 42.125C47.25 42.0505 47.2559 41.9774 47.2673 41.9061L44.414 40.2756ZM48 42.125C48 41.7798 48.2798 41.5 48.625 41.5C48.9702 41.5 49.25 41.7798 49.25 42.125C49.25 42.4702 48.9702 42.75 48.625 42.75C48.2798 42.75 48 42.4702 48 42.125ZM44.875 43C44.5298 43 44.25 43.2798 44.25 43.625C44.25 43.9702 44.5298 44.25 44.875 44.25C45.2202 44.25 45.5 43.9702 45.5 43.625C45.5 43.2798 45.2202 43 44.875 43ZM47.5 38.375C47.5 38.0298 47.7798 37.75 48.125 37.75C48.4702 37.75 48.75 38.0298 48.75 38.375C48.75 38.7202 48.4702 39 48.125 39C47.7798 39 47.5 38.7202 47.5 38.375Z" fill="white"/>
</g>
<path d="M32 41C32 37.6863 34.6863 35 38 35H335C338.314 35 341 37.6863 341 41C341 44.3137 338.314 47 335 47H38C34.6863 47 32 44.3137 32 41Z" fill="#90A4B5" fill-opacity="0.16"/>
<path d="M413 19.5H551C555.142 19.5 558.5 22.8579 558.5 27V208C558.5 212.142 555.142 215.5 551 215.5H413C408.858 215.5 405.5 212.142 405.5 208V27C405.5 22.8579 408.858 19.5 413 19.5Z" fill="white"/>
<path d="M413 19.5H551C555.142 19.5 558.5 22.8579 558.5 27V208C558.5 212.142 555.142 215.5 551 215.5H413C408.858 215.5 405.5 212.142 405.5 208V27C405.5 22.8579 408.858 19.5 413 19.5Z" stroke="#D1D9E1"/>
<g filter="url(#filter0_d_6704_20435)">
<path d="M441 186C441 183.791 442.791 182 445 182H489C491.209 182 493 183.791 493 186V202C493 204.209 491.209 206 489 206H445C442.791 206 441 204.209 441 202V186Z" fill="#F6F7F9"/>
</g>
<g filter="url(#filter1_d_6704_20435)">
<path d="M499 186C499 183.791 500.791 182 503 182H547C549.209 182 551 183.791 551 186V202C551 204.209 549.209 206 547 206H503C500.791 206 499 204.209 499 202V186Z" fill="#2272B4"/>
</g>
<g clip-path="url(#clip1_6704_20435)">
<path d="M416 58C416 55.7909 417.791 54 420 54H543C545.209 54 547 55.7909 547 58V170C547 172.209 545.209 174 543 174H420C417.791 174 416 172.209 416 170V58Z" fill="#F6F7F9"/>
</g>
<path d="M420 54.5H543C544.933 54.5 546.5 56.067 546.5 58V170C546.5 171.933 544.933 173.5 543 173.5H420C418.067 173.5 416.5 171.933 416.5 170V58C416.5 56.067 418.067 54.5 420 54.5Z" stroke="#D1D9E1"/>
<path d="M416 36C416 30.4772 420.477 26 426 26C431.523 26 436 30.4772 436 36C436 41.5228 431.523 46 426 46C420.477 46 416 41.5228 416 36Z" fill="#434A93"/>
<path d="M426.548 75V66.8687H423.597V65.8403H430.643V66.8687H427.691V75H426.548ZM432.331 75V65.4404H433.436V69.1855H433.537C433.88 68.4619 434.521 68.0366 435.53 68.0366C437.066 68.0366 437.923 68.9443 437.923 70.5693V75H436.819V70.8359C436.819 69.6045 436.311 69.0142 435.219 69.0142C434.127 69.0142 433.436 69.7505 433.436 70.9502V75H432.331ZM440.507 66.8369C440.088 66.8369 439.745 66.4941 439.745 66.0752C439.745 65.6562 440.088 65.3135 440.507 65.3135C440.926 65.3135 441.269 65.6562 441.269 66.0752C441.269 66.4941 440.926 66.8369 440.507 66.8369ZM439.948 75V68.1572H441.053V75H439.948ZM445.483 75.1206C443.96 75.1206 442.913 74.3843 442.786 73.2544H443.916C444.1 73.8257 444.646 74.2002 445.521 74.2002C446.442 74.2002 447.096 73.7622 447.096 73.1401V73.1274C447.096 72.6641 446.747 72.3403 445.902 72.1372L444.842 71.8833C443.56 71.5786 442.982 71.02 442.982 70.0361V70.0298C442.982 68.8936 444.074 68.0366 445.528 68.0366C446.962 68.0366 447.959 68.7539 448.111 69.8711H447.026C446.88 69.3315 446.347 68.957 445.521 68.957C444.709 68.957 444.112 69.376 444.112 69.979V69.9917C444.112 70.4551 444.455 70.7471 445.261 70.9438L446.315 71.1978C447.604 71.5088 448.226 72.0674 448.226 73.0449V73.0576C448.226 74.2764 447.039 75.1206 445.483 75.1206ZM453.596 75V68.1572H454.7V69.1729H454.802C455.062 68.4556 455.703 68.0366 456.63 68.0366C456.839 68.0366 457.074 68.062 457.182 68.0811V69.1538C456.954 69.1157 456.744 69.0903 456.503 69.0903C455.449 69.0903 454.7 69.7568 454.7 70.7598V75H453.596ZM461.149 75.1206C459.194 75.1206 458.014 73.7495 458.014 71.604V71.5977C458.014 69.4839 459.22 68.0366 461.08 68.0366C462.939 68.0366 464.069 69.4204 464.069 71.4644V71.896H459.144C459.175 73.3115 459.956 74.1367 461.175 74.1367C462.102 74.1367 462.673 73.6987 462.857 73.2861L462.882 73.229H463.987L463.974 73.2798C463.739 74.2065 462.762 75.1206 461.149 75.1206ZM461.073 69.0205C460.058 69.0205 459.283 69.7124 459.163 71.0137H462.946C462.832 69.6616 462.083 69.0205 461.073 69.0205ZM468.132 75.1206C466.608 75.1206 465.561 74.3843 465.434 73.2544H466.564C466.748 73.8257 467.294 74.2002 468.17 74.2002C469.09 74.2002 469.744 73.7622 469.744 73.1401V73.1274C469.744 72.6641 469.395 72.3403 468.551 72.1372L467.491 71.8833C466.208 71.5786 465.631 71.02 465.631 70.0361V70.0298C465.631 68.8936 466.723 68.0366 468.176 68.0366C469.611 68.0366 470.607 68.7539 470.76 69.8711H469.674C469.528 69.3315 468.995 68.957 468.17 68.957C467.357 68.957 466.761 69.376 466.761 69.979V69.9917C466.761 70.4551 467.104 70.7471 467.91 70.9438L468.963 71.1978C470.252 71.5088 470.874 72.0674 470.874 73.0449V73.0576C470.874 74.2764 469.687 75.1206 468.132 75.1206ZM472.588 77.2852V68.1572H473.692V69.249H473.794C474.213 68.4873 474.975 68.0366 475.927 68.0366C477.66 68.0366 478.796 69.4395 478.796 71.5723V71.585C478.796 73.7305 477.666 75.1206 475.927 75.1206C474.987 75.1206 474.168 74.6509 473.794 73.9209H473.692V77.2852H472.588ZM475.673 74.1431C476.923 74.1431 477.666 73.1782 477.666 71.585V71.5723C477.666 69.979 476.923 69.0142 475.673 69.0142C474.429 69.0142 473.667 69.9917 473.667 71.5723V71.585C473.667 73.1655 474.429 74.1431 475.673 74.1431ZM483.334 75.1206C481.386 75.1206 480.18 73.7749 480.18 71.585V71.5723C480.18 69.376 481.386 68.0366 483.334 68.0366C485.283 68.0366 486.489 69.376 486.489 71.5723V71.585C486.489 73.7749 485.283 75.1206 483.334 75.1206ZM483.334 74.1431C484.629 74.1431 485.359 73.1973 485.359 71.585V71.5723C485.359 69.9536 484.629 69.0142 483.334 69.0142C482.04 69.0142 481.31 69.9536 481.31 71.5723V71.585C481.31 73.1973 482.04 74.1431 483.334 74.1431ZM488.203 75V68.1572H489.308V69.1855H489.409C489.752 68.4619 490.393 68.0366 491.402 68.0366C492.938 68.0366 493.795 68.9443 493.795 70.5693V75H492.691V70.8359C492.691 69.6045 492.183 69.0142 491.091 69.0142C490 69.0142 489.308 69.7505 489.308 70.9502V75H488.203ZM498.144 75.1206C496.62 75.1206 495.573 74.3843 495.446 73.2544H496.576C496.76 73.8257 497.306 74.2002 498.182 74.2002C499.102 74.2002 499.756 73.7622 499.756 73.1401V73.1274C499.756 72.6641 499.407 72.3403 498.562 72.1372L497.502 71.8833C496.22 71.5786 495.643 71.02 495.643 70.0361V70.0298C495.643 68.8936 496.734 68.0366 498.188 68.0366C499.623 68.0366 500.619 68.7539 500.771 69.8711H499.686C499.54 69.3315 499.007 68.957 498.182 68.957C497.369 68.957 496.772 69.376 496.772 69.979V69.9917C496.772 70.4551 497.115 70.7471 497.921 70.9438L498.975 71.1978C500.264 71.5088 500.886 72.0674 500.886 73.0449V73.0576C500.886 74.2764 499.699 75.1206 498.144 75.1206ZM505.393 75.1206C503.438 75.1206 502.257 73.7495 502.257 71.604V71.5977C502.257 69.4839 503.463 68.0366 505.323 68.0366C507.183 68.0366 508.312 69.4204 508.312 71.4644V71.896H503.387C503.418 73.3115 504.199 74.1367 505.418 74.1367C506.345 74.1367 506.916 73.6987 507.1 73.2861L507.125 73.229H508.23L508.217 73.2798C507.982 74.2065 507.005 75.1206 505.393 75.1206ZM505.316 69.0205C504.301 69.0205 503.526 69.7124 503.406 71.0137H507.189C507.075 69.6616 506.326 69.0205 505.316 69.0205ZM426.555 95.1206C424.822 95.1206 423.686 93.7178 423.686 91.585V91.5723C423.686 89.4268 424.815 88.0366 426.555 88.0366C427.494 88.0366 428.313 88.5063 428.688 89.2363H428.789V85.4404H429.894V95H428.789V93.9082H428.688C428.269 94.6699 427.507 95.1206 426.555 95.1206ZM426.809 94.1431C428.053 94.1431 428.814 93.1655 428.814 91.585V91.5723C428.814 89.9917 428.053 89.0142 426.809 89.0142C425.558 89.0142 424.815 89.979 424.815 91.5723V91.585C424.815 93.1782 425.558 94.1431 426.809 94.1431ZM434.826 95.1206C432.877 95.1206 431.671 93.7749 431.671 91.585V91.5723C431.671 89.376 432.877 88.0366 434.826 88.0366C436.774 88.0366 437.98 89.376 437.98 91.5723V91.585C437.98 93.7749 436.774 95.1206 434.826 95.1206ZM434.826 94.1431C436.121 94.1431 436.851 93.1973 436.851 91.585V91.5723C436.851 89.9536 436.121 89.0142 434.826 89.0142C433.531 89.0142 432.801 89.9536 432.801 91.5723V91.585C432.801 93.1973 433.531 94.1431 434.826 94.1431ZM442.487 95.1206C440.532 95.1206 439.352 93.7495 439.352 91.604V91.5977C439.352 89.4839 440.558 88.0366 442.417 88.0366C444.277 88.0366 445.407 89.4204 445.407 91.4644V91.896H440.481C440.513 93.3115 441.294 94.1367 442.513 94.1367C443.439 94.1367 444.011 93.6987 444.195 93.2861L444.22 93.229H445.325L445.312 93.2798C445.077 94.2065 444.1 95.1206 442.487 95.1206ZM442.411 89.0205C441.396 89.0205 440.621 89.7124 440.5 91.0137H444.284C444.169 89.6616 443.42 89.0205 442.411 89.0205ZM449.47 95.1206C447.946 95.1206 446.899 94.3843 446.772 93.2544H447.902C448.086 93.8257 448.632 94.2002 449.508 94.2002C450.428 94.2002 451.082 93.7622 451.082 93.1401V93.1274C451.082 92.6641 450.733 92.3403 449.889 92.1372L448.829 91.8833C447.546 91.5786 446.969 91.02 446.969 90.0361V90.0298C446.969 88.8936 448.061 88.0366 449.514 88.0366C450.949 88.0366 451.945 88.7539 452.098 89.8711H451.012C450.866 89.3315 450.333 88.957 449.508 88.957C448.695 88.957 448.099 89.376 448.099 89.979V89.9917C448.099 90.4551 448.441 90.7471 449.248 90.9438L450.301 91.1978C451.59 91.5088 452.212 92.0674 452.212 93.0449V93.0576C452.212 94.2764 451.025 95.1206 449.47 95.1206ZM457.582 95V88.1572H458.687V89.1855H458.788C459.131 88.4619 459.772 88.0366 460.781 88.0366C462.317 88.0366 463.174 88.9443 463.174 90.5693V95H462.07V90.8359C462.07 89.6045 461.562 89.0142 460.47 89.0142C459.378 89.0142 458.687 89.7505 458.687 90.9502V95H457.582ZM467.986 95.1206C466.037 95.1206 464.831 93.7749 464.831 91.585V91.5723C464.831 89.376 466.037 88.0366 467.986 88.0366C469.935 88.0366 471.141 89.376 471.141 91.5723V91.585C471.141 93.7749 469.935 95.1206 467.986 95.1206ZM467.986 94.1431C469.281 94.1431 470.011 93.1973 470.011 91.585V91.5723C470.011 89.9536 469.281 89.0142 467.986 89.0142C466.691 89.0142 465.961 89.9536 465.961 91.5723V91.585C465.961 93.1973 466.691 94.1431 467.986 94.1431ZM475.286 95.0508C473.876 95.0508 473.286 94.5303 473.286 93.2227V89.0713H472.207V88.1572H473.286V86.3862H474.429V88.1572H475.927V89.0713H474.429V92.9434C474.429 93.7495 474.708 94.0732 475.419 94.0732C475.616 94.0732 475.724 94.0669 475.927 94.0479V94.9873C475.711 95.0254 475.501 95.0508 475.286 95.0508ZM483.582 95.1206C482.059 95.1206 481.011 94.3843 480.884 93.2544H482.014C482.198 93.8257 482.744 94.2002 483.62 94.2002C484.541 94.2002 485.194 93.7622 485.194 93.1401V93.1274C485.194 92.6641 484.845 92.3403 484.001 92.1372L482.941 91.8833C481.659 91.5786 481.081 91.02 481.081 90.0361V90.0298C481.081 88.8936 482.173 88.0366 483.626 88.0366C485.061 88.0366 486.058 88.7539 486.21 89.8711H485.125C484.979 89.3315 484.445 88.957 483.62 88.957C482.808 88.957 482.211 89.376 482.211 89.979V89.9917C482.211 90.4551 482.554 90.7471 483.36 90.9438L484.414 91.1978C485.702 91.5088 486.324 92.0674 486.324 93.0449V93.0576C486.324 94.2764 485.137 95.1206 483.582 95.1206ZM490.831 95.1206C488.876 95.1206 487.695 93.7495 487.695 91.604V91.5977C487.695 89.4839 488.901 88.0366 490.761 88.0366C492.621 88.0366 493.751 89.4204 493.751 91.4644V91.896H488.825C488.857 93.3115 489.638 94.1367 490.856 94.1367C491.783 94.1367 492.354 93.6987 492.539 93.2861L492.564 93.229H493.668L493.656 93.2798C493.421 94.2065 492.443 95.1206 490.831 95.1206ZM490.755 89.0205C489.739 89.0205 488.965 89.7124 488.844 91.0137H492.627C492.513 89.6616 491.764 89.0205 490.755 89.0205ZM498.258 95.1206C496.303 95.1206 495.122 93.7495 495.122 91.604V91.5977C495.122 89.4839 496.328 88.0366 498.188 88.0366C500.048 88.0366 501.178 89.4204 501.178 91.4644V91.896H496.252C496.284 93.3115 497.064 94.1367 498.283 94.1367C499.21 94.1367 499.781 93.6987 499.965 93.2861L499.991 93.229H501.095L501.083 93.2798C500.848 94.2065 499.87 95.1206 498.258 95.1206ZM498.182 89.0205C497.166 89.0205 496.392 89.7124 496.271 91.0137H500.054C499.94 89.6616 499.191 89.0205 498.182 89.0205ZM502.892 95V88.1572H503.996V89.1982H504.098C504.402 88.4619 505.05 88.0366 505.945 88.0366C506.872 88.0366 507.519 88.5254 507.836 89.2363H507.938C508.306 88.5127 509.087 88.0366 510.033 88.0366C511.429 88.0366 512.21 88.8364 512.21 90.271V95H511.105V90.5249C511.105 89.5156 510.642 89.0142 509.677 89.0142C508.725 89.0142 508.097 89.7314 508.097 90.6011V95H506.992V90.3535C506.992 89.541 506.434 89.0142 505.57 89.0142C504.675 89.0142 503.996 89.7949 503.996 90.7598V95H502.892ZM426.828 115.121C424.911 115.121 423.686 113.73 423.686 111.56V111.547C423.686 109.42 424.904 108.037 426.821 108.037C428.484 108.037 429.481 108.995 429.684 110.214L429.69 110.252H428.592L428.586 110.233C428.415 109.56 427.805 109.014 426.821 109.014C425.59 109.014 424.815 110.004 424.815 111.547V111.56C424.815 113.134 425.603 114.143 426.821 114.143C427.742 114.143 428.326 113.737 428.58 112.975L428.592 112.937L429.684 112.931L429.671 113C429.392 114.238 428.472 115.121 426.828 115.121ZM434.115 115.121C432.166 115.121 430.96 113.775 430.96 111.585V111.572C430.96 109.376 432.166 108.037 434.115 108.037C436.063 108.037 437.27 109.376 437.27 111.572V111.585C437.27 113.775 436.063 115.121 434.115 115.121ZM434.115 114.143C435.41 114.143 436.14 113.197 436.14 111.585V111.572C436.14 109.954 435.41 109.014 434.115 109.014C432.82 109.014 432.09 109.954 432.09 111.572V111.585C432.09 113.197 432.82 114.143 434.115 114.143ZM438.983 115V108.157H440.088V109.173H440.189C440.45 108.456 441.091 108.037 442.018 108.037C442.227 108.037 442.462 108.062 442.57 108.081V109.154C442.341 109.116 442.132 109.09 441.891 109.09C440.837 109.09 440.088 109.757 440.088 110.76V115H438.983ZM444.062 115V108.157H445.166V109.173H445.268C445.528 108.456 446.169 108.037 447.096 108.037C447.305 108.037 447.54 108.062 447.648 108.081V109.154C447.419 109.116 447.21 109.09 446.969 109.09C445.915 109.09 445.166 109.757 445.166 110.76V115H444.062ZM451.615 115.121C449.66 115.121 448.479 113.75 448.479 111.604V111.598C448.479 109.484 449.686 108.037 451.545 108.037C453.405 108.037 454.535 109.42 454.535 111.464V111.896H449.609C449.641 113.312 450.422 114.137 451.641 114.137C452.567 114.137 453.139 113.699 453.323 113.286L453.348 113.229H454.453L454.44 113.28C454.205 114.207 453.228 115.121 451.615 115.121ZM451.539 109.021C450.523 109.021 449.749 109.712 449.628 111.014H453.412C453.297 109.662 452.548 109.021 451.539 109.021ZM459.048 115.121C457.131 115.121 455.906 113.73 455.906 111.56V111.547C455.906 109.42 457.125 108.037 459.042 108.037C460.705 108.037 461.702 108.995 461.905 110.214L461.911 110.252H460.813L460.807 110.233C460.635 109.56 460.026 109.014 459.042 109.014C457.811 109.014 457.036 110.004 457.036 111.547V111.56C457.036 113.134 457.823 114.143 459.042 114.143C459.962 114.143 460.546 113.737 460.8 112.975L460.813 112.937L461.905 112.931L461.892 113C461.613 114.238 460.692 115.121 459.048 115.121ZM466.082 115.051C464.672 115.051 464.082 114.53 464.082 113.223V109.071H463.003V108.157H464.082V106.386H465.225V108.157H466.723V109.071H465.225V112.943C465.225 113.75 465.504 114.073 466.215 114.073C466.412 114.073 466.52 114.067 466.723 114.048V114.987C466.507 115.025 466.297 115.051 466.082 115.051ZM469.274 115.063C468.824 115.063 468.449 114.689 468.449 114.238C468.449 113.781 468.824 113.413 469.274 113.413C469.731 113.413 470.1 113.781 470.1 114.238C470.1 114.689 469.731 115.063 469.274 115.063ZM473.134 115.063C472.683 115.063 472.309 114.689 472.309 114.238C472.309 113.781 472.683 113.413 473.134 113.413C473.591 113.413 473.959 113.781 473.959 114.238C473.959 114.689 473.591 115.063 473.134 115.063ZM476.993 115.063C476.542 115.063 476.168 114.689 476.168 114.238C476.168 113.781 476.542 113.413 476.993 113.413C477.45 113.413 477.818 113.781 477.818 114.238C477.818 114.689 477.45 115.063 476.993 115.063Z" fill="#5F7281"/>
<path d="M31 69.5H342C346.142 69.5 349.5 72.8579 349.5 77V208C349.5 212.142 346.142 215.5 342 215.5H31C26.8579 215.5 23.5 212.142 23.5 208V77C23.5 72.8579 26.8579 69.5 31 69.5Z" fill="white"/>
<path d="M31 69.5H342C346.142 69.5 349.5 72.8579 349.5 77V208C349.5 212.142 346.142 215.5 342 215.5H31C26.8579 215.5 23.5 212.142 23.5 208V77C23.5 72.8579 26.8579 69.5 31 69.5Z" stroke="#0E538B"/>
<g clip-path="url(#clip2_6704_20435)">
<path d="M36 97C36 94.7909 37.7909 93 40 93H311C313.209 93 315 94.7909 315 97C315 99.2091 313.209 101 311 101H40C37.7909 101 36 99.2091 36 97Z" fill="#90A4B5" fill-opacity="0.16"/>
<path d="M36 117C36 114.791 37.7909 113 40 113H335C337.209 113 339 114.791 339 117C339 119.209 337.209 121 335 121H40C37.7909 121 36 119.209 36 117Z" fill="#90A4B5" fill-opacity="0.16"/>
<path d="M36 137C36 134.791 37.7909 133 40 133H287C289.209 133 291 134.791 291 137C291 139.209 289.209 141 287 141H40C37.7909 141 36 139.209 36 137Z" fill="#90A4B5" fill-opacity="0.16"/>
</g>
<path d="M360 117C360 110.373 365.373 105 372 105C378.627 105 384 110.373 384 117C384 123.627 378.627 129 372 129C365.373 129 360 123.627 360 117Z" fill="#434A93"/>
<path d="M368.602 121V112.545H371.771C374.285 112.545 375.75 114.08 375.75 116.729V116.74C375.75 119.447 374.303 121 371.771 121H368.602ZM370.113 119.729H371.572C373.254 119.729 374.209 118.662 374.209 116.764V116.752C374.209 114.895 373.23 113.816 371.572 113.816H370.113V119.729Z" fill="white"/>
<g filter="url(#filter2_d_6704_20435)">
<path d="M346 91V107.015L349.225 103.884L351.479 109.224L355.084 107.689L352.984 102.619H357.591L346 91Z" fill="white"/>
<path d="M347 104.595V93.407L355.165 101.59H351.471L353.751 107.008L351.907 107.782L349.537 102.146L347 104.595Z" fill="black"/>
</g>
<defs>
<filter id="filter0_d_6704_20435" x="441" y="182" width="52" height="25" filterUnits="userSpaceOnUse" color-interpolation-filters="sRGB">
<feFlood flood-opacity="0" result="BackgroundImageFix"/>
<feColorMatrix in="SourceAlpha" type="matrix" values="0 0 0 0 0 0 0 0 0 0 0 0 0 0 0 0 0 0 127 0" result="hardAlpha"/>
<feOffset dy="1"/>
<feComposite in2="hardAlpha" operator="out"/>
<feColorMatrix type="matrix" values="0 0 0 0 0 0 0 0 0 0 0 0 0 0 0 0 0 0 0.05 0"/>
<feBlend mode="normal" in2="BackgroundImageFix" result="effect1_dropShadow_6704_20435"/>
<feBlend mode="normal" in="SourceGraphic" in2="effect1_dropShadow_6704_20435" result="shape"/>
</filter>
<filter id="filter1_d_6704_20435" x="499" y="182" width="52" height="25" filterUnits="userSpaceOnUse" color-interpolation-filters="sRGB">
<feFlood flood-opacity="0" result="BackgroundImageFix"/>
<feColorMatrix in="SourceAlpha" type="matrix" values="0 0 0 0 0 0 0 0 0 0 0 0 0 0 0 0 0 0 127 0" result="hardAlpha"/>
<feOffset dy="1"/>
<feComposite in2="hardAlpha" operator="out"/>
<feColorMatrix type="matrix" values="0 0 0 0 0 0 0 0 0 0 0 0 0 0 0 0 0 0 0.05 0"/>
<feBlend mode="normal" in2="BackgroundImageFix" result="effect1_dropShadow_6704_20435"/>
<feBlend mode="normal" in="SourceGraphic" in2="effect1_dropShadow_6704_20435" result="shape"/>
</filter>
<filter id="filter2_d_6704_20435" x="343.4" y="89.4" width="16.7908" height="24.2" filterUnits="userSpaceOnUse" color-interpolation-filters="sRGB">
<feFlood flood-opacity="0" result="BackgroundImageFix"/>
<feColorMatrix in="SourceAlpha" type="matrix" values="0 0 0 0 0 0 0 0 0 0 0 0 0 0 0 0 0 0 127 0" result="hardAlpha"/>
<feOffset dy="1"/>
<feGaussianBlur stdDeviation="1.3"/>
<feColorMatrix type="matrix" values="0 0 0 0 0 0 0 0 0 0 0 0 0 0 0 0 0 0 0.32 0"/>
<feBlend mode="normal" in2="BackgroundImageFix" result="effect1_dropShadow_6704_20435"/>
<feBlend mode="normal" in="SourceGraphic" in2="effect1_dropShadow_6704_20435" result="shape"/>
</filter>
<clipPath id="clip0_6704_20435">
<rect width="8" height="8" fill="white" transform="translate(42 37)"/>
</clipPath>
<clipPath id="clip1_6704_20435">
<path d="M416 58C416 55.7909 417.791 54 420 54H543C545.209 54 547 55.7909 547 58V170C547 172.209 545.209 174 543 174H420C417.791 174 416 172.209 416 170V58Z" fill="white"/>
</clipPath>
<clipPath id="clip2_6704_20435">
<rect x="36" y="87" width="303" height="60" rx="4" fill="white"/>
</clipPath>
</defs>
</svg>
