<svg width="16" height="16" viewBox="0 0 16 16" fill="none" xmlns="http://www.w3.org/2000/svg">
<path d="M8.66667 2C8.66667 1.63181 8.36819 1.33333 8 1.33333C7.63181 1.33333 7.33333 1.63181 7.33333 2H8.66667ZM7.33333 4.66667C7.33333 5.03486 7.63181 5.33333 8 5.33333C8.36819 5.33333 8.66667 5.03486 8.66667 4.66667H7.33333ZM7.33333 2V4.66667H8.66667V2H7.33333Z" fill="#64727D"/>
<path d="M8.66667 11.3333C8.66667 10.9651 8.36819 10.6666 8 10.6666C7.63181 10.6666 7.33333 10.9651 7.33333 11.3333H8.66667ZM7.33333 13.9999C7.33333 14.3681 7.63181 14.6666 8 14.6666C8.36819 14.6666 8.66667 14.3681 8.66667 13.9999H7.33333ZM7.33333 11.3333V13.9999H8.66667V11.3333H7.33333Z" fill="#64727D"/>
<path d="M14 8.66667C14.3682 8.66667 14.6667 8.36819 14.6667 8C14.6667 7.63181 14.3682 7.33333 14 7.33333L14 8.66667ZM11.3333 7.33333C10.9651 7.33333 10.6667 7.63181 10.6667 8C10.6667 8.36819 10.9651 8.66667 11.3333 8.66667L11.3333 7.33333ZM14 7.33333L11.3333 7.33333L11.3333 8.66667L14 8.66667L14 7.33333Z" fill="#64727D"/>
<path d="M4.6665 8.66667C5.03469 8.66667 5.33317 8.36819 5.33317 8C5.33317 7.63181 5.03469 7.33333 4.6665 7.33333L4.6665 8.66667ZM1.99984 7.33333C1.63165 7.33333 1.33317 7.63181 1.33317 8C1.33317 8.36819 1.63165 8.66667 1.99984 8.66667L1.99984 7.33333ZM4.6665 7.33333L1.99984 7.33333L1.99984 8.66667L4.6665 8.66667L4.6665 7.33333Z" fill="#64727D"/>
<path d="M12.7141 4.22873C12.9744 3.96838 12.9744 3.54627 12.7141 3.28592C12.4537 3.02557 12.0316 3.02557 11.7713 3.28592L12.7141 4.22873ZM9.88565 5.17154C9.6253 5.43189 9.6253 5.854 9.88565 6.11435C10.146 6.3747 10.5681 6.3747 10.8285 6.11435L9.88565 5.17154ZM11.7713 3.28592L9.88565 5.17154L10.8285 6.11435L12.7141 4.22873L11.7713 3.28592Z" fill="#64727D"/>
<path d="M6.11447 10.8283C6.37482 10.568 6.37482 10.1459 6.11447 9.88553C5.85412 9.62518 5.43201 9.62518 5.17166 9.88553L6.11447 10.8283ZM3.28604 11.7711C3.02569 12.0315 3.02569 12.4536 3.28604 12.714C3.54639 12.9743 3.9685 12.9743 4.22885 12.714L3.28604 11.7711ZM5.17166 9.88553L3.28604 11.7711L4.22885 12.714L6.11447 10.8283L5.17166 9.88553Z" fill="#64727D"/>
<path d="M11.7713 12.7138C12.0316 12.9742 12.4537 12.9742 12.7141 12.7138C12.9744 12.4535 12.9744 12.0314 12.7141 11.771L11.7713 12.7138ZM10.8285 9.88541C10.5681 9.62506 10.146 9.62506 9.88565 9.88541C9.6253 10.1458 9.6253 10.5679 9.88565 10.8282L10.8285 9.88541ZM12.7141 11.771L10.8285 9.88541L9.88565 10.8282L11.7713 12.7138L12.7141 11.771Z" fill="#64727D"/>
<path fill-rule="evenodd" clip-rule="evenodd" d="M6.11404 6.11423C5.8537 6.37458 5.43159 6.37458 5.17124 6.11423L3.28562 4.22861C3.02527 3.96826 3.02527 3.54615 3.28562 3.2858C3.54597 3.02545 3.96808 3.02545 4.22843 3.2858L6.11404 5.17142C6.37439 5.43177 6.37439 5.85388 6.11404 6.11423Z" fill="#64727D"/>
</svg>
