<svg width="24" height="24" viewBox="0 0 24 24" fill="none" xmlns="http://www.w3.org/2000/svg">
<path d="M4 22C5.38071 22 6.5 20.8807 6.5 19.5C6.5 18.1193 5.38071 17 4 17C2.61929 17 1.5 18.1193 1.5 19.5C1.5 20.8807 2.61929 22 4 22Z" stroke="#ACBAC0" stroke-width="2" stroke-linecap="round" stroke-linejoin="round"/>
<path d="M12 22C13.3807 22 14.5 20.8807 14.5 19.5C14.5 18.1193 13.3807 17 12 17C10.6193 17 9.5 18.1193 9.5 19.5C9.5 20.8807 10.6193 22 12 22Z" stroke="#ACBAC0" stroke-width="2" stroke-linecap="round" stroke-linejoin="round"/>
<path d="M12 7C13.3807 7 14.5 5.88071 14.5 4.5C14.5 3.11929 13.3807 2 12 2C10.6193 2 9.5 3.11929 9.5 4.5C9.5 5.88071 10.6193 7 12 7Z" stroke="#ACBAC0" stroke-width="2" stroke-linecap="round" stroke-linejoin="round"/>
<path d="M20 22C21.3807 22 22.5 20.8807 22.5 19.5C22.5 18.1193 21.3807 17 20 17C18.6193 17 17.5 18.1193 17.5 19.5C17.5 20.8807 18.6193 22 20 22Z" stroke="#ACBAC0" stroke-width="2" stroke-linecap="round" stroke-linejoin="round"/>
<path d="M4 16.5L4 13.9118C4 13.1353 4.61579 12.5 5.36842 12.5L18.6316 12.5C19.3842 12.5 20 13.1353 20 13.9118L20 16.5" stroke="#ACBAC0" stroke-width="2" stroke-linecap="round" stroke-linejoin="round"/>
<path d="M12 16.5L12 7.5" stroke="#ACBAC0" stroke-width="2" stroke-linecap="round"/>
</svg>
