<?xml version="1.0" encoding="UTF-8"?>
<svg width="12px" height="18px" viewBox="0 0 12 18" version="1.1" xmlns="http://www.w3.org/2000/svg" xmlns:xlink="http://www.w3.org/1999/xlink">
    <!-- Generator: Sketch 51.2 (57519) - http://www.bohemiancoding.com/sketch -->
    <title>Icon/notebook</title>
    <desc>Created with Sketch.</desc>
    <defs>
        <path d="M8.42857143,11.4464286 L8.42857143,11.9107143 C8.42857143,11.978423 8.40680825,12.03404 8.36328125,12.077567 C8.31975425,12.121094 8.26413724,12.1428571 8.19642857,12.1428571 L3.08928571,12.1428571 C3.02157704,12.1428571 2.96596004,12.121094 2.92243304,12.077567 C2.87890603,12.03404 2.85714286,11.978423 2.85714286,11.9107143 L2.85714286,11.4464286 C2.85714286,11.3787199 2.87890603,11.3231029 2.92243304,11.2795759 C2.96596004,11.2360489 3.02157704,11.2142857 3.08928571,11.2142857 L8.19642857,11.2142857 C8.26413724,11.2142857 8.31975425,11.2360489 8.36328125,11.2795759 C8.40680825,11.3231029 8.42857143,11.3787199 8.42857143,11.4464286 Z M8.42857143,9.58928571 L8.42857143,10.0535714 C8.42857143,10.1212801 8.40680825,10.1768971 8.36328125,10.2204241 C8.31975425,10.2639511 8.26413724,10.2857143 8.19642857,10.2857143 L3.08928571,10.2857143 C3.02157704,10.2857143 2.96596004,10.2639511 2.92243304,10.2204241 C2.87890603,10.1768971 2.85714286,10.1212801 2.85714286,10.0535714 L2.85714286,9.58928571 C2.85714286,9.52157704 2.87890603,9.46596004 2.92243304,9.42243304 C2.96596004,9.37890603 3.02157704,9.35714286 3.08928571,9.35714286 L8.19642857,9.35714286 C8.26413724,9.35714286 8.31975425,9.37890603 8.36328125,9.42243304 C8.40680825,9.46596004 8.42857143,9.52157704 8.42857143,9.58928571 Z M1.92857143,14 L9.35714286,14 L9.35714286,8.42857143 L6.33928571,8.42857143 C6.14583237,8.42857143 5.98139949,8.36086377 5.84598214,8.22544643 C5.7105648,8.09002908 5.64285714,7.92559621 5.64285714,7.73214286 L5.64285714,4.71428571 L1.92857143,4.71428571 L1.92857143,14 Z M6.57142857,7.5 L9.29910714,7.5 C9.25074381,7.35974632 9.19754493,7.26060297 9.13950893,7.20256696 L6.86886161,4.93191964 C6.8108256,4.87388364 6.71168225,4.82068477 6.57142857,4.77232143 L6.57142857,7.5 Z M10.2857143,7.73214286 L10.2857143,14.2321429 C10.2857143,14.4255962 10.2180066,14.5900291 10.0825893,14.7254464 C9.94717194,14.8608638 9.78273906,14.9285714 9.58928571,14.9285714 L1.69642857,14.9285714 C1.50297522,14.9285714 1.33854234,14.8608638 1.203125,14.7254464 C1.06770766,14.5900291 1,14.4255962 1,14.2321429 L1,4.48214286 C1,4.28868951 1.06770766,4.12425663 1.203125,3.98883929 C1.33854234,3.85342194 1.50297522,3.78571429 1.69642857,3.78571429 L6.33928571,3.78571429 C6.53273906,3.78571429 6.74553455,3.8340769 6.97767857,3.93080357 C7.20982259,4.02753025 7.39360051,4.14360051 7.52901786,4.27901786 L9.79241071,6.54241071 C9.92782806,6.67782806 10.0438983,6.86160598 10.140625,7.09375 C10.2373517,7.32589402 10.2857143,7.53868951 10.2857143,7.73214286 Z" id="path-1"></path>
    </defs>
    <g id="Icon/notebook" stroke="none" stroke-width="1" fill="none" fill-rule="evenodd">
        <mask id="mask-2" fill="white">
            <use xlink:href="#path-1"></use>
        </mask>
        <use id="Mask" fill="#797979" xlink:href="#path-1"></use>
        <g id="Icon/color/gray" mask="url(#mask-2)"></g>
    </g>
</svg>