<?xml version="1.0" encoding="UTF-8"?>
<svg width="12px" height="18px" viewBox="0 0 12 18" version="1.1" xmlns="http://www.w3.org/2000/svg" xmlns:xlink="http://www.w3.org/1999/xlink">
    <!-- Generator: Sketch 51.2 (57519) - http://www.bohemiancoding.com/sketch -->
    <title>Icon/MLflowProjectFolder</title>
    <desc>Created with Sketch.</desc>
    <defs>
        <path d="M11.1428571,12.375 L11.1428571,7.26785714 C11.1428571,7.07440379 11.0751495,6.90997092 10.9397321,6.77455357 C10.8043148,6.63913623 10.6398819,6.57142857 10.4464286,6.57142857 L5.33928571,6.57142857 C5.14583237,6.57142857 4.98139949,6.50372092 4.84598214,6.36830357 C4.7105648,6.23288623 4.64285714,6.06845335 4.64285714,5.875 L4.64285714,5.41071429 C4.64285714,5.21726094 4.57514949,5.05282806 4.43973214,4.91741071 C4.3043148,4.78199337 4.13988192,4.71428571 3.94642857,4.71428571 L1.625,4.71428571 C1.43154665,4.71428571 1.26711377,4.78199337 1.13169643,4.91741071 C0.996279085,5.05282806 0.928571429,5.21726094 0.928571429,5.41071429 L0.928571429,12.375 C0.928571429,12.5684533 0.996279085,12.7328862 1.13169643,12.8683036 C1.26711377,13.0037209 1.43154665,13.0714286 1.625,13.0714286 L10.4464286,13.0714286 C10.6398819,13.0714286 10.8043148,13.0037209 10.9397321,12.8683036 C11.0751495,12.7328862 11.1428571,12.5684533 11.1428571,12.375 Z M12.0714286,7.26785714 L12.0714286,12.375 C12.0714286,12.8199427 11.911832,13.2020073 11.5926339,13.5212054 C11.2734359,13.8404034 10.8913713,14 10.4464286,14 L1.625,14 C1.1800573,14 0.797992667,13.8404034 0.478794643,13.5212054 C0.159596618,13.2020073 0,12.8199427 0,12.375 L0,5.41071429 C0,4.96577158 0.159596618,4.58370695 0.478794643,4.26450893 C0.797992667,3.9453109 1.1800573,3.78571429 1.625,3.78571429 L3.94642857,3.78571429 C4.39137127,3.78571429 4.7734359,3.9453109 5.09263393,4.26450893 C5.41183195,4.58370695 5.57142857,4.96577158 5.57142857,5.41071429 L5.57142857,5.64285714 L10.4464286,5.64285714 C10.8913713,5.64285714 11.2734359,5.80245376 11.5926339,6.12165179 C11.911832,6.44084981 12.0714286,6.82291444 12.0714286,7.26785714 Z" id="path-1"></path>
    </defs>
    <g id="Icon/MLflowProjectFolder" stroke="none" stroke-width="1" fill="none" fill-rule="evenodd">
        <g id="Icon/folder/lineclose">
            <mask id="mask-2" fill="white">
                <use xlink:href="#path-1"></use>
            </mask>
            <use id="Mask" fill="#797979" fill-rule="evenodd" xlink:href="#path-1"></use>
            <g id="Icon/color/gray" mask="url(#mask-2)"></g>
        </g>
    </g>
</svg>