<svg width="19" height="16" viewBox="0 0 19 16" fill="none" xmlns="http://www.w3.org/2000/svg">
    <g clip-path="url(#clip0_0_3)">
        <mask id="mask0_0_3" style="mask-type:luminance" maskUnits="userSpaceOnUse" x="0" y="0" width="16" height="16">
            <path d="M16 0H0V16H16V0Z" fill="white" />
        </mask>
        <g mask="url(#mask0_0_3)">
            <path fill-rule="evenodd" clip-rule="evenodd"
                d="M2.75 3.49999C2.05964 3.49999 1.5 4.05963 1.5 4.74999C1.5 5.44034 2.05964 5.99999 2.75 5.99999C3.44036 5.99999 4 5.44034 4 4.74999C4 4.05963 3.44036 3.49999 2.75 3.49999ZM0 4.74999C0 3.2312 1.23122 1.99999 2.75 1.99999C3.77682 1.99999 4.6722 2.56276 5.14452 3.39669L9.51655 2.44626C9.66772 1.0704 10.8338 0 12.25 0C13.7688 0 15 1.23122 15 2.75C15 3.87686 14.3222 4.84541 13.3521 5.27025L13.6341 7.52661C14.9711 7.71349 16 8.86158 16 10.25C16 11.7688 14.7687 13 13.25 13C12.3895 13 11.6214 12.6048 11.1172 11.9861L8.49749 13.1322C8.49913 13.1713 8.49997 13.2105 8.49997 13.25C8.49996 14.7688 7.26875 16 5.74997 16C4.23118 16 2.99997 14.7688 2.99996 13.25C2.99997 12.3569 3.42568 11.5633 4.08524 11.0609L3.01322 7.48755C2.92659 7.49578 2.83878 7.49999 2.75 7.49999C1.23122 7.49999 0 6.26877 0 4.74999ZM5.46534 5.18782C5.48277 5.07884 5.4938 4.96773 5.49804 4.85488L9.76409 3.92748C10.1528 4.74671 10.9346 5.34321 11.8658 5.47338L12.1478 7.72974C11.7709 7.89483 11.438 8.14204 11.1719 8.44873L5.46534 5.18782ZM4.82802 6.55126C4.70399 6.69422 4.56546 6.82424 4.41471 6.93906L5.48674 10.5124C5.57337 10.5042 5.66118 10.5 5.74997 10.5C6.69483 10.5 7.52839 10.9765 8.02345 11.7023L10.5231 10.6087C10.5079 10.4913 10.5 10.3716 10.5 10.25C10.5 10.101 10.5118 9.95475 10.5346 9.81218L4.82802 6.55126ZM12 10.25C12 9.55963 12.5596 8.99999 13.25 8.99999C13.9403 8.99999 14.5 9.55963 14.5 10.25C14.5 10.9403 13.9403 11.5 13.25 11.5C12.5596 11.5 12 10.9403 12 10.25ZM5.74997 12C5.05961 12 4.49997 12.5596 4.49997 13.25C4.49997 13.9403 5.05961 14.5 5.74997 14.5C6.44032 14.5 6.99997 13.9403 6.99997 13.25C6.99997 12.5596 6.44032 12 5.74997 12ZM11 2.75C11 2.05964 11.5596 1.5 12.25 1.5C12.9403 1.5 13.5 2.05964 13.5 2.75C13.5 3.44036 12.9403 4 12.25 4C11.5596 4 11 3.44036 11 2.75Z"
                fill="currentColor" />
        </g>
        <path
            d="M13.5 14C15.433 14 17 12.433 17 10.5C17 8.567 15.433 7 13.5 7C11.567 7 10 8.567 10 10.5C10 12.433 11.567 14 13.5 14Z"
            fill="white" />
        <path fill-rule="evenodd" clip-rule="evenodd"
            d="M11.125 11C11.125 9.41218 12.4122 8.125 14 8.125C15.5878 8.125 16.875 9.41218 16.875 11C16.875 12.5878 15.5878 13.875 14 13.875C12.4122 13.875 11.125 12.5878 11.125 11ZM14 6.625C11.5838 6.625 9.625 8.58375 9.625 11C9.625 13.4162 11.5838 15.375 14 15.375C16.4162 15.375 18.375 13.4162 18.375 11C18.375 8.58375 16.4162 6.625 14 6.625ZM14.0303 12.5303L16.0303 10.5303L14.9697 9.46967L13.5 10.9393L13.0303 10.4697L11.9697 11.5303L12.9697 12.5303L13.5 13.0607L14.0303 12.5303Z"
            fill="#3BA65E" />
    </g>
    <defs>
        <clipPath id="clip0_0_3">
            <rect width="19" height="16" fill="white" />
        </clipPath>
    </defs>
</svg>
