<svg width="13" height="13" viewBox="0 0 13 13" fill="none" xmlns="http://www.w3.org/2000/svg">
<path fill-rule="evenodd" clip-rule="evenodd" d="M10.6314 0.851005C11.1129 0.851005 11.502 1.24528 11.502 1.73324C11.502 2.2212 11.1129 2.61548 10.6314 2.61548C10.1498 2.61548 9.76074 2.2212 9.76074 1.73324C9.76074 1.24528 10.1498 0.851005 10.6314 0.851005ZM9.20452 2.68869C9.32444 2.87209 9.47786 3.03109 9.6559 3.15668L9.32632 6.31607C9.19321 6.35695 9.06694 6.41386 8.94969 6.48456L4.1269 3.3438L9.20452 2.68869ZM3.34526 4.62481L4.78956 9.07012C5.03679 9.11674 5.26542 9.21734 5.46306 9.35938L8.11459 8.07206C8.11284 8.03997 8.11196 8.00765 8.11196 7.97512C8.11196 7.89514 8.11732 7.81641 8.1277 7.73929L3.34526 4.62481ZM12.3418 1.73324C12.3418 2.51026 11.8358 3.16875 11.1399 3.38843L10.809 6.55964C11.2468 6.87372 11.5328 7.39092 11.5328 7.97512C11.5328 8.93152 10.7662 9.70835 9.82239 9.70835C9.45464 9.70835 9.1138 9.59041 8.83472 9.38987L6.18316 10.6772C6.18491 10.7093 6.18579 10.7416 6.18579 10.7741C6.18579 11.7305 5.41918 12.5074 4.47536 12.5074C3.53154 12.5074 2.76493 11.7305 2.76493 10.7741C2.76493 10.2571 2.98895 9.79257 3.34388 9.47486L1.75082 4.5717C0.950467 4.42719 0.341797 3.71756 0.341797 2.86535C0.341797 1.90895 1.10841 1.13211 2.05223 1.13211C2.65211 1.13211 3.1779 1.44339 3.48303 1.91444L9.00286 1.20228C9.22441 0.505158 9.87027 0 10.6314 0C11.5752 0 12.3418 0.776835 12.3418 1.73324ZM9.82239 7.09289C10.3039 7.09289 10.693 7.48716 10.693 7.97512C10.693 8.46308 10.3039 8.85735 9.82239 8.85735C9.34085 8.85735 8.95176 8.46308 8.95176 7.97512C8.95176 7.48716 9.34085 7.09289 9.82239 7.09289ZM5.34599 10.7741C5.34599 10.2861 4.9569 9.89188 4.47536 9.89188C3.99382 9.89188 3.60473 10.2861 3.60473 10.7741C3.60473 11.2621 3.99382 11.6563 4.47536 11.6563C4.9569 11.6563 5.34599 11.2621 5.34599 10.7741ZM2.05223 1.98312C2.53377 1.98312 2.92286 2.37739 2.92286 2.86535C2.92286 3.35331 2.53377 3.74759 2.05223 3.74759C1.57069 3.74759 1.18162 3.35331 1.18162 2.86535C1.18162 2.37739 1.57454 1.98312 2.05223 1.98312Z" fill="#1ECF85"/>
</svg>
