<?xml version="1.0" encoding="UTF-8"?>
<svg width="11px" height="15px" viewBox="0 0 11 15" version="1.1" xmlns="http://www.w3.org/2000/svg" xmlns:xlink="http://www.w3.org/1999/xlink">
    <!-- Generator: Sketch 55.2 (78181) - https://sketchapp.com -->
    <title>Combined Shape</title>
    <desc>Created with Sketch.</desc>
    <defs>
        <path d="M2.35626001,12.1428571 L2.08928571,12.1428571 C2.02157704,12.1428571 1.96596004,12.121094 1.92243304,12.077567 C1.87890603,12.03404 1.85714286,11.978423 1.85714286,11.9107143 L1.85714286,11.4464286 C1.85714286,11.3787199 1.87890603,11.3231029 1.92243304,11.2795759 C1.96596004,11.2360489 2.02157704,11.2142857 2.08928571,11.2142857 L2.84729519,11.2142857 C2.6527131,11.5037799 2.48760209,11.8147364 2.35626001,12.1428571 Z M3.65268788,10.2857143 L2.08928571,10.2857143 C2.02157704,10.2857143 1.96596004,10.2639511 1.92243304,10.2204241 C1.87890603,10.1768971 1.85714286,10.1212801 1.85714286,10.0535714 L1.85714286,9.58928571 C1.85714286,9.52157704 1.87890603,9.46596004 1.92243304,9.42243304 C1.96596004,9.37890603 2.02157704,9.35714286 2.08928571,9.35714286 L5.14065313,9.35714286 C4.58936221,9.57812261 4.0865743,9.89444592 3.65268788,10.2857143 Z M2,14 C2,14.3172943 2.02955496,14.6276857 2.08606211,14.9285714 L0.696428571,14.9285714 C0.502975223,14.9285714 0.338542344,14.8608638 0.203125,14.7254464 C0.0677076562,14.5900291 -8.83737528e-13,14.4255962 -8.83737528e-13,14.2321429 L-8.83737528e-13,4.48214286 C-8.83737528e-13,4.28868951 0.0677076562,4.12425663 0.203125,3.98883929 C0.338542344,3.85342194 0.502975223,3.78571429 0.696428571,3.78571429 L5.33928571,3.78571429 C5.53273906,3.78571429 5.74553455,3.8340769 5.97767857,3.93080357 C6.20982259,4.02753025 6.39360051,4.14360051 6.52901786,4.27901786 L8.79241071,6.54241071 C8.92782806,6.67782806 9.04389833,6.86160598 9.140625,7.09375 C9.23735167,7.32589402 9.28571429,7.53868951 9.28571429,7.73214286 L9.28571429,9.55185344 C8.99191939,9.40057994 8.6811988,9.27755851 8.35714286,9.18637952 L8.35714286,8.42857143 L5.33928571,8.42857143 C5.14583237,8.42857143 4.98139949,8.36086377 4.84598214,8.22544643 C4.7105648,8.09002908 4.64285714,7.92559621 4.64285714,7.73214286 L4.64285714,4.71428571 L0.928571429,4.71428571 L0.928571429,14 L2,14 Z M5.57142857,7.5 L8.29910714,7.5 C8.25074381,7.35974632 8.19754493,7.26060297 8.13950893,7.20256696 L5.86886161,4.93191964 C5.8108256,4.87388364 5.71168225,4.82068477 5.57142857,4.77232143 L5.57142857,7.5 Z M7.07142857,10.5 C8.9647619,10.5 10.5,12.0352381 10.5,13.9285714 C10.5,15.8219048 8.9647619,17.3571429 7.07142857,17.3571429 C6.12285714,17.3571429 5.26952381,16.972381 4.64857143,16.3514286 L5.18952381,15.8104762 C5.66952381,16.2942857 6.33619048,16.5952381 7.07142857,16.5952381 C8.54571429,16.5952381 9.73809524,15.4028571 9.73809524,13.9285714 C9.73809524,12.4542857 8.54571429,11.2619048 7.07142857,11.2619048 C5.59714286,11.2619048 4.4047619,12.4542857 4.4047619,13.9285714 L5.54761905,13.9285714 L4.00857143,15.4638095 L3.98190476,15.4104762 L2.5,13.9285714 L3.64285714,13.9285714 C3.64285714,12.0352381 5.17809524,10.5 7.07142857,10.5 Z M6.69047619,12.4047619 L7.26190476,12.4047619 L7.26190476,14.0238095 L8.5952381,14.8161905 L8.32095238,15.2771429 L6.69047619,14.3095238 L6.69047619,12.4047619 Z" id="path-1"></path>
    </defs>
    <g id="Symbols" stroke="none" stroke-width="1" fill="none" fill-rule="evenodd">
        <g id="Icon/NotebookRevision" transform="translate(0.000000, -3.000000)">
            <mask id="mask-2" fill="white">
                <use xlink:href="#path-1"></use>
            </mask>
            <use id="Combined-Shape" fill="#6b6b6b" xlink:href="#path-1"></use>
        </g>
    </g>
</svg>