<svg width="24" height="24" viewBox="0 0 24 24" fill="none" xmlns="http://www.w3.org/2000/svg">
<path fill-rule="evenodd" clip-rule="evenodd" d="M15.1865 14.4716H15.9765L20.2165 18.7316C20.6265 19.1416 20.6265 19.8116 20.2165 20.2216C19.8065 20.6316 19.1365 20.6316 18.7265 20.2216L14.4765 15.9716V15.1816L14.2065 14.9016C12.8065 16.1016 10.8965 16.7216 8.86646 16.3816C6.08646 15.9116 3.86646 13.5916 3.52646 10.7916C3.00646 6.56157 6.56646 3.00157 10.7965 3.52157C13.5965 3.86157 15.9165 6.08157 16.3865 8.86157C16.7265 10.8916 16.1065 12.8016 14.9065 14.2016L15.1865 14.4716ZM5.47646 9.97157C5.47646 12.4616 7.48646 14.4716 9.97646 14.4716C12.4665 14.4716 14.4765 12.4616 14.4765 9.97157C14.4765 7.48157 12.4665 5.47157 9.97646 5.47157C7.48646 5.47157 5.47646 7.48157 5.47646 9.97157Z" fill="#1D2528"/>
</svg>
