<svg width="12" height="12" viewBox="0 0 12 12" fill="none" xmlns="http://www.w3.org/2000/svg">
<path fill-rule="evenodd" clip-rule="evenodd" d="M8.05609 4.54732L8.95183 3.67462H6.48355C6.24008 3.67462 6.00658 3.76885 5.83442 3.93659L3.9723 5.75081C3.87961 5.84111 3.781 5.92432 3.67735 6.00006C3.781 6.0758 3.87961 6.159 3.9723 6.24931L5.83442 8.06353C6.00658 8.23126 6.24008 8.32549 6.48355 8.32549H8.95183L8.05609 7.4528L8.83505 6.69387L10.6711 8.48267L11.0605 8.86213L10.6711 9.24159L8.83505 11.0304L8.05609 10.2715L8.95183 9.39877H6.48355C5.94791 9.39877 5.43421 9.19146 5.05546 8.82245L3.19335 7.00823C2.88346 6.70631 2.46316 6.5367 2.02491 6.5367H-0.000113487V5.46342H2.02491C2.46316 5.46342 2.88346 5.2938 3.19335 4.99189L5.05546 3.17766C5.43421 2.80865 5.94791 2.60135 6.48355 2.60135H8.95183L8.05609 1.72865L8.83505 0.969727L10.6711 2.75852L11.0605 3.13798L10.6711 3.51744L8.83505 5.30624L8.05609 4.54732Z" fill="#5D7283"/>
</svg>
