<svg width="658" height="236" viewBox="0 0 658 236" fill="none" xmlns="http://www.w3.org/2000/svg">
<path d="M0.5 8C0.5 3.58172 4.08172 0 8.5 0H649.5C653.918 0 657.5 3.58172 657.5 8V228C657.5 232.418 653.918 236 649.5 236H8.50001C4.08173 236 0.5 232.418 0.5 228V8Z" fill="#F6F7F9"/>
<circle cx="29.5" cy="133" r="6" fill="#3451B2"/>
<path d="M43.0103 138L39.957 128.84H42.1089L44.1338 135.867H44.248L46.2666 128.84H48.4248L45.3716 138H43.0103ZM52.1191 138.146C49.9927 138.146 48.7041 136.756 48.7041 134.515V134.509C48.7041 132.287 50.0054 130.859 52.043 130.859C54.0806 130.859 55.3501 132.255 55.3501 134.369V134.947H50.5386C50.5576 136.096 51.1733 136.762 52.1572 136.762C52.9697 136.762 53.4204 136.331 53.5474 136.064L53.5664 136.026H55.293L55.2803 136.089C55.0645 136.965 54.1631 138.146 52.1191 138.146ZM52.0747 132.249C51.2686 132.249 50.6719 132.795 50.5576 133.785H53.5728C53.4585 132.77 52.8809 132.249 52.0747 132.249ZM56.8672 138V131.011H58.7207V132.097H58.835C59.0571 131.341 59.6919 130.897 60.5996 130.897C60.8472 130.897 61.1074 130.935 61.2915 130.986V132.604C61.0122 132.541 60.7266 132.497 60.4409 132.497C59.3872 132.497 58.7207 133.1 58.7207 134.09V138H56.8672ZM65.1445 138.146C63.2466 138.146 62.1675 137.295 62.0342 136.096L62.0278 136.07H63.8496L63.8623 136.096C64.0083 136.527 64.4336 136.838 65.1636 136.838C65.8745 136.838 66.3569 136.534 66.3569 136.07V136.058C66.3569 135.683 66.0776 135.448 65.3667 135.29L64.1987 135.042C62.8657 134.756 62.2056 134.103 62.2056 133.055V133.049C62.2056 131.735 63.3735 130.859 65.1191 130.859C66.9536 130.859 67.9692 131.773 68.0454 132.896V132.922H66.3252L66.3188 132.89C66.2173 132.516 65.8047 132.167 65.1128 132.167C64.4717 132.167 64.0146 132.465 64.0146 132.935V132.941C64.0146 133.315 64.2749 133.531 64.9985 133.69L66.1602 133.938C67.5566 134.236 68.2104 134.82 68.2104 135.854V135.861C68.2104 137.245 66.9346 138.146 65.1445 138.146ZM70.6733 129.938C70.1021 129.938 69.626 129.481 69.626 128.91C69.626 128.333 70.1021 127.875 70.6733 127.875C71.2446 127.875 71.7144 128.333 71.7144 128.91C71.7144 129.481 71.2446 129.938 70.6733 129.938ZM69.7402 138V131.011H71.5938V138H69.7402ZM76.564 138.146C74.4121 138.146 73.1172 136.781 73.1172 134.509V134.496C73.1172 132.243 74.4312 130.859 76.564 130.859C78.6968 130.859 80.0107 132.236 80.0107 134.496V134.509C80.0107 136.788 78.7158 138.146 76.564 138.146ZM76.564 136.692C77.5479 136.692 78.1128 135.886 78.1128 134.509V134.496C78.1128 133.131 77.5415 132.312 76.564 132.312C75.5801 132.312 75.0151 133.131 75.0151 134.496V134.509C75.0151 135.886 75.5737 136.692 76.564 136.692ZM81.5215 138V131.011H83.375V132.09H83.4893C83.8066 131.335 84.4985 130.859 85.4951 130.859C87.0503 130.859 87.8882 131.811 87.8882 133.48V138H86.0347V133.899C86.0347 132.916 85.6284 132.395 84.7524 132.395C83.8955 132.395 83.375 133.011 83.375 133.957V138H81.5215ZM93.0361 138V136.711L95.9878 133.798C97.2764 132.547 97.6255 132.084 97.6255 131.443V131.424C97.6255 130.643 97.0923 130.097 96.2163 130.097C95.3213 130.097 94.7056 130.694 94.7056 131.563V131.595H92.9346L92.9282 131.57C92.9282 129.812 94.2993 128.605 96.3052 128.605C98.1904 128.605 99.5107 129.685 99.5107 131.265V131.284C99.5107 132.325 98.9712 133.188 97.3018 134.731L95.6069 136.312V136.458H99.644V138H93.0361Z" fill="#5F7281"/>
<g clip-path="url(#clip0_7077_86724)">
<path d="M23.5 155C23.5 150.582 27.0817 147 31.5 147H247.5C251.918 147 255.5 150.582 255.5 155V181C255.5 185.418 251.918 189 247.5 189H31.5C27.0817 189 23.5 185.418 23.5 181V155Z" fill="white"/>
<path d="M31.5 168C31.5 164.686 34.1863 162 37.5 162H241.5C244.814 162 247.5 164.686 247.5 168C247.5 171.314 244.814 174 241.5 174H37.5C34.1863 174 31.5 171.314 31.5 168Z" fill="#90A4B5" fill-opacity="0.16"/>
<g clip-path="url(#clip1_7077_86724)">
<path fill-rule="evenodd" clip-rule="evenodd" d="M43.875 166.75C43.5298 166.75 43.25 167.03 43.25 167.375C43.25 167.72 43.5298 168 43.875 168C44.2202 168 44.5 167.72 44.5 167.375C44.5 167.03 44.2202 166.75 43.875 166.75ZM42.5 167.375C42.5 166.616 43.1156 166 43.875 166C44.3884 166 44.8361 166.281 45.0723 166.698L47.2583 166.223C47.3339 165.535 47.9169 165 48.625 165C49.3844 165 50 165.616 50 166.375C50 166.938 49.6611 167.423 49.176 167.635L49.3171 168.763C49.9855 168.857 50.5 169.431 50.5 170.125C50.5 170.884 49.8844 171.5 49.125 171.5C48.6948 171.5 48.3107 171.302 48.0586 170.993L46.7487 171.566C46.7496 171.586 46.75 171.605 46.75 171.625C46.75 172.384 46.1344 173 45.375 173C44.6156 173 44 172.384 44 171.625C44 171.178 44.2128 170.782 44.5426 170.53L44.0066 168.744C43.9633 168.748 43.9194 168.75 43.875 168.75C43.1156 168.75 42.5 168.134 42.5 167.375ZM45.2327 167.594C45.2414 167.539 45.2469 167.484 45.249 167.427L47.382 166.964C47.5764 167.373 47.9673 167.672 48.4329 167.737L48.5739 168.865C48.3854 168.947 48.219 169.071 48.086 169.224L45.2327 167.594ZM44.914 168.276C44.852 168.347 44.7827 168.412 44.7074 168.47L45.2434 170.256C45.2867 170.252 45.3306 170.25 45.375 170.25C45.8474 170.25 46.2642 170.488 46.5117 170.851L47.7616 170.304C47.7539 170.246 47.75 170.186 47.75 170.125C47.75 170.05 47.7559 169.977 47.7673 169.906L44.914 168.276ZM48.5 170.125C48.5 169.78 48.7798 169.5 49.125 169.5C49.4702 169.5 49.75 169.78 49.75 170.125C49.75 170.47 49.4702 170.75 49.125 170.75C48.7798 170.75 48.5 170.47 48.5 170.125ZM45.375 171C45.0298 171 44.75 171.28 44.75 171.625C44.75 171.97 45.0298 172.25 45.375 172.25C45.7202 172.25 46 171.97 46 171.625C46 171.28 45.7202 171 45.375 171ZM48 166.375C48 166.03 48.2798 165.75 48.625 165.75C48.9702 165.75 49.25 166.03 49.25 166.375C49.25 166.72 48.9702 167 48.625 167C48.2798 167 48 166.72 48 166.375Z" fill="white"/>
</g>
</g>
<path d="M31.5 147.5H247.5C251.642 147.5 255 150.858 255 155V181C255 185.142 251.642 188.5 247.5 188.5H31.5C27.3579 188.5 24 185.142 24 181V155C24 150.858 27.3579 147.5 31.5 147.5Z" stroke="#D1D9E1"/>
<circle cx="29.5" cy="46" r="6" fill="#00776B"/>
<path d="M43.0103 51L39.957 41.8403H42.1089L44.1338 48.8672H44.248L46.2666 41.8403H48.4248L45.3716 51H43.0103ZM52.1191 51.146C49.9927 51.146 48.7041 49.7559 48.7041 47.5151V47.5088C48.7041 45.2871 50.0054 43.8589 52.043 43.8589C54.0806 43.8589 55.3501 45.2554 55.3501 47.3691V47.9468H50.5386C50.5576 49.0957 51.1733 49.7622 52.1572 49.7622C52.9697 49.7622 53.4204 49.3306 53.5474 49.064L53.5664 49.0259H55.293L55.2803 49.0894C55.0645 49.9653 54.1631 51.146 52.1191 51.146ZM52.0747 45.249C51.2686 45.249 50.6719 45.7949 50.5576 46.7852H53.5728C53.4585 45.7695 52.8809 45.249 52.0747 45.249ZM56.8672 51V44.0112H58.7207V45.0967H58.835C59.0571 44.3413 59.6919 43.897 60.5996 43.897C60.8472 43.897 61.1074 43.9351 61.2915 43.9858V45.6045C61.0122 45.541 60.7266 45.4966 60.4409 45.4966C59.3872 45.4966 58.7207 46.0996 58.7207 47.0898V51H56.8672ZM65.1445 51.146C63.2466 51.146 62.1675 50.2954 62.0342 49.0957L62.0278 49.0703H63.8496L63.8623 49.0957C64.0083 49.5273 64.4336 49.8384 65.1636 49.8384C65.8745 49.8384 66.3569 49.5337 66.3569 49.0703V49.0576C66.3569 48.6831 66.0776 48.4482 65.3667 48.2896L64.1987 48.042C62.8657 47.7563 62.2056 47.1025 62.2056 46.0552V46.0488C62.2056 44.7349 63.3735 43.8589 65.1191 43.8589C66.9536 43.8589 67.9692 44.7729 68.0454 45.8965V45.9219H66.3252L66.3188 45.8901C66.2173 45.5156 65.8047 45.1665 65.1128 45.1665C64.4717 45.1665 64.0146 45.4648 64.0146 45.9346V45.9409C64.0146 46.3154 64.2749 46.5312 64.9985 46.6899L66.1602 46.9375C67.5566 47.2358 68.2104 47.8198 68.2104 48.8545V48.8608C68.2104 50.2446 66.9346 51.146 65.1445 51.146ZM70.6733 42.9385C70.1021 42.9385 69.626 42.4814 69.626 41.9102C69.626 41.3325 70.1021 40.8755 70.6733 40.8755C71.2446 40.8755 71.7144 41.3325 71.7144 41.9102C71.7144 42.4814 71.2446 42.9385 70.6733 42.9385ZM69.7402 51V44.0112H71.5938V51H69.7402ZM76.564 51.146C74.4121 51.146 73.1172 49.7812 73.1172 47.5088V47.4961C73.1172 45.2427 74.4312 43.8589 76.564 43.8589C78.6968 43.8589 80.0107 45.2363 80.0107 47.4961V47.5088C80.0107 49.7876 78.7158 51.146 76.564 51.146ZM76.564 49.6924C77.5479 49.6924 78.1128 48.8862 78.1128 47.5088V47.4961C78.1128 46.1313 77.5415 45.3125 76.564 45.3125C75.5801 45.3125 75.0151 46.1313 75.0151 47.4961V47.5088C75.0151 48.8862 75.5737 49.6924 76.564 49.6924ZM81.5215 51V44.0112H83.375V45.0903H83.4893C83.8066 44.335 84.4985 43.8589 85.4951 43.8589C87.0503 43.8589 87.8882 44.811 87.8882 46.4805V51H86.0347V46.8994C86.0347 45.9155 85.6284 45.395 84.7524 45.395C83.8955 45.395 83.375 46.0107 83.375 46.9565V51H81.5215ZM95.2769 51V43.6494H95.1626L92.9155 45.2109V43.4844L95.2832 41.8403H97.1938V51H95.2769Z" fill="#5F7281"/>
<g clip-path="url(#clip2_7077_86724)">
<path d="M23.5 69C23.5 64.5817 27.0817 61 31.5 61H247.5C251.918 61 255.5 64.5817 255.5 69V95C255.5 99.4183 251.918 103 247.5 103H31.5C27.0817 103 23.5 99.4183 23.5 95V69Z" fill="white"/>
<path d="M31.5 82C31.5 78.6863 34.1863 76 37.5 76H241.5C244.814 76 247.5 78.6863 247.5 82C247.5 85.3137 244.814 88 241.5 88H37.5C34.1863 88 31.5 85.3137 31.5 82Z" fill="#90A4B5" fill-opacity="0.16"/>
<g clip-path="url(#clip3_7077_86724)">
<path fill-rule="evenodd" clip-rule="evenodd" d="M43.875 80.75C43.5298 80.75 43.25 81.0298 43.25 81.375C43.25 81.7202 43.5298 82 43.875 82C44.2202 82 44.5 81.7202 44.5 81.375C44.5 81.0298 44.2202 80.75 43.875 80.75ZM42.5 81.375C42.5 80.6156 43.1156 80 43.875 80C44.3884 80 44.8361 80.2814 45.0723 80.6983L47.2583 80.2231C47.3339 79.5352 47.9169 79 48.625 79C49.3844 79 50 79.6156 50 80.375C50 80.9384 49.6611 81.4227 49.176 81.6351L49.3171 82.7633C49.9855 82.8567 50.5 83.4308 50.5 84.125C50.5 84.8844 49.8844 85.5 49.125 85.5C48.6948 85.5 48.3107 85.3024 48.0586 84.9931L46.7487 85.5661C46.7496 85.5856 46.75 85.6053 46.75 85.625C46.75 86.3844 46.1344 87 45.375 87C44.6156 87 44 86.3844 44 85.625C44 85.1785 44.2128 84.7816 44.5426 84.5305L44.0066 82.7438C43.9633 82.7479 43.9194 82.75 43.875 82.75C43.1156 82.75 42.5 82.1344 42.5 81.375ZM45.2327 81.5939C45.2414 81.5394 45.2469 81.4839 45.249 81.4274L47.382 80.9637C47.5764 81.3734 47.9673 81.6716 48.4329 81.7367L48.5739 82.8649C48.3854 82.9474 48.219 83.071 48.086 83.2244L45.2327 81.5939ZM44.914 82.2756C44.852 82.3471 44.7827 82.4121 44.7074 82.4695L45.2434 84.2562C45.2867 84.2521 45.3306 84.25 45.375 84.25C45.8474 84.25 46.2642 84.4883 46.5117 84.8512L47.7616 84.3044C47.7539 84.2457 47.75 84.1858 47.75 84.125C47.75 84.0505 47.7559 83.9774 47.7673 83.9061L44.914 82.2756ZM48.5 84.125C48.5 83.7798 48.7798 83.5 49.125 83.5C49.4702 83.5 49.75 83.7798 49.75 84.125C49.75 84.4702 49.4702 84.75 49.125 84.75C48.7798 84.75 48.5 84.4702 48.5 84.125ZM45.375 85C45.0298 85 44.75 85.2798 44.75 85.625C44.75 85.9702 45.0298 86.25 45.375 86.25C45.7202 86.25 46 85.9702 46 85.625C46 85.2798 45.7202 85 45.375 85ZM48 80.375C48 80.0298 48.2798 79.75 48.625 79.75C48.9702 79.75 49.25 80.0298 49.25 80.375C49.25 80.7202 48.9702 81 48.625 81C48.2798 81 48 80.7202 48 80.375Z" fill="white"/>
</g>
</g>
<path d="M31.5 61.5H247.5C251.642 61.5 255 64.8579 255 69V95C255 99.1421 251.642 102.5 247.5 102.5H31.5C27.3579 102.5 24 99.1421 24 95V69C24 64.8579 27.3579 61.5 31.5 61.5Z" stroke="#D1D9E1"/>
<path d="M302.5 17.5H444.5C448.642 17.5 452 20.8579 452 25V105C452 109.142 448.642 112.5 444.5 112.5H302.5C298.358 112.5 295 109.142 295 105V25C295 20.8579 298.358 17.5 302.5 17.5Z" fill="white"/>
<path d="M302.5 17.5H444.5C448.642 17.5 452 20.8579 452 25V105C452 109.142 448.642 112.5 444.5 112.5H302.5C298.358 112.5 295 109.142 295 105V25C295 20.8579 298.358 17.5 302.5 17.5Z" stroke="#D1D9E1"/>
<g clip-path="url(#clip4_7077_86724)">
<path fill-rule="evenodd" clip-rule="evenodd" d="M314.875 36.75C314.53 36.75 314.25 37.0298 314.25 37.375C314.25 37.7202 314.53 38 314.875 38C315.22 38 315.5 37.7202 315.5 37.375C315.5 37.0298 315.22 36.75 314.875 36.75ZM313.5 37.375C313.5 36.6156 314.116 36 314.875 36C315.388 36 315.836 36.2814 316.072 36.6983L318.258 36.2231C318.334 35.5352 318.917 35 319.625 35C320.384 35 321 35.6156 321 36.375C321 36.9384 320.661 37.4227 320.176 37.6351L320.317 38.7633C320.986 38.8567 321.5 39.4308 321.5 40.125C321.5 40.8844 320.884 41.5 320.125 41.5C319.695 41.5 319.311 41.3024 319.059 40.9931L317.749 41.5661C317.75 41.5856 317.75 41.6053 317.75 41.625C317.75 42.3844 317.134 43 316.375 43C315.616 43 315 42.3844 315 41.625C315 41.1785 315.213 40.7816 315.543 40.5305L315.007 38.7438C314.963 38.7479 314.919 38.75 314.875 38.75C314.116 38.75 313.5 38.1344 313.5 37.375ZM316.233 37.5939C316.241 37.5394 316.247 37.4839 316.249 37.4274L318.382 36.9637C318.576 37.3734 318.967 37.6716 319.433 37.7367L319.574 38.8649C319.385 38.9474 319.219 39.071 319.086 39.2244L316.233 37.5939ZM315.914 38.2756C315.852 38.3471 315.783 38.4121 315.707 38.4695L316.243 40.2562C316.287 40.2521 316.331 40.25 316.375 40.25C316.847 40.25 317.264 40.4883 317.512 40.8512L318.762 40.3044C318.754 40.2457 318.75 40.1858 318.75 40.125C318.75 40.0505 318.756 39.9774 318.767 39.9061L315.914 38.2756ZM319.5 40.125C319.5 39.7798 319.78 39.5 320.125 39.5C320.47 39.5 320.75 39.7798 320.75 40.125C320.75 40.4702 320.47 40.75 320.125 40.75C319.78 40.75 319.5 40.4702 319.5 40.125ZM316.375 41C316.03 41 315.75 41.2798 315.75 41.625C315.75 41.9702 316.03 42.25 316.375 42.25C316.72 42.25 317 41.9702 317 41.625C317 41.2798 316.72 41 316.375 41ZM319 36.375C319 36.0298 319.28 35.75 319.625 35.75C319.97 35.75 320.25 36.0298 320.25 36.375C320.25 36.7202 319.97 37 319.625 37C319.28 37 319 36.7202 319 36.375Z" fill="white"/>
</g>
<rect x="306.5" y="28" width="55" height="7" rx="3.5" fill="#90A4B5" fill-opacity="0.16"/>
<circle cx="314.5" cy="65" r="6" fill="#00776B"/>
<rect x="327.5" y="59" width="107" height="12" rx="2" fill="#90A4B5" fill-opacity="0.16"/>
<circle cx="314.5" cy="90" r="6" fill="#3451B2"/>
<rect x="327.5" y="84" width="67" height="12" rx="2" fill="#90A4B5" fill-opacity="0.16"/>
<path d="M302.5 123.5H444.5C448.642 123.5 452 126.858 452 131V211C452 215.142 448.642 218.5 444.5 218.5H302.5C298.358 218.5 295 215.142 295 211V131C295 126.858 298.358 123.5 302.5 123.5Z" fill="white"/>
<path d="M302.5 123.5H444.5C448.642 123.5 452 126.858 452 131V211C452 215.142 448.642 218.5 444.5 218.5H302.5C298.358 218.5 295 215.142 295 211V131C295 126.858 298.358 123.5 302.5 123.5Z" stroke="#D1D9E1"/>
<g clip-path="url(#clip5_7077_86724)">
<path fill-rule="evenodd" clip-rule="evenodd" d="M314.875 142.75C314.53 142.75 314.25 143.03 314.25 143.375C314.25 143.72 314.53 144 314.875 144C315.22 144 315.5 143.72 315.5 143.375C315.5 143.03 315.22 142.75 314.875 142.75ZM313.5 143.375C313.5 142.616 314.116 142 314.875 142C315.388 142 315.836 142.281 316.072 142.698L318.258 142.223C318.334 141.535 318.917 141 319.625 141C320.384 141 321 141.616 321 142.375C321 142.938 320.661 143.423 320.176 143.635L320.317 144.763C320.986 144.857 321.5 145.431 321.5 146.125C321.5 146.884 320.884 147.5 320.125 147.5C319.695 147.5 319.311 147.302 319.059 146.993L317.749 147.566C317.75 147.586 317.75 147.605 317.75 147.625C317.75 148.384 317.134 149 316.375 149C315.616 149 315 148.384 315 147.625C315 147.178 315.213 146.782 315.543 146.53L315.007 144.744C314.963 144.748 314.919 144.75 314.875 144.75C314.116 144.75 313.5 144.134 313.5 143.375ZM316.233 143.594C316.241 143.539 316.247 143.484 316.249 143.427L318.382 142.964C318.576 143.373 318.967 143.672 319.433 143.737L319.574 144.865C319.385 144.947 319.219 145.071 319.086 145.224L316.233 143.594ZM315.914 144.276C315.852 144.347 315.783 144.412 315.707 144.47L316.243 146.256C316.287 146.252 316.331 146.25 316.375 146.25C316.847 146.25 317.264 146.488 317.512 146.851L318.762 146.304C318.754 146.246 318.75 146.186 318.75 146.125C318.75 146.05 318.756 145.977 318.767 145.906L315.914 144.276ZM319.5 146.125C319.5 145.78 319.78 145.5 320.125 145.5C320.47 145.5 320.75 145.78 320.75 146.125C320.75 146.47 320.47 146.75 320.125 146.75C319.78 146.75 319.5 146.47 319.5 146.125ZM316.375 147C316.03 147 315.75 147.28 315.75 147.625C315.75 147.97 316.03 148.25 316.375 148.25C316.72 148.25 317 147.97 317 147.625C317 147.28 316.72 147 316.375 147ZM319 142.375C319 142.03 319.28 141.75 319.625 141.75C319.97 141.75 320.25 142.03 320.25 142.375C320.25 142.72 319.97 143 319.625 143C319.28 143 319 142.72 319 142.375Z" fill="white"/>
</g>
<rect x="306.5" y="134" width="55" height="7" rx="3.5" fill="#90A4B5" fill-opacity="0.16"/>
<circle cx="314.5" cy="171" r="6" fill="#00776B"/>
<rect x="327.5" y="165" width="55" height="12" rx="2" fill="#90A4B5" fill-opacity="0.16"/>
<circle cx="314.5" cy="196" r="6" fill="#3451B2"/>
<rect x="327.5" y="190" width="100" height="12" rx="2" fill="#90A4B5" fill-opacity="0.16"/>
<path d="M469.5 17.5H611.5C615.642 17.5 619 20.8579 619 25V105C619 109.142 615.642 112.5 611.5 112.5H469.5C465.358 112.5 462 109.142 462 105V25C462 20.8579 465.358 17.5 469.5 17.5Z" fill="white"/>
<path d="M469.5 17.5H611.5C615.642 17.5 619 20.8579 619 25V105C619 109.142 615.642 112.5 611.5 112.5H469.5C465.358 112.5 462 109.142 462 105V25C462 20.8579 465.358 17.5 469.5 17.5Z" stroke="#D1D9E1"/>
<g clip-path="url(#clip6_7077_86724)">
<path fill-rule="evenodd" clip-rule="evenodd" d="M481.875 36.75C481.53 36.75 481.25 37.0298 481.25 37.375C481.25 37.7202 481.53 38 481.875 38C482.22 38 482.5 37.7202 482.5 37.375C482.5 37.0298 482.22 36.75 481.875 36.75ZM480.5 37.375C480.5 36.6156 481.116 36 481.875 36C482.388 36 482.836 36.2814 483.072 36.6983L485.258 36.2231C485.334 35.5352 485.917 35 486.625 35C487.384 35 488 35.6156 488 36.375C488 36.9384 487.661 37.4227 487.176 37.6351L487.317 38.7633C487.986 38.8567 488.5 39.4308 488.5 40.125C488.5 40.8844 487.884 41.5 487.125 41.5C486.695 41.5 486.311 41.3024 486.059 40.9931L484.749 41.5661C484.75 41.5856 484.75 41.6053 484.75 41.625C484.75 42.3844 484.134 43 483.375 43C482.616 43 482 42.3844 482 41.625C482 41.1785 482.213 40.7816 482.543 40.5305L482.007 38.7438C481.963 38.7479 481.919 38.75 481.875 38.75C481.116 38.75 480.5 38.1344 480.5 37.375ZM483.233 37.5939C483.241 37.5394 483.247 37.4839 483.249 37.4274L485.382 36.9637C485.576 37.3734 485.967 37.6716 486.433 37.7367L486.574 38.8649C486.385 38.9474 486.219 39.071 486.086 39.2244L483.233 37.5939ZM482.914 38.2756C482.852 38.3471 482.783 38.4121 482.707 38.4695L483.243 40.2562C483.287 40.2521 483.331 40.25 483.375 40.25C483.847 40.25 484.264 40.4883 484.512 40.8512L485.762 40.3044C485.754 40.2457 485.75 40.1858 485.75 40.125C485.75 40.0505 485.756 39.9774 485.767 39.9061L482.914 38.2756ZM486.5 40.125C486.5 39.7798 486.78 39.5 487.125 39.5C487.47 39.5 487.75 39.7798 487.75 40.125C487.75 40.4702 487.47 40.75 487.125 40.75C486.78 40.75 486.5 40.4702 486.5 40.125ZM483.375 41C483.03 41 482.75 41.2798 482.75 41.625C482.75 41.9702 483.03 42.25 483.375 42.25C483.72 42.25 484 41.9702 484 41.625C484 41.2798 483.72 41 483.375 41ZM486 36.375C486 36.0298 486.28 35.75 486.625 35.75C486.97 35.75 487.25 36.0298 487.25 36.375C487.25 36.7202 486.97 37 486.625 37C486.28 37 486 36.7202 486 36.375Z" fill="white"/>
</g>
<rect x="473.5" y="28" width="55" height="7" rx="3.5" fill="#90A4B5" fill-opacity="0.16"/>
<circle cx="481.5" cy="65" r="6" fill="#00776B"/>
<rect x="494.5" y="59" width="107" height="12" rx="2" fill="#90A4B5" fill-opacity="0.16"/>
<circle cx="481.5" cy="90" r="6" fill="#3451B2"/>
<rect x="494.5" y="84" width="60" height="12" rx="2" fill="#90A4B5" fill-opacity="0.16"/>
<path d="M469.5 123.5H611.5C615.642 123.5 619 126.858 619 131V211C619 215.142 615.642 218.5 611.5 218.5H469.5C465.358 218.5 462 215.142 462 211V131C462 126.858 465.358 123.5 469.5 123.5Z" fill="white"/>
<path d="M469.5 123.5H611.5C615.642 123.5 619 126.858 619 131V211C619 215.142 615.642 218.5 611.5 218.5H469.5C465.358 218.5 462 215.142 462 211V131C462 126.858 465.358 123.5 469.5 123.5Z" stroke="#D1D9E1"/>
<g clip-path="url(#clip7_7077_86724)">
<path fill-rule="evenodd" clip-rule="evenodd" d="M481.875 142.75C481.53 142.75 481.25 143.03 481.25 143.375C481.25 143.72 481.53 144 481.875 144C482.22 144 482.5 143.72 482.5 143.375C482.5 143.03 482.22 142.75 481.875 142.75ZM480.5 143.375C480.5 142.616 481.116 142 481.875 142C482.388 142 482.836 142.281 483.072 142.698L485.258 142.223C485.334 141.535 485.917 141 486.625 141C487.384 141 488 141.616 488 142.375C488 142.938 487.661 143.423 487.176 143.635L487.317 144.763C487.986 144.857 488.5 145.431 488.5 146.125C488.5 146.884 487.884 147.5 487.125 147.5C486.695 147.5 486.311 147.302 486.059 146.993L484.749 147.566C484.75 147.586 484.75 147.605 484.75 147.625C484.75 148.384 484.134 149 483.375 149C482.616 149 482 148.384 482 147.625C482 147.178 482.213 146.782 482.543 146.53L482.007 144.744C481.963 144.748 481.919 144.75 481.875 144.75C481.116 144.75 480.5 144.134 480.5 143.375ZM483.233 143.594C483.241 143.539 483.247 143.484 483.249 143.427L485.382 142.964C485.576 143.373 485.967 143.672 486.433 143.737L486.574 144.865C486.385 144.947 486.219 145.071 486.086 145.224L483.233 143.594ZM482.914 144.276C482.852 144.347 482.783 144.412 482.707 144.47L483.243 146.256C483.287 146.252 483.331 146.25 483.375 146.25C483.847 146.25 484.264 146.488 484.512 146.851L485.762 146.304C485.754 146.246 485.75 146.186 485.75 146.125C485.75 146.05 485.756 145.977 485.767 145.906L482.914 144.276ZM486.5 146.125C486.5 145.78 486.78 145.5 487.125 145.5C487.47 145.5 487.75 145.78 487.75 146.125C487.75 146.47 487.47 146.75 487.125 146.75C486.78 146.75 486.5 146.47 486.5 146.125ZM483.375 147C483.03 147 482.75 147.28 482.75 147.625C482.75 147.97 483.03 148.25 483.375 148.25C483.72 148.25 484 147.97 484 147.625C484 147.28 483.72 147 483.375 147ZM486 142.375C486 142.03 486.28 141.75 486.625 141.75C486.97 141.75 487.25 142.03 487.25 142.375C487.25 142.72 486.97 143 486.625 143C486.28 143 486 142.72 486 142.375Z" fill="white"/>
</g>
<rect x="473.5" y="134" width="55" height="7" rx="3.5" fill="#90A4B5" fill-opacity="0.16"/>
<circle cx="481.5" cy="171" r="6" fill="#00776B"/>
<rect x="494.5" y="165" width="39" height="12" rx="2" fill="#90A4B5" fill-opacity="0.16"/>
<circle cx="481.5" cy="196" r="6" fill="#3451B2"/>
<rect x="494.5" y="190" width="89" height="12" rx="2" fill="#90A4B5" fill-opacity="0.16"/>
<defs>
<clipPath id="clip0_7077_86724">
<path d="M23.5 155C23.5 150.582 27.0817 147 31.5 147H247.5C251.918 147 255.5 150.582 255.5 155V181C255.5 185.418 251.918 189 247.5 189H31.5C27.0817 189 23.5 185.418 23.5 181V155Z" fill="white"/>
</clipPath>
<clipPath id="clip1_7077_86724">
<rect width="8" height="8" fill="white" transform="translate(42.5 165)"/>
</clipPath>
<clipPath id="clip2_7077_86724">
<path d="M23.5 69C23.5 64.5817 27.0817 61 31.5 61H247.5C251.918 61 255.5 64.5817 255.5 69V95C255.5 99.4183 251.918 103 247.5 103H31.5C27.0817 103 23.5 99.4183 23.5 95V69Z" fill="white"/>
</clipPath>
<clipPath id="clip3_7077_86724">
<rect width="8" height="8" fill="white" transform="translate(42.5 79)"/>
</clipPath>
<clipPath id="clip4_7077_86724">
<rect width="8" height="8" fill="white" transform="translate(313.5 35)"/>
</clipPath>
<clipPath id="clip5_7077_86724">
<rect width="8" height="8" fill="white" transform="translate(313.5 141)"/>
</clipPath>
<clipPath id="clip6_7077_86724">
<rect width="8" height="8" fill="white" transform="translate(480.5 35)"/>
</clipPath>
<clipPath id="clip7_7077_86724">
<rect width="8" height="8" fill="white" transform="translate(480.5 141)"/>
</clipPath>
</defs>
</svg>
