<svg width="24" height="24" viewBox="0 0 24 24" fill="none" xmlns="http://www.w3.org/2000/svg">
<path d="M18.9509 2.17634C14.0635 -1.24345 7.40926 -0.571051 3.30485 3.75735C-0.799556 8.08576 -1.11776 14.7663 2.55667 19.4652L6.22524 16.7724C4.40423 14.5134 4.03437 11.4124 5.27298 8.78843C6.51159 6.16448 9.1408 4.47914 12.0422 4.44929V7.31581Z" fill="#43C9ED"/>
<path d="M5.0491 21.8237C9.9365 25.2435 16.5907 24.5711 20.6951 20.2427C24.7996 15.9142 25.1178 9.2337 21.4433 4.5348L17.7748 7.2276C19.5958 9.4866 19.9656 12.5876 18.727 15.2116C17.4884 17.8355 14.8592 19.5209 11.9578 19.5507V16.6842Z" fill="#0194E2"/>
</svg>
