<?xml version="1.0" encoding="utf-8"?>
<!-- Generator: Adobe Illustrator 27.5.0, SVG Export Plug-In . SVG Version: 6.00 Build 0)  -->
<svg version="1.1" id="katman_1" xmlns="http://www.w3.org/2000/svg" xmlns:xlink="http://www.w3.org/1999/xlink" x="0px" y="0px"
	 viewBox="0 0 841.89 595.28" style="enable-background:new 0 0 841.89 595.28;" xml:space="preserve">
<style type="text/css">
	.st0{fill:#3A594D;}
	.st1{clip-path:url(#SVGID_00000054235013404132769400000006162829445624733592_);}
	.st2{fill-rule:evenodd;clip-rule:evenodd;fill:#3A594D;}
	.st3{fill-rule:evenodd;clip-rule:evenodd;fill:#BD8FC0;}
	.st4{fill:#EE765C;}
</style>
<path class="st0" d="M266.94,356.28c17.5,0,32.81-8.75,38.86-26.41c1.18-3.54-0.51-5.89-3.87-5.89h-6.56c-3.03,0-5.04,1.34-6.4,4.2
	c-5.21,10.27-12.45,13.96-21.53,13.96c-16.15,0-26.08-11.28-26.08-30.11c0-18.84,10.27-30.11,25.73-30.11
	c9.42,0,17.16,4.04,22.04,13.63c1.52,2.86,3.36,4.2,6.4,4.2h6.56c3.36,0,5.04-2.18,3.87-5.39c-7.06-19.18-22.88-26.58-39.03-26.58
	c-24.39,0-42.56,18.01-42.56,44.25C224.37,338.27,241.7,356.28,266.94,356.28z M707.18,304.29c2.18-14.3,11.94-23.22,25.23-23.22
	c13.29,0,23.22,9.08,24.39,23.22H707.18z M733.1,356.28c15.48,0,30.96-7.23,38.53-23.55c1.85-3.87,0.17-6.56-3.19-6.56h-6.22
	c-3.02,0-4.88,1.34-6.4,4.04c-5.04,8.91-13.79,12.62-22.71,12.62c-15.31,0-25.23-10.43-26.41-27.42h61.75
	c3.36,0,5.56-1.85,5.56-5.39c-0.68-26.41-17.83-42.22-41.56-42.22c-23.73,0-42.56,17.16-42.56,44.25
	c0,27.09,18.34,44.25,43.24,44.25L733.1,356.28z M635.18,314.22h5.55c3.36,0,5.21-1.85,5.72-5.39
	c3.21-22.73,16.51-25.74,30.66-25.07c3.03,0.14,5.51-2.18,5.51-5.22v-5.21c0-3.36-1.69-5.39-5.04-5.55
	c-12.52-0.47-23.69,3.82-30.15,15.99c-0.36,0.66-1.35,0.49-1.44-0.26l-1.04-9.18c-0.33-3.36-2.18-5.04-5.55-5.04H614
	c-2.97,0-5.39,2.41-5.39,5.39v2.86c0,2.97,2.41,5.39,5.39,5.39h10.43c2.97,0,5.39,2.41,5.39,5.39v20.52c0,2.97,2.41,5.39,5.39,5.39
	H635.18z M612.48,354.6h52.65c3.36,0,5.39-2.02,5.39-5.39v-2.86c0-3.36-2.02-5.39-5.39-5.39h-13.46c-3.36,0-5.39-2.02-5.39-5.39
	v-9.26c0-3.36-2.02-5.39-5.39-5.39h-5.72c-3.36,0-5.39,2.02-5.39,5.39v9.26c0,3.36-2.02,5.39-5.39,5.39h-11.94
	c-3.36,0-5.39,2.02-5.39,5.39v2.86c0,3.36,2.02,5.39,5.39,5.39H612.48z M531.22,304.3c2.18-14.3,11.94-23.22,25.23-23.22
	c13.29,0,23.22,9.08,24.39,23.22H531.22z M557.13,356.29c15.48,0,30.96-7.23,38.53-23.55c1.85-3.87,0.17-6.56-3.19-6.56h-6.22
	c-3.03,0-4.88,1.34-6.4,4.04c-5.04,8.91-13.79,12.62-22.71,12.62c-15.31,0-25.23-10.43-26.41-27.42h61.74
	c3.36,0,5.56-1.85,5.56-5.39c-0.68-26.41-17.83-42.22-41.55-42.22c-23.73,0-42.56,17.16-42.56,44.25
	c0,27.09,18.34,44.25,43.24,44.25L557.13,356.29z M362.5,356.29c25.23,0,43.24-18.67,43.24-44.25c0-25.58-18.01-44.25-43.24-44.25
	c-25.23,0-43.24,19.01-43.24,44.25c0,5.89,1.01,12.45,4.03,19.68c1.52,3.54,4.38,4.04,7.41,1.85l4.88-3.54
	c2.53-1.85,3.19-4.04,2.35-7.23c-1.34-4.2-1.69-7.91-1.69-11.1c0-17.66,10.6-29.78,26.24-29.78c15.64,0,26.24,11.94,26.24,30.11
	c0,18.17-10.43,30.11-25.91,30.11c-5.39,0-10.43-1.01-16.49-5.56c-2.53-2.02-4.88-2.35-7.57-0.33l-3.7,2.69
	c-3.03,2.18-3.36,5.21-0.51,7.57c8.75,7.06,18.84,9.76,27.93,9.76H362.5z M427.09,354.6h5.56c2.97,0,5.39-2.41,5.39-5.39v-40.2
	c0-16.98,9.08-27.09,23.22-27.09c12.78,0,20.19,8.42,20.19,23.89v43.41c0,2.97,2.41,5.39,5.39,5.39h5.72c2.97,0,5.39-2.41,5.39-5.39
	v-46.1c0-22.71-11.61-35.32-31.29-35.32c-13.4,0-21.32,5.48-27.23,13.12c-0.45,0.58-1.36,0.26-1.36-0.46v-36.55
	c-0.04-2.98-2.44-5.39-5.41-5.39h-5.56c-2.97,0-5.39,2.41-5.39,5.39v105.31C421.7,352.18,424.11,354.6,427.09,354.6z"/>
<g>
	<defs>
		<rect id="SVGID_1_" x="68.05" y="238.52" width="117.78" height="117.78"/>
	</defs>
	<clipPath id="SVGID_00000075852095293250014550000008258792261602485387_">
		<use xlink:href="#SVGID_1_"  style="overflow:visible;"/>
	</clipPath>
	<g style="clip-path:url(#SVGID_00000075852095293250014550000008258792261602485387_);">
		<path class="st2" d="M106.21,308.65c3.17,0,9.48-0.17,18.19-3.76c10.16-4.18,30.37-11.77,44.94-19.57
			c10.2-5.45,14.66-12.67,14.66-22.38c0-13.48-10.93-24.41-24.41-24.41h-56.49c-19.37,0-35.06,15.7-35.06,35.06
			S82.75,308.65,106.21,308.65z"/>
		<path class="st3" d="M115.77,332.79c0-9.49,5.71-18.05,14.48-21.69l17.79-7.38c17.99-7.47,37.8,5.76,37.8,25.24
			c0,15.09-12.24,27.33-27.33,27.32l-19.26,0C126.28,356.27,115.77,345.76,115.77,332.79z"/>
		<path class="st4" d="M88.27,313.27L88.27,313.27c-11.16,0-20.21,9.05-20.21,20.21v2.62c0,11.16,9.05,20.21,20.21,20.21h0
			c11.16,0,20.21-9.05,20.21-20.21v-2.62C108.48,322.32,99.43,313.27,88.27,313.27z"/>
	</g>
</g>
</svg>
