<svg width="71" height="80" viewBox="0 0 71 80" fill="none" xmlns="http://www.w3.org/2000/svg">
<g clip-path="url(#clip0_9886_1275)">
<path d="M63.7702 45.0086C63.5868 44.1787 63.0856 43.4537 62.3739 42.989C61.6737 42.5492 60.6917 42.3485 59.7907 43.6209C57.7369 46.5159 57.5021 46.7763 57.5021 46.7763C57.5021 46.7763 54.9871 50.2178 53.1212 51.7635C51.3361 53.3062 49.4658 54.7474 47.5192 56.0804C42.4158 59.2971 36.4373 60.8447 30.4141 60.5082C28.8444 60.4395 27.346 59.8335 26.1699 58.7917C24.9928 57.7504 24.209 56.3366 23.9495 54.7866C23.481 52.3479 23.4018 49.8504 23.7147 47.3869C24.0294 44.1788 24.9571 41.0609 26.4474 38.2025C28.819 33.2288 31.7561 28.5452 35.2006 24.2443C36.9128 22.1991 38.7019 20.2221 40.5977 18.3476C41.6684 17.1822 43.0657 16.3668 44.6071 16.0078C44.8195 16.1197 45.0069 16.2737 45.1579 16.4604C45.3075 16.6486 45.4179 16.865 45.4824 17.0966C45.545 17.3288 45.5609 17.5712 45.5294 17.8097C45.4957 18.0469 45.4144 18.2749 45.2903 18.48C43.9453 21.5458 42.5533 24.5987 41.3407 27.7243C40.1698 30.2515 39.7191 33.0529 40.0384 35.8199C40.4741 37.7511 41.409 39.534 42.7497 40.9907C44.0885 42.4488 45.7859 43.5308 47.6729 44.129C48.3086 44.3475 49.0048 44.3077 49.6114 44.018C50.2175 43.7248 50.6837 43.2048 50.9094 42.5705C52.2629 39.6457 53.578 36.7166 54.9017 33.7832C56.3449 30.9519 57.4554 27.963 58.2108 24.8763C58.9497 22.0483 58.5736 19.0445 57.1605 16.486C55.6181 13.9782 53.56 11.827 51.1229 10.1751C47.6216 7.74987 43.8556 6.2426 39.4875 7.05815C36.113 7.69954 32.896 8.9933 30.017 10.8669C26.1217 13.3817 22.6402 16.4858 19.6968 20.0684C16.8578 23.5293 14.3812 27.2722 12.3057 31.2383C9.68838 35.9681 7.94268 41.1299 7.15193 46.4774C6.64451 49.8922 6.74136 53.3695 7.43803 56.7507C8.30926 61.3268 10.7587 65.4521 14.3594 68.4074C18.0186 71.3209 22.516 72.9836 27.1904 73.1512C29.7101 73.2219 32.2314 73.0934 34.7309 72.7669C38.4084 72.2979 41.9776 71.1987 45.2818 69.5176C47.3953 68.5184 49.4022 67.2674 51.4304 66.1359C51.4304 66.1359 60.3159 59.8976 62.7241 53.147C64.2356 48.9155 64.0904 46.3408 63.7702 45.0086Z" fill="white"/>
<path d="M70.4162 43.4244C69.8278 40.8496 68.2433 38.6128 66.0097 37.2032C64.6636 36.3443 63.1098 35.8662 61.5136 35.8198C62.9372 32.851 64.0503 29.7432 64.8355 26.5457C66.0079 22.0384 65.4009 17.2529 63.1404 13.181L63.0636 13.0401L62.9781 12.9035C60.9403 9.5775 58.215 6.72556 54.985 4.53885C50.5699 1.4859 46.2787 0 41.8637 0C40.6387 0.00176948 39.4165 0.117554 38.213 0.345857C33.9709 1.14581 29.9266 2.76903 26.3086 5.12382C21.8196 8.0257 17.8068 11.6049 14.4128 15.7344C11.2966 19.5368 8.57416 23.6455 6.28726 27.9974C3.29301 33.4218 1.29724 39.3398 0.394887 45.4697C-0.228615 49.6589 -0.113034 53.925 0.736444 58.0743C1.91948 64.2006 5.20409 69.7218 10.0234 73.6849L10.1045 73.7532C14.9163 77.5637 20.8158 79.744 26.9491 79.9787H26.9918C27.5084 79.9915 28.0208 80 28.5375 80C30.8975 79.999 33.2551 79.8463 35.5955 79.5431C40.0184 78.9802 44.3121 77.6631 48.2898 75.649C49.9935 74.8377 51.5434 73.9453 53.0422 73.0786C53.6143 72.7498 54.1865 72.421 54.7587 72.1008L55.0661 71.93L55.3564 71.725C56.4495 70.9607 66.1079 63.9923 69.1566 55.4441C70.8048 50.8369 71.2232 46.7891 70.4162 43.4244ZM62.7262 53.1469C60.318 59.8975 51.4325 66.1358 51.4325 66.1358C49.4043 67.2673 47.3975 68.5184 45.2839 69.5175C41.9797 71.1986 38.4105 72.2978 34.733 72.7669C32.2335 73.0933 29.7122 73.2218 27.1925 73.1511C22.5181 72.9835 18.0208 71.3208 14.3616 68.4073C10.7608 65.452 8.31137 61.3267 7.44015 56.7506C6.74348 53.3694 6.64663 49.8921 7.15405 46.4774C7.9448 41.1299 9.6905 35.968 12.3078 31.2383C14.3833 27.2721 16.8599 23.5293 19.6989 20.0683C22.6423 16.4858 26.1238 13.3817 30.0191 10.8668C32.8982 8.99321 36.1151 7.69946 39.4897 7.05806C43.8577 6.24252 47.6237 7.74979 51.125 10.1751C53.5622 11.8269 55.6202 13.9781 57.1626 16.4859C58.5758 19.0445 58.9518 22.0482 58.2129 24.8762C57.4575 27.9629 56.347 30.9518 54.9038 33.7831C53.5802 36.7165 52.2651 39.6456 50.9115 42.5705C50.6858 43.2048 50.2196 43.7247 49.6135 44.0179C49.0069 44.3076 48.3107 44.3474 47.675 44.1289C45.788 43.5307 44.0906 42.4487 42.7518 40.9906C41.4111 39.5339 40.4762 37.751 40.0405 35.8198C39.7212 33.0528 40.1719 30.2514 41.3428 27.7242C42.5554 24.5986 43.9474 21.5457 45.2924 18.4799C45.4165 18.2749 45.4978 18.0469 45.5315 17.8096C45.5631 17.5711 45.5471 17.3288 45.4845 17.0965C45.42 16.8649 45.3096 16.6485 45.16 16.4603L45.1558 16.456C45.1301 16.4261 45.1088 16.4005 45.0831 16.3749C44.9615 16.2572 44.8115 16.1729 44.6476 16.1302C44.4838 16.0876 44.3117 16.088 44.1481 16.1315C44.1349 16.1323 44.1219 16.1352 44.1097 16.1401C44.0883 16.1486 44.0627 16.1529 44.0413 16.1614C43.9431 16.1913 43.8492 16.2212 43.7595 16.2553C43.5759 16.3237 43.3923 16.3962 43.213 16.4731C43.149 16.4987 43.0934 16.5286 43.0337 16.5585C42.9824 16.5841 42.9355 16.6097 42.8842 16.6354C42.502 16.8496 42.1391 17.0968 41.7997 17.374C41.1295 17.8934 40.4934 18.4554 39.8953 19.0564C39.8483 19.1033 39.8014 19.146 39.7587 19.193C39.4854 19.4705 39.2164 19.7524 38.9516 20.0384C38.7979 20.1921 38.6528 20.3459 38.5119 20.4996C38.1148 20.9223 37.7262 21.345 37.3377 21.7763C37.0559 22.088 36.7783 22.4039 36.5008 22.7242L36.488 22.737C36.3471 22.8992 36.2019 23.0658 36.061 23.2323C35.7706 23.5653 35.4846 23.9026 35.2028 24.2442C31.7583 28.5451 28.8211 33.2287 26.4495 38.2024C24.9593 41.0608 24.0316 44.1787 23.7168 47.3868C23.4039 49.8503 23.4832 52.3478 23.9516 54.7865C24.2111 56.3365 24.9949 57.7504 26.172 58.7916C27.3481 59.8335 28.8465 60.4395 30.4162 60.5081C36.4394 60.8446 42.4179 59.297 47.5213 56.0803C49.4679 54.7473 51.3382 53.3061 53.1233 51.7634C54.9892 50.2178 57.5042 46.7763 57.5042 46.7763C57.5042 46.7763 57.739 46.5158 59.7928 43.6208C60.6938 42.3484 61.6758 42.5491 62.3761 42.9889C63.0877 43.4536 63.5889 44.1786 63.7723 45.0085C64.0925 46.3407 64.2377 48.9154 62.7262 53.1469Z" fill="#262626"/>
</g>
<defs>
<clipPath id="clip0_9886_1275">
<rect width="70.8147" height="80" fill="white"/>
</clipPath>
</defs>
</svg>
