<?xml version="1.0" encoding="utf-8"?>
<!-- Generator: Adobe Illustrator 19.2.0, SVG Export Plug-In . SVG Version: 6.00 Build 0)  -->
<svg version="1.1" xmlns="http://www.w3.org/2000/svg" xmlns:xlink="http://www.w3.org/1999/xlink" x="0px" y="0px" width="800px"
	 height="142px" viewBox="0 0 800 142" enable-background="new 0 0 800 142" xml:space="preserve">
<g id="Background">
</g>
<g id="Vertical">
</g>
<g id="Horizontal">
</g>
<g id="Dynatrace_Color">
</g>
<g id="Variants">
	<g>
		<g>
			<g>
				<path fill="#1A1A1A" d="M578.6,37.2h-18.4c-5.2,0-8.8,1-11,3.2c-2.2,2.1-3.3,5.8-3.3,10.8l0,63.6h-11l0-64.4
					c0.1-4.9,0.9-10.2,3.5-14.2c4.7-7.5,13.7-8.9,20.4-8.9h19.9V37.2z"/>
			</g>
			<g>
				<path fill="#1A1A1A" d="M507.6,104.8c-5.2,0-8.8-1-11-3.2c-2.2-2.1-3.3-5.6-3.3-10.6V37.2h23.1v-9.9h-23.1V1h-11v90.6
					c0.1,4.9,0.9,10.2,3.5,14.2c4.7,7.5,13.7,8.9,20.4,8.9h19.9v-9.9H507.6z"/>
			</g>
			<path fill="#1A1A1A" d="M219.3,1v26.2l-23.1,0c-14,0-22.5,4.2-27.8,9.3c-8.1,7.9-8.1,19.2-8.1,20.4c0,1.4,0,26.8,0,28.2
				c0,1.2,0,12.5,8.1,20.4c5.2,5.1,13.7,9.3,27.8,9.3h10.3c6.7,0,15.7-1.5,20.4-8.9c2.5-4,3.4-9.3,3.5-14.2V1H219.3z M216,101.7
				c-2.2,2.1-5.8,3.2-11,3.2H195c-9.1,0-14.8-2.6-18.2-6c-4.1-4-5.5-9.3-5.5-13.4V56.6c0-4.1,1.4-9.4,5.5-13.4c3.5-3.4,9.1-6,18.2-6
				l24.2,0l0,53.9C219.3,96,218.2,99.5,216,101.7z"/>
			<path fill="#1A1A1A" d="M678.2,43.2c3.5-3.4,9.1-6,18.2-6h26.5v-9.9h-25.4c-14,0-22.5,4.2-27.8,9.3c-8.1,7.9-8.1,19.2-8.1,20.4
				c0,0.8,0,27.4,0,28.2c0,1.2,0,12.5,8.1,20.4c5.2,5.1,13.7,9.3,27.8,9.3h25.4v-9.9h-26.5c-9.1,0-14.8-2.6-18.2-6
				c-4.1-4-5.5-9.3-5.5-13.4V56.6C672.7,52.5,674.1,47.1,678.2,43.2z"/>
			<path fill="#1A1A1A" d="M470.9,56.9c0-1.2,0-12.5-8.1-20.4c-5.2-5.1-13.7-9.3-27.8-9.3h-24.5v9.9h25.6c9.1,0,14.8,2.6,18.2,6
				c4.1,4,5.5,9.3,5.5,13.4V65h-35.1c-6.7,0-15.7,1.5-20.4,8.9c-2.5,4-3.4,9.3-3.5,14.2v3.5c0.1,4.9,0.9,10.2,3.5,14.2
				c4.7,7.5,13.7,8.9,20.4,8.9h22.3c6.7,0,15.7-1.5,20.4-8.9c2.5-4,3.4-9.3,3.5-14.2C470.9,91.6,470.9,62.6,470.9,56.9z
				 M456.6,101.7c-2.2,2.1-5.8,3.2-11,3.2h-19.4c-5.2,0-8.8-1-11-3.2C413,99.5,412,96,412,91.1v-2.4c0-5,1.1-8.5,3.3-10.6
				c2.2-2.1,5.8-3.2,11-3.2h33.6l0,16.2C459.9,96,458.8,99.5,456.6,101.7z"/>
			<path fill="#1A1A1A" d="M652.9,56.9c0-1.2,0-12.5-8.1-20.4c-5.2-5.1-13.7-9.3-27.8-9.3h-24.5v9.9h25.6c9.1,0,14.8,2.6,18.2,6
				c4.1,4,5.5,9.3,5.5,13.4V65h-35.1c-6.7,0-15.7,1.5-20.4,8.9c-2.5,4-3.4,9.3-3.5,14.2v3.5c0.1,4.9,0.9,10.2,3.5,14.2
				c4.7,7.5,13.7,8.9,20.4,8.9h22.3c6.7,0,15.7-1.5,20.4-8.9c2.5-4,3.4-9.3,3.5-14.2C652.9,91.6,652.9,62.6,652.9,56.9z
				 M638.6,101.7c-2.2,2.1-5.8,3.2-11,3.2h-19.4c-5.2,0-8.8-1-11-3.2C595,99.5,594,96,594,91.1v-2.4c0-5,1.1-8.5,3.3-10.6
				c2.2-2.1,5.8-3.2,11-3.2h33.6l0,16.2C641.9,96,640.8,99.5,638.6,101.7z"/>
			<polygon fill="#1A1A1A" points="317.8,27.2 306.3,27.2 278.4,99.8 250.5,27.2 239.1,27.2 272.7,114.7 262.6,141 274.1,141 			"/>
			<path fill="#1A1A1A" d="M392.2,56.9c0-1.2,0-12.5-8-20.4c-5.1-5-13.2-9.1-26.4-9.3h-1.2c-13.2,0.2-21.3,4.3-26.4,9.3
				c-8,7.9-8,19.2-8,20.4c0,1.4,0,53.4,0,57.9h11l0-58.2c0-4.1,1.3-9.4,5.4-13.4c3.4-3.3,9.9-5.9,18.6-6c8.7,0.1,15.2,2.7,18.6,6
				c4,4,5.4,9.3,5.4,13.4l0,58.2h11C392.2,110.3,392.2,58.3,392.2,56.9z"/>
			<path fill="#1A1A1A" d="M791,36.5c-5.1-5-13.2-9.1-26.4-9.3h-1.2c-13.2,0.2-21.3,4.3-26.4,9.3c-8,7.9-8,19.2-8,20.4v28.2
				c0,1.2,0,12.5,8,20.4c5.1,5,13.2,9.1,26.4,9.3h26v-10l-25.4,0c-8.7-0.1-15.2-2.7-18.6-6c-4-4-5.4-9.3-5.4-13.4V75.1h59V56.9
				C799.1,55.7,799.1,44.4,791,36.5z M740.1,65.2v-8.6c0-4.1,1.3-9.4,5.4-13.4c3.4-3.3,9.9-5.9,18.6-6c8.7,0.1,15.2,2.7,18.6,6
				c4,4,5.4,9.3,5.4,13.4l0,8.6H740.1z"/>
		</g>
		<g>
			<path fill="#1496FF" d="M47.7,12.7c-1.8,9.5-4,23.6-5.2,37.9c-2.1,25.2-0.8,42.1-0.8,42.1L6.2,126.4c0,0-2.7-18.9-4.1-40.2
				C1.3,73,1,61.4,1,54.4c0-0.4,0.2-0.8,0.2-1.2c0-0.5,0.6-5.2,5.2-9.6C11.4,38.8,48.3,9.9,47.7,12.7z"/>
			<path fill="#1284EA" d="M47.7,12.7c-1.8,9.5-4,23.6-5.2,37.9c0,0-39.3-4.7-41.5,4.8c0-0.5,0.7-6.3,5.3-10.7
				C11.3,39.9,48.3,9.9,47.7,12.7z"/>
			<path fill="#B4DC00" d="M1,53.1c0,0.7,0,1.4,0,2.2c0.4-1.7,1.1-2.9,2.5-4.8c2.9-3.7,7.6-4.7,9.5-4.9c9.6-1.3,23.8-2.8,38.1-3.2
				c25.3-0.8,42,1.3,42,1.3L128.6,10c0,0-18.6-3.5-39.8-6C74.9,2.3,62.7,1.4,55.8,1c-0.5,0-5.4-0.6-10,3.8
				C40.8,9.6,15.4,33.7,5.2,43.4C0.6,47.8,1,52.7,1,53.1z"/>
			<path fill="#6F2DA8" d="M127.3,96.2c-9.6,1.3-23.8,2.9-38.1,3.4c-25.3,0.8-42.1-1.3-42.1-1.3l-35.5,33.8c0,0,18.8,3.7,40,6.1
				c13,1.5,24.5,2.3,31.5,2.7c0.5,0,1.3-0.4,1.8-0.4c0.5,0,5.4-0.9,10-5.3C99.9,130.4,130.1,95.9,127.3,96.2z"/>
			<path fill="#591F91" d="M127.3,96.2c-9.6,1.3-23.8,2.9-38.1,3.4c0,0,2.7,39.5-6.8,41.2c0.5,0,7-0.3,11.6-4.7
				C99,131.3,130.1,95.9,127.3,96.2z"/>
			<path fill="#73BE28" d="M84.5,141c-0.7,0-1.4-0.1-2.2-0.1c1.8-0.3,3-0.9,4.9-2.3c3.8-2.7,5-7.4,5.4-9.3c1.7-9.5,4-23.6,5.1-37.9
				c2-25.2,0.8-42,0.8-42l35.5-33.8c0,0,2.6,18.8,4.1,40.1c0.9,13.9,1.2,26.2,1.3,33c0,0.5,0.4,5.4-4.2,9.8
				c-5,4.8-30.4,29-40.5,38.7C89.9,141.6,85,141,84.5,141z"/>
		</g>
	</g>
</g>
</svg>
