<svg width="963" height="256" viewBox="0 0 963 256" fill="none" xmlns="http://www.w3.org/2000/svg">
<path d="M287.541 161V92.1449H305.761V117.78H326.312V92.1449H344.532V161H326.312V133.67H305.761V161H287.541ZM374.366 162.271C368.575 162.271 364.373 160.329 361.76 156.445C359.147 152.49 357.841 147.229 357.841 140.661V108.035H376.061V138.331C376.061 141.721 376.485 143.98 377.332 145.11C378.25 146.24 379.592 146.805 381.358 146.805C383.052 146.805 384.465 146.452 385.595 145.746C386.725 145.04 387.855 143.839 388.985 142.144V108.035H407.205V161H392.374L391.103 154.009H390.679C388.561 156.551 386.195 158.564 383.582 160.047C381.04 161.53 377.968 162.271 374.366 162.271ZM438.785 182.822C434.76 182.822 431.052 182.363 427.662 181.445C424.273 180.597 421.554 179.22 419.506 177.313C417.528 175.407 416.54 172.864 416.54 169.686C416.54 165.52 419.011 162.13 423.955 159.517V159.093C422.601 158.092 421.42 156.875 420.459 155.492C419.541 154.009 419.082 152.172 419.082 149.983C419.082 148.147 419.612 146.346 420.671 144.581C421.801 142.815 423.249 141.297 425.014 140.026V139.602C423.107 138.331 421.413 136.53 419.93 134.199C418.517 131.798 417.811 129.079 417.811 126.043C417.811 121.664 418.87 118.063 420.989 115.238C423.178 112.342 426.003 110.224 429.463 108.882C432.924 107.47 436.596 106.763 440.48 106.763C443.587 106.763 446.412 107.187 448.954 108.035H468.658V121.17H461.031C461.242 121.806 461.419 122.618 461.56 123.606C461.772 124.595 461.878 125.619 461.878 126.678C461.878 130.845 460.925 134.235 459.018 136.848C457.111 139.39 454.534 141.262 451.285 142.462C448.036 143.663 444.435 144.263 440.48 144.263C438.715 144.263 436.737 144.016 434.548 143.521C433.7 144.298 433.277 145.322 433.277 146.593C433.277 147.723 433.842 148.535 434.972 149.03C436.172 149.524 438.079 149.771 440.692 149.771H448.637C455.275 149.771 460.395 150.866 463.997 153.055C467.669 155.174 469.505 158.669 469.505 163.542C469.505 167.356 468.234 170.71 465.692 173.606C463.22 176.501 459.689 178.761 455.098 180.385C450.508 182.01 445.07 182.822 438.785 182.822ZM440.48 133.458C442.175 133.458 443.552 132.858 444.611 131.657C445.671 130.457 446.2 128.585 446.2 126.043C446.2 123.571 445.671 121.77 444.611 120.64C443.552 119.44 442.175 118.84 440.48 118.84C438.785 118.84 437.408 119.44 436.349 120.64C435.289 121.77 434.76 123.571 434.76 126.043C434.76 128.585 435.289 130.457 436.349 131.657C437.408 132.858 438.785 133.458 440.48 133.458ZM441.751 171.593C444.717 171.593 447.189 171.134 449.166 170.216C451.144 169.368 452.132 168.203 452.132 166.72C452.132 165.308 451.497 164.425 450.226 164.072C449.025 163.719 447.295 163.542 445.035 163.542H440.904C438.785 163.542 437.161 163.472 436.031 163.33C434.972 163.26 434.054 163.119 433.277 162.907C432.006 164.178 431.37 165.449 431.37 166.72C431.37 168.415 432.323 169.651 434.23 170.428C436.208 171.205 438.715 171.593 441.751 171.593ZM496.613 182.822C492.587 182.822 488.88 182.363 485.49 181.445C482.1 180.597 479.381 179.22 477.333 177.313C475.356 175.407 474.367 172.864 474.367 169.686C474.367 165.52 476.839 162.13 481.782 159.517V159.093C480.428 158.092 479.247 156.875 478.287 155.492C477.368 154.009 476.909 152.172 476.909 149.983C476.909 148.147 477.439 146.346 478.498 144.581C479.628 142.815 481.076 141.297 482.842 140.026V139.602C480.935 138.331 479.24 136.53 477.757 134.199C476.344 131.798 475.638 129.079 475.638 126.043C475.638 121.664 476.698 118.063 478.816 115.238C481.005 112.342 483.83 110.224 487.291 108.882C490.751 107.47 494.423 106.763 498.307 106.763C501.415 106.763 504.24 107.187 506.782 108.035H526.485V121.17H518.858C519.07 121.806 519.246 122.618 519.388 123.606C519.599 124.595 519.705 125.619 519.705 126.678C519.705 130.845 518.752 134.235 516.845 136.848C514.939 139.39 512.361 141.262 509.112 142.462C505.864 143.663 502.262 144.263 498.307 144.263C496.542 144.263 494.565 144.016 492.375 143.521C491.528 144.298 491.104 145.322 491.104 146.593C491.104 147.723 491.669 148.535 492.799 149.03C494 149.524 495.906 149.771 498.519 149.771H506.464C513.102 149.771 518.222 150.866 521.824 153.055C525.496 155.174 527.332 158.669 527.332 163.542C527.332 167.356 526.061 170.71 523.519 173.606C521.047 176.501 517.516 178.761 512.926 180.385C508.336 182.01 502.898 182.822 496.613 182.822ZM498.307 133.458C500.002 133.458 501.379 132.858 502.439 131.657C503.498 130.457 504.028 128.585 504.028 126.043C504.028 123.571 503.498 121.77 502.439 120.64C501.379 119.44 500.002 118.84 498.307 118.84C496.613 118.84 495.235 119.44 494.176 120.64C493.117 121.77 492.587 123.571 492.587 126.043C492.587 128.585 493.117 130.457 494.176 131.657C495.235 132.858 496.613 133.458 498.307 133.458ZM499.579 171.593C502.545 171.593 505.016 171.134 506.994 170.216C508.971 169.368 509.96 168.203 509.96 166.72C509.96 165.308 509.324 164.425 508.053 164.072C506.853 163.719 505.122 163.542 502.862 163.542H498.731C496.613 163.542 494.988 163.472 493.858 163.33C492.799 163.26 491.881 163.119 491.104 162.907C489.833 164.178 489.197 165.449 489.197 166.72C489.197 168.415 490.151 169.651 492.058 170.428C494.035 171.205 496.542 171.593 499.579 171.593ZM535.161 161V108.035H553.381V161H535.161ZM544.271 101.467C541.305 101.467 538.903 100.655 537.067 99.0309C535.231 97.3359 534.313 95.1109 534.313 92.3569C534.313 89.6029 535.231 87.4129 537.067 85.7889C538.903 84.0939 541.305 83.2469 544.271 83.2469C547.237 83.2469 549.638 84.0939 551.474 85.7889C553.31 87.4129 554.228 89.6029 554.228 92.3569C554.228 95.1109 553.31 97.3359 551.474 99.0309C549.638 100.655 547.237 101.467 544.271 101.467ZM565.678 161V108.035H580.508L581.779 114.39H582.203C584.321 112.342 586.723 110.577 589.406 109.094C592.16 107.54 595.338 106.763 598.94 106.763C604.801 106.763 609.003 108.741 611.546 112.696C614.159 116.58 615.465 121.806 615.465 128.373V161H597.245V130.704C597.245 127.314 596.821 125.054 595.974 123.924C595.126 122.794 593.785 122.229 591.948 122.229C590.254 122.229 588.841 122.582 587.711 123.289C586.581 123.995 585.31 124.984 583.898 126.255V161H565.678ZM646.612 182.822C642.587 182.822 638.879 182.363 635.489 181.445C632.1 180.597 629.381 179.22 627.333 177.313C625.355 175.407 624.367 172.864 624.367 169.686C624.367 165.52 626.838 162.13 631.782 159.517V159.093C630.428 158.092 629.247 156.875 628.286 155.492C627.368 154.009 626.909 152.172 626.909 149.983C626.909 148.147 627.439 146.346 628.498 144.581C629.628 142.815 631.076 141.297 632.841 140.026V139.602C630.934 138.331 629.239 136.53 627.756 134.199C626.344 131.798 625.638 129.079 625.638 126.043C625.638 121.664 626.697 118.063 628.816 115.238C631.005 112.342 633.83 110.224 637.29 108.882C640.751 107.47 644.423 106.763 648.307 106.763C651.414 106.763 654.239 107.187 656.781 108.035H676.484V121.17H668.857C669.069 121.806 669.246 122.618 669.387 123.606C669.599 124.595 669.705 125.619 669.705 126.678C669.705 130.845 668.752 134.235 666.845 136.848C664.938 139.39 662.36 141.262 659.112 142.462C655.863 143.663 652.262 144.263 648.307 144.263C646.541 144.263 644.564 144.016 642.375 143.521C641.527 144.298 641.104 145.322 641.104 146.593C641.104 147.723 641.669 148.535 642.799 149.03C643.999 149.524 645.906 149.771 648.519 149.771H656.464C663.102 149.771 668.222 150.866 671.824 153.055C675.496 155.174 677.332 158.669 677.332 163.542C677.332 167.356 676.061 170.71 673.518 173.606C671.047 176.501 667.516 178.761 662.925 180.385C658.335 182.01 652.897 182.822 646.612 182.822ZM648.307 133.458C650.002 133.458 651.379 132.858 652.438 131.657C653.498 130.457 654.027 128.585 654.027 126.043C654.027 123.571 653.498 121.77 652.438 120.64C651.379 119.44 650.002 118.84 648.307 118.84C646.612 118.84 645.235 119.44 644.176 120.64C643.116 121.77 642.587 123.571 642.587 126.043C642.587 128.585 643.116 130.457 644.176 131.657C645.235 132.858 646.612 133.458 648.307 133.458ZM649.578 171.593C652.544 171.593 655.016 171.134 656.993 170.216C658.971 169.368 659.959 168.203 659.959 166.72C659.959 165.308 659.324 164.425 658.053 164.072C656.852 163.719 655.122 163.542 652.862 163.542H648.731C646.612 163.542 644.988 163.472 643.858 163.33C642.799 163.26 641.88 163.119 641.104 162.907C639.832 164.178 639.197 165.449 639.197 166.72C639.197 168.415 640.15 169.651 642.057 170.428C644.034 171.205 646.541 171.593 649.578 171.593ZM707.85 161V92.1449H752.764V107.399H726.07V120.534H748.951V135.788H726.07V161H707.85ZM772.689 162.271C769.37 162.271 766.51 161.53 764.109 160.047C761.817 158.535 759.955 156.455 758.707 154.009C757.435 151.537 756.8 148.853 756.8 145.958C756.8 140.449 759.06 136.142 763.579 133.034C768.099 129.856 775.444 127.738 785.613 126.678C785.189 123.006 782.717 121.17 778.198 121.17C776.291 121.17 774.278 121.558 772.16 122.335C770.041 123.041 767.605 124.136 764.85 125.619L758.495 113.755C762.238 111.495 766.016 109.765 769.829 108.564C773.706 107.365 777.741 106.758 781.799 106.763C788.72 106.763 794.123 108.741 798.007 112.696C801.891 116.58 803.833 122.865 803.833 131.551V161H789.003L787.732 155.915H787.308C785.189 157.822 782.929 159.376 780.528 160.576C778.198 161.706 775.585 162.271 772.689 162.271ZM779.045 148.288C780.528 148.288 781.764 147.97 782.753 147.335C783.741 146.629 784.695 145.746 785.613 144.687V137.483C781.305 138.119 778.304 139.072 776.609 140.343C774.985 141.615 774.172 142.992 774.172 144.475C774.172 147.017 775.797 148.288 779.045 148.288ZM839.652 162.271C834.638 162.271 830.118 161.176 826.093 158.987C822.067 156.798 818.854 153.655 816.453 149.559C814.122 145.393 812.957 140.379 812.957 134.517C812.957 128.656 814.264 123.677 816.877 119.581C819.56 115.414 823.056 112.237 827.364 110.047C831.671 107.858 836.332 106.763 841.346 106.763C844.524 106.763 847.385 107.258 849.927 108.246C852.54 109.235 854.835 110.577 856.812 112.272L848.338 123.924C847.208 122.936 846.184 122.265 845.266 121.912C844.354 121.559 843.384 121.38 842.406 121.382C839.016 121.382 836.368 122.582 834.461 124.984C832.554 127.314 831.601 130.492 831.601 134.517C831.601 138.543 832.59 141.756 834.567 144.157C836.544 146.487 838.945 147.653 841.77 147.653C843.253 147.653 844.701 147.335 846.113 146.699C847.561 146.014 848.944 145.198 850.245 144.263L857.236 156.127C854.623 158.458 851.728 160.082 848.55 161C845.372 161.847 842.406 162.271 839.652 162.271ZM887.046 162.271C881.89 162.271 877.229 161.176 873.063 158.987C868.967 156.798 865.718 153.655 863.317 149.559C860.916 145.393 859.716 140.379 859.716 134.517C859.716 128.797 860.916 123.889 863.317 119.793C865.789 115.626 868.967 112.413 872.851 110.153C876.735 107.893 880.831 106.763 885.139 106.763C890.365 106.763 894.673 107.929 898.062 110.259C901.523 112.519 904.065 115.591 905.689 119.475C907.384 123.359 908.232 127.667 908.232 132.399C908.232 133.952 908.126 135.471 907.914 136.954C907.773 138.366 907.631 139.39 907.49 140.026H877.3C878.147 143.204 879.666 145.428 881.855 146.699C884.044 147.9 886.622 148.5 889.588 148.5C892.978 148.5 896.579 147.441 900.393 145.322L906.325 156.127C903.5 158.104 900.322 159.623 896.791 160.682C893.26 161.741 890.012 162.271 887.046 162.271ZM877.088 128.161H892.766C892.766 126.113 892.236 124.348 891.177 122.865C890.188 121.311 888.317 120.534 885.563 120.534C883.585 120.534 881.82 121.135 880.266 122.335C878.712 123.536 877.653 125.478 877.088 128.161Z" fill="#000B1B"/>
<path d="M248.378 171.091C247.841 169.064 246.971 167.141 245.804 165.399C246.054 164.481 246.244 163.549 246.372 162.608C247.2 156.632 245.129 151.161 241.224 146.927C239.109 144.615 236.842 143.089 234.441 142.152C236.017 135.409 236.815 128.508 236.819 121.583C236.819 118.421 236.64 115.323 236.34 112.271C236.183 110.747 235.994 109.226 235.773 107.71C235.085 103.237 234.065 98.8214 232.721 94.5C231.84 91.6607 230.821 88.866 229.668 86.126C227.939 82.0684 225.92 78.1402 223.627 74.372C222.122 71.8656 220.484 69.4417 218.719 67.111C217.854 65.934 216.953 64.7848 216.015 63.665C213.237 60.2884 210.219 57.1177 206.982 54.178C205.908 53.1898 204.803 52.2357 203.668 51.317C202.551 50.3852 201.409 49.4832 200.244 48.612C197.899 46.8668 195.475 45.2294 192.981 43.705C179.2 35.335 163.039 30.536 145.766 30.536C95.4751 30.536 54.7141 71.298 54.7141 121.587C54.7128 128.599 55.5252 135.587 57.1351 142.411C54.9751 143.349 52.9041 144.81 50.9851 146.925C47.0811 151.156 45.0091 156.608 45.8381 162.583C45.9631 163.533 46.1531 164.473 46.4051 165.397C45.2388 167.14 44.3691 169.064 43.8311 171.091C42.6311 175.652 43.0261 179.765 44.5511 183.368C42.8941 188.079 43.3081 193.095 45.4671 197.456C47.0371 200.641 49.2841 203.104 52.0531 205.307C55.3461 207.924 59.4681 210.149 64.4411 212.282C70.3731 214.812 77.6131 217.189 80.9061 218.061C89.4121 220.264 97.5681 221.66 105.835 221.727C117.611 221.837 127.753 219.067 135.015 211.98C138.582 212.417 142.172 212.636 145.766 212.635C149.563 212.627 153.356 212.387 157.124 211.919C164.368 219.051 174.549 221.846 186.369 221.733C194.634 221.668 202.79 220.272 211.274 218.066C214.589 217.194 221.827 214.817 227.762 212.288C232.735 210.15 236.856 207.926 240.172 205.312C242.92 203.11 245.165 200.646 246.736 197.461C248.917 193.1 249.31 188.084 247.674 183.373C249.185 179.77 249.577 175.648 248.378 171.091ZM239.939 183.063C241.61 186.234 241.717 189.817 240.242 193.154C238.006 198.212 232.452 202.195 221.665 206.472C214.958 209.133 208.815 210.833 208.761 210.849C199.889 213.15 191.865 214.318 184.919 214.318C173.417 214.318 164.859 211.145 159.431 204.877C150.252 206.44 140.879 206.493 131.683 205.034C126.249 211.198 117.738 214.318 106.333 214.318C99.3861 214.318 91.3631 213.15 82.4911 210.849C82.4361 210.833 76.2971 209.133 69.5871 206.472C58.8001 202.195 53.2451 198.214 51.0101 193.154C49.5351 189.817 49.6421 186.234 51.3131 183.063C51.4681 182.769 51.6331 182.481 51.8101 182.204C50.8085 180.7 50.1368 179 49.8389 177.218C49.5411 175.436 49.624 173.61 50.0821 171.862C50.7461 169.34 52.1181 167.242 53.9801 165.735C53.0835 164.261 52.495 162.621 52.2501 160.913C51.7141 157.199 52.9461 153.49 55.7201 150.467C57.8791 148.114 60.9321 146.819 64.3131 146.819H64.4031C61.8544 138.65 60.562 130.141 60.5701 121.584C60.5701 74.912 98.4071 37.074 145.084 37.074C191.762 37.074 229.598 74.909 229.598 121.584C229.604 130.164 228.303 138.695 225.739 146.883C226.147 146.843 226.547 146.822 226.939 146.822C230.319 146.822 233.373 148.116 235.532 150.469C238.304 153.49 239.539 157.202 239.002 160.915C238.757 162.623 238.169 164.264 237.272 165.738C239.134 167.244 240.506 169.342 241.17 171.865C241.627 173.613 241.71 175.438 241.412 177.221C241.114 179.003 240.443 180.702 239.442 182.207C239.619 182.481 239.786 182.769 239.939 183.063Z" fill="white"/>
<path d="M239.442 182.207C240.443 180.702 241.114 179.003 241.412 177.221C241.71 175.438 241.627 173.613 241.17 171.865C240.506 169.343 239.134 167.245 237.272 165.738C238.168 164.264 238.757 162.624 239.002 160.916C239.538 157.202 238.306 153.493 235.532 150.47C233.373 148.117 230.319 146.822 226.939 146.822C226.546 146.822 226.147 146.842 225.739 146.883C228.3 138.695 229.599 130.164 229.591 121.585C229.591 74.9139 191.754 37.075 145.081 37.075C98.408 37.075 60.567 74.9099 60.567 121.585C60.5589 130.142 61.8513 138.651 64.4 146.82H64.31C60.93 146.82 57.877 148.115 55.718 150.468C52.946 153.489 51.712 157.2 52.248 160.914C52.4927 162.622 53.0812 164.262 53.978 165.736C52.116 167.243 50.744 169.341 50.081 171.864C49.6232 173.612 49.5406 175.438 49.8388 177.221C50.137 179.003 50.8091 180.703 51.811 182.207C51.632 182.484 51.468 182.772 51.314 183.066C49.644 186.237 49.536 189.82 51.011 193.157C53.246 198.214 58.801 202.199 69.588 206.475C76.295 209.136 82.438 210.836 82.492 210.852C91.364 213.153 99.387 214.322 106.333 214.322C117.739 214.322 126.249 211.202 131.684 205.037C140.88 206.496 150.253 206.443 159.432 204.88C164.859 211.148 173.418 214.322 184.92 214.322C191.866 214.322 199.89 213.153 208.762 210.852C208.816 210.836 214.956 209.136 221.666 206.475C232.453 202.199 238.008 198.214 240.243 193.157C241.718 189.82 241.611 186.237 239.94 183.066C239.787 182.769 239.619 182.482 239.442 182.207ZM127.795 195.387C127.327 196.206 126.826 197.005 126.292 197.782C124.887 199.839 123.039 201.41 120.895 202.579C116.794 204.814 111.605 205.596 106.332 205.596C98.004 205.596 89.466 203.647 84.68 202.405C84.445 202.344 55.346 194.125 59.03 187.129C59.65 185.953 60.671 185.483 61.955 185.483C67.142 185.483 76.5871 193.207 80.6471 193.207C81.5531 193.207 82.193 192.82 82.454 191.879C84.184 185.674 56.161 183.066 58.521 174.082C58.938 172.492 60.067 171.847 61.656 171.847C68.513 171.846 83.905 183.906 87.124 183.906C87.371 183.906 87.548 183.834 87.644 183.682L87.686 183.613C89.196 181.118 88.33 179.304 77.978 172.964L76.984 172.359C65.594 165.464 57.598 161.316 62.146 156.366C62.669 155.794 63.41 155.541 64.311 155.541C65.38 155.541 66.673 155.899 68.097 156.498C74.113 159.035 82.451 165.954 85.934 168.972C86.961 169.866 87.566 170.412 87.566 170.412C87.566 170.412 91.976 174.998 94.643 174.998C95.257 174.998 95.777 174.757 96.13 174.158C98.022 170.97 78.567 156.228 77.47 150.146C76.727 146.024 77.992 143.937 80.333 143.937C81.445 143.937 82.803 144.41 84.302 145.361C88.952 148.313 97.93 163.741 101.217 169.742C102.319 171.754 104.2 172.604 105.895 172.604C109.258 172.604 111.887 169.261 106.203 165.013C97.66 158.62 100.658 148.172 104.735 147.529C104.909 147.502 105.085 147.488 105.26 147.487C108.968 147.487 110.604 153.877 110.604 153.877C110.604 153.877 115.397 165.915 123.632 174.143C131.105 181.612 132.148 187.742 127.795 195.387ZM154.424 196.797L153.997 196.848L153.268 196.932C152.885 196.971 152.502 197.009 152.117 197.045L151.741 197.079L151.399 197.108L150.912 197.147C150.733 197.16 150.554 197.174 150.375 197.185L149.839 197.221L149.721 197.228L149.299 197.253L149.12 197.262L148.62 197.287L148.039 197.311L147.511 197.329L147.159 197.339H146.981C146.871 197.339 146.762 197.345 146.652 197.346H146.477C146.367 197.346 146.258 197.346 146.148 197.352L145.701 197.357H145.075C144.584 197.357 144.095 197.352 143.606 197.343L143.21 197.334C143.098 197.334 142.985 197.328 142.873 197.325L142.454 197.312L141.932 197.292L141.463 197.272L141.341 197.267L140.894 197.243C140.77 197.236 140.646 197.23 140.523 197.222L140.234 197.205C139.871 197.182 139.508 197.156 139.145 197.128L138.765 197.098L138.285 197.057L137.724 197.005C137.411 196.976 137.098 196.944 136.785 196.909H136.77C141.34 186.714 139.029 177.193 129.794 167.965C123.738 161.917 119.708 152.984 118.873 151.023C117.181 145.218 112.702 138.765 105.265 138.765C104.636 138.766 104.009 138.816 103.388 138.914C100.129 139.426 97.281 141.302 95.249 144.124C93.054 141.393 90.919 139.222 88.989 137.995C86.079 136.151 83.176 135.215 80.346 135.215C76.816 135.215 73.659 136.665 71.459 139.295L71.404 139.362L71.28 138.841L71.275 138.819C70.8566 137.029 70.5051 135.223 70.221 133.407C70.221 133.394 70.221 133.382 70.215 133.37L70.153 132.959C70.1195 132.737 70.0868 132.514 70.055 132.292C70.029 132.107 70.003 131.922 69.979 131.738C69.955 131.554 69.929 131.369 69.907 131.184C69.883 130.998 69.861 130.813 69.839 130.628C69.8179 130.452 69.7976 130.276 69.778 130.1L69.7721 130.055C69.6819 129.243 69.6046 128.43 69.54 127.616L69.505 127.145C69.495 127.016 69.486 126.886 69.478 126.755C69.478 126.725 69.474 126.694 69.472 126.666L69.4391 126.144C69.4271 125.955 69.418 125.766 69.408 125.577C69.398 125.389 69.388 125.2 69.38 125.01L69.36 124.515L69.354 124.365L69.339 123.907L69.3281 123.519C69.3281 123.364 69.321 123.208 69.318 123.053L69.31 122.564C69.308 122.401 69.31 122.239 69.306 122.076C69.301 121.912 69.306 121.749 69.306 121.585C69.306 79.7329 103.237 45.8019 145.093 45.8019C186.949 45.8019 220.879 79.7309 220.879 121.585V122.564C220.879 122.727 220.875 122.891 220.871 123.053C220.871 123.189 220.866 123.322 220.862 123.458C220.862 123.579 220.857 123.699 220.852 123.816C220.852 123.969 220.843 124.121 220.838 124.274V124.287C220.825 124.619 220.811 124.951 220.797 125.283L220.791 125.393L220.765 125.889L220.741 126.282C220.685 127.213 220.612 128.144 220.523 129.073V129.086C220.507 129.26 220.489 129.435 220.47 129.609C220.426 130.014 220.381 130.419 220.336 130.824L220.285 131.231L220.222 131.709C220.2 131.884 220.176 132.058 220.151 132.232C220.124 132.427 220.095 132.621 220.067 132.815L219.997 133.273L219.915 133.793C219.887 133.966 219.859 134.138 219.826 134.311C219.792 134.483 219.766 134.655 219.736 134.828C219.676 135.172 219.614 135.515 219.547 135.858C219.414 136.541 219.275 137.222 219.128 137.902C219.091 138.071 219.053 138.241 219.014 138.41C216.881 136.337 214.057 135.208 210.941 135.208C208.114 135.208 205.208 136.143 202.299 137.988C200.368 139.214 198.235 141.386 196.038 144.117C194.003 141.294 191.155 139.419 187.9 138.906C187.279 138.809 186.651 138.759 186.022 138.758C178.583 138.758 174.107 145.211 172.414 151.016C171.575 152.977 167.545 161.909 161.482 167.967C152.254 177.165 149.925 186.644 154.424 196.797ZM232.664 176.389L232.634 176.478C232.613 176.535 232.592 176.592 232.569 176.648C232.533 176.733 232.495 176.816 232.455 176.899C232.358 177.097 232.248 177.289 232.127 177.473C231.96 177.722 231.777 177.96 231.578 178.184C231.532 178.236 231.488 178.287 231.436 178.338C231.366 178.415 231.291 178.49 231.217 178.565C229.87 179.9 227.818 181.069 225.498 182.143C225.235 182.262 224.969 182.381 224.699 182.5L224.431 182.619C224.252 182.698 224.074 182.777 223.886 182.854C223.703 182.932 223.519 183.009 223.335 183.085L222.777 183.316C221.472 183.853 220.135 184.364 218.83 184.87L218.273 185.086L217.721 185.302C217.355 185.445 216.993 185.588 216.636 185.731L216.105 185.945L215.584 186.159L215.327 186.266C215.157 186.338 214.989 186.408 214.823 186.48C210.985 188.126 208.225 189.801 208.805 191.88C208.821 191.939 208.839 191.995 208.859 192.049C208.911 192.203 208.982 192.349 209.07 192.485C209.122 192.567 209.182 192.644 209.249 192.714C209.931 193.422 211.172 193.31 212.737 192.748C212.864 192.702 212.994 192.653 213.125 192.601C213.215 192.567 213.304 192.531 213.394 192.495L213.529 192.438C213.887 192.286 214.266 192.117 214.654 191.932C214.751 191.887 214.849 191.843 214.947 191.791C216.86 190.856 219.029 189.595 221.181 188.448C221.511 188.269 221.842 188.098 222.171 187.928C222.709 187.649 223.252 187.38 223.8 187.123C225.838 186.165 227.753 185.485 229.294 185.485C230.016 185.485 230.655 185.633 231.186 185.973L231.275 186.032C231.544 186.222 231.778 186.455 231.969 186.723C232.013 186.786 232.059 186.851 232.098 186.918C232.14 186.987 232.18 187.058 232.218 187.13C232.979 188.574 232.342 190.071 230.852 191.538C229.421 192.946 227.195 194.327 224.664 195.606C224.477 195.701 224.288 195.796 224.098 195.888C216.567 199.586 206.707 202.371 206.569 202.406C203.941 203.087 200.183 203.982 195.95 204.651L195.323 204.748L195.221 204.763C194.261 204.907 193.298 205.034 192.333 205.144L192.244 205.153C190.489 205.353 188.689 205.498 186.886 205.559H186.859C186.211 205.583 185.564 205.594 184.916 205.594H184.17C183.182 205.58 182.195 205.536 181.21 205.46C181.187 205.46 181.163 205.46 181.139 205.455C180.787 205.428 180.434 205.395 180.083 205.356C179.479 205.291 178.876 205.211 178.275 205.117C178.041 205.078 177.791 205.037 177.55 204.995C177.44 204.975 177.331 204.955 177.222 204.933L177.196 204.928C176.849 204.862 176.504 204.789 176.16 204.71C175.961 204.665 175.761 204.62 175.564 204.567L175.446 204.536C175.348 204.512 175.252 204.486 175.156 204.46L175.103 204.446L174.794 204.357C174.682 204.325 174.571 204.292 174.459 204.259L174.419 204.247L174.128 204.158C174.018 204.124 173.909 204.088 173.8 204.053C173.71 204.023 173.621 203.992 173.531 203.963L173.334 203.894C173.144 203.828 172.956 203.758 172.768 203.686L172.59 203.617L172.443 203.558C172.16 203.444 171.878 203.325 171.599 203.2L171.413 203.111L171.382 203.097C171.316 203.066 171.251 203.035 171.185 203.007C171.056 202.945 170.928 202.881 170.801 202.816L170.763 202.797L170.579 202.7C170.252 202.53 169.931 202.348 169.617 202.154L169.445 202.049C169.356 201.995 169.275 201.94 169.19 201.885L168.966 201.736C168.885 201.682 168.804 201.627 168.725 201.57L168.581 201.468C168.429 201.359 168.28 201.248 168.133 201.133C168.055 201.073 167.978 201.011 167.901 200.954C167.73 200.817 167.563 200.676 167.398 200.531L167.391 200.525C167.23 200.386 167.073 200.242 166.92 200.095L166.912 200.085C166.832 200.009 166.754 199.933 166.676 199.854C166.599 199.775 166.521 199.697 166.446 199.618C166.37 199.538 166.294 199.457 166.22 199.374C166.148 199.296 166.078 199.217 166.008 199.137L165.984 199.11C165.623 198.691 165.285 198.252 164.972 197.795L164.848 197.612C164.766 197.491 164.685 197.369 164.605 197.247L164.369 196.884C164.253 196.707 164.14 196.528 164.03 196.348C163.951 196.22 163.873 196.092 163.796 195.963C163.731 195.853 163.666 195.744 163.604 195.636C163.569 195.577 163.536 195.517 163.503 195.457C163.47 195.395 163.431 195.332 163.396 195.269L163.34 195.17C163.321 195.137 163.315 195.127 163.305 195.105C163.237 194.986 163.171 194.865 163.107 194.742C163.078 194.689 163.049 194.635 163.018 194.582L162.928 194.41L162.839 194.239L162.667 193.892C162.639 193.835 162.612 193.778 162.585 193.721C162.526 193.598 162.47 193.477 162.414 193.356C162.392 193.307 162.369 193.258 162.349 193.209C162.272 193.042 162.199 192.873 162.13 192.702C162.083 192.589 162.04 192.477 161.994 192.365C161.865 192.035 161.744 191.702 161.633 191.365C161.6 191.265 161.567 191.166 161.538 191.066C161.466 190.839 161.401 190.61 161.343 190.379C161.272 190.11 161.209 189.838 161.156 189.565C161.122 189.404 161.092 189.242 161.067 189.079C161.04 188.918 161.017 188.757 160.998 188.597C160.957 188.278 160.928 187.958 160.911 187.637C160.911 187.584 160.906 187.53 160.905 187.477C160.9 187.371 160.897 187.265 160.896 187.159C160.84 182.887 163.003 178.778 167.626 174.157C175.86 165.93 180.654 153.891 180.654 153.891C180.654 153.891 180.783 153.386 181.052 152.66C181.142 152.419 181.236 152.179 181.335 151.942C181.448 151.674 181.569 151.409 181.699 151.149L181.737 151.073C181.904 150.741 182.085 150.418 182.282 150.103C182.327 150.03 182.371 149.957 182.423 149.885C182.569 149.667 182.724 149.456 182.887 149.251C183.013 149.094 183.147 148.942 183.288 148.798C183.766 148.306 184.311 147.904 184.928 147.689L185.006 147.664C185.058 147.647 185.109 147.631 185.162 147.616C185.224 147.6 185.286 147.585 185.348 147.572L185.376 147.567C185.507 147.541 185.638 147.523 185.771 147.514H185.783C185.852 147.514 185.921 147.507 185.992 147.507C186.169 147.508 186.345 147.522 186.52 147.549C187.262 147.666 187.969 148.108 188.577 148.79L188.659 148.886C188.857 149.118 189.037 149.366 189.197 149.626C189.317 149.819 189.43 150.022 189.537 150.235C189.58 150.325 189.621 150.407 189.662 150.495C189.682 150.54 189.702 150.584 189.721 150.63C189.761 150.719 189.798 150.809 189.835 150.903C190.044 151.439 190.206 151.992 190.32 152.556C190.441 153.165 190.511 153.783 190.531 154.404C190.538 154.677 190.538 154.953 190.531 155.233C190.526 155.339 190.521 155.446 190.513 155.553C190.431 156.742 190.172 157.912 189.744 159.025C189.701 159.135 189.654 159.247 189.61 159.359C189.395 159.873 189.145 160.371 188.863 160.851C188.702 161.125 188.528 161.397 188.342 161.667L188.228 161.829C187.787 162.445 187.295 163.023 186.757 163.557C186.227 164.088 185.659 164.579 185.058 165.028C184.455 165.473 183.89 165.967 183.368 166.504C181.865 168.082 181.515 169.473 181.853 170.528C181.893 170.647 181.94 170.764 181.994 170.877C182.119 171.122 182.281 171.347 182.475 171.543L182.528 171.596C182.583 171.649 182.641 171.7 182.7 171.749L182.76 171.798C182.906 171.91 183.06 172.01 183.221 172.097C183.267 172.122 183.31 172.147 183.363 172.171C183.584 172.281 183.815 172.369 184.053 172.436L184.119 172.453L184.208 172.477L184.286 172.496L184.369 172.514L184.452 172.531L184.531 172.544C184.59 172.555 184.65 172.564 184.709 172.572L184.767 172.58L184.87 172.591L184.934 172.597L185.04 172.605H185.101L185.211 172.61H185.558L185.657 172.605L185.771 172.598L185.91 172.585L186.04 172.569C186.069 172.569 186.099 172.561 186.129 172.556C186.587 172.489 187.033 172.36 187.455 172.172C187.545 172.134 187.634 172.092 187.716 172.048C187.892 171.96 188.063 171.861 188.227 171.752C188.456 171.602 188.672 171.433 188.875 171.249L189.016 171.115C189.038 171.093 189.061 171.072 189.082 171.049C189.22 170.911 189.35 170.765 189.471 170.612C189.685 170.342 189.875 170.055 190.04 169.753C191.997 166.195 194.048 162.689 196.191 159.24L196.485 158.769L196.782 158.297C196.931 158.059 197.08 157.823 197.229 157.59L197.38 157.355L197.681 156.886C198.085 156.261 198.49 155.643 198.898 155.031L199.203 154.575C199.815 153.669 200.426 152.787 201.03 151.948L201.332 151.534C201.989 150.626 202.674 149.739 203.385 148.873L203.668 148.535C203.714 148.478 203.757 148.423 203.808 148.368L204.085 148.047C204.131 147.994 204.175 147.942 204.223 147.891L204.491 147.588L204.626 147.442C204.756 147.301 204.888 147.162 205.022 147.024C205.112 146.935 205.195 146.845 205.282 146.762C205.789 146.243 206.348 145.778 206.951 145.375L207.09 145.286L207.231 145.196C207.321 145.14 207.412 145.086 207.505 145.035C209.869 143.694 211.827 143.595 212.953 144.721C213.636 145.404 214.013 146.535 213.993 148.108C213.993 148.178 213.993 148.247 213.987 148.319V148.397C213.987 148.468 213.981 148.541 213.976 148.614C213.976 148.703 213.965 148.793 213.956 148.882C213.947 148.972 213.943 149.04 213.934 149.119C213.934 149.142 213.929 149.165 213.926 149.188C213.919 149.258 213.91 149.329 213.901 149.399C213.901 149.421 213.901 149.442 213.892 149.464C213.882 149.559 213.868 149.654 213.851 149.748C213.84 149.835 213.826 149.922 213.809 150.009C213.802 150.059 213.792 150.108 213.784 150.158C213.758 150.3 213.724 150.441 213.683 150.579C213.606 150.837 213.512 151.09 213.401 151.336C213.353 151.443 213.302 151.55 213.25 151.655C213.142 151.872 213.02 152.094 212.886 152.324C212.819 152.437 212.75 152.554 212.676 152.671L212.564 152.849C212.45 153.028 212.331 153.209 212.207 153.392C212.083 153.575 211.95 153.762 211.807 153.951C211.622 154.203 211.427 154.46 211.221 154.72L211.065 154.917C210.624 155.466 210.172 156.006 209.71 156.537L209.343 156.952L209.156 157.162C208.901 157.447 208.645 157.73 208.387 158.011L208.189 158.225C208.058 158.367 207.921 158.511 207.79 158.654C207.656 158.799 207.52 158.943 207.384 159.087L206.972 159.521L206.555 159.956C206.416 160.101 206.276 160.248 206.135 160.393L205.286 161.268C201.231 165.427 196.958 169.572 195.512 172.156C195.416 172.325 195.329 172.498 195.25 172.675C195.045 173.145 194.959 173.547 195.017 173.872C195.036 173.979 195.074 174.082 195.129 174.175C195.211 174.316 195.31 174.446 195.424 174.562C195.477 174.614 195.532 174.663 195.592 174.707C195.889 174.919 196.249 175.028 196.614 175.017H196.728L196.845 175.009L196.963 174.995L197.06 174.981C197.073 174.98 197.086 174.977 197.099 174.974L197.188 174.957L197.212 174.951L197.31 174.93L197.345 174.921L197.45 174.894L197.575 174.857C197.657 174.832 197.739 174.804 197.823 174.773C198.004 174.709 198.181 174.635 198.354 174.552C198.398 174.531 198.443 174.511 198.486 174.488L198.619 174.422C198.793 174.334 198.966 174.239 199.14 174.136C199.279 174.054 199.417 173.97 199.555 173.881L199.689 173.792C199.733 173.764 199.778 173.735 199.822 173.702L199.955 173.613L200.025 173.564L200.217 173.43C200.396 173.306 200.563 173.179 200.733 173.05L200.748 173.039L201.016 172.831C201.383 172.541 201.732 172.249 202.047 171.974L202.257 171.789L202.277 171.771L202.386 171.674C202.644 171.443 202.874 171.227 203.066 171.048L203.144 170.972L203.333 170.793L203.446 170.683L203.485 170.643L203.496 170.632C203.592 170.536 203.592 170.536 203.688 170.439L203.696 170.431L203.732 170.399C203.743 170.387 203.758 170.375 203.775 170.36L203.789 170.347L203.827 170.313L204.03 170.134L204.144 170.031C204.2 169.983 204.261 169.928 204.323 169.869L204.46 169.749C204.484 169.729 204.508 169.706 204.533 169.684L204.676 169.559L204.887 169.375L204.998 169.278C205.433 168.899 205.963 168.442 206.57 167.927L206.819 167.717L207.231 167.372L207.651 167.02C208.201 166.564 208.793 166.079 209.419 165.575L209.83 165.245C210.18 164.967 210.54 164.682 210.904 164.396C211.05 164.281 211.199 164.166 211.351 164.052C211.724 163.764 212.099 163.477 212.475 163.194C213.333 162.546 214.218 161.897 215.113 161.264L215.498 160.997C215.766 160.811 216.034 160.626 216.303 160.445L216.546 160.28C217.027 159.956 217.512 159.639 218.001 159.329L218.244 159.176L218.485 159.026C218.726 158.877 218.967 158.729 219.205 158.586L219.444 158.444L219.923 158.165C220.08 158.074 220.236 157.985 220.392 157.897L220.486 157.844L220.858 157.641C221.012 157.557 221.167 157.476 221.32 157.397L221.55 157.279L221.772 157.166C222.28 156.911 222.797 156.675 223.323 156.459C223.395 156.429 223.466 156.4 223.537 156.369C223.678 156.31 223.818 156.256 223.957 156.208C224.096 156.161 224.233 156.112 224.368 156.064C224.491 156.023 224.61 155.985 224.726 155.949L224.765 155.937C224.827 155.918 224.889 155.9 224.951 155.884L224.969 155.879C225.095 155.843 225.221 155.81 225.348 155.78H225.358C225.545 155.735 225.727 155.697 225.905 155.667C225.966 155.657 226.026 155.647 226.084 155.639C226.257 155.613 226.431 155.595 226.605 155.583C226.715 155.575 226.826 155.572 226.936 155.572H227.02C227.132 155.572 227.24 155.579 227.347 155.59C227.396 155.59 227.445 155.599 227.493 155.606H227.513C227.561 155.611 227.61 155.619 227.657 155.629C227.704 155.639 227.752 155.646 227.798 155.657H227.814C227.86 155.667 227.903 155.68 227.951 155.693C228.333 155.796 228.684 155.99 228.975 156.258L229.001 156.284L229.052 156.334L229.102 156.387C229.503 156.809 229.835 157.292 230.085 157.818L230.124 157.907C230.209 158.107 230.276 158.314 230.323 158.526C230.453 159.117 230.418 159.733 230.221 160.305C230.136 160.554 230.032 160.796 229.909 161.028L229.827 161.176C229.515 161.699 229.147 162.186 228.728 162.628L228.638 162.723C228.441 162.932 228.236 163.135 228.025 163.33C227.958 163.393 227.889 163.456 227.819 163.519L227.713 163.615C227.493 163.81 227.268 164 227.04 164.186C227 164.218 226.959 164.25 226.92 164.284C226.761 164.412 226.597 164.542 226.427 164.672C225.841 165.12 225.244 165.552 224.636 165.969C224.278 166.214 223.908 166.461 223.526 166.712C222.814 167.179 222.097 167.636 221.373 168.084C221.164 168.213 220.954 168.344 220.74 168.474C218.773 169.684 216.592 170.978 214.266 172.385L213.664 172.751C213.005 173.153 212.383 173.537 211.798 173.902L211.503 174.088L210.945 174.446C210.724 174.586 210.509 174.724 210.3 174.86C210.142 174.961 209.988 175.061 209.837 175.16L209.539 175.356C209.394 175.451 209.25 175.546 209.106 175.643L208.966 175.732C208.818 175.831 208.674 175.928 208.534 176.024L208.305 176.18L208.036 176.367L207.788 176.54C207.396 176.815 207.009 177.096 206.625 177.382L206.491 177.484C206.34 177.598 206.194 177.712 206.053 177.823L205.869 177.97C205.559 178.219 205.278 178.458 205.024 178.686L204.9 178.8C204.829 178.865 204.759 178.93 204.693 178.994C204.646 179.038 204.603 179.083 204.556 179.127L204.491 179.191C204.348 179.334 204.209 179.481 204.074 179.632L204.008 179.708C203.861 179.878 203.733 180.041 203.62 180.2L203.57 180.272C203.44 180.462 203.325 180.663 203.227 180.872L203.193 180.945L203.172 180.996L203.155 181.04L203.132 181.101C203.125 181.122 203.111 181.159 203.103 181.191C203.062 181.31 203.032 181.433 203.012 181.558L203.002 181.625L202.994 181.686L202.989 181.745V182.059C202.989 182.085 202.989 182.112 202.995 182.139C202.996 182.155 202.998 182.171 203 182.187C203 182.213 203.007 182.239 203.01 182.266L203.029 182.376V182.381C203.036 182.416 203.043 182.451 203.052 182.486C203.061 182.521 203.07 182.56 203.081 182.597C203.113 182.71 203.152 182.822 203.197 182.931C203.197 182.939 203.204 182.948 203.207 182.956C203.219 182.983 203.23 183.011 203.243 183.038C203.292 183.152 203.347 183.263 203.407 183.372L203.47 183.485L203.536 183.599L203.605 183.713C203.617 183.732 203.63 183.749 203.645 183.766L203.668 183.79L203.692 183.812L203.719 183.833C203.737 183.846 203.756 183.857 203.776 183.868C203.796 183.877 203.818 183.887 203.84 183.895C203.864 183.903 203.888 183.91 203.912 183.916C204.489 184.046 205.675 183.568 207.25 182.736L207.533 182.586L208.012 182.325L208.247 182.195C208.413 182.105 208.584 182.005 208.757 181.906L209.074 181.727C211.157 180.528 213.646 178.987 216.218 177.483C216.458 177.342 216.7 177.202 216.942 177.062L217.428 176.752C217.671 176.612 217.913 176.474 218.156 176.338C219.19 175.75 220.238 175.185 221.297 174.644L221.772 174.403C222.088 174.247 222.401 174.095 222.71 173.947C223.309 173.663 223.914 173.394 224.525 173.139L224.86 173.003L224.901 172.987C226.675 172.284 228.284 171.849 229.586 171.849C229.868 171.847 230.149 171.87 230.427 171.918H230.435C230.525 171.934 230.606 171.952 230.688 171.973H230.703C230.823 172.002 230.941 172.039 231.055 172.085C231.146 172.118 231.234 172.157 231.319 172.203C231.692 172.392 232.011 172.671 232.249 173.015C232.269 173.044 232.288 173.074 232.306 173.105C232.394 173.239 232.47 173.38 232.532 173.528C232.569 173.613 232.603 173.701 232.635 173.796C232.667 173.892 232.695 173.984 232.724 174.083C232.936 174.841 232.915 175.643 232.664 176.389Z" fill="#FF9D00"/>
<path fill-rule="evenodd" clip-rule="evenodd" d="M220.867 122.075V121.585C220.867 79.731 186.949 45.802 145.092 45.802C103.237 45.802 69.3061 79.733 69.3061 121.585L69.3051 121.749C69.3041 121.858 69.3031 121.966 69.3051 122.075C69.3099 122.238 69.3116 122.401 69.3101 122.564L69.3161 122.924L69.3181 123.054L69.3231 123.232C69.3251 123.328 69.3281 123.423 69.3281 123.519L69.3381 123.908L69.3541 124.365L69.3591 124.515L69.3791 124.988V125.01L69.4071 125.563V125.577C69.4171 125.766 69.4271 125.955 69.4391 126.143C69.4491 126.318 69.4601 126.492 69.4721 126.666L69.4751 126.697C69.4839 126.846 69.4939 126.996 69.5051 127.145L69.5081 127.184C69.5181 127.328 69.5291 127.473 69.5411 127.616L69.5431 127.644L69.5631 127.894C69.623 128.615 69.693 129.336 69.7731 130.055L69.7781 130.1L69.8381 130.628L69.9071 131.184C69.9534 131.554 70.0028 131.923 70.0551 132.292C70.0863 132.515 70.1187 132.737 70.1521 132.959L70.1571 132.986C70.2318 133.488 70.3124 133.99 70.3991 134.49C70.6478 135.941 70.9399 137.385 71.2751 138.819L71.2801 138.842L71.3121 138.977C71.3421 139.105 71.3721 139.233 71.4041 139.362L71.4591 139.295C73.6591 136.665 76.8151 135.215 80.3461 135.215C83.1761 135.215 86.0801 136.15 88.9891 137.995C90.9191 139.221 93.0531 141.393 95.2491 144.124C97.2811 141.301 100.129 139.426 103.387 138.914C104.009 138.816 104.637 138.766 105.265 138.765C112.702 138.765 117.181 145.219 118.873 151.023C119.708 152.985 123.738 161.916 129.814 167.958C139.049 177.185 141.36 186.707 136.79 196.902H136.805C137.117 196.936 137.43 196.968 137.744 196.997C137.931 197.015 138.118 197.033 138.305 197.049L138.371 197.055C138.508 197.068 138.646 197.08 138.784 197.09L139.164 197.121C139.526 197.149 139.889 197.174 140.254 197.198L140.542 197.215L140.771 197.228L140.914 197.236L141.36 197.26L141.482 197.265L141.952 197.285L142.473 197.305L142.893 197.317L142.963 197.32C143.051 197.323 143.141 197.327 143.23 197.327L143.325 197.329C143.915 197.343 144.504 197.35 145.094 197.35H145.72L146.168 197.345C146.278 197.339 146.387 197.339 146.497 197.339H146.671L146.822 197.336C146.881 197.334 146.941 197.332 147 197.332H147.179L147.53 197.322L148.058 197.304L148.64 197.279C148.807 197.272 148.973 197.264 149.14 197.255L149.319 197.245L149.584 197.23L149.741 197.221L149.858 197.214L150.395 197.178C150.574 197.167 150.753 197.153 150.932 197.139L151.418 197.101L151.761 197.072L152.136 197.038C152.521 197.002 152.905 196.964 153.287 196.924C153.531 196.897 153.773 196.87 154.016 196.841L154.443 196.79C149.944 186.637 152.273 177.158 161.471 167.967C167.533 161.91 171.563 152.977 172.403 151.016C174.096 145.211 178.571 138.758 186.01 138.758C186.639 138.759 187.267 138.808 187.888 138.907C191.143 139.419 193.992 141.295 196.027 144.117C198.224 141.386 200.357 139.214 202.287 137.988C205.196 136.143 208.102 135.208 210.929 135.208C214.045 135.208 216.87 136.338 219.003 138.41C219.12 137.888 219.233 137.366 219.341 136.842C219.407 136.515 219.472 136.187 219.536 135.858C219.614 135.454 219.688 135.048 219.756 134.642C219.774 134.532 219.793 134.422 219.814 134.311C219.847 134.138 219.876 133.967 219.903 133.793L219.914 133.727L219.985 133.274L220.055 132.815L220.056 132.81C220.084 132.618 220.113 132.425 220.139 132.232C220.16 132.086 220.18 131.94 220.199 131.793L220.211 131.709L220.273 131.231L220.324 130.824C220.355 130.556 220.385 130.288 220.414 130.019C220.427 129.912 220.438 129.804 220.449 129.696L220.459 129.609C220.478 129.43 220.495 129.252 220.511 129.073L220.551 128.657C220.634 127.735 220.701 126.813 220.753 125.889V125.883L220.78 125.393L220.785 125.283L220.805 124.818C220.813 124.643 220.82 124.466 220.826 124.287V124.274L220.831 124.145C220.836 124.035 220.84 123.925 220.84 123.816L220.842 123.771C220.846 123.669 220.85 123.563 220.85 123.458L220.853 123.368C220.856 123.263 220.859 123.159 220.859 123.054L220.861 122.965C220.864 122.831 220.867 122.698 220.867 122.564V122.075ZM126.296 197.782C132.297 188.98 131.872 182.374 123.637 174.144C115.402 165.914 110.609 153.878 110.609 153.878C110.609 153.878 108.82 146.886 104.74 147.529C100.66 148.171 97.6671 158.618 106.209 165.013C114.751 171.408 104.51 175.744 101.222 169.743C97.9331 163.741 88.9571 148.314 84.3021 145.363C79.6481 142.412 76.3751 144.066 77.4721 150.148C78.0171 153.167 83.0851 158.319 87.8201 163.133C92.6241 168.018 97.0851 172.553 96.1321 174.158C94.2391 177.346 87.5721 170.413 87.5721 170.413C87.5721 170.413 66.6961 151.416 62.1511 156.367C57.9621 160.93 64.4221 164.809 74.3781 170.787C75.2251 171.296 76.0971 171.82 76.9901 172.36C88.3801 179.256 89.2661 181.075 87.6501 183.684C87.0531 184.648 83.2401 182.359 78.5501 179.543C70.5551 174.743 60.0121 168.414 58.5241 174.079C57.2351 178.982 64.9911 181.986 72.0251 184.711C77.8851 186.981 83.2451 189.057 82.4571 191.875C81.6401 194.796 77.2111 192.36 72.3691 189.696C66.9341 186.705 60.9791 183.428 59.0311 187.126C55.3471 194.116 84.4411 202.345 84.6801 202.405C94.0801 204.843 117.952 210.009 126.296 197.782ZM164.96 197.782C158.958 188.98 159.384 182.374 167.619 174.144C175.854 165.914 180.648 153.878 180.648 153.878C180.648 153.878 182.436 146.886 186.516 147.529C190.596 148.171 193.59 158.618 185.047 165.013C176.504 171.408 186.746 175.744 190.035 169.743C193.323 163.741 202.295 148.314 206.949 145.363C211.603 142.412 214.877 144.066 213.78 150.148C213.235 153.167 208.167 158.32 203.431 163.134C198.628 168.018 194.167 172.553 195.12 174.158C197.012 177.346 203.685 170.409 203.685 170.409C203.685 170.409 224.56 151.412 229.105 156.363C233.294 160.926 226.833 164.806 216.877 170.785C216.03 171.293 215.159 171.816 214.266 172.357C202.875 179.252 201.99 181.072 203.606 183.68C204.203 184.644 208.016 182.355 212.705 179.54C220.701 174.74 231.244 168.41 232.732 174.075C234.021 178.978 226.265 181.983 219.23 184.708C213.37 186.978 208.011 189.053 208.798 191.872C209.615 194.793 214.042 192.356 218.882 189.692C224.317 186.701 230.273 183.423 232.222 187.122C235.906 194.117 206.808 202.337 206.572 202.398C197.172 204.843 173.3 210.009 164.96 197.782Z" fill="#FFD21E"/>
<path fill-rule="evenodd" clip-rule="evenodd" d="M169.705 100.957C170.886 101.375 171.765 102.648 172.601 103.858C173.731 105.495 174.783 107.017 176.397 106.159C178.302 105.147 179.863 103.593 180.884 101.693C181.905 99.7935 182.339 97.6337 182.132 95.487C181.978 93.8819 181.47 92.3308 180.644 90.9458C179.818 89.5607 178.695 88.3761 177.357 87.4772C176.018 86.5784 174.496 85.9878 172.902 85.7479C171.307 85.508 169.679 85.6249 168.135 86.09C166.07 86.7119 164.236 87.9318 162.864 89.5957C161.493 91.2595 160.645 93.2926 160.428 95.438C160.212 97.5839 160.637 99.7456 161.649 101.65C162.397 103.057 164.057 102.394 165.809 101.693C167.183 101.144 168.613 100.572 169.705 100.957ZM118.329 100.958C117.148 101.376 116.268 102.649 115.432 103.859C114.302 105.495 113.25 107.018 111.636 106.16C110.213 105.403 108.976 104.339 108.013 103.046C107.05 101.753 106.386 100.263 106.068 98.6822C105.75 97.1017 105.786 95.4705 106.174 93.9058C106.563 92.3411 107.293 90.8818 108.312 89.633C109.333 88.3849 110.617 87.3785 112.073 86.6862C113.529 85.9939 115.121 85.6331 116.733 85.6295C118.345 85.626 119.938 85.9799 121.397 86.6657C122.856 87.3516 124.145 88.3524 125.171 89.596C126.543 91.2598 127.391 93.2933 127.608 95.4392C127.824 97.5851 127.399 99.7469 126.386 101.651C125.636 103.058 123.976 102.394 122.224 101.693C120.851 101.144 119.421 100.572 118.329 100.958ZM161.757 147.709C169.9 141.293 172.891 130.82 172.891 124.368C172.891 119.268 169.459 120.873 163.966 123.592L163.657 123.746C158.614 126.243 151.902 129.567 144.534 129.567C137.165 129.567 130.453 126.242 125.412 123.745C119.741 120.936 116.184 119.174 116.184 124.369C116.184 131.024 119.366 141.953 128.101 148.303C129.253 145.963 130.875 143.886 132.867 142.202C134.858 140.518 137.176 139.264 139.675 138.517C140.547 138.257 141.445 139.758 142.365 141.294C143.252 142.777 144.158 144.293 145.081 144.293C146.063 144.293 147.029 142.799 147.972 141.34C148.957 139.816 149.917 138.33 150.846 138.627C155.522 140.128 159.433 143.383 161.757 147.709Z" fill="#32343D"/>
<path d="M161.754 147.708C157.513 151.05 151.876 153.291 144.536 153.291C137.639 153.291 132.244 151.313 128.101 148.302C129.254 145.963 130.877 143.886 132.868 142.203C134.859 140.519 137.177 139.264 139.675 138.516C141.388 138.005 143.202 144.292 145.08 144.292C147.091 144.292 149.028 138.045 150.846 138.626C155.52 140.128 159.43 143.383 161.754 147.708Z" fill="#FF323D"/>
<path fill-rule="evenodd" clip-rule="evenodd" d="M98.8581 110.031C98.0843 110.552 97.2153 110.915 96.301 111.099C95.3866 111.283 94.4449 111.285 93.5298 111.105C92.6147 110.924 91.7442 110.565 90.9682 110.048C90.1922 109.53 89.526 108.865 89.0077 108.089C88.4894 107.314 88.1293 106.443 87.948 105.529C87.7667 104.614 87.7677 103.672 87.951 102.757C88.1343 101.843 88.4964 100.974 89.0163 100.199C89.5363 99.4248 90.204 98.7607 90.9811 98.2449C92.5441 97.2076 94.4546 96.8321 96.2939 97.2008C98.1332 97.5695 99.7514 98.6523 100.794 100.212C101.836 101.772 102.218 103.681 101.855 105.521C101.492 107.362 100.414 108.984 98.8581 110.031ZM200.27 110.031C199.496 110.552 198.627 110.915 197.713 111.099C196.799 111.283 195.857 111.285 194.942 111.105C194.027 110.924 193.156 110.565 192.38 110.048C191.604 109.53 190.938 108.865 190.42 108.089C189.901 107.314 189.541 106.443 189.36 105.529C189.179 104.614 189.18 103.672 189.363 102.757C189.546 101.843 189.908 100.974 190.428 100.199C190.948 99.4248 191.616 98.7607 192.393 98.2449C193.956 97.2076 195.867 96.8321 197.706 97.2008C199.545 97.5695 201.163 98.6523 202.206 100.212C203.248 101.772 203.63 103.681 203.267 105.521C202.904 107.362 201.826 108.984 200.27 110.031Z" fill="#FFAD03"/>
</svg>
