<?xml version="1.0" encoding="UTF-8"?>
<svg width="470" height="470" viewBox="0 0 470 470" xmlns="http://www.w3.org/2000/svg">
    <path id="Path" fill="#000000" stroke="none" d="M 380.296204 246.287399 L 444.100647 246.287399 C 456.615997 246.287399 466.754181 256.425598 466.754181 268.940918 L 466.754181 306.581299 C 466.754181 319.096619 456.615997 329.234802 444.100647 329.234802 L 388.450867 329.234802 C 382.437195 329.234802 376.675415 331.627686 372.424927 335.878143 L 276.930756 431.356659 C 272.680237 435.607117 266.918488 438 260.904816 438 L 214.999603 438 C 202.720413 438 192.660934 428.20813 192.346085 415.928925 L 191.354294 377.501404 C 191.023727 364.765686 201.256363 354.249695 214.007813 354.249695 L 253.521561 354.249695 C 259.535217 354.249695 265.296997 351.856842 269.547516 347.606354 L 364.238831 252.915009 C 368.489288 248.664505 374.251068 246.271667 380.26474 246.271667 Z M 190.850555 32 L 254.655029 32 C 267.170349 32 277.308563 42.138184 277.308563 54.653534 L 277.308563 92.293945 C 277.308563 104.809235 267.170349 114.947418 254.655029 114.947418 L 199.005173 114.947418 C 192.991531 114.947418 187.229767 117.340302 182.979279 121.59082 L 87.485069 217.084991 C 83.234589 221.335495 77.472816 223.728333 71.459152 223.728333 L 25.553928 223.728333 C 13.274759 223.728333 3.215269 213.936493 2.900423 201.657318 L 1.908648 163.229797 C 1.578056 150.49408 11.810703 139.993805 24.562153 139.993805 L 64.075897 139.993805 C 70.089561 139.993805 75.851334 137.600952 80.101814 133.350433 L 174.793152 38.659119 C 179.043655 34.408661 184.805405 32.015747 190.819061 32.015747 Z M 380.296204 80.48703 L 444.100647 80.48703 C 456.615997 80.48703 466.754181 90.625183 466.754181 103.140503 L 466.754181 140.780914 C 466.754181 153.296265 456.615997 163.434418 444.100647 163.434418 L 388.450867 163.434418 C 382.437195 163.434418 376.675415 165.827301 372.424927 170.077789 L 276.930756 265.572021 C 272.680237 269.822479 266.918488 272.215393 260.904816 272.215393 L 205.129028 272.215393 C 199.288559 272.215393 193.668457 274.466553 189.449463 278.51239 L 82.242798 381.248138 C 78.023788 385.293976 72.403717 387.545166 66.563225 387.545166 L 27.490267 387.545166 C 14.974944 387.545166 4.83676 377.391235 4.83676 364.891663 L 4.83676 326.21225 C 4.83676 313.696899 14.974944 303.558716 27.490267 303.558716 L 66.279869 303.558716 C 72.293503 303.558716 78.055275 301.165863 82.305756 296.915344 L 184.112732 195.108429 C 188.363235 190.857971 194.124985 188.465057 200.138641 188.465057 L 253.521561 188.465057 C 259.535217 188.465057 265.296997 186.072174 269.547516 181.821716 L 364.238831 87.130371 C 368.489288 82.879883 374.251068 80.48703 380.26474 80.48703 Z"/>
</svg>
