<svg xmlns:xlink="http://www.w3.org/1999/xlink"  width="738" height="96" viewBox="0 0 738 96" fill="none" xmlns="http://www.w3.org/2000/svg">
<path d="M331.137 34.4214C336.386 34.4214 340.606 36.0557 343.797 39.3243C347.04 42.541 348.661 47.0548 348.661 52.8656V78.1583H337.853V54.3442C337.853 50.9719 337.004 48.4037 335.305 46.6397C333.607 44.8238 331.291 43.9159 328.357 43.9159C325.424 43.9159 323.082 44.8238 321.332 46.6397C319.634 48.4037 318.785 50.9719 318.785 54.3442V78.1583H307.977V54.3442C307.977 50.9719 307.128 48.4037 305.429 46.6397C303.731 44.8238 301.415 43.9159 298.481 43.9159C295.496 43.9159 293.129 44.8238 291.379 46.6397C289.681 48.4037 288.831 50.9719 288.831 54.3442V78.1583H278.023V35.044H288.831V40.2582C290.221 38.4423 291.997 37.0155 294.158 35.9779C296.371 34.9402 298.79 34.4214 301.415 34.4214C304.76 34.4214 307.745 35.1477 310.37 36.6004C312.995 38.0013 315.028 40.0247 316.469 42.6707C317.858 40.1803 319.865 38.1829 322.49 36.6783C325.166 35.1737 328.049 34.4214 331.137 34.4214Z" fill="#5B5FC7"/>
<path d="M364.398 29.9076C362.494 29.9076 360.898 29.311 359.612 28.1177C358.376 26.8725 357.759 25.342 357.759 23.5261C357.759 21.7102 358.376 20.2056 359.612 19.0123C360.898 17.7671 362.494 17.1445 364.398 17.1445C366.302 17.1445 367.872 17.7671 369.107 19.0123C370.394 20.2056 371.037 21.7102 371.037 23.5261C371.037 25.342 370.394 26.8725 369.107 28.1177C367.872 29.311 366.302 29.9076 364.398 29.9076ZM369.725 35.044V78.1583H358.917V35.044H369.725Z" fill="#5B5FC7"/>
<path d="M377.624 56.4455C377.624 52.0874 378.473 48.2221 380.171 44.8498C381.921 41.4774 384.289 38.8833 387.274 37.0674C390.259 35.2515 393.578 34.3436 397.232 34.3436C400.012 34.3436 402.662 34.9662 405.184 36.2113C407.706 37.4046 409.713 39.013 411.205 41.0364V20.5688H422.168V78.1583H411.205V71.7768C409.867 73.9039 407.989 75.616 405.57 76.9131C403.151 78.2102 400.346 78.8587 397.155 78.8587C393.553 78.8587 390.259 77.9248 387.274 76.057C384.289 74.1893 381.921 71.5692 380.171 68.1969C378.473 64.7726 377.624 60.8555 377.624 56.4455ZM411.283 56.6011C411.283 53.9551 410.768 51.6982 409.739 49.8305C408.709 47.9108 407.32 46.4581 405.57 45.4723C403.82 44.4347 401.942 43.9159 399.934 43.9159C397.927 43.9159 396.074 44.4088 394.376 45.3945C392.678 46.3803 391.288 47.833 390.207 49.7527C389.178 51.6204 388.663 53.8514 388.663 56.4455C388.663 59.0396 389.178 61.3224 390.207 63.294C391.288 65.2136 392.678 66.6923 394.376 67.7299C396.126 68.7676 397.979 69.2864 399.934 69.2864C401.942 69.2864 403.82 68.7935 405.57 67.8077C407.32 66.7701 408.709 65.3174 409.739 63.4496C410.768 61.53 411.283 59.2471 411.283 56.6011Z" fill="#5B5FC7"/>
<path d="M429.944 56.4455C429.944 52.0874 430.794 48.2221 432.492 44.8498C434.242 41.4774 436.609 38.8833 439.594 37.0674C442.579 35.2515 445.899 34.3436 449.553 34.3436C452.332 34.3436 454.983 34.9662 457.505 36.2113C460.026 37.4046 462.034 39.013 463.526 41.0364V20.5688H474.488V78.1583H463.526V71.7768C462.188 73.9039 460.309 75.616 457.891 76.9131C455.472 78.2102 452.667 78.8587 449.476 78.8587C445.873 78.8587 442.579 77.9248 439.594 76.057C436.609 74.1893 434.242 71.5692 432.492 68.1969C430.794 64.7726 429.944 60.8555 429.944 56.4455ZM463.603 56.6011C463.603 53.9551 463.089 51.6982 462.059 49.8305C461.03 47.9108 459.64 46.4581 457.891 45.4723C456.141 44.4347 454.262 43.9159 452.255 43.9159C450.248 43.9159 448.395 44.4088 446.697 45.3945C444.998 46.3803 443.609 47.833 442.528 49.7527C441.499 51.6204 440.984 53.8514 440.984 56.4455C440.984 59.0396 441.499 61.3224 442.528 63.294C443.609 65.2136 444.998 66.6923 446.697 67.7299C448.446 68.7676 450.299 69.2864 452.255 69.2864C454.262 69.2864 456.141 68.7935 457.891 67.8077C459.64 66.7701 461.03 65.3174 462.059 63.4496C463.089 61.53 463.603 59.2471 463.603 56.6011Z" fill="#5B5FC7"/>
<path d="M495.852 20.5688V78.1583H485.044V20.5688H495.852Z" fill="#5B5FC7"/>
<path d="M546.288 55.6673C546.288 57.2237 546.185 58.6246 545.979 59.8697H514.713C514.971 62.9827 516.052 65.4211 517.956 67.1852C519.86 68.9492 522.202 69.8312 524.981 69.8312C528.995 69.8312 531.852 68.0931 533.55 64.617H545.207C543.972 68.7676 541.605 72.1918 538.105 74.8897C534.605 77.5357 530.308 78.8587 525.213 78.8587C521.095 78.8587 517.39 77.9508 514.096 76.1349C510.853 74.2671 508.306 71.647 506.453 68.2747C504.652 64.9023 503.751 61.0111 503.751 56.6011C503.751 52.1392 504.652 48.2221 506.453 44.8498C508.254 41.4774 510.776 38.8833 514.019 37.0674C517.261 35.2515 520.992 34.3436 525.213 34.3436C529.278 34.3436 532.907 35.2256 536.098 36.9896C539.34 38.7536 541.836 41.2699 543.586 44.5385C545.387 47.7552 546.288 51.4648 546.288 55.6673ZM535.094 52.5543C535.043 49.7527 534.039 47.5217 532.083 45.8615C530.128 44.1493 527.734 43.2933 524.904 43.2933C522.227 43.2933 519.963 44.1234 518.11 45.7836C516.309 47.392 515.202 49.6489 514.791 52.5543H535.094Z" fill="#5B5FC7"/>
<path d="M611.15 35.5109L597.949 78.1583H590.692L580.502 44.305L570.311 78.1583H563.055L549.776 35.5109H556.956L566.683 71.3098L577.182 35.5109H584.362L594.629 71.3876L604.202 35.5109H611.15Z" fill="#5B5FC7"/>
<path d="M615.497 56.679C615.497 52.3208 616.372 48.5075 618.122 45.2389C619.872 41.9184 622.265 39.3502 625.301 37.5343C628.389 35.7184 631.812 34.8105 635.569 34.8105C639.274 34.8105 642.491 35.6147 645.219 37.223C647.947 38.8314 649.979 40.8548 651.318 43.2933V35.5109H658.42V78.1583H651.318V70.2203C649.928 72.7106 647.844 74.7859 645.064 76.4462C642.337 78.0545 639.146 78.8587 635.492 78.8587C631.735 78.8587 628.338 77.9248 625.301 76.057C622.265 74.1893 619.872 71.5692 618.122 68.1969C616.372 64.8245 615.497 60.9852 615.497 56.679ZM651.318 56.7568C651.318 53.5401 650.674 50.7384 649.388 48.3518C648.101 45.9652 646.351 44.1493 644.138 42.9042C641.976 41.6071 639.583 40.9586 636.958 40.9586C634.334 40.9586 631.941 41.5812 629.779 42.8263C627.617 44.0715 625.893 45.8874 624.607 48.274C623.32 50.6606 622.677 53.4622 622.677 56.679C622.677 59.9475 623.32 62.8011 624.607 65.2396C625.893 67.6262 627.617 69.468 629.779 70.765C631.941 72.0102 634.334 72.6328 636.958 72.6328C639.583 72.6328 641.976 72.0102 644.138 70.765C646.351 69.468 648.101 67.6262 649.388 65.2396C650.674 62.8011 651.318 59.9735 651.318 56.7568Z" fill="#5B5FC7"/>
<path d="M677.317 42.4372C678.552 39.9987 680.302 38.105 682.566 36.7561C684.882 35.4072 687.687 34.7327 690.981 34.7327V42.0481H689.128C681.254 42.0481 677.317 46.3544 677.317 54.9668V78.1583H670.292V35.5109H677.317V42.4372Z" fill="#5B5FC7"/>
<path d="M737.69 55.2003C737.69 56.5493 737.613 57.976 737.459 59.4806H703.645C703.903 63.6831 705.318 66.9776 707.891 69.3642C710.516 71.6989 713.681 72.8663 717.387 72.8663C720.423 72.8663 722.945 72.1659 724.952 70.765C727.011 69.3123 728.452 67.3927 729.276 65.0061H736.841C735.709 69.1048 733.444 72.4512 730.048 75.0453C726.651 77.5876 722.431 78.8587 717.387 78.8587C713.373 78.8587 709.77 77.9508 706.579 76.1349C703.44 74.319 700.969 71.7508 699.168 68.4303C697.366 65.058 696.466 61.1668 696.466 56.7568C696.466 52.3468 697.341 48.4815 699.091 45.1611C700.84 41.8406 703.285 39.2983 706.425 37.5343C709.615 35.7184 713.27 34.8105 717.387 34.8105C721.401 34.8105 724.952 35.6925 728.04 37.4565C731.128 39.2205 733.496 41.659 735.143 44.7719C736.841 47.833 737.69 51.3091 737.69 55.2003ZM730.434 53.7217C730.434 51.0238 729.842 48.715 728.658 46.7954C727.474 44.8238 725.853 43.3452 723.794 42.3594C721.787 41.3218 719.548 40.8029 717.078 40.8029C713.527 40.8029 710.49 41.9443 707.969 44.2272C705.498 46.51 704.083 49.6748 703.723 53.7217H730.434Z" fill="#5B5FC7"/>
<path d="M157.579 51.4701C158.444 50.1313 159.136 49.1496 159.77 48.1083C164.527 40.2543 169.197 32.3407 174.185 24.5164C175.094 22.9265 176.458 21.6665 178.089 20.91C179.721 20.1534 181.539 19.9374 183.295 20.2919C184.994 20.5564 186.559 21.4001 187.74 22.6887C188.92 23.9773 189.649 25.6365 189.81 27.4022C189.981 29.5388 189.54 31.6801 188.542 33.5605C180.739 46.8687 172.782 60.0877 164.671 73.2175C160.808 79.465 153.139 79.1675 149.391 72.6225C144.807 64.9172 140.454 57.0631 135.986 49.2983C135.38 48.2273 134.717 47.2158 133.823 45.7283L130.652 50.9048C126.385 58.0746 122.003 65.2444 117.737 72.444C113.47 79.6435 105.34 79.7625 100.987 72.1167C96.0855 63.5487 91.2133 54.9509 86.1393 46.0555C85.3897 47.2158 84.7555 48.1381 84.2077 49.0306C79.422 56.8846 74.694 64.7684 69.793 72.5927C69.2013 73.6029 68.4213 74.482 67.4982 75.179C66.5751 75.876 65.5272 76.3771 64.4151 76.6533C63.303 76.9295 62.1489 76.9754 61.0195 76.7882C59.8902 76.601 58.808 76.1845 57.8357 75.5629C56.8634 74.9412 56.0202 74.1266 55.355 73.1664C54.6899 72.2061 54.2159 71.1193 53.9605 69.9687C53.7051 68.8181 53.6735 67.6267 53.8673 66.4634C54.0612 65.3002 54.4767 64.1881 55.0899 63.1917C62.7778 50.3792 70.5906 37.5966 78.5283 24.8436C79.3207 23.2803 80.5209 21.9767 81.9933 21.0801C83.4658 20.1836 85.1519 19.7298 86.8611 19.77C88.5704 19.8103 90.2347 20.3429 91.666 21.3078C93.0973 22.2727 94.2387 23.6314 94.9611 25.2304C99.3144 32.8167 103.61 40.4625 107.906 48.0488C108.511 49.1198 109.174 50.1313 110.01 51.4998L124.656 27.3427C125.29 26.3014 125.895 25.2006 126.645 24.1891C127.5 22.8063 128.692 21.6786 130.1 20.918C131.509 20.1574 133.086 19.7905 134.674 19.8536C136.263 19.9168 137.808 20.4079 139.156 21.2781C140.504 22.1482 141.607 23.3672 142.357 24.8139C146.826 32.4597 151.006 40.1948 155.503 47.9001C156.08 49.0008 156.714 50.0421 157.579 51.4701Z" fill="#5B5FC7"/>
<path d="M197.927 95.9987L243.55 48.8086H221.37L198.042 72.9682C196.573 74.4764 195.407 76.2704 194.611 78.2467C193.816 80.223 193.406 82.3427 193.406 84.4834C193.406 86.6242 193.816 88.7439 194.611 90.7202C195.407 92.6965 196.573 94.4905 198.042 95.9987H197.927Z" fill="#5B5FC7" fill-opacity="0.5"/>
<path d="M197.996 1.62305C196.541 3.1083 195.387 4.87157 194.599 6.81218C193.812 8.75278 193.406 10.8327 193.406 12.9332C193.406 15.0337 193.812 17.1136 194.599 19.0542C195.387 20.9949 196.541 22.7581 197.996 24.2434V24.2434L221.359 47.9728C222.818 49.4561 223.975 51.2188 224.765 53.1596C225.555 55.1005 225.961 57.1814 225.961 59.283C225.961 61.3846 225.555 63.4655 224.765 65.4064C223.975 67.3472 222.818 69.1099 221.359 70.5932L243.55 47.9728L198.025 1.62305H197.996Z" fill="#5B5FC7"/>
<path d="M44.7856 0L8.96875 37.2986L21.5046 47.9998L44.7856 23.0304C46.245 21.5182 47.4026 19.723 48.1924 17.7472C48.9822 15.7714 49.3887 13.6538 49.3887 11.5152C49.3887 9.37663 48.9822 7.25899 48.1924 5.28321C47.4026 3.30742 46.245 1.51218 44.7856 0Z" fill="#5B5FC7" fill-opacity="0.5"/>
<path d="M45.5405 96.0005C46.9998 94.4371 48.1575 92.581 48.9473 90.5383C49.7371 88.4955 50.1436 86.3061 50.1436 84.0951C50.1436 81.884 49.7371 79.6946 48.9473 77.6519C48.1575 75.6091 46.9998 73.7531 45.5405 72.1896V72.1896L22.2254 47.2113C20.766 45.6478 19.6084 43.7918 18.8186 41.749C18.0287 39.7063 17.6222 37.5169 17.6222 35.3058C17.6222 33.0948 18.0287 30.9054 18.8186 28.8626C19.6084 26.8199 20.766 24.9638 22.2254 23.4004L0 47.2113L45.5405 96.0005Z" fill="#5B5FC7"/>
</svg>
