<?xml version="1.0" encoding="UTF-8"?>
<svg width="512px" height="164px" viewBox="0 0 512 164" version="1.1" xmlns="http://www.w3.org/2000/svg" preserveAspectRatio="xMidYMid">
    <title>Mistral AI</title>
    <g>
        <g transform="translate(213.3167, 27.4293)" fill="#000000">
            <path d="M3.54926427,0.866543136 L14.7228067,0.866543136 L19.3327713,17.5381056 L20.9144735,24.0433432 L21.204218,24.0433432 L22.7664598,17.5381056 L27.3980472,0.866543136 L38.5715896,0.866543136 L38.5715896,47.9106495 L29.5614007,47.9106495 L29.5614007,33.3473459 L29.5670358,32.5879187 C29.6450324,27.0205397 30.5137834,16.3474271 30.9885004,11.494286 L30.7722732,11.494286 L27.1612784,24.1211468 L23.498389,35.4534436 L18.3305581,35.4534436 L14.6038817,24.1211468 L11.2361425,11.494286 L10.9864,11.494286 L11.101213,12.6193443 C11.6427988,18.1141469 12.4134998,28.4113913 12.4134998,33.3473459 L12.4134998,47.9106495 L3.54926427,47.9106495 L3.54926427,0.866543136 Z M48.0762959,38.9834424 L59.0682074,38.9834424 L59.0682074,9.79416023 L48.0762959,9.79416023 L48.0762959,0.86620785 L80.7103914,0.86620785 L80.7103914,9.79416023 L69.7217233,9.79416023 L69.7217233,38.9834424 L80.7103914,38.9834424 L80.7103914,47.9113948 L48.0762959,47.9113948 L48.0762959,38.9834424 Z M89.7022114,41.9836366 L95.8160364,34.6711876 C99.3740556,37.5834161 103.76455,39.5803727 108.328025,39.5803727 C112.848256,39.5803727 114.93593,37.8308744 114.93593,35.5313486 C114.93593,32.1436542 112.137949,31.3245562 107.684749,29.4605139 L101.552545,26.844371 C96.3382252,24.8636234 91.5758204,20.8664682 91.5758204,14.018679 C91.5758204,6.22752234 98.5977998,0 108.826429,0 C114.487258,0 120.20755,2.12230676 124.457496,6.15944427 L119.090736,12.8710773 C115.774891,10.4915867 112.841769,9.19594223 108.242616,9.19594223 C104.73541,9.19594223 102.353667,10.6504356 102.353667,13.3973316 C102.353667,16.2274341 105.508422,17.2637336 110.023247,18.9548793 L115.781378,21.3938031 C121.946017,23.7030544 125.835945,27.5456831 125.835945,34.1849157 C125.835945,42.0052487 119.272367,48.776315 107.620962,48.776315 C101.260638,48.776315 94.6927359,46.4508546 89.7022114,41.9836366 Z M145.739032,9.79417006 L131.628043,9.79417006 L131.628043,0.866217681 L170.501375,0.866217681 L170.501375,9.79417006 L156.392548,9.79417006 L156.392548,47.9114046 L145.739032,47.9114046 L145.739032,9.79417006 Z M188.420134,9.31643532 L193.613913,9.31643532 C199.208792,9.31643532 202.211107,10.8779085 202.211107,15.5234262 C202.211107,20.1289615 199.208792,22.5365478 193.613913,22.5365478 L188.420134,22.5365478 L188.420134,9.31643532 Z M214.913376,47.911297 L204.26851,29.0904126 C209.293631,26.8189825 212.655964,22.4360516 212.655964,15.5234262 C212.655964,4.44245627 204.614496,0.936171221 194.779555,0.867153617 L177.746077,0.866110028 L177.746077,47.911297 L188.420134,47.911297 L188.420134,30.9868731 L194.011771,30.9868731 L202.998175,47.911297 L214.913376,47.911297 Z M232.595264,28.4272429 L233.708834,24.0929392 L237.360912,8.92125547 L237.649576,8.92125547 C238.458111,12.4671812 239.420543,16.2915278 240.339083,19.8992811 L242.513607,28.4272429 L232.595264,28.4272429 Z M247.484672,47.9105377 L258.779301,47.9105377 L244.119095,0.866431332 L231.350876,0.866431332 L216.69067,47.9105377 L227.590685,47.9105377 L230.464345,36.7230418 L244.630472,36.7230418 L247.484672,47.9105377 Z M267.100055,0.866543136 L277.731949,0.866543136 L277.731949,38.9837777 L298.683287,38.9837777 L298.683287,47.9106495 L267.100055,47.9106495 L267.100055,0.866543136 Z"></path>
            <path d="M15.9208113,103.897061 L17.0343816,99.5627576 L20.6864596,84.3899932 L20.975123,84.3899932 C21.7836584,87.9359189 22.7460902,91.7608169 23.6646304,95.3688852 L25.8391546,103.897061 L15.9208113,103.897061 Z M30.8058942,123.398726 L42.1048484,123.398726 L27.4392362,76.3351691 L14.6656122,76.3351691 L0,123.398726 L10.9043395,123.398726 L13.7801617,112.204747 L27.9506136,112.204747 L30.8058942,123.398726 Z M48.0762959,114.453272 L59.0682074,114.453272 L59.0682074,85.2629094 L48.0762959,85.2629094 L48.0762959,76.334957 L80.7103914,76.334957 L80.7103914,85.2629094 L69.7217233,85.2629094 L69.7217233,114.453272 L80.7103914,114.453272 L80.7103914,123.381225 L48.0762959,123.381225 L48.0762959,114.453272 Z M90.1825178,128.063257 L125.049168,128.063257 L125.049168,136.17178 L90.1825178,136.17178 L90.1825178,128.063257 Z"></path>
        </g>
        <g>
            <rect fill="#000000" x="122.925214" y="0" width="30.7313035" height="30.7313035"></rect>
            <rect fill="#F7D046" x="138.290866" y="0" width="30.7313035" height="30.7313035"></rect>
            <rect fill="#000000" x="0" y="0" width="30.7313035" height="30.7313035"></rect>
            <rect fill="#000000" x="0" y="30.7313035" width="30.7313035" height="30.7313035"></rect>
            <rect fill="#000000" x="0" y="61.462607" width="30.7313035" height="30.7313035"></rect>
            <rect fill="#000000" x="0" y="92.1939105" width="30.7313035" height="30.7313035"></rect>
            <rect fill="#000000" x="0" y="122.925214" width="30.7313035" height="30.7313035"></rect>
            <rect fill="#F7D046" x="15.3656518" y="0" width="30.7313035" height="30.7313035"></rect>
            <rect fill="#F2A73B" x="138.290866" y="30.7313035" width="30.7313035" height="30.7313035"></rect>
            <rect fill="#F2A73B" x="15.3656518" y="30.7313035" width="30.7313035" height="30.7313035"></rect>
            <rect fill="#000000" x="92.1939105" y="30.7313035" width="30.7313035" height="30.7313035"></rect>
            <rect fill="#F2A73B" x="107.559562" y="30.7313035" width="30.7313035" height="30.7313035"></rect>
            <rect fill="#F2A73B" x="46.0969553" y="30.7313035" width="30.7313035" height="30.7313035"></rect>
            <rect fill="#EE792F" x="76.8282588" y="61.462607" width="30.7313035" height="30.7313035"></rect>
            <rect fill="#EE792F" x="107.559562" y="61.462607" width="30.7313035" height="30.7313035"></rect>
            <rect fill="#EE792F" x="46.0969553" y="61.462607" width="30.7313035" height="30.7313035"></rect>
            <rect fill="#000000" x="61.462607" y="92.1939105" width="30.7313035" height="30.7313035"></rect>
            <rect fill="#EB5829" x="76.8282588" y="92.1939105" width="30.7313035" height="30.7313035"></rect>
            <rect fill="#EE792F" x="138.290866" y="61.462607" width="30.7313035" height="30.7313035"></rect>
            <rect fill="#EE792F" x="15.3656518" y="61.462607" width="30.7313035" height="30.7313035"></rect>
            <rect fill="#000000" x="122.925214" y="92.1939105" width="30.7313035" height="30.7313035"></rect>
            <rect fill="#EB5829" x="138.290866" y="92.1939105" width="30.7313035" height="30.7313035"></rect>
            <rect fill="#000000" x="122.925214" y="122.925214" width="30.7313035" height="30.7313035"></rect>
            <rect fill="#EB5829" x="15.3656518" y="92.1939105" width="30.7313035" height="30.7313035"></rect>
            <rect fill="#EA3326" x="138.290866" y="122.925214" width="30.7313035" height="30.7313035"></rect>
            <rect fill="#EA3326" x="15.3656518" y="122.925214" width="30.7313035" height="30.7313035"></rect>
        </g>
    </g>
</svg>
