<svg version="1.1" id="Layer_1" xmlns="http://www.w3.org/2000/svg" xmlns:xlink="http://www.w3.org/1999/xlink" x="0px" y="0px"
	 width="100%" viewBox="0 0 1431 480" enable-background="new 0 0 1431 480" xml:space="preserve">
<path fill="#FFFFFF" opacity="1.000000" stroke="none" 
	d="
M918.000000,481.000000 
	C613.539734,481.000000 309.579468,480.993500 5.619233,481.079163 
	C2.091318,481.080170 0.885767,480.636383 0.889103,476.620300 
	C1.019649,319.474304 1.018565,162.328125 0.889219,5.182109 
	C0.886098,1.390429 1.894441,0.918406 5.316885,0.919021 
	C479.421570,1.004127 953.526306,1.003318 1427.630981,0.932006 
	C1430.907349,0.931513 1432.124878,1.189972 1432.121338,5.129930 
	C1431.979004,162.442566 1431.983765,319.755341 1432.102661,477.068024 
	C1432.105347,480.629364 1431.209839,481.086395 1427.932861,481.084534 
	C1258.121948,480.988617 1088.310913,481.000000 918.000000,481.000000 
z"/>
<path fill="#08A2E9" opacity="1.000000" stroke="none" 
	d="
M208.838013,275.838318 
	C211.218445,273.476959 213.114059,271.044159 215.512299,269.304138 
	C221.508698,264.953491 223.049286,260.208130 218.933823,253.472824 
	C217.331558,250.850586 216.186890,249.686447 213.071762,249.672821 
	C190.683380,249.575012 171.583450,241.368576 157.045395,224.411377 
	C138.860870,203.200943 133.563324,178.635757 142.742142,152.070129 
	C152.171127,124.780495 171.898712,108.652176 200.197495,102.979179 
	C205.301132,101.956055 210.451843,101.872925 215.620163,101.873444 
	C257.783051,101.877670 299.945984,101.846069 342.108704,101.934212 
	C345.321381,101.940933 346.894684,101.323357 348.133362,97.859116 
	C353.801605,82.006882 365.300598,72.588242 381.993286,70.716293 
	C398.999512,68.809181 412.439667,75.881073 421.203064,90.368675 
	C429.804230,104.588112 429.352814,119.441689 420.329834,133.389740 
	C408.801483,151.210815 387.129791,156.764526 368.046967,147.225647 
	C365.665680,146.035309 364.347534,146.242874 362.525269,148.079086 
	C339.757996,171.020050 316.934692,193.905579 294.050934,216.730362 
	C292.199860,218.576645 292.534668,219.882523 293.150116,222.266159 
	C295.184723,230.145996 300.147644,231.350082 307.586243,231.648651 
	C338.094940,232.873245 366.435150,255.894547 373.890411,284.541321 
	C382.455109,317.451050 370.207214,349.875824 342.735443,367.430145 
	C329.827332,375.678406 315.705963,379.156616 300.521301,379.139435 
	C258.025177,379.091309 215.528793,379.170776 173.033005,379.038757 
	C169.367508,379.027405 167.638519,379.859070 166.223099,383.553314 
	C159.902100,400.051208 147.565582,409.605774 130.029175,410.566010 
	C112.866577,411.505768 100.031387,403.307404 91.690987,388.231476 
	C79.369278,365.958954 93.109276,336.496552 118.576645,330.245605 
	C128.133301,327.899902 137.203262,329.287476 145.778656,333.430908 
	C149.083862,335.027924 150.613358,334.341278 152.870621,332.057587 
	C171.376328,313.335144 189.996536,294.725861 208.838013,275.838318 
z"/>
<path fill="#072A5D" opacity="1.000000" stroke="none" 
	d="
M556.845581,275.102814 
	C564.048218,285.733307 571.071228,296.051636 578.055969,306.395813 
	C578.958679,307.732666 580.601074,309.076660 579.853943,310.798035 
	C578.927673,312.932220 576.641968,311.835999 574.940308,312.151642 
	C563.944336,314.191162 557.074402,309.918182 551.335510,300.070557 
	C542.807617,285.437225 532.395508,271.907715 522.954590,257.795197 
	C521.352844,255.400848 519.645020,254.605438 516.866272,254.623230 
	C510.039520,254.666962 503.202972,254.512543 496.385742,254.149399 
	C493.111115,253.974960 492.083313,255.004868 492.114594,258.314911 
	C492.264008,274.139587 492.043121,289.968384 492.264587,305.791412 
	C492.332031,310.609161 490.610474,312.284821 485.867004,312.211365 
	C472.343536,312.001892 473.373871,313.303833 473.377014,299.869720 
	C473.386139,260.720917 473.376190,221.572128 473.384583,182.423340 
	C473.385986,175.859833 473.861206,175.367325 480.409302,175.007919 
	C498.200043,174.031479 515.990662,172.790344 533.787537,174.921616 
	C539.102356,175.558105 544.258240,176.855148 549.289917,178.646301 
	C564.299500,183.989334 573.347656,195.513412 573.926270,209.976013 
	C574.683289,228.897095 567.951416,240.893600 552.401794,248.021667 
	C548.961975,249.598541 545.326904,250.749619 541.400391,252.241653 
	C546.608887,259.943909 551.631470,267.371277 556.845581,275.102814 
z"/>
<path fill="#072A5D" opacity="1.000000" stroke="none" 
	d="
M755.985107,295.679260 
	C756.021362,269.390259 756.017883,243.571518 756.033203,217.752777 
	C756.036865,211.594772 757.150574,210.492432 763.256958,210.407455 
	C774.723206,210.247894 774.723511,210.247894 774.723572,221.451050 
	C774.723755,250.601257 774.744934,279.751495 774.697510,308.901642 
	C774.691284,312.723236 774.557556,316.571594 774.097717,320.360809 
	C772.076355,337.018219 763.133606,346.004333 746.364014,347.960846 
	C730.702271,349.788055 715.101562,348.742157 699.611816,346.034515 
	C693.421082,344.952332 692.354370,343.300812 693.237549,337.255646 
	C693.989868,332.105835 697.838684,333.462463 701.001648,333.703796 
	C713.776245,334.678314 726.520203,336.580292 739.374329,335.269806 
	C754.392944,333.738678 756.081604,326.436554 756.379517,313.757629 
	C756.448853,310.803864 754.376160,311.732239 752.901306,311.972809 
	C743.816895,313.454346 734.672974,313.867279 725.520264,313.143036 
	C717.873169,312.537933 710.263855,311.395966 703.427429,307.552612 
	C693.218323,301.813354 687.134644,292.981415 686.823914,281.348694 
	C686.236938,259.377899 686.438293,237.385773 686.342224,215.402374 
	C686.328064,212.157074 688.105347,210.486176 691.310608,210.433914 
	C706.088440,210.192902 705.087402,209.958603 705.020203,222.769516 
	C704.926636,240.592300 704.970581,258.415985 705.005554,276.239166 
	C705.034485,290.991547 711.427917,297.847198 726.212524,299.127838 
	C735.578979,299.939117 744.823059,298.832794 754.047485,297.392853 
	C754.862610,297.265594 755.716797,297.175476 755.985107,295.679260 
z"/>
<path fill="#06295C" opacity="1.000000" stroke="none" 
	d="
M833.523315,312.276978 
	C829.263794,311.800659 825.443604,311.471588 821.653137,310.933441 
	C815.203857,310.017853 818.022034,304.905762 817.631653,301.424744 
	C817.226990,297.815918 819.700684,296.947296 822.800964,297.153351 
	C835.937622,298.026672 849.086121,298.510376 862.248108,297.946716 
	C867.070190,297.740204 871.864319,297.203156 876.387329,295.259277 
	C890.241272,289.305084 892.613831,272.064819 880.679626,262.914703 
	C868.857117,253.850235 855.164307,247.946030 842.291565,240.653214 
	C833.615356,235.737885 824.679688,231.068802 818.889771,222.431961 
	C808.135742,206.390121 814.292542,186.227325 832.195312,178.906952 
	C841.427795,175.131775 851.102112,173.920151 861.024414,173.833359 
	C872.867004,173.729782 884.675903,174.271317 896.450623,175.357376 
	C904.303589,176.081711 904.770386,176.959305 903.937988,185.860825 
	C903.365234,191.985031 898.647583,189.716309 895.499573,189.576172 
	C882.681824,189.005539 869.868774,188.509583 857.044495,189.062408 
	C853.565430,189.212402 850.036316,189.561203 846.656128,190.354965 
	C840.362549,191.832916 835.141785,194.809647 833.560852,201.813293 
	C831.891479,209.209152 834.663696,214.965805 840.509583,219.212326 
	C849.967773,226.082809 860.575989,231.016983 870.817444,236.554504 
	C879.163879,241.067413 887.504639,245.519394 895.001770,251.455978 
	C905.522583,259.786896 909.842285,270.382416 907.532532,283.587860 
	C905.197021,296.940826 896.756836,305.083435 884.418030,309.309692 
	C867.939453,314.953888 850.954163,314.025177 833.523315,312.276978 
z"/>
<path fill="#072A5D" opacity="1.000000" stroke="none" 
	d="
M929.340454,300.660950 
	C923.567932,294.527496 920.137756,287.556091 918.927368,279.633728 
	C917.004578,267.048004 916.558350,254.380219 919.413086,241.894806 
	C923.081238,225.852264 933.256531,215.549530 949.003906,211.216980 
	C959.610168,208.298874 970.481873,208.354416 981.074097,211.631836 
	C998.624329,217.062210 1007.721741,229.543716 1009.864868,247.404373 
	C1010.378784,251.687378 1010.052612,256.065125 1010.412476,260.374237 
	C1010.825073,265.314270 1008.480774,266.758301 1003.908386,266.732452 
	C983.246826,266.615601 962.581360,266.872009 941.924133,266.549744 
	C936.753784,266.469055 935.924744,268.108124 936.380737,272.766296 
	C938.037781,289.691101 945.909485,297.998230 962.961487,299.485382 
	C975.308716,300.562225 987.559387,298.593475 999.825745,297.459869 
	C1002.813477,297.183746 1006.472473,295.845093 1007.105408,300.794006 
	C1008.015442,307.909790 1006.974609,309.798828 1001.349609,310.669647 
	C987.332031,312.839691 973.255981,314.329407 959.050354,313.071686 
	C947.990662,312.092468 937.932068,308.539673 929.340454,300.660950 
z"/>
<path fill="#072A5D" opacity="1.000000" stroke="none" 
	d="
M1231.025146,313.510010 
	C1223.042358,313.434723 1215.572998,313.054596 1208.328247,310.802490 
	C1194.061646,306.367554 1184.123169,297.474213 1180.914551,282.576752 
	C1177.729980,267.790619 1177.251953,252.789337 1181.763550,238.169968 
	C1186.511230,222.786118 1197.585083,213.934296 1213.085815,210.584991 
	C1222.829956,208.479538 1232.665894,208.594208 1242.216675,211.603134 
	C1260.608887,217.397430 1270.111816,230.539093 1271.646362,251.730362 
	C1272.729248,266.685089 1272.729248,266.685150 1257.789185,266.685120 
	C1239.137939,266.685089 1220.485840,266.782593 1201.836426,266.600464 
	C1198.208252,266.565033 1197.429810,267.770508 1197.506470,271.140930 
	C1197.885864,287.808350 1206.909668,297.869873 1223.600098,299.429382 
	C1236.114380,300.598724 1248.514893,298.605774 1260.939697,297.475494 
	C1263.880615,297.207916 1267.598389,295.672180 1268.354980,300.633179 
	C1269.442383,307.764191 1268.207275,309.899536 1262.306885,310.731934 
	C1252.087891,312.173584 1241.859863,313.587524 1231.025146,313.510010 
z"/>
<path fill="#072A5D" opacity="1.000000" stroke="none" 
	d="
M630.971558,313.515137 
	C622.948669,313.622894 615.557129,312.660126 608.484314,309.891235 
	C598.325256,305.914154 590.802673,298.965179 587.519043,288.563904 
	C582.030762,271.179321 582.130798,253.420868 586.977905,235.946716 
	C590.911804,221.764709 601.369873,213.883621 615.337219,210.815216 
	C630.934204,207.388794 646.518433,209.607605 661.924805,212.439438 
	C672.772827,214.433395 672.701294,214.821869 672.701294,226.054489 
	C672.701294,251.356522 672.581665,276.659607 672.802368,301.959717 
	C672.846497,307.022491 670.993408,309.083710 666.164124,309.835724 
	C654.641724,311.630035 643.109192,313.161713 630.971558,313.515137 
z"/>
<path fill="#072A5D" opacity="1.000000" stroke="none" 
	d="
M1178.705933,214.897156 
	C1169.668335,243.159973 1160.778809,271.049988 1151.732666,298.889130 
	C1148.489868,308.868561 1141.917969,313.459930 1131.599487,313.545044 
	C1121.453735,313.628723 1114.505981,309.062592 1111.263428,299.134247 
	C1102.226318,271.462341 1093.508789,243.686172 1084.595459,215.973557 
	C1083.485352,212.522293 1084.689209,210.903961 1088.054932,210.454575 
	C1088.383423,210.410721 1088.719727,210.412918 1089.052368,210.412888 
	C1104.182373,210.410965 1101.407837,209.371552 1105.039551,221.702408 
	C1112.136719,245.801163 1119.281860,269.885834 1126.416260,293.973633 
	C1127.224854,296.703766 1127.922729,299.914429 1131.494141,299.859100 
	C1135.011963,299.804657 1135.816406,296.497253 1136.595947,293.861603 
	C1143.438965,270.730804 1150.170898,247.567154 1156.935913,224.413300 
	C1157.169189,223.614807 1157.401611,222.815994 1157.639526,222.018890 
	C1161.393066,209.449112 1161.390381,209.489929 1174.476318,210.379974 
	C1177.229858,210.567245 1178.998779,211.403290 1178.705933,214.897156 
z"/>
<path fill="#092C5E" opacity="1.000000" stroke="none" 
	d="
M1022.334717,311.714172 
	C1019.924194,310.268158 1020.023743,308.233704 1020.024170,306.214600 
	C1020.030090,277.915192 1020.084412,249.615540 1019.964722,221.316650 
	C1019.947815,217.318100 1021.510925,215.239243 1025.200439,214.009109 
	C1039.194702,209.343063 1053.674561,209.297958 1068.160645,209.236710 
	C1070.956665,209.224884 1072.136230,210.513962 1072.205444,213.555222 
	C1072.431274,223.509384 1072.560913,223.485489 1062.388550,223.717316 
	C1056.069458,223.861313 1049.754150,223.880966 1043.440796,224.510864 
	C1039.742676,224.879852 1038.529175,226.159927 1038.560425,230.026230 
	C1038.754883,253.995911 1038.658447,277.967957 1038.658325,301.939209 
	C1038.658203,312.165558 1038.657959,312.178406 1028.185181,312.147736 
	C1026.361572,312.142395 1024.538330,311.977570 1022.334717,311.714172 
z"/>
<path fill="#FDFEFF" opacity="1.000000" stroke="none" 
	d="
M354.717255,285.482483 
	C366.379181,318.283020 347.562378,348.956482 320.544525,357.784058 
	C314.508484,359.756256 308.258575,360.769806 301.869263,360.768524 
	C258.714020,360.759796 215.558701,360.727509 172.403732,360.839172 
	C169.077164,360.847778 168.011581,359.518707 166.250458,356.785889 
	C161.758469,349.815338 164.753387,345.955841 169.784164,341.039856 
	C191.107635,320.202881 212.050491,298.974976 233.006882,277.765869 
	C235.170517,275.576141 236.587433,275.423462 239.277222,276.847015 
	C260.519012,288.089020 288.026215,276.811890 295.472412,253.810837 
	C296.458771,250.764008 297.726288,249.633301 300.993927,249.687790 
	C326.435883,250.112045 344.301880,261.838013 354.717255,285.482483 
z"/>
<path fill="#FDFEFF" opacity="1.000000" stroke="none" 
	d="
M293.000061,120.260704 
	C309.656647,120.260674 325.813965,120.340866 341.969208,120.193275 
	C345.232178,120.163467 346.316284,121.454163 348.126434,124.198341 
	C352.951965,131.513702 349.266571,135.458572 344.300598,140.341995 
	C323.285583,161.007568 302.550415,181.958603 281.816498,202.907761 
	C279.614471,205.132645 277.982513,205.646362 275.004730,204.187592 
	C253.288528,193.549088 228.198181,203.248703 219.483063,225.972366 
	C217.709991,230.595428 215.467773,231.373734 211.179550,231.257004 
	C181.847885,230.458633 158.294189,207.222473 157.090195,177.662552 
	C155.916397,148.843826 178.051376,123.344139 207.085052,120.876427 
	C226.512344,119.225204 246.037292,120.509834 265.516998,120.278740 
	C274.510162,120.172050 283.505615,120.260597 293.000061,120.260704 
z"/>
<path fill="#FBFDFE" opacity="1.000000" stroke="none" 
	d="
M265.816528,261.133881 
	C256.742157,263.942047 248.591400,263.256897 241.873260,256.560547 
	C235.793915,250.500854 233.474777,243.154297 235.867859,234.675400 
	C238.609955,224.959885 247.251892,218.317001 257.155487,218.220673 
	C266.747009,218.127365 275.756104,224.828827 278.407837,234.029297 
	C281.307190,244.088989 277.542267,254.112579 268.800873,259.560669 
	C267.957520,260.086304 267.056610,260.519501 265.816528,261.133881 
z"/>
<path fill="#FBFDFE" opacity="1.000000" stroke="none" 
	d="
M364.226624,109.319321 
	C365.615234,98.674141 371.494843,92.050041 381.210693,89.494629 
	C390.014099,87.179199 397.649170,90.183296 403.568329,97.129807 
	C409.246063,103.792969 410.211426,113.950371 406.012207,121.474586 
	C401.200287,130.096695 392.818451,134.333984 383.028595,133.093582 
	C374.452026,132.006882 367.004272,125.246994 364.900299,116.662460 
	C364.342163,114.385048 363.935974,112.099335 364.226624,109.319321 
z"/>
<path fill="#FBFDFE" opacity="1.000000" stroke="none" 
	d="
M146.125839,357.001617 
	C151.732895,365.715912 151.890259,374.176331 146.292191,382.494781 
	C141.145386,390.142700 133.635284,393.263855 124.721619,391.871094 
	C115.355972,390.407745 109.246773,384.651398 106.613121,375.479218 
	C103.843475,365.833466 108.756073,354.850647 117.813606,350.154449 
	C127.378334,345.195312 138.353821,347.743225 146.125839,357.001617 
z"/>
<path fill="#FCFCFD" opacity="1.000000" stroke="none" 
	d="
M542.050110,236.363892 
	C529.498657,240.971176 516.803833,240.335098 504.156036,240.164413 
	C492.158752,240.002502 492.158936,239.993713 492.158813,227.815002 
	C492.158691,216.156769 492.155762,204.498535 492.160889,192.840302 
	C492.161682,191.034348 491.780334,189.090134 494.697449,189.084274 
	C508.651093,189.056274 522.657593,187.606567 536.463501,190.993546 
	C547.574707,193.719467 553.660645,199.718124 554.891235,209.348587 
	C556.529846,222.172211 552.620789,230.569977 542.050110,236.363892 
z"/>
<path fill="#FAFBFC" opacity="1.000000" stroke="none" 
	d="
M960.299683,223.868988 
	C969.422607,223.343338 977.719849,224.010086 984.397705,230.592667 
	C990.508667,236.616501 991.075562,244.411392 991.600281,252.252304 
	C991.745300,254.420441 990.104248,254.051056 988.868958,254.052750 
	C972.242615,254.075546 955.616211,254.060623 938.989868,254.079437 
	C937.283936,254.081360 936.379333,253.811386 936.301758,251.638275 
	C935.765198,236.612045 944.993347,225.638535 960.299683,223.868988 
z"/>
<path fill="#FAFBFC" opacity="1.000000" stroke="none" 
	d="
M1232.999756,254.067413 
	C1222.169434,254.067245 1211.837524,253.969574 1201.509521,254.128113 
	C1198.529663,254.173859 1197.425781,253.557022 1197.709351,250.278061 
	C1198.586060,240.137070 1201.332764,231.023209 1211.499878,226.608704 
	C1222.351807,221.896851 1233.500732,221.812790 1243.426025,228.688629 
	C1251.174683,234.056580 1252.798340,242.806900 1252.927490,251.788803 
	C1252.967163,254.540497 1251.069458,254.040680 1249.494995,254.051865 
	C1244.163452,254.089752 1238.831421,254.066986 1232.999756,254.067413 
z"/>
<path fill="#FCFCFD" opacity="1.000000" stroke="none" 
	d="
M602.419128,261.000366 
	C602.473145,254.008713 602.285889,247.507675 604.031189,241.143494 
	C607.059448,230.101501 613.399963,224.387375 624.768921,223.312592 
	C633.592224,222.478455 642.406067,223.461197 651.198181,224.384048 
	C653.561890,224.632141 654.128052,225.707489 654.120178,227.958008 
	C654.042969,250.121246 654.078125,272.284851 654.063477,294.448364 
	C654.062439,296.049591 654.468201,297.836914 651.898743,298.111969 
	C643.117981,299.051880 634.265930,300.548645 625.506042,299.581757 
	C611.348999,298.019165 604.616821,290.618561 602.961609,275.973480 
	C602.420959,271.189575 602.580139,266.326569 602.419128,261.000366 
z"/>
</svg>