<svg height="201.85001" viewBox="0 0 388.11249 201.85001" width="388.11249" xmlns="http://www.w3.org/2000/svg"><g transform="matrix(.125 0 0 -.125 0 201.85)"><path d="m2840.22 800.078c-2.68 5.723-3.89 8.61-5.35 11.379-38.9 73.957-77.71 147.969-116.96 221.743-3.96 7.41-3.47 11.82 1.95 18.15 61.87 72.28 123.42 144.85 185.04 217.35 2.16 2.54 4.11 5.26 4.94 9.78-18.02-4.71-36.04-9.36-54.04-14.13-74.76-19.81-149.54-39.56-224.23-59.64-6.97-1.87-10.13.17-13.59 5.94-42.45 70.91-85.14 141.67-127.78 212.46-2.21 3.68-4.58 7.25-9.27 10.34-3.43-18.89-6.92-37.77-10.28-56.67-11.88-66.72-23.72-133.46-35.56-200.19-1.29-7.2-3.07-14.37-3.68-21.63-.6-6.89-4.13-9.43-10.36-11.39-88.11-27.66-176.13-55.59-264.15-83.49-3.87-1.22-7.64-2.8-11.79-6.57 72.01-28.62 144.02-57.237 217.14-86.295-2.66-2.113-4.39-3.738-6.34-5.008-45.02-29.129-90.11-58.141-135.02-87.422-5.37-3.5-9.64-3.996-15.68-1.277-53.77 24.215-107.75 47.972-161.6 72.023-24.18 10.797-45.93 25.141-62.87 45.856-38.29 46.843-30.73 100.133 20.29 132.683 16.7 10.65 35.65 18.64 54.56 24.81 86.29 28.11 172.91 55.22 259.49 82.42 7.25 2.27 10.62 5.52 11.97 13.38 11.53 66.79 23.5 133.51 35.53 200.2 6.44 35.66 9.86 72.24 27.22 104.92 6.66 12.56 14.65 24.87 24.15 35.4 34.36 38.14 82.33 39.62 118.67 3.28 12.26-12.26 22.81-26.73 31.92-41.57 40.04-65.27 79.42-130.96 118.59-196.76 4.63-7.78 8.81-9.35 17.38-7.05 96.54 25.88 193.18 51.36 289.82 76.89 19.93 5.26 40.09 7.2 60.55 3.37 44.54-8.34 64.01-42.25 48.94-85.27-6.86-19.61-18.69-36.16-32-51.8-67.43-79.3-134.75-158.69-202.41-237.79-5.53-6.46-5.65-11.14-1.82-18.36 40.36-76.077 80.37-152.339 120.53-228.527 9.61-18.242 16.94-37.16 17.16-58.101.48-47.629-34.35-86.606-81.68-93.543-26.51-3.895-51.14 1.769-75.98 9.441-60.53 18.711-121.17 37.11-181.84 55.356-5.62 1.683-7.77 3.882-8.76 9.941-6.98 42.695-14.59 85.297-21.95 127.934-.21 1.172.14 2.437.32 5.047 69.07-19.055 137.54-37.942 208.83-57.61" fill="#e25a1c" fill-rule="evenodd"/><g fill="#3c3a3e"><path d="m2722.2 178.23c-54.59.098-109.18.348-163.78.129-7.2-.019-11.29 2.082-15.31 8.211-64.63 98.442-129.55 196.692-194.42 294.981-2.07 3.129-4.27 6.148-7.94 11.41-13.97-106.16-27.62-209.949-41.3-314-47.77 0-94.59 0-142.96 0 1.67 13.93 3.14 27.391 4.9 40.801 13.96 106.59 27.97 213.179 41.98 319.758 13.38 101.839 26.72 203.679 40.3 305.5.4 3.039 2.42 6.875 4.9 8.488 49.19 32.074 98.55 63.871 147.91 95.691.72.469 1.72.524 4.27 1.246-14.93-113.871-29.75-226.851-44.57-339.836.59-.398 1.17-.8 1.76-1.211 77.44 85.844 154.89 171.688 234 259.372 2.29-13.2 4.27-24.497 6.21-35.801 5.55-32.367 10.87-64.781 16.81-97.082 1.2-6.508-.53-10.559-4.87-15.086-50.08-52.41-99.97-105-149.9-157.539-2.18-2.293-4.27-4.672-6.75-7.391 1.59-2.551 2.95-5 4.56-7.269 86.13-120.891 172.26-241.762 258.46-362.602 1.56-2.191 3.81-3.91 5.74-5.852 0-.636 0-1.277 0-1.918" fill-rule="evenodd"/><path d="m1027.64 492.488c-2.18 11.141-3.74 27.5-8.69 42.782-23.938 73.871-99.735 114.378-178.188 96.117-86.063-20.028-147.567-87.688-156.465-175.508-6.586-64.957 28.394-127.539 93.433-151.027 52.399-18.93 102.848-11.012 149.688 17.078 62.086 37.25 95.762 92.55 100.222 170.558zm-377.937-274.566c-4.246-31.781-8.297-61.731-12.238-91.703-5.235-39.8401-10.457-79.6877-15.473-119.54712-.586-4.65235-1.996-6.70313-6.992-6.67188-39.27.160156-78.539.121094-117.805.179688-.894 0-1.789.492187-3.918 1.089842 2.375 18.80857 4.684 37.67187 7.153 56.51957 8.664 66.0819 17.308 132.1719 26.101 198.2419 10.055 75.547 18.02 151.457 30.895 226.52 22.804 132.914 135.562 247.457 267.879 275.976 76.711 16.547 150.125 8.891 217.095-34.273 66.79-43.047 105.1-105.516 113.83-184.094 12.35-111.101-28.54-203.332-107.46-279.629-51.793-50.09-113.805-81.922-185.332-92.679-73.684-11.114-142.946 1.179-205.102 44.617-2.285 1.59-4.723 2.98-8.633 5.453" fill-rule="evenodd"/><path d="m585.711 849.512c-44.039-32.785-86.496-64.387-129.137-96.129-6.871 10.844-13.027 21.644-20.215 31.695-18.5 25.852-41.476 45.168-74.894 47.512-27.793 1.949-51.563-7.207-70.481-27.699-16.921-18.325-19.132-44.379-3.32-65.075 17.406-22.781 36.457-44.394 55.91-65.484 32.246-34.961 65.953-68.582 97.992-103.73 29.153-31.973 52.391-67.852 59.567-111.571 8.535-51.972-1.832-101.472-26.418-147.152-45.496-84.527-117.141-133.57-211.723-148.918-41.769-6.77-83.426-5.422-124.183 6.578-54.0902 15.922-91.7387 51.371-115.9496 101.43-8.5547 17.699-15.09768 36.371-22.8594 55.34 47.3555 25.339 93.3555 49.961 140.031 74.941 1.629-3.891 2.766-7.129 4.285-10.16 7.957-15.93 14.473-32.852 24.332-47.512 29.235-43.469 76.457-56.699 124.364-35.207 12.304 5.52 24.156 13.309 34.25 22.258 30.871 27.402 36.66 65.551 13.808 100.031-13.129 19.809-29.55 37.57-45.535 55.32-38.203 42.43-77.961 83.5-115.281 126.692-25.727 29.769-43.207 64.488-48.738 104.363-6.043 43.535 2.664 84.617 25.32 121.27 56.324 91.105 138.172 138.5 246.43 134.574 61.718-2.238 110.863-31.098 149.011-79.051 11.289-14.183 21.868-28.933 33.434-44.316" fill-rule="evenodd"/><path d="m1631.44 360.398c-7.18-54.878-13.95-107.039-20.99-159.16-.36-2.636-2.43-6.226-4.68-7.277-106.56-49.352-246.88-42.461-334.39 56.918-47.02 53.391-66.75 116.762-63.8 187.262 6.82 163.199 142.13 305.668 303.94 325.574 94.54 11.633 177.45-13.902 241.5-87.34 43.62-50.031 63.8-109.773 60.82-175.703-1.96-43.551-8.79-86.91-14.21-130.262-7.68-61.398-16.07-122.719-24.18-184.07-.29-2.18-.73-4.34-1.22-7.11-42.19 0-84.13 0-127.48 0 1.7 14.098 3.25 27.899 5.04 41.668 9.23 70.864 19.38 141.614 27.47 212.602 5.04 44.211 1.87 88.09-18.35 129.039-21.51 43.52-57.57 66.539-105 71.57-98.16 10.391-191.55-57.82-212.49-154.418-13.83-63.769 7.97-124.89 58.75-158.679 49.5-32.934 102.51-33.043 156.45-11.684 27.35 10.82 50.65 27.953 72.82 51.07" fill-rule="evenodd"/><path d="m2168.23 751.324c-5.82-44.199-11.55-87.738-17.41-132.179-26.95 0-53.38.156-79.8-.055-21.41-.168-40.95-13.988-47.38-33.981-2.52-7.82-3.45-16.187-4.53-24.39-13.41-101.489-26.72-202.981-40.03-304.481-3.36-25.59-6.63-51.199-9.99-77.179-44.22 0-87.81 0-132.69 0 2.48 19.519 4.82 38.402 7.29 57.261 8.63 65.782 17.26 131.539 26 197.289 7.55 56.903 14.28 113.93 23.17 170.621 11.92 75.997 87.53 143.485 164.22 146.821 36.59 1.59 73.31.273 111.15.273" fill-rule="evenodd"/><path d="m2878.63 179.059v56.011h-.32l-21.98-56.011h-7.01l-21.98 56.011h-.33v-56.011h-11.07v67.089h17.09l20.03-50.968 19.71 50.968h16.94v-67.089zm-97.38 58.121v-58.121h-11.07v58.121h-21.01v8.968h53.09v-8.968z"/><path d="m763.457 943.719h32.898l-7.757 49.808zm38.063-32.18h-54.735l-17.387-34.059h-38.761l85.5 159.73h37.367l29.113-159.73h-35.933z"/><path d="m997.352 1005.04h-19.5l-6.563-36.876h19.484c11.757 0 21.157 7.738 21.157 22.313 0 9.633-5.89 14.563-14.578 14.563zm-47.215 32.17h51.223c26.78 0 45.56-15.97 45.56-43.444 0-34.536-24.43-57.782-59.197-57.782h-22.075l-10.347-58.504h-33.34z"/><path d="m1160.22 943.719h32.9l-7.76 49.808zm38.06-32.18h-54.73l-17.39-34.059h-38.76l85.5 159.73h37.36l29.12-159.73h-35.93z"/><path d="m1414.67 883.125c-11.27-5.164-23.71-8.234-36.17-8.234-42.27 0-68.83 31.722-68.83 71.422 0 50.746 42.75 93.497 93.5 93.497 12.68 0 24.2-3.05 33.59-8.22l-4.7-38.301c-7.04 7.761-18.33 13.161-32.42 13.161-29.12 0-54.96-26.321-54.96-56.848 0-23.25 14.56-41.356 37.59-41.356 14.1 0 27.71 5.406 36.87 12.922z"/><path d="m1618.52 941.848h-69.53l-11.29-64.368h-33.34l28.18 159.73h33.36l-11.27-63.183h69.53l11.26 63.183h33.36l-28.17-159.73h-33.36z"/><path d="m1740.85 877.48 28.17 159.73h88.57l-5.64-32.17h-55.21l-5.62-31.013h50.72l-5.62-32.179h-50.75l-5.64-32.184h55.21l-5.64-32.184z"/></g></g></svg>