<?xml version="1.0" encoding="utf-8"?>
<!-- Generator: Adobe Illustrator 25.0.1, SVG Export Plug-In . SVG Version: 6.00 Build 0)  -->
<svg version="1.0" id="katman_1" xmlns="http://www.w3.org/2000/svg" xmlns:xlink="http://www.w3.org/1999/xlink" x="0px" y="0px"
	 viewBox="0 0 338 200" style="enable-background:new 0 0 338 200;" xml:space="preserve">
<style type="text/css">
	.st0{clip-path:url(#SVGID_2_);}
	.st1{fill:url(#SVGID_3_);}
	.st2{clip-path:url(#SVGID_5_);}
	.st3{fill:url(#SVGID_6_);}
	.st4{fill:#425066;}
</style>
<g>
	<g>
		<g>
			<defs>
				<polygon id="SVGID_1_" points="73.5,85.6 51,72.8 51,125.4 60,120.2 60,105.4 66.8,109.3 66.7,99.2 60,95.3 60,89.4 73.5,97.3 
									"/>
			</defs>
			<clipPath id="SVGID_2_">
				<use xlink:href="#SVGID_1_"  style="overflow:visible;"/>
			</clipPath>
			<g class="st0">
				
					<linearGradient id="SVGID_3_" gradientUnits="userSpaceOnUse" x1="24.4" y1="-201.05" x2="79.6" y2="-201.05" gradientTransform="matrix(1 0 0 -1 0 -102)">
					<stop  offset="0" style="stop-color:#FF6F00"/>
					<stop  offset="1" style="stop-color:#FFA800"/>
				</linearGradient>
				<path class="st1" d="M24.4,72.6h55.2v52.9H24.4V72.6z"/>
			</g>
		</g>
	</g>
</g>
<g>
	<g>
		<g>
			<defs>
				<polygon id="SVGID_4_" points="26.5,85.6 49,72.8 49,125.4 40,120.2 40,89.4 26.5,97.3 				"/>
			</defs>
			<clipPath id="SVGID_5_">
				<use xlink:href="#SVGID_4_"  style="overflow:visible;"/>
			</clipPath>
			<g class="st2">
				
					<linearGradient id="SVGID_6_" gradientUnits="userSpaceOnUse" x1="24.1" y1="-201.05" x2="79.3" y2="-201.05" gradientTransform="matrix(1 0 0 -1 0 -102)">
					<stop  offset="0" style="stop-color:#FF6F00"/>
					<stop  offset="1" style="stop-color:#FFA800"/>
				</linearGradient>
				<path class="st3" d="M24.1,72.6h55.2v52.9H24.1V72.6z"/>
			</g>
		</g>
	</g>
</g>
<path class="st4" d="M114.2,89.1h-10v27.7h-5.6V89.1h-10v-4.5h25.6V89.1z"/>
<path class="st4" d="M120.9,117.2c-3.4,0-6.2-1.1-8.3-3.2c-2.1-2.1-3.2-5-3.2-8.6v-0.7c0-2.2,0.4-4.4,1.4-6.4
	c0.9-1.8,2.2-3.3,3.9-4.4c1.7-1.1,3.6-1.6,5.6-1.6c3.3,0,5.8,1,7.6,3.1s2.7,5,2.7,8.8v2.2h-15.7c0.1,1.8,0.8,3.4,2,4.7
	c1.2,1.2,2.7,1.8,4.4,1.7c2.4,0.1,4.6-1.1,6-3l2.9,2.8c-1,1.4-2.3,2.6-3.8,3.3C124.6,116.9,122.8,117.3,120.9,117.2z M120.3,96.7
	c-1.4-0.1-2.7,0.5-3.6,1.5c-1,1.2-1.6,2.7-1.7,4.3h10.3v-0.4c-0.1-1.8-0.6-3.2-1.4-4.1C122.9,97.2,121.6,96.6,120.3,96.7z
	 M139.7,92.8l0.2,2.8c1.7-2.1,4.3-3.3,7-3.2c5,0,7.5,2.9,7.6,8.6v15.8h-5.4v-15.5c0-1.5-0.3-2.6-1-3.4c-0.7-0.7-1.7-1.1-3.2-1.1
	c-2.1-0.1-4,1.1-4.9,2.9v17h-5.4v-24C134.6,92.7,139.7,92.8,139.7,92.8z M171.9,110.3c0-0.9-0.4-1.7-1.2-2.2
	c-1.2-0.7-2.6-1.1-3.9-1.3c-1.6-0.3-3.1-0.8-4.6-1.5c-2.7-1.3-4-3.2-4-5.6c0-2,1-4,2.6-5.2c1.7-1.4,4-2.1,6.6-2.1
	c2.9,0,5.2,0.7,6.9,2.1c1.7,1.3,2.7,3.4,2.6,5.5h-5.4c0-1-0.4-1.9-1.2-2.6c-0.9-0.7-1.9-1.1-3.1-1c-1,0-2,0.2-2.9,0.8
	c-0.7,0.5-1.1,1.3-1.1,2.2c0,0.8,0.4,1.5,1,1.9c0.7,0.5,2.1,0.9,4.2,1.4c1.7,0.3,3.4,0.9,5,1.7c1.1,0.5,2,1.3,2.7,2.3
	c0.6,1,0.9,2.1,0.9,3.3c0,2.1-1,4-2.7,5.2c-1.8,1.3-4.1,2-7,2c-1.8,0-3.6-0.3-5.2-1.1c-1.4-0.6-2.7-1.6-3.6-2.9
	c-0.8-1.2-1.3-2.6-1.3-4h5.2c0,1.1,0.5,2.2,1.4,2.9c1,0.7,2.3,1.1,3.5,1c1.4,0,2.5-0.3,3.2-0.8C171.5,111.9,171.9,111.1,171.9,110.3
	L171.9,110.3z M180,104.6c0-2.2,0.4-4.4,1.4-6.3c0.9-1.8,2.2-3.3,3.9-4.3c1.8-1,3.8-1.6,5.8-1.5c3.2,0,5.9,1,7.9,3.1
	c2,2.1,3.1,4.8,3.3,8.3v1.3c0,2.2-0.4,4.3-1.4,6.3c-0.8,1.8-2.2,3.3-3.9,4.3c-1.8,1-3.8,1.6-5.9,1.5c-3.4,0-6.1-1.1-8.1-3.4
	c-2-2.2-3-5.2-3.1-9L180,104.6z M185.3,105.1c0,2.5,0.5,4.4,1.5,5.8c1.8,2.3,5.1,2.8,7.5,1c0.4-0.3,0.7-0.6,1-1
	c1-1.4,1.5-3.5,1.5-6.2c0-2.4-0.5-4.3-1.6-5.8c-1.7-2.3-5-2.8-7.4-1.1c-0.4,0.3-0.8,0.7-1.1,1C185.9,100.2,185.3,102.3,185.3,105.1z
	 M218.4,97.8c-0.7-0.1-1.5-0.2-2.2-0.2c-2.5,0-4.1,0.9-5,2.8v16.4h-5.4v-24h5.1l0.1,2.7c1.3-2.1,3.1-3.1,5.4-3.1
	c0.6,0,1.3,0.1,1.9,0.3L218.4,97.8L218.4,97.8z M240.9,103.1h-13v13.7h-5.6V84.6h20.5v4.5h-14.9v9.6h13V103.1z M251.6,116.8h-5.4
	V84.5h5.4C251.6,84.5,251.6,116.8,251.6,116.8z M255.5,104.6c0-2.2,0.4-4.4,1.4-6.3c0.9-1.8,2.2-3.3,3.9-4.3c1.8-1,3.8-1.6,5.8-1.5
	c3.2,0,5.9,1,7.9,3.1c2,2.1,3.1,4.8,3.3,8.3v1.3c0,2.2-0.4,4.3-1.3,6.3c-0.8,1.8-2.2,3.3-3.9,4.3c-1.8,1-3.8,1.6-5.9,1.5
	c-3.4,0-6.1-1.1-8.1-3.4c-2-2.2-3.1-5.2-3.1-9L255.5,104.6L255.5,104.6z M260.9,105.1c0,2.5,0.5,4.4,1.5,5.8s2.6,2.2,4.3,2.1
	c1.7,0.1,3.3-0.7,4.2-2.1c1-1.4,1.5-3.5,1.5-6.2c0-2.4-0.5-4.3-1.6-5.8c-1.7-2.3-5-2.8-7.4-1.1c-0.4,0.3-0.8,0.7-1.1,1
	C261.4,100.2,260.9,102.3,260.9,105.1z M302.1,109.4l3.8-16.5h5.2l-6.5,24h-4.4l-5.1-16.5l-5.1,16.5h-4.4l-6.6-24h5.3l3.9,16.4
	l4.9-16.4h4.1L302.1,109.4L302.1,109.4z"/>
</svg>
