<?xml version="1.0" encoding="UTF-8" standalone="no"?>
<!-- Created with Inkscape (http://www.inkscape.org/) -->

<svg
   width="69.981293mm"
   height="27.960279mm"
   viewBox="0 0 69.981293 27.960279"
   version="1.1"
   id="svg5"
   inkscape:version="1.2.2 (732a01da63, 2022-12-09)"
   sodipodi:docname="xgboost-logo.svg"
   inkscape:export-filename="xgboost-logo.png"
   inkscape:export-xdpi="150"
   inkscape:export-ydpi="150"
   xmlns:inkscape="http://www.inkscape.org/namespaces/inkscape"
   xmlns:sodipodi="http://sodipodi.sourceforge.net/DTD/sodipodi-0.dtd"
   xmlns="http://www.w3.org/2000/svg"
   xmlns:svg="http://www.w3.org/2000/svg">
  <sodipodi:namedview
     id="namedview7"
     pagecolor="#ffffff"
     bordercolor="#000000"
     borderopacity="0.25"
     inkscape:showpageshadow="2"
     inkscape:pageopacity="0.0"
     inkscape:pagecheckerboard="0"
     inkscape:deskcolor="#d1d1d1"
     inkscape:document-units="mm"
     showgrid="false"
     inkscape:zoom="1.5219183"
     inkscape:cx="154.08186"
     inkscape:cy="2.628262"
     inkscape:window-width="1929"
     inkscape:window-height="1005"
     inkscape:window-x="386"
     inkscape:window-y="197"
     inkscape:window-maximized="0"
     inkscape:current-layer="layer1" />
  <defs
     id="defs2">
    <filter
       inkscape:collect="always"
       style="color-interpolation-filters:sRGB"
       id="filter7674"
       x="-0.0072096223"
       y="-0.035761357"
       width="1.0144192"
       height="1.0715227">
      <feGaussianBlur
         inkscape:collect="always"
         stdDeviation="0.20723625"
         id="feGaussianBlur7676" />
    </filter>
    <filter
       inkscape:collect="always"
       style="color-interpolation-filters:sRGB"
       id="filter1006"
       x="-0.010105613"
       y="-0.025782407"
       width="1.0202112"
       height="1.0515648">
      <feGaussianBlur
         inkscape:collect="always"
         stdDeviation="0.11081314"
         id="feGaussianBlur1008" />
    </filter>
  </defs>
  <g
     inkscape:label="Layer 1"
     inkscape:groupmode="layer"
     id="layer1"
     transform="translate(-45.79308,-69.642837)">
    <g
       aria-label="dmlc"
       id="text113-8"
       style="font-size:14.1111px;fill:#999999;stroke-width:0.264583;filter:url(#filter1006);fill-opacity:1">
      <path
         d="m 51.992827,80.144775 h -0.874888 l 0.296333,-1.354665 q -0.352777,0.423333 -0.733777,0.747888 -0.338666,0.282222 -0.77611,0.522111 -0.423333,0.225777 -0.917222,0.225777 -1.721554,0 -1.721554,-1.989665 0,-0.90311 0.225777,-1.848554 0.239889,-0.945444 0.677333,-1.721554 0.451555,-0.776111 1.100666,-1.269999 0.663222,-0.493889 1.495777,-0.493889 0.324555,0 0.663221,0.04233 0.352778,0.04233 0.635,0.08467 0.324555,0.05644 0.634999,0.112889 l 0.747889,-3.231442 h 0.90311 z m 0.536222,-6.194773 q -0.268111,-0.04233 -0.564444,-0.09878 -0.254,-0.04233 -0.578555,-0.07056 -0.310444,-0.04233 -0.620888,-0.04233 -0.620889,0 -1.100666,0.451555 -0.479778,0.451555 -0.804333,1.142999 -0.324555,0.677333 -0.493888,1.481666 -0.169334,0.790221 -0.169334,1.481665 0,0.578555 0.254,0.889 0.268111,0.310444 0.818444,0.310444 0.381,0 0.804333,-0.268111 0.423333,-0.282222 0.77611,-0.620889 0.409222,-0.380999 0.804333,-0.888999 z"
         style="font-style:italic;font-weight:300;font-family:'Storia Sans';-inkscape-font-specification:'Storia Sans Light Italic';fill:#999999;fill-opacity:1"
         id="path9209" />
      <path
         d="m 58.145279,80.144775 0.818444,-3.555997 q 0.09878,-0.352777 0.183444,-0.860777 0.08467,-0.508 0.08467,-0.874888 0,-0.522111 -0.254,-0.804333 -0.254,-0.296333 -0.762,-0.296333 -0.380999,0 -0.790221,0.268111 -0.409222,0.268111 -0.747889,0.592666 -0.39511,0.366889 -0.77611,0.846666 l -1.086555,4.684885 h -0.90311 l 1.636887,-7.05555 h 0.874889 l -0.282222,1.326444 q 0.338666,-0.409222 0.719666,-0.733777 0.324555,-0.282223 0.747888,-0.508 0.437444,-0.225778 0.931333,-0.225778 0.536221,0 0.832555,0.211667 0.310444,0.197555 0.465666,0.437444 0.183444,0.282222 0.239889,0.649111 0.352777,-0.366889 0.747888,-0.649111 0.338666,-0.239889 0.761999,-0.437444 0.423333,-0.211667 0.874888,-0.211667 0.832555,0 1.241777,0.479778 0.409222,0.465666 0.409222,1.255888 0,0.479777 -0.09878,0.987777 -0.09878,0.493888 -0.183445,0.90311 l -0.832555,3.570108 h -0.90311 l 0.832555,-3.555997 q 0.08467,-0.352777 0.169333,-0.846666 0.09878,-0.493888 0.09878,-0.874888 0,-0.522111 -0.268111,-0.818444 -0.254,-0.296333 -0.747889,-0.296333 -0.366888,0 -0.733777,0.211667 -0.352777,0.211666 -0.64911,0.465666 -0.352778,0.296333 -0.677333,0.677333 -0.01411,0.197555 -0.04233,0.423333 -0.02822,0.197555 -0.08467,0.465666 -0.04233,0.254 -0.112889,0.578555 l -0.832555,3.570108 z"
         style="font-style:italic;font-weight:300;font-family:'Storia Sans';-inkscape-font-specification:'Storia Sans Light Italic';fill:#999999;fill-opacity:1"
         id="path9211" />
      <path
         d="m 67.261053,69.970672 h 0.903111 L 65.80761,80.144775 h -0.903111 z"
         style="font-style:italic;font-weight:300;font-family:'Storia Sans';-inkscape-font-specification:'Storia Sans Light Italic';fill:#999999;fill-opacity:1"
         id="path9213" />
      <path
         d="m 71.875376,72.948114 q 0.282222,0 0.592666,0.04233 0.310444,0.04233 0.550333,0.08467 0.282222,0.05644 0.564444,0.112889 l -0.239889,0.719666 q -0.26811,-0.02822 -0.52211,-0.07055 -0.225778,-0.02822 -0.493889,-0.05644 -0.254,-0.02822 -0.479777,-0.02822 -0.719666,0 -1.241777,0.381 -0.508,0.366888 -0.846666,0.973666 -0.338666,0.606777 -0.508,1.382887 -0.155222,0.762 -0.155222,1.552221 0,0.705555 0.338667,1.072444 0.338666,0.366889 1.185332,0.366889 0.197555,0 0.465666,-0.02822 0.282222,-0.02822 0.522111,-0.07055 0.282222,-0.05644 0.592666,-0.112889 l -0.04233,0.719666 q -0.282222,0.09878 -0.592666,0.155222 -0.268111,0.05645 -0.592666,0.09878 -0.324556,0.04233 -0.649111,0.04233 -1.086555,0 -1.622777,-0.536221 -0.536221,-0.550333 -0.536221,-1.566333 0,-1.015999 0.225777,-1.947331 0.225778,-0.945444 0.677333,-1.679221 0.465666,-0.733777 1.15711,-1.171222 0.705555,-0.437444 1.650999,-0.437444 z"
         style="font-style:italic;font-weight:300;font-family:'Storia Sans';-inkscape-font-specification:'Storia Sans Light Italic';fill:#999999;fill-opacity:1"
         id="path9215" />
    </g>
    <g
       aria-label="XGBoost"
       id="text167-5"
       style="font-size:19.7556px;fill:#999999;stroke-width:0.264583;filter:url(#filter7674);fill-opacity:1">
      <path
         d="m 53.422218,88.156463 3.239919,-4.721588 h 2.864562 l -4.9389,6.677393 1.857026,6.756415 h -2.864562 l -1.086558,-4.800611 -3.338696,4.800611 h -2.864562 l 5.057433,-6.776171 -1.778004,-6.657637 h 2.884318 z"
         style="font-style:italic;font-weight:800;font-family:'Storia Sans';-inkscape-font-specification:'Storia Sans Ultra-Bold Italic';fill:#999999;fill-opacity:1"
         id="path9194" />
      <path
         d="m 64.228526,89.401066 h 3.970875 l -1.679226,7.191038 q -0.414867,0.158045 -0.98778,0.256823 -0.49389,0.09878 -1.205091,0.177801 -0.691446,0.07902 -1.639715,0.07902 -2.192872,0 -3.318941,-1.047047 -1.126069,-1.047047 -1.126069,-3.180651 0,-1.876782 0.414867,-3.615275 0.434624,-1.758249 1.30387,-3.101629 0.889002,-1.343381 2.232383,-2.153361 1.363136,-0.809979 3.220163,-0.809979 0.829735,0 1.560692,0.118533 0.730957,0.118534 1.30387,0.276579 0.651934,0.1778 1.244602,0.395112 l -0.632179,1.97556 q -0.572912,-0.118534 -1.205091,-0.197556 -0.533402,-0.07902 -1.185336,-0.13829 -0.651935,-0.05927 -1.30387,-0.05927 -1.126069,0 -1.916293,0.730957 -0.790224,0.711201 -1.284114,1.797759 -0.49389,1.086558 -0.730957,2.370672 -0.217312,1.284114 -0.217312,2.429939 0,1.007536 0.533401,1.422403 0.553157,0.414868 1.442159,0.414868 0.256823,0 0.474134,0 0.217312,-0.01976 0.395112,-0.03951 0.197556,-0.01976 0.375357,-0.05927 l 0.691446,-2.983096 h -1.264359 z"
         style="font-style:italic;font-weight:800;font-family:'Storia Sans';-inkscape-font-specification:'Storia Sans Ultra-Bold Italic';fill:#999999;fill-opacity:1"
         id="path9196" />
      <path
         d="m 76.496769,83.434875 q 1.65947,0 2.587983,0.711201 0.928513,0.691446 0.928513,2.192872 0,1.363136 -0.592668,2.192872 -0.592668,0.809979 -1.619959,1.422403 0.80998,0.49389 1.047047,1.047047 0.237067,0.553156 0.237067,1.284114 0,0.928513 -0.335845,1.758248 -0.31609,0.829735 -0.968024,1.461914 -0.651935,0.63218 -1.659471,1.007536 -0.98778,0.355601 -2.331161,0.355601 h -5.057433 l 3.101629,-13.433808 z m -3.733809,7.803462 -0.770468,3.299185 h 2.331161 q 0.889002,0 1.422403,-0.612424 0.533401,-0.612423 0.533401,-1.580448 0,-1.106313 -1.284114,-1.106313 z m 1.264359,-5.472301 -0.750713,3.200407 h 2.034827 q 0.809979,0 1.363136,-0.553157 0.553157,-0.572912 0.553157,-1.521181 0,-1.126069 -1.165581,-1.126069 z"
         style="font-style:italic;font-weight:800;font-family:'Storia Sans';-inkscape-font-specification:'Storia Sans Ultra-Bold Italic';fill:#999999;fill-opacity:1"
         id="path9198" />
      <path
         d="m 85.347276,86.773571 q 1.837271,0 2.864562,0.889002 1.027291,0.869247 1.027291,2.844807 0,1.145824 -0.316089,2.33116 -0.31609,1.165581 -0.948269,2.11385 -0.612424,0.948268 -1.560692,1.560692 -0.928514,0.592668 -2.173116,0.592668 -1.837271,0 -2.864562,-0.869246 -1.027292,-0.869247 -1.027292,-2.864562 0,-1.145825 0.335846,-2.311406 0.335845,-1.185336 0.968024,-2.133604 0.651935,-0.948269 1.580448,-1.540937 0.928513,-0.612424 2.113849,-0.612424 z m -1.106313,8.080041 q 0.553156,0 0.98778,-0.395112 0.454378,-0.395112 0.750712,-1.027292 0.31609,-0.632179 0.474135,-1.402647 0.158045,-0.790224 0.158045,-1.560693 0,-0.691446 -0.31609,-1.066802 -0.31609,-0.375356 -0.948269,-0.375356 -0.572912,0 -1.007535,0.395112 -0.434624,0.395112 -0.750713,1.027291 -0.296334,0.632179 -0.454379,1.422403 -0.158045,0.770468 -0.158045,1.540937 0,0.691446 0.31609,1.066802 0.316089,0.375357 0.948269,0.375357 z"
         style="font-style:italic;font-weight:800;font-family:'Storia Sans';-inkscape-font-specification:'Storia Sans Ultra-Bold Italic';fill:#999999;fill-opacity:1"
         id="path9200" />
      <path
         d="m 95.146059,86.773571 q 1.83727,0 2.864562,0.889002 1.027291,0.869247 1.027291,2.844807 0,1.145824 -0.31609,2.33116 -0.316089,1.165581 -0.948269,2.11385 -0.612423,0.948268 -1.560692,1.560692 -0.928513,0.592668 -2.173116,0.592668 -1.837271,0 -2.864562,-0.869246 -1.027291,-0.869247 -1.027291,-2.864562 0,-1.145825 0.335845,-2.311406 0.335845,-1.185336 0.968024,-2.133604 0.651935,-0.948269 1.580448,-1.540937 0.928514,-0.612424 2.11385,-0.612424 z m -1.106314,8.080041 q 0.553157,0 0.98778,-0.395112 0.454379,-0.395112 0.750713,-1.027292 0.316089,-0.632179 0.474134,-1.402647 0.158045,-0.790224 0.158045,-1.560693 0,-0.691446 -0.31609,-1.066802 -0.316089,-0.375356 -0.948268,-0.375356 -0.572913,0 -1.007536,0.395112 -0.434623,0.395112 -0.750713,1.027291 -0.296334,0.632179 -0.454379,1.422403 -0.158044,0.770468 -0.158044,1.540937 0,0.691446 0.316089,1.066802 0.31609,0.375357 0.948269,0.375357 z"
         style="font-style:italic;font-weight:800;font-family:'Storia Sans';-inkscape-font-specification:'Storia Sans Ultra-Bold Italic';fill:#999999;fill-opacity:1"
         id="path9202" />
      <path
         d="m 107.65136,89.341799 q -0.59267,-0.07902 -1.18534,-0.158045 -0.51364,-0.05927 -1.08656,-0.09878 -0.57291,-0.05927 -1.04704,-0.05927 -0.61243,0 -0.92852,0.296334 -0.29633,0.276578 -0.29633,0.67169 0,0.335845 0.29633,0.513646 0.29634,0.158044 1.10632,0.414867 0.63218,0.197556 1.10631,0.395112 0.49389,0.177801 0.82974,0.454379 0.33584,0.256823 0.51364,0.632179 0.1778,0.375357 0.1778,0.948269 0,0.968024 -0.33584,1.679226 -0.33585,0.691446 -0.92852,1.16558 -0.59266,0.454379 -1.40264,0.671691 -0.80998,0.237067 -1.77801,0.237067 -0.73095,0 -1.36313,-0.09878 -0.61243,-0.09878 -1.06681,-0.237067 -0.533397,-0.138289 -0.987776,-0.335845 l 0.49389,-1.936049 q 0.553156,0.09878 1.106316,0.1778 0.47413,0.07902 1.02729,0.138289 0.57291,0.03951 1.08656,0.03951 0.82973,0 1.12607,-0.276579 0.31609,-0.276578 0.31609,-0.691446 0,-0.276578 -0.29634,-0.414867 -0.29633,-0.158045 -0.92851,-0.335846 -0.63218,-0.1778 -1.14583,-0.375356 -0.49389,-0.217312 -0.84949,-0.49389 -0.3556,-0.276578 -0.55315,-0.651935 -0.19756,-0.395112 -0.19756,-0.928513 0,-0.968024 0.33584,-1.698982 0.35561,-0.730957 0.90876,-1.224847 0.57291,-0.49389 1.30387,-0.730957 0.75071,-0.256823 1.56069,-0.256823 0.79023,0 1.44216,0.09878 0.65194,0.09878 1.12607,0.217312 0.55316,0.138289 0.98778,0.296334 z"
         style="font-style:italic;font-weight:800;font-family:'Storia Sans';-inkscape-font-specification:'Storia Sans Ultra-Bold Italic';fill:#999999;fill-opacity:1"
         id="path9204" />
      <path
         d="m 112.66927,89.243021 -0.90876,3.95112 q -0.0593,0.256823 -0.11854,0.572913 -0.0395,0.316089 -0.0395,0.533401 0,0.553157 0.57292,0.553157 0.19755,0 0.41486,0 0.23707,-0.01976 0.45438,-0.03951 0.23707,-0.01975 0.47414,-0.05927 l -0.21731,1.896537 q -0.31609,0.138289 -0.6717,0.237067 -0.31608,0.09878 -0.7112,0.158045 -0.39511,0.05927 -0.82973,0.05927 -1.10632,0 -1.67923,-0.632179 -0.55315,-0.632179 -0.55315,-1.501426 0,-0.454379 0.079,-0.98778 0.0988,-0.533401 0.21731,-1.027291 l 0.86925,-3.714053 h -1.06681 l 0.59267,-2.252138 h 1.00754 l 0.57291,-2.528717 h 2.64725 l -0.57291,2.528717 h 2.07434 l -0.55316,2.252138 z"
         style="font-style:italic;font-weight:800;font-family:'Storia Sans';-inkscape-font-specification:'Storia Sans Ultra-Bold Italic';fill:#999999;fill-opacity:1"
         id="path9206" />
    </g>
    <g
       aria-label="dmlc"
       id="text113"
       style="font-size:14.1111px;stroke-width:0.264583">
      <path
         d="m 51.992827,79.81694 h -0.874888 l 0.296333,-1.354665 q -0.352777,0.423333 -0.733777,0.747888 -0.338666,0.282222 -0.77611,0.522111 -0.423333,0.225777 -0.917222,0.225777 -1.721554,0 -1.721554,-1.989665 0,-0.90311 0.225777,-1.848554 0.239889,-0.945444 0.677333,-1.721554 0.451555,-0.776111 1.100666,-1.269999 0.663222,-0.493889 1.495777,-0.493889 0.324555,0 0.663221,0.04233 0.352778,0.04233 0.635,0.08467 0.324555,0.05644 0.634999,0.112889 l 0.747889,-3.231442 h 0.90311 z m 0.536222,-6.194773 q -0.268111,-0.04233 -0.564444,-0.09878 -0.254,-0.04233 -0.578555,-0.07056 -0.310444,-0.04233 -0.620888,-0.04233 -0.620889,0 -1.100666,0.451555 -0.479778,0.451555 -0.804333,1.142999 -0.324555,0.677333 -0.493888,1.481666 -0.169334,0.790221 -0.169334,1.481665 0,0.578555 0.254,0.888999 0.268111,0.310445 0.818444,0.310445 0.381,0 0.804333,-0.268111 0.423333,-0.282222 0.77611,-0.620889 0.409222,-0.380999 0.804333,-0.888999 z"
         style="font-style:italic;font-weight:300;font-family:'Storia Sans';-inkscape-font-specification:'Storia Sans Light Italic';fill:#6a6969"
         id="path9185" />
      <path
         d="m 58.145279,79.81694 0.818444,-3.555997 q 0.09878,-0.352777 0.183444,-0.860777 0.08467,-0.508 0.08467,-0.874888 0,-0.522111 -0.254,-0.804333 -0.254,-0.296333 -0.762,-0.296333 -0.380999,0 -0.790221,0.268111 -0.409222,0.268111 -0.747889,0.592666 -0.39511,0.366889 -0.77611,0.846666 l -1.086555,4.684885 h -0.90311 l 1.636887,-7.05555 h 0.874889 l -0.282222,1.326444 q 0.338666,-0.409222 0.719666,-0.733778 0.324555,-0.282222 0.747888,-0.507999 0.437444,-0.225778 0.931333,-0.225778 0.536221,0 0.832555,0.211667 0.310444,0.197555 0.465666,0.437444 0.183444,0.282222 0.239889,0.64911 0.352777,-0.366888 0.747888,-0.64911 0.338666,-0.239889 0.761999,-0.437444 0.423333,-0.211667 0.874888,-0.211667 0.832555,0 1.241777,0.479778 0.409222,0.465666 0.409222,1.255888 0,0.479777 -0.09878,0.987777 -0.09878,0.493888 -0.183445,0.90311 l -0.832555,3.570108 h -0.90311 l 0.832555,-3.555997 q 0.08467,-0.352777 0.169333,-0.846666 0.09878,-0.493888 0.09878,-0.874888 0,-0.522111 -0.268111,-0.818444 -0.254,-0.296333 -0.747889,-0.296333 -0.366888,0 -0.733777,0.211666 -0.352777,0.211667 -0.64911,0.465667 -0.352778,0.296333 -0.677333,0.677333 -0.01411,0.197555 -0.04233,0.423333 -0.02822,0.197555 -0.08467,0.465666 -0.04233,0.254 -0.112889,0.578555 l -0.832555,3.570108 z"
         style="font-style:italic;font-weight:300;font-family:'Storia Sans';-inkscape-font-specification:'Storia Sans Light Italic';fill:#6a6969"
         id="path9187" />
      <path
         d="m 67.261053,69.642837 h 0.903111 L 65.80761,79.81694 h -0.903111 z"
         style="font-style:italic;font-weight:300;font-family:'Storia Sans';-inkscape-font-specification:'Storia Sans Light Italic';fill:#6a6969"
         id="path9189" />
      <path
         d="m 71.875376,72.620279 q 0.282222,0 0.592666,0.04233 0.310444,0.04233 0.550333,0.08467 0.282222,0.05644 0.564444,0.112889 l -0.239889,0.719666 q -0.26811,-0.02822 -0.52211,-0.07055 -0.225778,-0.02822 -0.493889,-0.05645 -0.254,-0.02822 -0.479777,-0.02822 -0.719666,0 -1.241777,0.381 -0.508,0.366888 -0.846666,0.973666 -0.338666,0.606777 -0.508,1.382887 -0.155222,0.762 -0.155222,1.552221 0,0.705555 0.338667,1.072444 0.338666,0.366889 1.185332,0.366889 0.197555,0 0.465666,-0.02822 0.282222,-0.02822 0.522111,-0.07055 0.282222,-0.05644 0.592666,-0.112889 l -0.04233,0.719666 q -0.282222,0.09878 -0.592666,0.155222 -0.268111,0.05644 -0.592666,0.09878 -0.324556,0.04233 -0.649111,0.04233 -1.086555,0 -1.622777,-0.536221 -0.536221,-0.550333 -0.536221,-1.566333 0,-1.015999 0.225777,-1.947331 0.225778,-0.945444 0.677333,-1.679221 0.465666,-0.733778 1.15711,-1.171222 0.705555,-0.437444 1.650999,-0.437444 z"
         style="font-style:italic;font-weight:300;font-family:'Storia Sans';-inkscape-font-specification:'Storia Sans Light Italic';fill:#6a6969"
         id="path9191" />
    </g>
    <g
       aria-label="XGBoost"
       id="text167"
       style="font-size:19.7556px;stroke-width:0.264583">
      <path
         d="m 53.422218,87.828628 3.239919,-4.721588 h 2.864562 l -4.9389,6.677393 1.857026,6.756415 h -2.864562 l -1.086558,-4.800611 -3.338696,4.800611 H 46.290447 L 51.34788,89.764677 49.569876,83.10704 h 2.884318 z"
         style="font-style:italic;font-weight:800;font-family:'Storia Sans';-inkscape-font-specification:'Storia Sans Ultra-Bold Italic';fill:#189fdd"
         id="path9170" />
      <path
         d="m 64.228526,89.073231 h 3.970875 l -1.679226,7.191038 q -0.414867,0.158045 -0.98778,0.256823 -0.49389,0.09878 -1.205091,0.177801 -0.691446,0.07902 -1.639715,0.07902 -2.192872,0 -3.318941,-1.047047 -1.126069,-1.047047 -1.126069,-3.180651 0,-1.876782 0.414867,-3.615275 0.434624,-1.758249 1.30387,-3.101629 0.889002,-1.343381 2.232383,-2.153361 1.363136,-0.809979 3.220163,-0.809979 0.829735,0 1.560692,0.118533 0.730957,0.118534 1.30387,0.276579 0.651934,0.1778 1.244602,0.395112 l -0.632179,1.97556 q -0.572912,-0.118534 -1.205091,-0.197556 -0.533402,-0.07902 -1.185336,-0.13829 -0.651935,-0.05927 -1.30387,-0.05927 -1.126069,0 -1.916293,0.730957 -0.790224,0.711201 -1.284114,1.797759 -0.49389,1.086558 -0.730957,2.370672 -0.217312,1.284114 -0.217312,2.429939 0,1.007536 0.533401,1.422403 0.553157,0.414868 1.442159,0.414868 0.256823,0 0.474134,0 0.217312,-0.01976 0.395112,-0.03951 0.197556,-0.01976 0.375357,-0.05927 l 0.691446,-2.983096 h -1.264359 z"
         style="font-style:italic;font-weight:800;font-family:'Storia Sans';-inkscape-font-specification:'Storia Sans Ultra-Bold Italic';fill:#189fdd"
         id="path9172" />
      <path
         d="m 76.496769,83.10704 q 1.65947,0 2.587983,0.711201 0.928513,0.691446 0.928513,2.192872 0,1.363136 -0.592668,2.192872 -0.592668,0.809979 -1.619959,1.422403 0.80998,0.49389 1.047047,1.047047 0.237067,0.553156 0.237067,1.284114 0,0.928513 -0.335845,1.758248 -0.31609,0.829735 -0.968024,1.461914 -0.651935,0.63218 -1.659471,1.007536 -0.98778,0.355601 -2.331161,0.355601 H 68.732818 L 71.834447,83.10704 Z m -3.733809,7.803462 -0.770468,3.299185 h 2.331161 q 0.889002,0 1.422403,-0.612424 0.533401,-0.612423 0.533401,-1.580448 0,-1.106313 -1.284114,-1.106313 z m 1.264359,-5.472301 -0.750713,3.200407 h 2.034827 q 0.809979,0 1.363136,-0.553157 0.553157,-0.572912 0.553157,-1.521181 0,-1.126069 -1.165581,-1.126069 z"
         style="font-style:italic;font-weight:800;font-family:'Storia Sans';-inkscape-font-specification:'Storia Sans Ultra-Bold Italic';fill:#189fdd"
         id="path9174" />
      <path
         d="m 85.347276,86.445736 q 1.837271,0 2.864562,0.889002 1.027291,0.869247 1.027291,2.844807 0,1.145824 -0.316089,2.33116 -0.31609,1.165581 -0.948269,2.11385 -0.612424,0.948268 -1.560692,1.560692 -0.928514,0.592668 -2.173116,0.592668 -1.837271,0 -2.864562,-0.869246 -1.027292,-0.869247 -1.027292,-2.864562 0,-1.145825 0.335846,-2.311406 0.335845,-1.185336 0.968024,-2.133604 0.651935,-0.948269 1.580448,-1.540937 0.928513,-0.612424 2.113849,-0.612424 z m -1.106313,8.080041 q 0.553156,0 0.98778,-0.395112 0.454378,-0.395112 0.750712,-1.027292 0.31609,-0.632179 0.474135,-1.402647 0.158045,-0.790224 0.158045,-1.560693 0,-0.691446 -0.31609,-1.066802 -0.31609,-0.375356 -0.948269,-0.375356 -0.572912,0 -1.007535,0.395112 -0.434624,0.395112 -0.750713,1.027291 -0.296334,0.632179 -0.454379,1.422403 -0.158045,0.770468 -0.158045,1.540937 0,0.691446 0.31609,1.066802 0.316089,0.375357 0.948269,0.375357 z"
         style="font-style:italic;font-weight:800;font-family:'Storia Sans';-inkscape-font-specification:'Storia Sans Ultra-Bold Italic';fill:#189fdd"
         id="path9176" />
      <path
         d="m 95.146059,86.445736 q 1.83727,0 2.864562,0.889002 1.027291,0.869247 1.027291,2.844807 0,1.145824 -0.31609,2.33116 -0.316089,1.165581 -0.948269,2.11385 -0.612423,0.948268 -1.560692,1.560692 -0.928513,0.592668 -2.173116,0.592668 -1.837271,0 -2.864562,-0.869246 -1.027291,-0.869247 -1.027291,-2.864562 0,-1.145825 0.335845,-2.311406 0.335845,-1.185336 0.968024,-2.133604 0.651935,-0.948269 1.580448,-1.540937 0.928514,-0.612424 2.11385,-0.612424 z m -1.106314,8.080041 q 0.553157,0 0.98778,-0.395112 0.454379,-0.395112 0.750713,-1.027292 0.316089,-0.632179 0.474134,-1.402647 0.158045,-0.790224 0.158045,-1.560693 0,-0.691446 -0.31609,-1.066802 -0.316089,-0.375356 -0.948268,-0.375356 -0.572913,0 -1.007536,0.395112 -0.434623,0.395112 -0.750713,1.027291 -0.296334,0.632179 -0.454379,1.422403 -0.158044,0.770468 -0.158044,1.540937 0,0.691446 0.316089,1.066802 0.31609,0.375357 0.948269,0.375357 z"
         style="font-style:italic;font-weight:800;font-family:'Storia Sans';-inkscape-font-specification:'Storia Sans Ultra-Bold Italic';fill:#189fdd"
         id="path9178" />
      <path
         d="m 107.65136,89.013964 q -0.59267,-0.07902 -1.18534,-0.158045 -0.51364,-0.05927 -1.08656,-0.09878 -0.57291,-0.05927 -1.04704,-0.05927 -0.61243,0 -0.92852,0.296334 -0.29633,0.276578 -0.29633,0.67169 0,0.335845 0.29633,0.513646 0.29634,0.158044 1.10632,0.414867 0.63218,0.197556 1.10631,0.395112 0.49389,0.177801 0.82974,0.454379 0.33584,0.256823 0.51364,0.632179 0.1778,0.375357 0.1778,0.948269 0,0.968024 -0.33584,1.679226 -0.33585,0.691446 -0.92852,1.16558 -0.59266,0.454379 -1.40264,0.671691 -0.80998,0.237067 -1.77801,0.237067 -0.73095,0 -1.36313,-0.09878 -0.61243,-0.09878 -1.06681,-0.237067 -0.533397,-0.138289 -0.987776,-0.335845 l 0.49389,-1.936049 q 0.553156,0.09878 1.106316,0.1778 0.47413,0.07902 1.02729,0.138289 0.57291,0.03951 1.08656,0.03951 0.82973,0 1.12607,-0.276579 0.31609,-0.276578 0.31609,-0.691446 0,-0.276578 -0.29634,-0.414867 -0.29633,-0.158045 -0.92851,-0.335846 -0.63218,-0.1778 -1.14583,-0.375356 -0.49389,-0.217312 -0.84949,-0.49389 -0.3556,-0.276578 -0.55315,-0.651935 -0.19756,-0.395112 -0.19756,-0.928513 0,-0.968024 0.33584,-1.698982 0.35561,-0.730957 0.90876,-1.224847 0.57291,-0.49389 1.30387,-0.730957 0.75071,-0.256823 1.56069,-0.256823 0.79023,0 1.44216,0.09878 0.65194,0.09878 1.12607,0.217312 0.55316,0.138289 0.98778,0.296334 z"
         style="font-style:italic;font-weight:800;font-family:'Storia Sans';-inkscape-font-specification:'Storia Sans Ultra-Bold Italic';fill:#189fdd"
         id="path9180" />
      <path
         d="m 112.66927,88.915186 -0.90876,3.95112 q -0.0593,0.256823 -0.11854,0.572913 -0.0395,0.316089 -0.0395,0.533401 0,0.553157 0.57292,0.553157 0.19755,0 0.41486,0 0.23707,-0.01976 0.45438,-0.03951 0.23707,-0.01976 0.47414,-0.05927 l -0.21731,1.896537 q -0.31609,0.138289 -0.6717,0.237067 -0.31608,0.09878 -0.7112,0.158045 -0.39511,0.05927 -0.82973,0.05927 -1.10632,0 -1.67923,-0.632179 -0.55315,-0.632179 -0.55315,-1.501426 0,-0.454379 0.079,-0.98778 0.0988,-0.533401 0.21731,-1.027291 l 0.86925,-3.714053 h -1.06681 l 0.59267,-2.252138 h 1.00754 l 0.57291,-2.528717 h 2.64725 l -0.57291,2.528717 h 2.07434 l -0.55316,2.252138 z"
         style="font-style:italic;font-weight:800;font-family:'Storia Sans';-inkscape-font-specification:'Storia Sans Ultra-Bold Italic';fill:#189fdd"
         id="path9182" />
    </g>
  </g>
</svg>
