<svg version="1.1" xmlns="http://www.w3.org/2000/svg" viewBox="0 0 1153.9765625 778.8015625" width="1153.9765625" height="778.8015625">
  <!-- svg-source:excalidraw -->
  
  <defs>
    <style class="style-fonts">
      @font-face {
        font-family: "Virgil";
        src: url("https://excalidraw.com/Virgil.woff2");
      }
      @font-face {
        font-family: "Cascadia";
        src: url("https://excalidraw.com/Cascadia.woff2");
      }
    </style>
    
  </defs>
  <rect x="0" y="0" width="1153.9765625" height="778.8015625" fill="#ffffff"></rect><g stroke-linecap="round" transform="translate(10 10) rotate(0 260.5 37.5)"><path d="M18.75 0 M18.75 0 C115.35 3.16, 211.62 2.47, 502.25 0 M18.75 0 C128.87 -1.36, 238.68 -2.33, 502.25 0 M502.25 0 C516.42 0.53, 518.29 4.04, 521 18.75 M502.25 0 C517.43 -0.83, 523.82 4.29, 521 18.75 M521 18.75 C523.16 32.27, 524.34 38.99, 521 56.25 M521 18.75 C520.56 34.67, 520.93 48.83, 521 56.25 M521 56.25 C518.09 70.71, 516.13 71.33, 502.25 75 M521 56.25 C524.62 66.39, 510.24 77.56, 502.25 75 M502.25 75 C390.76 74.5, 280.71 73.51, 18.75 75 M502.25 75 C395.69 76.14, 288.07 76.22, 18.75 75 M18.75 75 C6.39 71.43, 1.17 68.53, 0 56.25 M18.75 75 C2.32 77.97, 1.13 72.83, 0 56.25 M0 56.25 C-0.15 43.66, 0.87 35.6, 0 18.75 M0 56.25 C-0.78 43.45, 0.39 27.4, 0 18.75 M0 18.75 C2.64 9.1, 4.19 -1.73, 18.75 0 M0 18.75 C3.44 5.06, 4.17 -4.59, 18.75 0" stroke="#1e1e1e" stroke-width="1" fill="none"></path></g><g transform="translate(90.76953125 31.400000000000006) rotate(0 179.73046875 16.099999999999994)"><text x="179.73046875" y="0" font-family="Helvetica, Segoe UI Emoji" font-size="28px" fill="#1e1e1e" text-anchor="middle" style="white-space: pre;" direction="ltr" dominant-baseline="text-before-edge">Project: Make MLflow tutorial</text></g><g stroke-linecap="round" transform="translate(163.453125 150.97265625) rotate(0 131.296875 58.8984375)"><path d="M29.45 0 M29.45 0 C100.9 -4.89, 180.71 -0.38, 233.14 0 M29.45 0 C78.72 -1.44, 127.02 1.67, 233.14 0 M233.14 0 C250.14 1.26, 258.63 9.53, 262.59 29.45 M233.14 0 C248.89 -1.37, 261.71 6.21, 262.59 29.45 M262.59 29.45 C263.59 43.65, 264.31 56.35, 262.59 88.35 M262.59 29.45 C261.73 43.15, 264.25 58.7, 262.59 88.35 M262.59 88.35 C265.04 106.28, 252.69 119.84, 233.14 117.8 M262.59 88.35 C264.31 110.02, 255.49 121.2, 233.14 117.8 M233.14 117.8 C181.91 116.83, 134.97 117.5, 29.45 117.8 M233.14 117.8 C159.4 117.94, 85.83 118.66, 29.45 117.8 M29.45 117.8 C5.89 120.02, -2.88 105.88, 0 88.35 M29.45 117.8 C7.91 114.5, 3.25 105.27, 0 88.35 M0 88.35 C2.85 70.89, -3.02 48.4, 0 29.45 M0 88.35 C0.54 75.83, -1.75 64.84, 0 29.45 M0 29.45 C0.98 13.36, 8.66 2.03, 29.45 0 M0 29.45 C-4.11 10.08, 7.04 1.44, 29.45 0" stroke="#1971c2" stroke-width="1" fill="none"></path></g><g transform="translate(168.453125 175.37109375) rotate(0 117.2802734375 34.5)"><text x="0" y="0" font-family="Helvetica, Segoe UI Emoji" font-size="20px" fill="#1971c2" text-anchor="start" style="white-space: pre;" direction="ltr" dominant-baseline="text-before-edge">- Random features</text><text x="0" y="23" font-family="Helvetica, Segoe UI Emoji" font-size="20px" fill="#1971c2" text-anchor="start" style="white-space: pre;" direction="ltr" dominant-baseline="text-before-edge">- Random target</text><text x="0" y="46" font-family="Helvetica, Segoe UI Emoji" font-size="20px" fill="#1971c2" text-anchor="start" style="white-space: pre;" direction="ltr" dominant-baseline="text-before-edge">- Linear Regression Model</text></g><g stroke-linecap="round" transform="translate(639.70703125 163.1015625) rotate(0 75 36)"><path d="M-0.65 -0.16 C32.38 1.73, 63.15 1.78, 150.18 0.98 M0.93 0.74 C50.6 -0.22, 98.7 -1.83, 150.06 -0.96 M148.66 1.61 C150.31 26.19, 149.26 54.54, 148.68 73.41 M150.88 0.41 C149.56 17.7, 149.45 36.04, 150.3 71.84 M151.42 73.52 C106.53 70.85, 64.84 70.21, -1.45 70.95 M149.71 72.08 C90.13 72.75, 30.85 74.03, -0.72 72.89 M0.29 70.79 C-1.62 48.07, 0.36 27.13, -0.03 1.76 M0.51 72.45 C-0.68 54.37, -0.62 36.95, 0.64 -0.61" stroke="#e03131" stroke-width="1" fill="none"></path></g><g transform="translate(648.5595703125 176.1015625) rotate(0 66.1474609375 23)"><text x="66.1474609375" y="0" font-family="Helvetica, Segoe UI Emoji" font-size="20px" fill="#e03131" text-anchor="middle" style="white-space: pre;" direction="ltr" dominant-baseline="text-before-edge">Very bad error </text><text x="66.1474609375" y="23" font-family="Helvetica, Segoe UI Emoji" font-size="20px" fill="#e03131" text-anchor="middle" style="white-space: pre;" direction="ltr" dominant-baseline="text-before-edge">metrics</text></g><g transform="translate(689.2265625 136.28125) rotate(0 22.79296875 11.5)"><text x="0" y="0" font-family="Helvetica, Segoe UI Emoji" font-size="20px" fill="#1e1e1e" text-anchor="start" style="white-space: pre;" direction="ltr" dominant-baseline="text-before-edge">run 1</text></g><g transform="translate(239.12890625 124.54296875) rotate(0 58.916015625 11.5)"><text x="0" y="0" font-family="Helvetica, Segoe UI Emoji" font-size="20px" fill="#1e1e1e" text-anchor="start" style="white-space: pre;" direction="ltr" dominant-baseline="text-before-edge">Experiment 1</text></g><g stroke-linecap="round" transform="translate(666.15234375 279.70703125) rotate(0 75 36)"><path d="M-1.74 -0.6 C46.53 1.97, 87.96 -0.32, 151.82 0.13 M-0.24 -0.12 C54.38 -0.87, 108.31 -0.58, 150.93 -0.74 M149.16 0.01 C150.27 19.59, 150.52 35.85, 148.62 70.39 M150.18 0.26 C150 28.7, 150.37 55.56, 149.58 72.66 M151.92 72.6 C96.02 71.77, 41.54 73.53, -1.68 73.41 M150.3 71.51 C116.17 72.33, 81.84 73.21, -0.91 71.15 M-1.63 72 C0.57 52.45, -1.67 32.17, -1.53 -1.67 M-0.42 72.93 C-0.67 48.26, -0.12 25.1, 0.47 -0.76" stroke="#e03131" stroke-width="1" fill="none"></path></g><g transform="translate(696.689453125 292.70703125) rotate(0 44.462890625 23)"><text x="44.462890625" y="0" font-family="Helvetica, Segoe UI Emoji" font-size="20px" fill="#e03131" text-anchor="middle" style="white-space: pre;" direction="ltr" dominant-baseline="text-before-edge">Failure to </text><text x="44.462890625" y="23" font-family="Helvetica, Segoe UI Emoji" font-size="20px" fill="#e03131" text-anchor="middle" style="white-space: pre;" direction="ltr" dominant-baseline="text-before-edge">converge</text></g><g transform="translate(715.69921875 254.40625) rotate(0 22.79296875 11.5)"><text x="0" y="0" font-family="Helvetica, Segoe UI Emoji" font-size="20px" fill="#1e1e1e" text-anchor="start" style="white-space: pre;" direction="ltr" dominant-baseline="text-before-edge">run 2</text></g><g stroke-linecap="round" transform="translate(49.98828125 358.00390625) rotate(0 186 57.5)"><path d="M28.75 0 M28.75 0 C148.53 0.57, 267.48 -3.45, 343.25 0 M28.75 0 C110.47 -2.98, 194.02 -3.18, 343.25 0 M343.25 0 C359.41 2.24, 375.96 6.94, 372 28.75 M343.25 0 C363.87 -4.56, 371.67 5.7, 372 28.75 M372 28.75 C369.39 41.4, 370.79 61.68, 372 86.25 M372 28.75 C371.77 46.9, 373 62.02, 372 86.25 M372 86.25 C369.79 107.75, 361.7 117.45, 343.25 115 M372 86.25 C370.04 105.31, 364.76 116.72, 343.25 115 M343.25 115 C233.46 120.67, 126.42 117.68, 28.75 115 M343.25 115 C255.8 113.95, 167.19 115.47, 28.75 115 M28.75 115 C5.91 118.14, -2.06 101.5, 0 86.25 M28.75 115 C12.14 111.69, -2.42 103.51, 0 86.25 M0 86.25 C-0.3 69.96, -4.7 61.92, 0 28.75 M0 86.25 C-0.65 67.69, -0.65 49.58, 0 28.75 M0 28.75 C-0.22 6.16, 12.17 0.98, 28.75 0 M0 28.75 C4.08 8.26, 11.92 -4.11, 28.75 0" stroke="#1971c2" stroke-width="1" fill="none"></path></g><g transform="translate(54.98828125 369.50390625) rotate(0 179.5263671875 46)"><text x="0" y="0" font-family="Helvetica, Segoe UI Emoji" font-size="20px" fill="#1971c2" text-anchor="start" style="white-space: pre;" direction="ltr" dominant-baseline="text-before-edge">- Random features</text><text x="0" y="23" font-family="Helvetica, Segoe UI Emoji" font-size="20px" fill="#1971c2" text-anchor="start" style="white-space: pre;" direction="ltr" dominant-baseline="text-before-edge">- Target correlated to sum of 2 covariant </text><text x="0" y="46" font-family="Helvetica, Segoe UI Emoji" font-size="20px" fill="#1971c2" text-anchor="start" style="white-space: pre;" direction="ltr" dominant-baseline="text-before-edge">features</text><text x="0" y="69" font-family="Helvetica, Segoe UI Emoji" font-size="20px" fill="#1971c2" text-anchor="start" style="white-space: pre;" direction="ltr" dominant-baseline="text-before-edge">- Linear Regression Model</text></g><g transform="translate(177.5078125 330.42578125) rotate(0 58.916015625 11.5)"><text x="0" y="0" font-family="Helvetica, Segoe UI Emoji" font-size="20px" fill="#1e1e1e" text-anchor="start" style="white-space: pre;" direction="ltr" dominant-baseline="text-before-edge">Experiment 2</text></g><g stroke-linecap="round"><g transform="translate(430.08984375 200.1171875) rotate(0 103.3168401073292 4.0034400335537725)"><path d="M-0.09 1.03 C20.9 1.82, 91.35 3.89, 126.07 4.77 C160.79 5.66, 194.46 5.97, 208.23 6.36 M-1.6 0.52 C19.26 1.45, 90.41 4.75, 125.32 5.91 C160.23 7.07, 194.41 7.07, 207.85 7.48" stroke="#e03131" stroke-width="2" fill="none"></path></g><g transform="translate(430.08984375 200.1171875) rotate(0 103.3168401073292 4.0034400335537725)"><path d="M181.2 17.88 C187.01 15.45, 196.48 13.2, 208.45 8.55 M179.76 16.43 C186.81 14.12, 194.02 12.68, 207.13 6.58" stroke="#e03131" stroke-width="2" fill="none"></path></g><g transform="translate(430.08984375 200.1171875) rotate(0 103.3168401073292 4.0034400335537725)"><path d="M181.56 -2.64 C187.26 1.3, 196.63 5.42, 208.45 8.55 M180.12 -4.08 C187.1 -1.47, 194.22 2.02, 207.13 6.58" stroke="#e03131" stroke-width="2" fill="none"></path></g></g><mask></mask><g stroke-linecap="round"><g transform="translate(432.5859375 203.45703125) rotate(0 111.98990347001705 58.74700629080655)"><path d="M0.46 0.06 C23.11 17.92, 98.83 86.4, 136.22 106 C173.6 125.59, 209.98 115.69, 224.74 117.64 M-0.76 -0.96 C21.79 17.13, 98.41 87.57, 135.81 107.02 C173.2 126.46, 208.8 114.29, 223.61 115.71" stroke="#e03131" stroke-width="2" fill="none"></path></g><g transform="translate(432.5859375 203.45703125) rotate(0 111.98990347001705 58.74700629080655)"><path d="M196.22 129.45 C203.54 122.56, 215.41 118.74, 224.97 113.73 M196.79 128 C204.96 124.32, 213.43 121.5, 223.61 116.64" stroke="#e03131" stroke-width="2" fill="none"></path></g><g transform="translate(432.5859375 203.45703125) rotate(0 111.98990347001705 58.74700629080655)"><path d="M194.92 108.97 C202.46 108.73, 214.75 111.57, 224.97 113.73 M195.49 107.52 C204.18 110, 213.05 113.33, 223.61 116.64" stroke="#e03131" stroke-width="2" fill="none"></path></g></g><mask></mask><g stroke-linecap="round" transform="translate(619.7265625 398.30078125) rotate(0 75 36)"><path d="M-1.89 -0.69 C30.99 -2.04, 67.3 -0.25, 151.4 -1.73 M-0.55 0.75 C42.99 0.84, 86.53 1.94, 150.66 0.27 M148.4 -0.19 C149.75 21.63, 149.84 47.74, 151.41 73.23 M150.6 0.72 C149.6 29.08, 149.63 57.84, 149.73 72.65 M150.72 70.64 C118.58 74.61, 89.17 72.19, -0.04 70.07 M150.35 71.53 C113.26 70.8, 78.2 72.5, -1 71.29 M-0.89 73.34 C-1.38 46.52, -1.44 22.79, 1.53 -1.6 M0.89 71.45 C-0.03 50.16, -0.28 28.43, 0.76 0.4" stroke="#1971c2" stroke-width="1" fill="none"></path></g><g transform="translate(628.046875 422.80078125) rotate(0 66.6796875 11.5)"><text x="66.6796875" y="0" font-family="Helvetica, Segoe UI Emoji" font-size="20px" fill="#1971c2" text-anchor="middle" style="white-space: pre;" direction="ltr" dominant-baseline="text-before-edge">Perfect metrics</text></g><g transform="translate(671.1484375 372.2421875) rotate(0 22.79296875 11.5)"><text x="0" y="0" font-family="Helvetica, Segoe UI Emoji" font-size="20px" fill="#1e1e1e" text-anchor="start" style="white-space: pre;" direction="ltr" dominant-baseline="text-before-edge">run 1</text></g><g stroke-linecap="round"><g transform="translate(426.44921875 408.00642937876887) rotate(0 95.13010432366286 9.815139347647062)"><path d="M0.04 -1.69 C21.79 -1.52, 95.97 -0.84, 128.24 3 C160.5 6.83, 182.92 18.84, 193.64 21.32 M-3.38 3.56 C18.38 3.82, 94.63 3.03, 127.1 5.31 C159.58 7.59, 180.63 14.79, 191.47 17.24" stroke="#1971c2" stroke-width="2" fill="none"></path></g><g transform="translate(426.44921875 408.00642937876887) rotate(0 95.13010432366286 9.815139347647062)"><path d="M159.2 23.05 C164.68 18.56, 178.55 16.32, 190.36 17.58 M163.47 19.84 C171.95 17.95, 180.94 20.43, 191.05 19.21" stroke="#1971c2" stroke-width="2" fill="none"></path></g><g transform="translate(426.44921875 408.00642937876887) rotate(0 95.13010432366286 9.815139347647062)"><path d="M164.31 3.17 C168.95 3.06, 181.69 5.21, 190.36 17.58 M168.59 -0.03 C175.63 4.14, 183.04 12.73, 191.05 19.21" stroke="#1971c2" stroke-width="2" fill="none"></path></g></g><mask></mask><g transform="translate(887.3671875 381.7109375) rotate(0 125.0732421875 69)"><text x="0" y="0" font-family="Helvetica, Segoe UI Emoji" font-size="20px" fill="#1e1e1e" text-anchor="start" style="white-space: pre;" direction="ltr" dominant-baseline="text-before-edge">This is not good.</text><text x="0" y="23" font-family="Helvetica, Segoe UI Emoji" font-size="20px" fill="#1e1e1e" text-anchor="start" style="white-space: pre;" direction="ltr" dominant-baseline="text-before-edge"></text><text x="0" y="46" font-family="Helvetica, Segoe UI Emoji" font-size="20px" fill="#1e1e1e" text-anchor="start" style="white-space: pre;" direction="ltr" dominant-baseline="text-before-edge">The model overfit by </text><text x="0" y="69" font-family="Helvetica, Segoe UI Emoji" font-size="20px" fill="#1e1e1e" text-anchor="start" style="white-space: pre;" direction="ltr" dominant-baseline="text-before-edge">'memorizing' the linear </text><text x="0" y="92" font-family="Helvetica, Segoe UI Emoji" font-size="20px" fill="#1e1e1e" text-anchor="start" style="white-space: pre;" direction="ltr" dominant-baseline="text-before-edge">relationship of the covariant </text><text x="0" y="115" font-family="Helvetica, Segoe UI Emoji" font-size="20px" fill="#1e1e1e" text-anchor="start" style="white-space: pre;" direction="ltr" dominant-baseline="text-before-edge">features and target.</text></g><g stroke-linecap="round"><g transform="translate(882.85546875 469.8094489525647) rotate(0 -52.6077519106492 7.7073021210266575)"><path d="M1.02 1.54 C-7.55 5.63, -33.74 23.59, -51.33 21.84 C-68.91 20.1, -95.61 -3.91, -104.5 -8.93 M-1.88 -0.09 C-10.65 4.53, -35.12 25.44, -52.52 24.3 C-69.91 23.16, -97.64 -1.79, -106.23 -6.91" stroke="#1971c2" stroke-width="2" fill="none"></path></g><g transform="translate(882.85546875 469.8094489525647) rotate(0 -52.6077519106492 7.7073021210266575)"><path d="M-75.2 4.09 C-89.08 -0.77, -97.62 -3.49, -108.19 -6.43 M-77.95 0.51 C-86.16 -2.9, -96.96 -5.97, -107.15 -5.38" stroke="#1971c2" stroke-width="2" fill="none"></path></g><g transform="translate(882.85546875 469.8094489525647) rotate(0 -52.6077519106492 7.7073021210266575)"><path d="M-87.25 20.69 C-97.15 10.71, -102.03 2.95, -108.19 -6.43 M-90 17.11 C-94.45 8.36, -101.29 -0.17, -107.15 -5.38" stroke="#1971c2" stroke-width="2" fill="none"></path></g></g><mask></mask><g stroke-linecap="round" transform="translate(84.16015625 535.30859375) rotate(0 186 65)"><path d="M32 0 M32 0 C118.84 -2.37, 212.75 -0.52, 340 0 M32 0 C150.08 0.86, 268.23 0.87, 340 0 M340 0 C357.84 -3.75, 374.94 12.26, 372 32 M340 0 C361.09 3.16, 369.45 8.94, 372 32 M372 32 C369.33 45.07, 376.15 63.8, 372 98 M372 32 C372.49 48.46, 372.01 62.03, 372 98 M372 98 C370.17 117.79, 361.74 130.14, 340 130 M372 98 C370.24 114.89, 360.65 133.61, 340 130 M340 130 C259.57 132.93, 183.86 133.65, 32 130 M340 130 C220.9 130.88, 104.15 131.66, 32 130 M32 130 C13 130.79, -2.77 122.84, 0 98 M32 130 C11.79 131.73, -2.56 117.62, 0 98 M0 98 C-1.22 77.39, -2.96 47.31, 0 32 M0 98 C0.6 77.8, 0.13 54.21, 0 32 M0 32 C-3.26 10.77, 11.53 -2.47, 32 0 M0 32 C-4.51 13.04, 11.38 1.79, 32 0" stroke="#1971c2" stroke-width="1" fill="none"></path></g><g transform="translate(89.16015625 554.30859375) rotate(0 162.294921875 46)"><text x="0" y="0" font-family="Helvetica, Segoe UI Emoji" font-size="20px" fill="#1971c2" text-anchor="start" style="white-space: pre;" direction="ltr" dominant-baseline="text-before-edge">- Stop being lazy</text><text x="0" y="23" font-family="Helvetica, Segoe UI Emoji" font-size="20px" fill="#1971c2" text-anchor="start" style="white-space: pre;" direction="ltr" dominant-baseline="text-before-edge">- Create covariance with uncertainty </text><text x="0" y="46" font-family="Helvetica, Segoe UI Emoji" font-size="20px" fill="#1971c2" text-anchor="start" style="white-space: pre;" direction="ltr" dominant-baseline="text-before-edge">between features and target</text><text x="0" y="69" font-family="Helvetica, Segoe UI Emoji" font-size="20px" fill="#1971c2" text-anchor="start" style="white-space: pre;" direction="ltr" dominant-baseline="text-before-edge">- Random Forest Regression Model</text></g><g transform="translate(211.76953125 507.64453125) rotate(0 58.916015625 11.5)"><text x="0" y="0" font-family="Helvetica, Segoe UI Emoji" font-size="20px" fill="#1e1e1e" text-anchor="start" style="white-space: pre;" direction="ltr" dominant-baseline="text-before-edge">Experiment 3</text></g><g stroke-linecap="round" transform="translate(613.2578125 559.947265625) rotate(0 75 39.5)"><path d="M1.47 -0.48 C37.57 -2.37, 75.18 -1.66, 149.29 1.07 M-0.43 -0.22 C42.96 1.06, 85.4 1.23, 149.86 0.76 M151.22 0.38 C149.67 24.5, 150.83 47.23, 151.29 77.11 M149.86 -0.12 C151.14 24.82, 150.93 47.22, 149.91 78.29 M148.16 79.09 C115.59 80.57, 77.55 80.85, 1.36 77.16 M150.71 79.95 C111.74 77.54, 74.35 77.25, -0.79 78.12 M1.8 77.27 C-0.99 46.97, 0.94 17.19, 0.43 0.46 M0.07 78.83 C-1.08 47.01, -0.33 17.19, 0.92 -0.86" stroke="#2f9e44" stroke-width="1" fill="none"></path></g><g transform="translate(638.2333984375 564.947265625) rotate(0 50.0244140625 34.5)"><text x="50.0244140625" y="0" font-family="Helvetica, Segoe UI Emoji" font-size="20px" fill="#2f9e44" text-anchor="middle" style="white-space: pre;" direction="ltr" dominant-baseline="text-before-edge">R2 0.903</text><text x="50.0244140625" y="23" font-family="Helvetica, Segoe UI Emoji" font-size="20px" fill="#2f9e44" text-anchor="middle" style="white-space: pre;" direction="ltr" dominant-baseline="text-before-edge">rmse 52.95</text><text x="50.0244140625" y="46" font-family="Helvetica, Segoe UI Emoji" font-size="20px" fill="#2f9e44" text-anchor="middle" style="white-space: pre;" direction="ltr" dominant-baseline="text-before-edge">mae 42.92</text></g><g transform="translate(663.5390625 533.888671875) rotate(0 22.79296875 11.5)"><text x="0" y="0" font-family="Helvetica, Segoe UI Emoji" font-size="20px" fill="#1e1e1e" text-anchor="start" style="white-space: pre;" direction="ltr" dominant-baseline="text-before-edge">run 1</text></g><g transform="translate(893.859375 169.10546875) rotate(0 125.05859375 46)"><text x="0" y="0" font-family="Helvetica, Segoe UI Emoji" font-size="20px" fill="#1e1e1e" text-anchor="start" style="white-space: pre;" direction="ltr" dominant-baseline="text-before-edge">Not sure what I was thinking</text><text x="0" y="23" font-family="Helvetica, Segoe UI Emoji" font-size="20px" fill="#1e1e1e" text-anchor="start" style="white-space: pre;" direction="ltr" dominant-baseline="text-before-edge">here. </text><text x="0" y="46" font-family="Helvetica, Segoe UI Emoji" font-size="20px" fill="#1e1e1e" text-anchor="start" style="white-space: pre;" direction="ltr" dominant-baseline="text-before-edge"></text><text x="0" y="69" font-family="Helvetica, Segoe UI Emoji" font-size="20px" fill="#1e1e1e" text-anchor="start" style="white-space: pre;" direction="ltr" dominant-baseline="text-before-edge">Why would this work?</text></g><g stroke-linecap="round"><g transform="translate(885.08984375 219.7890625) rotate(0 -30.936043345164535 -2.085588705064737)"><path d="M-0.63 0.55 C-11 0.1, -51.86 -2.48, -62.13 -3.2 M1.24 -0.21 C-9.29 -0.91, -52.39 -3.79, -63.11 -4.72" stroke="#1e1e1e" stroke-width="2" fill="none"></path></g><g transform="translate(885.08984375 219.7890625) rotate(0 -30.936043345164535 -2.085588705064737)"><path d="M-33.31 -12.94 C-41.14 -10.78, -50.87 -7.12, -63.54 -6.08 M-34.07 -12.85 C-41.37 -10.57, -50.92 -8.71, -63.97 -4.24" stroke="#1e1e1e" stroke-width="2" fill="none"></path></g><g transform="translate(885.08984375 219.7890625) rotate(0 -30.936043345164535 -2.085588705064737)"><path d="M-34.85 7.52 C-42.13 3.46, -51.38 0.89, -63.54 -6.08 M-35.61 7.61 C-42.67 4.16, -51.79 0.28, -63.97 -4.24" stroke="#1e1e1e" stroke-width="2" fill="none"></path></g></g><mask></mask><g stroke-linecap="round"><g transform="translate(881.7265625 221.9765625) rotate(0 -22.5831651376468 26.61689946088009)"><path d="M-0.06 1.15 C-7.3 9.81, -36.86 44.11, -44.07 52.53 M-1.55 0.7 C-8.91 8.96, -38.06 42.02, -45.1 50.72" stroke="#1e1e1e" stroke-width="2" fill="none"></path></g><g transform="translate(881.7265625 221.9765625) rotate(0 -22.5831651376468 26.61689946088009)"><path d="M-32.74 22.33 C-36.13 30.47, -40.13 35.15, -45.5 52.56 M-33.77 22.66 C-38.05 29.96, -41.21 38.52, -45.19 50.12" stroke="#1e1e1e" stroke-width="2" fill="none"></path></g><g transform="translate(881.7265625 221.9765625) rotate(0 -22.5831651376468 26.61689946088009)"><path d="M-17.11 35.63 C-24.42 40.47, -32.29 41.86, -45.5 52.56 M-18.14 35.96 C-26.73 39.6, -34.18 44.51, -45.19 50.12" stroke="#1e1e1e" stroke-width="2" fill="none"></path></g></g><mask></mask><g stroke-linecap="round"><g transform="translate(463.1171875000001 591.1267215374379) rotate(0 74.19994645725927 -0.18128692808033975)"><path d="M2.33 -0.56 C18.11 -1.2, 70.74 -6.49, 95.06 -5.27 C119.38 -4.05, 139.35 4.37, 148.25 6.77 M0.15 -3.34 C16.73 -4.74, 75.71 -12.15, 100.05 -9.93 C124.4 -7.71, 138.05 7.57, 146.2 9.98" stroke="#2f9e44" stroke-width="2" fill="none"></path></g><g transform="translate(463.1171875000001 591.1267215374379) rotate(0 74.19994645725927 -0.18128692808033975)"><path d="M119.44 2.22 C129.24 6.13, 136.7 7.75, 149.89 9.67 M119.56 5.69 C127.07 7.58, 135.48 6.72, 145.28 8.64" stroke="#2f9e44" stroke-width="2" fill="none"></path></g><g transform="translate(463.1171875000001 591.1267215374379) rotate(0 74.19994645725927 -0.18128692808033975)"><path d="M128.12 -13.52 C135.04 -4.55, 139.79 2.01, 149.89 9.67 M128.24 -10.04 C132.63 -3, 138.21 1.3, 145.28 8.64" stroke="#2f9e44" stroke-width="2" fill="none"></path></g></g><mask></mask><g transform="translate(870.296875 602.265625) rotate(0 113.162109375 16.100000000000023)"><text x="0" y="0" font-family="Helvetica, Segoe UI Emoji" font-size="28px" fill="#2f9e44" text-anchor="start" style="white-space: pre;" direction="ltr" dominant-baseline="text-before-edge">Now we're talking!</text></g><g stroke-linecap="round"><g transform="translate(860.90625 617.9700097471832) rotate(0 -43.113103349208814 -4.158292496589354)"><path d="M-1.18 -1.67 C-15.58 -3.27, -73.75 -10.27, -87.94 -11.92 M3.38 3.6 C-11.16 2.58, -74.59 -6.89, -89.6 -8.97" stroke="#2f9e44" stroke-width="2" fill="none"></path></g><g transform="translate(860.90625 617.9700097471832) rotate(0 -43.113103349208814 -4.158292496589354)"><path d="M-62.62 -13.6 C-69.33 -10.07, -75.96 -9.72, -92.59 -8.41 M-60.25 -16.46 C-66.66 -14.6, -74.64 -11.26, -90.16 -9.54" stroke="#2f9e44" stroke-width="2" fill="none"></path></g><g transform="translate(860.90625 617.9700097471832) rotate(0 -43.113103349208814 -4.158292496589354)"><path d="M-65.54 6.71 C-71.19 5.29, -77.12 0.67, -92.59 -8.41 M-63.17 3.85 C-68.52 0.55, -75.75 -1.31, -90.16 -9.54" stroke="#2f9e44" stroke-width="2" fill="none"></path></g></g><mask></mask><g transform="translate(196.765625 722.8015625) rotate(0 434.1552734375 23)"><text x="0" y="0" font-family="Helvetica, Segoe UI Emoji" font-size="20px" fill="#1e1e1e" text-anchor="start" style="white-space: pre;" direction="ltr" dominant-baseline="text-before-edge">Different data sets, models, and approaches necessitated different Experiments.</text><text x="0" y="23" font-family="Helvetica, Segoe UI Emoji" font-size="20px" fill="#1e1e1e" text-anchor="start" style="white-space: pre;" direction="ltr" dominant-baseline="text-before-edge">After finding a good approach, old experiments that are full of failed runs are manually cleaned up.</text></g><g stroke-linecap="round"><g transform="translate(181.8515625 745.609375) rotate(0 -50.84574350724489 -28.816183676160847)"><path d="M2.65 2.63 C-13.74 1.51, -84.87 1.42, -98.65 -8.25 C-112.44 -17.91, -83.21 -47.25, -80.04 -55.35 M0.64 1.58 C-16.05 1, -87.03 5.17, -100.72 -5.14 C-114.4 -15.44, -85.19 -52.05, -81.47 -60.26" stroke="#1e1e1e" stroke-width="2" fill="none"></path></g><g transform="translate(181.8515625 745.609375) rotate(0 -50.84574350724489 -28.816183676160847)"><path d="M-83.04 -34.1 C-86.35 -41.07, -81.83 -47.86, -81.93 -62.81 M-87.25 -35.23 C-86.97 -41.18, -84.69 -47.62, -80.49 -60.65" stroke="#1e1e1e" stroke-width="2" fill="none"></path></g><g transform="translate(181.8515625 745.609375) rotate(0 -50.84574350724489 -28.816183676160847)"><path d="M-98.31 -43.53 C-97.33 -48.07, -88.42 -52.15, -81.93 -62.81 M-102.52 -44.65 C-98.13 -48.15, -91.77 -52.06, -80.49 -60.65" stroke="#1e1e1e" stroke-width="2" fill="none"></path></g></g><mask></mask></svg>