<?xml version="1.0" standalone="no"?>
<!DOCTYPE svg PUBLIC "-//W3C//DTD SVG 1.1//EN" "http://www.w3.org/Graphics/SVG/1.1/DTD/svg11.dtd" >
<svg xmlns="http://www.w3.org/2000/svg">
<metadata>Generated by IcoMoon</metadata>
<defs>
<font id="db-icon" horiz-adv-x="512">
<font-face units-per-em="512" ascent="480" descent="-32" />
<missing-glyph horiz-adv-x="512" />
<glyph unicode="&#x20;" horiz-adv-x="256" d="" />
<glyph unicode="&#xe900;" glyph-name="arrow-down-circle" d="M242.906 134.324v226.676h26.316v-227.308l92.972 87.173 18.608-17.447-124.054-116.317-0.348 0.325-0.348-0.325-124.054 116.317 18.608 17.447 92.299-86.541zM256-32c141.385 0 256 114.615 256 256s-114.615 256-256 256c-141.385 0-256-114.615-256-256s114.615-256 256-256v0zM30 224c0 124.817 101.183 226 226 226s226-101.183 226-226c0-124.817-101.183-226-226-226s-226 101.183-226 226v0z" />
<glyph unicode="&#xe901;" glyph-name="arrow-down" d="M271.5-9h-30v489h30v-489zM256.481-32l-21.213 21.213 181.020 181.019 21.213-21.213-181.019-181.019zM277.5-10.787l-21.213-21.213-181.019 181.019 21.213 21.213 181.020-181.019z" />
<glyph unicode="&#xe902;" glyph-name="arrow-left-circle" d="M166.674 237.546h226.676v-26.316h-227.308l87.173-92.972-17.447-18.608-116.317 124.054 0.326 0.347-0.326 0.347 116.317 124.054 17.447-18.608-86.541-92.298zM512 224c0 141.385-114.615 256-256 256s-256-114.615-256-256c0-141.385 114.615-256 256-256s256 114.615 256 256zM30 224c0 124.817 101.183 226 226 226s226-101.183 226-226c0-124.817-101.183-226-226-226s-226 101.183-226 226v0z" />
<glyph unicode="&#xe903;" glyph-name="arrow-left" d="M23 208.5v30h489v-30h-489zM0 223.519l21.213 21.213 181.019-181.020-21.213-21.213-181.019 181.019zM21.213 202.5l-21.213 21.213 181.019 181.019 21.213-21.213-181.019-181.019z" />
<glyph unicode="&#xe904;" glyph-name="arrow-right-circle" d="M346.128 210.557h-226.676v26.316h227.308l-87.173 92.972 17.447 18.608 116.317-124.054-0.325-0.347 0.325-0.348-116.317-124.054-17.447 18.608 86.541 92.298zM256-32c141.385 0 256 114.615 256 256s-114.615 256-256 256c-141.385 0-256-114.615-256-256s114.615-256 256-256v0zM30 224c0 124.817 101.183 226 226 226s226-101.183 226-226c0-124.817-101.183-226-226-226s-226 101.183-226 226v0z" />
<glyph unicode="&#xe905;" glyph-name="arrow-right" d="M489.5 239.5v-30h-489v30h489zM512.5 224.481l-21.213-21.213-181.019 181.019 21.213 21.213 181.019-181.020zM491.287 245.5l21.213-21.213-181.019-181.019-21.213 21.213 181.019 181.019z" />
<glyph unicode="&#xe906;" glyph-name="arrow-up-circle" d="M269.896 313.778v-226.676h-26.316v227.308l-92.972-87.173-18.608 17.447 124.054 116.317 0.348-0.326 0.348 0.326 124.054-116.317-18.608-17.447-92.298 86.541zM256-32c141.385 0 256 114.615 256 256s-114.615 256-256 256c-141.385 0-256-114.615-256-256s114.615-256 256-256v0zM30 224c0 124.817 101.183 226 226 226s226-101.183 226-226c0-124.817-101.183-226-226-226s-226 101.183-226 226v0z" />
<glyph unicode="&#xe907;" glyph-name="arrow-up" d="M241 457h30v-489h-30v489zM256.019 480l21.213-21.213-181.019-181.019-21.213 21.213 181.019 181.019zM235 458.787l21.213 21.213 181.019-181.019-21.213-21.213-181.019 181.019z" />
<glyph unicode="&#xe908;" glyph-name="checkmark" d="M116.852 6.151l18.457-26.151 376.094 458.051-37.692 30.949-355.782-433.313 38.769-1.413-116.99 165.758-39.846-28.122z" />
<glyph unicode="&#xe909;" glyph-name="chevron-down" d="M0 340.988l21.213 21.213 255.972-255.973-21.213-21.213-255.972 255.972zM490.723 362.202l21.213-21.213-255.972-255.973-21.213 21.213 255.973 255.972z" />
<glyph unicode="&#xe90a;" glyph-name="chevron-left" d="M372.988 480l21.213-21.213-255.972-255.972-21.213 21.213 255.973 255.972zM394.202-10.723l-21.213-21.213-255.972 255.972 21.213 21.213 255.973-255.973z" />
<glyph unicode="&#xe90b;" glyph-name="chevron-right" d="M139.012-32l-21.213 21.213 255.972 255.972 21.213-21.213-255.972-255.973zM117.798 458.723l21.213 21.213 255.972-255.972-21.213-21.213-255.972 255.972z" />
<glyph unicode="&#xe90c;" glyph-name="chevron-up" d="M512 107.012l-21.213-21.213-255.972 255.972 21.213 21.213 255.973-255.973zM21.277 85.798l-21.213 21.213 255.972 255.973 21.213-21.213-255.972-255.973z" />
<glyph unicode="&#xe90d;" glyph-name="close" d="M0 458.787l21.213 21.213 490.893-490.894-21.213-21.213-490.894 490.894zM490.894 480l21.213-21.213-490.894-490.893-21.213 21.213 490.894 490.894z" />
<glyph unicode="&#xe90e;" glyph-name="dbce" d="M270.439 229.889l208.421 108.923 0.003-74.144-158.613-83.012 0.009-28.656 158.604 82.887v-58.306l-158.587-82.877 0.008-26.569 158.575 82.778v-74.122l-208.421-108.798v261.897zM241.326 230.569l-207.326 107.916v-74.122l0.085-0.045 0.178-113.543-0.263 0.137v-74.122l207.326-108.346v74.122l-141.272 73.827 0.025 113.437 141.248-73.816v74.555zM40.027 367.036l216.162-112.986 216.162 112.986-216.162 112.964-216.162-112.964z" />
<glyph unicode="&#xe90f;" glyph-name="facebook" d="M388.067-31.6h123.933c0 0 0 511.6 0 511.6h-512c0 0 0-511.6 0-511.6h312.873v186.839h-62.874v72.814h62.874v53.698c0 62.315 38.060 96.249 93.651 96.249 26.628 0 49.517-1.983 56.185-2.87v-65.126l-38.558-0.017c-30.231 0-36.084-14.366-36.084-35.447v-46.488h72.103l-9.39-72.814h-62.712z" />
<glyph unicode="&#xe910;" glyph-name="linkedin" d="M0 480h512v-512h-512v512zM157.654 52.233v231.951h-77.096v-231.951h77.096zM119.106 315.853c26.885 0 43.618 17.811 43.618 40.070-0.501 22.76-16.733 40.077-43.108 40.077-26.373 0-43.615-17.317-43.615-40.077 0-22.259 16.73-40.070 42.603-40.070h0.502zM277.096 52.606v129.531c0 6.933 0.501 13.858 2.537 18.813 5.574 13.851 18.259 28.196 39.556 28.196 27.897 0 39.057-21.27 39.057-52.452v-124.089h77.089v132.998c0 71.245-38.035 104.397-88.758 104.397-41.591 0-59.85-23.248-69.995-39.082l0.515 33.639h-77.096c1.012-21.764 0-231.951 0-231.951h77.094z" />
<glyph unicode="&#xe911;" glyph-name="menu" d="M0 410h512v-64h-512v64zM0 256h512v-64h-512v64zM0 102h512v-64h-512v64z" />
<glyph unicode="&#xe912;" glyph-name="newsletter" d="M73.143 480v-128h-73.143v-298.666c0-46.933 32.914-85.334 73.143-85.334h365.714c40.228 0 73.143 38.4 73.143 85.334v426.666h-438.857zM438.857 53.334h-365.714c32.915 0 73.143 42.666 73.143 85.334v256h292.572v-341.334zM402.286 181.334h-73.143v42.666h73.143v-42.666zM402.286 266.667h-73.143v42.666h73.143v-42.666zM402.286 96h-219.429v42.666h219.429v-42.666zM292.572 352v-170.667h-109.714v170.667h109.714z" />
<glyph unicode="&#xe913;" glyph-name="pdf" horiz-adv-x="420" d="M131.766 194.54c10.724 0 15.882 4.776 15.882 13.779s-5.555 12.322-15.882 12.322h-10.847v-26.101h10.847zM101.457 236.131h31.5c18.669 0 33.749-6.885 33.749-27.813 0-20.276-15.486-29.279-33.749-29.279h-12.037v-29.269h-19.463v86.36zM204.776 165.532c14.691 0 24.48 7.149 24.48 27.813 0 20.673-9.788 27.027-24.48 27.027h-3.703v-54.841h3.703zM181.619 236.137h24.347c26.341 0 43.281-13.116 43.281-42.793 0-29.666-16.94-43.577-42.224-43.577h-25.406v86.37zM265.606 236.136h54.392v-16.417h-34.939v-20.010h29.913v-16.426h-29.913v-33.515h-19.454zM0 480v-512h420v362l-150 150h-270zM30 450h225v-135h135v-317h-360v452z" />
<glyph unicode="&#xe914;" glyph-name="play-large" d="M492.351 224.131c0-130.601-105.875-236.472-236.472-236.472-130.606 0-236.482 105.871-236.482 236.472s105.876 236.472 236.482 236.472c130.597 0 236.472-105.873 236.472-236.472v0zM511.748 224.131c0 141.313-114.56 255.869-255.869 255.869-141.318 0-255.879-114.555-255.879-255.869s114.561-255.869 255.879-255.869c141.309 0 255.869 114.556 255.869 255.869v0zM379.115 228.398l-185.149-106.128v212.256z" />
<glyph unicode="&#xe915;" glyph-name="play" d="M256-32c141.385 0 256 114.615 256 256s-114.615 256-256 256c-141.385 0-256-114.615-256-256s114.615-256 256-256zM30 224c0 124.817 101.183 226 226 226s226-101.183 226-226c0-124.817-101.183-226-226-226s-226 101.183-226 226zM414 224l-256-128v256z" />
<glyph unicode="&#xe916;" glyph-name="plus-circle-filled" d="M241 239v139h30v-139h139v-30h-139v-139h-30v139h-139v30h139zM256-32c141.385 0 256 114.615 256 256s-114.615 256-256 256c-141.385 0-256-114.615-256-256s114.615-256 256-256z" />
<glyph unicode="&#xe917;" glyph-name="rss" d="M0 480h512v-512h-512v512zM121.8 44.6c24.742 0 44.8 20.058 44.8 44.8s-20.058 44.8-44.8 44.8c-24.742 0-44.8-20.058-44.8-44.8s20.058-44.8 44.8-44.8zM256.2 44.6h59.733c0 131.959-106.974 238.933-238.934 238.933v-59.733c98.97 0 179.2-80.231 179.2-179.2zM375.666 44.6h59.733c0 197.939-160.461 358.4-358.4 358.4v-59.733c164.949 0 298.666-133.718 298.666-298.666v0z" />
<glyph unicode="&#xe918;" glyph-name="search" d="M0 290c0 104.934 85.066 190 190 190s190-85.066 190-190c0-104.934-85.066-190-190-190s-190 85.066-190 190zM190 130c88.365 0 160 71.635 160 160s-71.635 160-160 160c-88.365 0-160-71.635-160-160s71.635-160 160-160zM288 149.574l42.426 42.426 182-182-42.426-42.427-182 182z" />
<glyph unicode="&#xe919;" glyph-name="share" d="M490.47 480l21.213-21.213-267.235-267.235-21.213 21.213 267.235 267.235zM482 480h30v-256h-30v256zM256 450v30h256v-30h-256zM0 224h256v-30h-256v30zM0-2h256v-30h-256v30zM0-32v256h30v-256h-30zM226-32v256h30v-256h-30z" />
<glyph unicode="&#xe91a;" glyph-name="slideshow-left" d="M351.623 480l35.038-39.536-191.984-216.291 193.324-217.562-35.363-38.61-227.64 256.171z" />
<glyph unicode="&#xe91b;" glyph-name="slideshow-right" d="M161.377 480l-35.037-39.536 191.984-216.291-193.325-217.562 35.363-38.61 227.64 256.171z" />
<glyph unicode="&#xe91c;" glyph-name="twitter-bird" d="M451.697 366.074c21.683 13.031 38.332 33.657 46.175 58.228-20.293-12.066-42.767-20.818-66.705-25.536-19.151 20.45-46.453 33.233-76.665 33.233-58.016 0-105.037-47.12-105.037-105.247 0-8.252 0.921-16.287 2.719-23.986-87.302 4.383-164.701 46.298-216.51 109.969-9.042-15.538-14.221-33.615-14.221-52.907 0-36.521 18.536-68.73 46.73-87.612-17.218 0.539-33.417 5.276-47.581 13.165-0.016-0.443-0.016-0.881-0.016-1.321 0-51.004 36.212-93.534 84.261-103.209-8.806-2.406-18.084-3.678-27.665-3.678-6.775 0-13.345 0.642-19.77 1.877 13.376-41.813 52.161-72.247 98.135-73.099-35.98-28.235-81.264-45.051-130.482-45.051-8.473 0-16.84 0.5-25.065 1.467 46.505-29.863 101.712-47.281 161.038-47.281 193.205 0 298.846 160.372 298.846 299.467 0 4.561-0.105 9.091-0.296 13.605 20.514 14.851 38.321 33.383 52.412 54.494-18.809-8.372-39.058-14.031-60.303-16.58v0z" />
<glyph unicode="&#xe91d;" glyph-name="twitter" d="M0 480h512v-512h-512v512zM392.899 323.039c15.116 9.085 26.724 23.464 32.191 40.594-14.147-8.412-29.815-14.514-46.504-17.802-13.351 14.257-32.385 23.168-53.447 23.168-40.445 0-73.226-32.85-73.226-73.373 0-5.753 0.642-11.355 1.895-16.721-60.862 3.056-114.821 32.276-150.94 76.664-6.304-10.832-9.915-23.435-9.915-36.884 0-25.46 12.922-47.915 32.578-61.078-12.004 0.376-23.297 3.678-33.17 9.178-0.011-0.309-0.011-0.614-0.011-0.921 0-35.558 25.245-65.207 58.742-71.952-6.139-1.677-12.607-2.564-19.286-2.564-4.724 0-9.303 0.447-13.782 1.308 9.325-29.149 36.364-50.367 68.414-50.961-25.083-19.683-56.653-31.407-90.965-31.407-5.907 0-11.74 0.349-17.474 1.023 32.421-20.818 70.908-32.962 112.267-32.962 134.692 0 208.34 111.803 208.34 208.773 0 3.18-0.073 6.338-0.207 9.484 14.301 10.353 26.716 23.273 36.539 37.99-13.113-5.837-27.229-9.781-42.040-11.559v0z" />
<glyph unicode="&#xe91e;" glyph-name="webinar" d="M434.716 362.606c4.752 6.786 14.106 8.433 20.894 3.675 6.781-4.752 8.428-14.105 3.675-20.885-4.752-6.786-14.106-8.433-20.894-3.681-6.781 4.751-8.428 14.104-3.675 20.89zM30 419v-30h452v-70h-452v-30h452v-230h-452v360h-30v-390h512v390z" />
</font>
</defs>
</svg>
