<!DOCTYPE svg PUBLIC "-//W3C//DTD SVG 1.1//EN" "http://www.w3.org/Graphics/SVG/1.1/DTD/svg11.dtd">
<!-- Uploaded to: SVG Repo, www.svgrepo.com, Transformed by: SVG Repo Mixer Tools -->
<svg fill="#43C9ED" width="800px" height="800px" viewBox="0 0 24 24" xmlns="http://www.w3.org/2000/svg" id="download-alt-2" class="icon glyph" stroke="#43C9ED" stroke-width="0.00024000000000000003">
<g id="SVGRepo_bgCarrier" stroke-width="0"/>
<g id="SVGRepo_tracerCarrier" stroke-linecap="round" stroke-linejoin="round" stroke="#CCCCCC" stroke-width="0.048"/>
<g id="SVGRepo_iconCarrier">
<path d="M15.82,17.43a1,1,0,0,0-1.41,0L13,18.84V12a1,1,0,0,0-2,0v6.7L9.59,17.29a1,1,0,0,0-1.41,0,1,1,0,0,0,0,1.42l3.18,3.18a1,1,0,0,0,1.42,0l3-3A1,1,0,0,0,15.82,17.43Z"/>
<path d="M22,12a5,5,0,0,1-5,5h-.24a1.49,1.49,0,0,0-.23-.27A2,2,0,0,0,14,16.48V12a2,2,0,0,0-4,0v4.34a2,2,0,0,0-2.53.25.39.39,0,0,0-.08.1A7.5,7.5,0,1,1,16.58,7c.14,0,.28,0,.42,0A5,5,0,0,1,22,12Z"/>
</g>
</svg>